<?xml version="1.0" encoding="utf-8"?>
<!-- Generator: Adobe Illustrator 24.3.0, SVG Export Plug-In . SVG Version: 6.00 Build 0)  -->
<svg version="1.1" id="Layer_1" xmlns="http://www.w3.org/2000/svg" xmlns:xlink="http://www.w3.org/1999/xlink" x="0px" y="0px"
	 viewBox="0 0 24 23" style="enable-background:new 0 0 24 23;" xml:space="preserve">
<style type="text/css">
	.st0{fill-rule:evenodd;clip-rule:evenodd;fill:#111111;}
</style>
<g id="Symbols">
	<g id="Logos-_x2F_-Linkedin-_x2F_-Isolated" transform="translate(0.000000, -1.000000)">
		<path id="linkedin" class="st0" d="M18.1,8.1c3.4,0,5.9,2.2,5.9,7l0,0l0,8.9h-5.1v-8.3c0-2.1-0.7-3.5-2.6-3.5
			c-1.4,0-2.3,1-2.6,1.9c-0.1,0.3-0.2,0.8-0.2,1.3l0,0v8.6H8.3l0,0l0,0c0,0,0,0,0-0.1l0-0.2c0-0.8,0-3.7,0-6.8l0-0.7
			c0-0.6,0-1.2,0-1.7l0-2.3c0-1.8,0-3.3,0-3.7l0,0h5.1v2.2C14.1,9.6,15.3,8.1,18.1,8.1z M5.4,8.5v15.5H0.3V8.5H5.4z M2.9,1
			c1.8,0,2.8,1.2,2.9,2.7c0,1.5-1.1,2.7-2.9,2.7l0,0h0C1.1,6.3,0,5.2,0,3.7C0,2.2,1.2,1,2.9,1z"/>
	</g>
</g>
</svg>
