<?xml version="1.0" encoding="utf-8"?>
<!-- Generator: Adobe Illustrator 24.3.0, SVG Export Plug-In . SVG Version: 6.00 Build 0)  -->
<svg version="1.1" id="Layer_1" xmlns="http://www.w3.org/2000/svg" xmlns:xlink="http://www.w3.org/1999/xlink" x="0px" y="0px"
	 viewBox="0 0 24 24" style="enable-background:new 0 0 24 24;" xml:space="preserve">
<style type="text/css">
	.st0{fill-rule:evenodd;clip-rule:evenodd;fill:#111111;}
</style>
<g id="Symbols">
	<g id="Logos-_x2F_-Linkedin-_x2F_-Contained">
		<path id="Combined-Shape" class="st0" d="M12,0c6.5,0,11.8,5.2,12,11.7l0,0.3c0,6.5-5.2,11.8-11.7,12L12,24C5.4,24,0,18.6,0,12
			C0,5.5,5.2,0.2,11.7,0L12,0z M15.5,9.3c-1.6,0-2.3,0.9-2.7,1.4l0,0V9.5h-3l0,0.1c0,0.3,0,1,0,1.8l0,0l0,1.6c0,1.9,0,4.1,0,4.9l0,0
			l0,0.2c0,0,0,0.1,0,0.1l0,0.1h3v-4.9l0-0.2c0-0.2,0-0.4,0.1-0.6c0.2-0.5,0.7-1.1,1.5-1.1c1.1,0,1.5,0.8,1.5,2l0,0v4.7h3l0-5l0-0.2
			C18.9,10.4,17.5,9.3,15.5,9.3z M8.2,9.5h-3v8.8h3V9.5z M6.7,5.3C5.7,5.3,5,5.9,5,6.8c0,0.8,0.7,1.5,1.7,1.5l0,0h0l0.2,0
			c0.9-0.1,1.5-0.7,1.5-1.5C8.4,5.9,7.7,5.3,6.7,5.3z"/>
	</g>
</g>
</svg>
