<?xml version="1.0" encoding="utf-8"?>
<!-- Generator: Adobe Illustrator 16.0.0, SVG Export Plug-In . SVG Version: 6.00 Build 0)  -->
<!DOCTYPE svg PUBLIC "-//W3C//DTD SVG 1.1//EN" "http://www.w3.org/Graphics/SVG/1.1/DTD/svg11.dtd">
<svg version="1.1" id="Layer_1" xmlns="http://www.w3.org/2000/svg" xmlns:xlink="http://www.w3.org/1999/xlink" x="0px" y="0px"
	 width="13.762px" height="132.901px" viewBox="-0.174 -31.867 13.762 132.901"
	 enable-background="new -0.174 -31.867 13.762 132.901" xml:space="preserve">
<g>
	<path fill="#FFFFFF" d="M10.725-22.135v-3.621H0.009v-2.542h10.716v-3.569h1.958v9.732H10.725z"/>
	<path fill="#FFFFFF" d="M-0.174-17.772c0-1.404,0.43-2.501,1.292-3.29c0.861-0.789,1.971-1.184,3.329-1.184h0.348
		c1.41,0,2.565,0.383,3.465,1.149c0.898,0.766,1.347,1.819,1.34,3.16c0,1.265-0.387,2.235-1.162,2.911
		c-0.774,0.677-1.817,1.015-3.129,1.015H3.995v-5.615l-0.052-0.026c-0.644,0.041-1.167,0.236-1.567,0.587s-0.6,0.872-0.6,1.563
		c0,0.569,0.058,1.052,0.174,1.449c0.116,0.398,0.293,0.809,0.53,1.232l-1.567,0.688c-0.307-0.377-0.565-0.888-0.774-1.532
		C-0.069-16.31-0.174-17.011-0.174-17.772z M7.642-17.937c0-0.511-0.175-0.904-0.526-1.18c-0.352-0.276-0.816-0.442-1.397-0.5
		L5.676-19.6v3.099h0.19c0.552,0,0.985-0.113,1.302-0.339C7.485-17.067,7.642-17.432,7.642-17.937z"/>
	<path fill="#FFFFFF" d="M1.776-8.082c0,0.441,0.131,0.792,0.396,1.053c0.264,0.261,0.616,0.392,1.058,0.392v2.315L3.177-4.304
		C2.226-4.281,1.429-4.634,0.788-5.366C0.147-6.097-0.174-7.002-0.174-8.082c0-1.393,0.444-2.469,1.335-3.229
		c0.891-0.76,2.03-1.14,3.417-1.14H4.84c1.381,0,2.52,0.379,3.417,1.136c0.896,0.758,1.344,1.83,1.344,3.217
		c0,1.149-0.33,2.075-0.992,2.776C7.948-4.62,7.077-4.281,5.997-4.304L5.945-4.321v-2.315c0.488,0,0.892-0.129,1.215-0.387
		c0.322-0.259,0.482-0.617,0.482-1.075c0-0.656-0.262-1.122-0.787-1.397C6.329-9.771,5.657-9.909,4.84-9.909H4.578
		c-0.836,0-1.512,0.138-2.028,0.414C2.034-9.22,1.776-8.749,1.776-8.082z"/>
	<path fill="#FFFFFF" d="M11.735,0.82H9.427v1.593H7.642V0.82H2.846c-0.366,0-0.627,0.077-0.783,0.23
		C1.906,1.205,1.827,1.406,1.827,1.655c0,0.134,0.008,0.25,0.022,0.349c0.015,0.099,0.039,0.212,0.074,0.339L0.087,2.552
		C0.001,2.296-0.065,2.049-0.109,1.808C-0.152,1.567-0.174,1.304-0.174,1.02c0-0.876,0.241-1.551,0.722-2.024
		C1.03-1.477,1.793-1.713,2.837-1.713h4.805v-1.375h1.785v1.375h2.308V0.82z"/>
	<path fill="#FFFFFF" d="M4.805,3.72c1.404,0,2.554,0.392,3.452,1.175c0.896,0.784,1.344,1.869,1.344,3.256
		c0,1.393-0.446,2.483-1.34,3.273c-0.895,0.789-2.046,1.184-3.456,1.184H4.622c-1.417,0-2.569-0.394-3.46-1.18
		s-1.335-1.873-1.335-3.261c0-1.392,0.444-2.482,1.335-3.268S3.206,3.72,4.622,3.72H4.805z M4.622,6.253
		c-0.859,0-1.548,0.151-2.068,0.453C2.035,7.007,1.776,7.495,1.776,8.167c0,0.657,0.26,1.137,0.783,1.442
		c0.522,0.303,1.21,0.457,2.063,0.457h0.183c0.836,0,1.517-0.154,2.045-0.462c0.528-0.308,0.791-0.792,0.791-1.453
		c0-0.657-0.265-1.136-0.795-1.441C6.315,6.406,5.635,6.253,4.805,6.253H4.622z"/>
	<path fill="#FFFFFF" d="M9.427,16.944l-1.349,0.112c0.481,0.313,0.855,0.7,1.122,1.158c0.268,0.458,0.4,0.972,0.4,1.541
		c0,0.951-0.306,1.694-0.918,2.229c-0.612,0.533-1.579,0.801-2.902,0.801H0.009v-2.551h5.763c0.673,0,1.15-0.118,1.432-0.354
		c0.282-0.233,0.423-0.587,0.423-1.057c0-0.377-0.072-0.709-0.215-0.997c-0.142-0.287-0.337-0.522-0.586-0.709H0.009v-2.542h9.418
		V16.944z"/>
	<path fill="#FFFFFF" d="M0.009,27.754v-2.541h9.418v2.541H0.009z M11.681,27.754v-2.541h1.907v2.541H11.681z"/>
	<path fill="#FFFFFF" d="M1.776,34.196c0,0.441,0.131,0.793,0.396,1.053c0.264,0.263,0.616,0.393,1.058,0.393v2.315l-0.052,0.018
		c-0.951,0.023-1.748-0.331-2.389-1.063c-0.641-0.73-0.961-1.636-0.961-2.716c0-1.393,0.444-2.469,1.335-3.229
		c0.891-0.76,2.03-1.14,3.417-1.14H4.84c1.381,0,2.52,0.379,3.417,1.136c0.896,0.758,1.344,1.83,1.344,3.217
		c0,1.148-0.33,2.074-0.992,2.775c-0.661,0.703-1.532,1.043-2.611,1.02l-0.052-0.018v-2.315c0.488,0,0.892-0.129,1.215-0.387
		c0.322-0.259,0.482-0.617,0.482-1.075c0-0.656-0.262-1.122-0.787-1.397s-1.197-0.413-2.015-0.413H4.578
		c-0.836,0-1.512,0.138-2.028,0.413S1.776,33.529,1.776,34.196z"/>
	<path fill="#FFFFFF" d="M3.343,51.531v0.051l9.34,3.257v3.316H0.009v-2.542h8.653l0.009-0.053l-8.662-3.133v-1.724l8.678-3.134
		l-0.008-0.053h-8.67v-2.541h12.674v3.333L3.343,51.531z"/>
	<path fill="#FFFFFF" d="M0.009,66.307c0.215-0.093,0.441-0.173,0.679-0.239C0.925,66,1.169,65.952,1.419,65.924
		c-0.458-0.262-0.838-0.606-1.14-1.035c-0.302-0.431-0.453-0.94-0.453-1.532c0-0.987,0.253-1.747,0.761-2.282
		c0.508-0.533,1.2-0.801,2.076-0.801c0.923,0,1.638,0.356,2.146,1.067c0.508,0.711,0.762,1.748,0.762,3.111v1.428h0.748
		c0.453,0,0.804-0.119,1.054-0.356c0.249-0.238,0.373-0.592,0.373-1.063c0-0.411-0.099-0.729-0.3-0.953
		c-0.2-0.224-0.474-0.335-0.822-0.335v-2.446l0.052-0.017c0.794-0.041,1.481,0.306,2.058,1.039c0.578,0.734,0.866,1.693,0.866,2.877
		c0,1.133-0.284,2.047-0.853,2.747c-0.568,0.699-1.385,1.048-2.446,1.048H2.411c-0.441,0-0.856,0.034-1.246,0.101
		c-0.388,0.066-0.774,0.173-1.157,0.317V66.307z M1.707,63.983c0,0.44,0.109,0.835,0.33,1.184c0.221,0.348,0.476,0.586,0.766,0.713
		h1.332v-1.428c0-0.539-0.133-0.947-0.4-1.223c-0.267-0.275-0.595-0.414-0.983-0.414c-0.319,0-0.574,0.104-0.762,0.31
		C1.801,63.331,1.707,63.616,1.707,63.983z"/>
	<path fill="#FFFFFF" d="M7.243,75.744l0.026-0.931c0-0.377-0.079-0.687-0.235-0.931c-0.158-0.244-0.378-0.43-0.662-0.558H0.009
		v-2.533h9.418v2.359l-1.393,0.113c0.493,0.22,0.878,0.506,1.153,0.856c0.275,0.352,0.413,0.756,0.413,1.215
		c0,0.128-0.01,0.245-0.03,0.353s-0.045,0.216-0.074,0.326L7.243,75.744z"/>
	<path fill="#FFFFFF" d="M4.457,86.04c-1.405,0-2.527-0.313-3.369-0.94s-1.262-1.532-1.262-2.716c0-0.551,0.116-1.031,0.348-1.441
		c0.231-0.408,0.571-0.756,1.018-1.039l-1.184-0.209v-2.15h13.58v2.533H8.427c0.377,0.272,0.666,0.6,0.87,0.979
		c0.203,0.38,0.304,0.816,0.304,1.31c0,1.195-0.451,2.106-1.354,2.733s-2.104,0.94-3.608,0.94H4.457z M4.639,83.506
		c0.917,0,1.644-0.134,2.181-0.404c0.537-0.27,0.806-0.729,0.806-1.38c0-0.394-0.083-0.728-0.249-1.001
		c-0.165-0.272-0.402-0.487-0.71-0.644H2.681c-0.285,0.156-0.502,0.373-0.653,0.648c-0.15,0.275-0.226,0.613-0.226,1.014
		c0,0.655,0.23,1.114,0.692,1.376c0.46,0.261,1.115,0.391,1.963,0.391H4.639z"/>
	<path fill="#FFFFFF" d="M0.009,90.702V88.16h13.58v2.542H0.009z"/>
	<path fill="#FFFFFF" d="M-0.174,97.273c0-1.403,0.43-2.5,1.292-3.289c0.861-0.789,1.971-1.184,3.329-1.184h0.348
		c1.41,0,2.565,0.383,3.465,1.148c0.898,0.767,1.347,1.819,1.34,3.16c0,1.265-0.387,2.235-1.162,2.911
		c-0.774,0.676-1.817,1.014-3.129,1.014H3.995V95.42l-0.052-0.026c-0.644,0.041-1.167,0.236-1.567,0.588s-0.6,0.872-0.6,1.563
		c0,0.568,0.058,1.052,0.174,1.449c0.116,0.397,0.293,0.808,0.53,1.232l-1.567,0.688c-0.307-0.378-0.565-0.889-0.774-1.532
		C-0.069,98.736-0.174,98.034-0.174,97.273z M7.642,97.109c0-0.512-0.175-0.904-0.526-1.181c-0.352-0.275-0.816-0.442-1.397-0.5
		l-0.043,0.019v3.099h0.19c0.552,0,0.985-0.114,1.302-0.34C7.485,97.979,7.642,97.613,7.642,97.109z"/>
</g>
</svg>
