<?xml version="1.0" encoding="utf-8"?>
<!-- Generator: Adobe Illustrator 16.0.0, SVG Export Plug-In . SVG Version: 6.00 Build 0)  -->
<!DOCTYPE svg PUBLIC "-//W3C//DTD SVG 1.1//EN" "http://www.w3.org/Graphics/SVG/1.1/DTD/svg11.dtd">
<svg version="1.1" xmlns="http://www.w3.org/2000/svg" xmlns:xlink="http://www.w3.org/1999/xlink" x="0px" y="0px"
	 width="155.425px" height="80.773px" viewBox="0 0 155.425 80.773" enable-background="new 0 0 155.425 80.773"
	 xml:space="preserve">
<g id="Layer_1">
	<g>
		<path fill="#323031" d="M19.807,23.636c1.36-0.595,2.55-0.85,3.485-0.85c9.096,0,16.746,7.821,16.746,17.852
			c0,12.496-9.945,21.336-21.337,21.336c-3.485,0-7.82-0.85-12.496-3.06V11.65c0-5.271-0.17-5.781-5.61-6.291V3.405
			c3.996-0.51,9.181-1.871,12.326-2.976v26.182L19.807,23.636z M12.921,51.093c0,1.275,0.17,2.125,0.51,2.89
			c0.511,1.7,3.061,4.675,7.566,4.761c7.055,0,11.561-6.036,11.561-15.896c0-9.691-5.95-15.301-13.006-15.301
			c-2.381,0-5.101,0.68-6.631,1.615V51.093z"/>
		<path fill="#323031" d="M73.187,61.974c-1.274,0-3.06-0.765-3.995-1.615c-1.105-1.19-1.615-2.38-2.04-3.825
			c-3.4,2.295-7.48,5.44-10.031,5.44c-6.035,0-10.2-5.015-10.2-10.371c0-4.166,2.21-6.801,6.886-8.416
			c5.1-1.7,11.306-3.995,13.176-5.525v-1.53c0-6.121-2.891-9.606-7.141-9.606c-1.7,0-2.976,0.68-3.825,1.7
			c-1.105,1.105-1.87,2.975-2.551,5.61c-0.34,1.36-1.274,1.955-2.465,1.955c-1.53,0-3.74-1.7-3.74-3.655
			c0-1.275,1.105-2.21,2.721-3.4c2.38-1.7,7.905-5.015,12.751-5.95c2.55,0,5.1,0.765,6.97,2.295
			c2.976,2.465,3.826,5.951,3.826,10.371v15.811c0,3.826,1.529,5.101,2.975,5.101c1.021,0,2.21-0.425,3.061-0.935l0.85,2.21
			L73.187,61.974z M66.981,40.552c-1.785,0.936-5.865,2.721-7.65,3.57c-3.315,1.53-5.186,3.146-5.186,6.206
			c0,4.42,3.4,6.545,6.035,6.545c2.21-0.085,5.186-1.53,6.801-3.06V40.552z"/>
		<path fill="#323031" d="M95.711,31.797c2.55-4.25,6.205-9.011,10.285-9.011c2.891,0,4.931,2.21,4.931,4.25
			c0,1.7-1.105,3.4-2.721,4.165c-1.02,0.425-1.785,0.34-2.295-0.17c-1.189-1.275-2.21-1.785-3.57-1.785
			c-2.21,0-4.93,2.55-6.801,7.311v15.556c0,5.61,0.426,6.121,6.971,6.631v2.21H82.96v-2.21c5.27-0.51,5.865-1.021,5.865-6.631
			V34.517c0-5.61-0.425-5.951-5.271-6.63v-1.871c4.165-0.68,7.905-1.7,11.985-3.485v9.266H95.711z"/>
		<path fill="#323031" d="M143.396,61.124c-3.911-4.335-9.266-11.136-13.941-16.831c-1.105-1.445-1.87-1.87-2.636-1.87
			c-0.34,0-0.765,0.085-1.359,0.255v9.436c0,5.61,0.765,6.121,6.205,6.631v2.21h-19.041v-2.21c5.695-0.51,6.205-1.19,6.205-6.631
			V11.905c0-5.61-0.425-6.036-5.61-6.545V3.405c4.08-0.425,8.926-1.871,12.241-2.976v40.038c2.55-0.51,4.08-1.615,5.355-2.975
			c1.87-1.87,4.42-5.186,6.035-7.48c1.7-2.635,1.445-3.315-2.55-3.74v-2.21l17.341-0.765v2.125c-5.865,1.02-7.65,1.87-10.966,5.015
			c-2.125,2.125-3.655,3.826-7.311,8.076c1.7,2.55,10.286,12.581,13.176,15.556c3.061,3.23,5.271,4.505,8.501,4.676v2.21
			L143.396,61.124z"/>
	</g>
</g>
<g id="_x3C_Layer_x3E_">
</g>
</svg>
