<?xml version="1.0" encoding="utf-8"?>
<!-- Generator: Adobe Illustrator 16.0.0, SVG Export Plug-In . SVG Version: 6.00 Build 0)  -->
<!DOCTYPE svg PUBLIC "-//W3C//DTD SVG 1.1//EN" "http://www.w3.org/Graphics/SVG/1.1/DTD/svg11.dtd">
<svg version="1.1" id="Layer_1" xmlns="http://www.w3.org/2000/svg" xmlns:xlink="http://www.w3.org/1999/xlink" x="0px" y="0px"
	 width="191.078px" height="85.554px" viewBox="0 0 191.078 85.554" enable-background="new 0 0 191.078 85.554"
	 xml:space="preserve">
<g id="Layer_1_1_">
	<g>
		<path fill="#323031" d="M39.783,25.694c-0.765,1.36-2.465,3.57-3.825,4.335l-4.846-0.255c1.615,1.87,2.551,4.506,2.551,7.564
			c0,9.182-7.651,13.603-14.877,13.603c-1.444,0-2.975-0.255-4.335-0.425c-1.19,0.765-2.55,2.295-2.55,3.483
			c0,1.7,1.529,3.315,5.355,3.315c3.06,0,6.12-0.085,8.925-0.085c5.271,0,12.241,1.7,12.241,10.03
			c0,8.586-9.945,16.831-21.252,16.831c-9.436,0-14.621-5.524-14.706-10.37c0-1.87,0.766-3.485,2.04-4.761
			c1.7-1.7,5.016-4.421,7.056-5.951c-3.06-0.935-5.185-2.89-6.29-4.675c-0.766-1.274-1.021-2.721-0.936-3.569
			c3.4-1.275,6.121-3.485,7.481-5.187c-3.826-1.615-7.481-5.61-7.481-11.391c0-9.691,8.671-14.111,15.217-14.111
			c2.89,0,5.695,0.765,8.16,2.125c4.166-0.17,8.501-0.68,11.562-1.189L39.783,25.694z M13.091,65.052
			c-2.21,1.785-3.91,4.165-3.91,6.631c0,4.591,4.931,8.075,11.221,8.075c8.076,0,12.241-4.166,12.241-9.437
			c0-2.89-1.445-5.015-3.91-6.035c-2.125-0.85-4.591-1.104-8.161-1.104C16.491,63.183,14.621,63.692,13.091,65.052z M11.646,36.83
			c0,6.631,3.23,11.392,7.991,11.392c3.74-0.086,7.056-3.4,7.056-10.115c0-6.716-3.146-11.478-7.991-11.478
			C14.961,26.629,11.646,30.199,11.646,36.83z"/>
		<path fill="#323031" d="M55.76,33.09c2.55-4.25,6.205-9.011,10.285-9.011c2.891,0,4.931,2.21,4.931,4.25
			c0,1.7-1.105,3.4-2.721,4.166c-1.02,0.425-1.785,0.34-2.295-0.171c-1.189-1.274-2.21-1.784-3.57-1.784
			c-2.21,0-4.93,2.55-6.801,7.312v15.556c0,5.61,0.426,6.121,6.971,6.631v2.21H43.009v-2.21c5.27-0.51,5.865-1.021,5.865-6.631
			V35.81c0-5.61-0.425-5.95-5.271-6.63v-1.87c4.165-0.682,7.905-1.7,11.985-3.485v9.266L55.76,33.09L55.76,33.09z"/>
		<path fill="#323031" d="M110.925,43.035c0,13.688-10.03,20.232-18.446,20.232c-11.646,0-18.616-9.353-18.616-18.787
			c0-14.026,10.881-20.401,18.616-20.401C103.02,24.079,110.925,32.495,110.925,43.035z M81.768,41.76
			c0,10.712,4.676,18.701,11.646,18.701c5.27,0,9.605-3.91,9.605-15.557c0-9.945-3.995-18.021-11.391-18.021
			C86.358,26.885,81.768,32.154,81.768,41.76z"/>
		<path fill="#323031" d="M171.871,27.225c-4.25,0.68-5.016,1.699-6.801,6.375c-2.551,6.716-6.291,18.021-10.201,29.583h-2.38
			c-3.399-9.183-6.886-17.513-10.37-26.438c-3.23,8.501-6.716,17.001-10.031,26.438h-2.465c-3.061-10.116-6.291-20.147-9.775-30.349
			c-1.53-4.421-2.295-5.016-6.376-5.609V25.1h17.597v2.125c-5.102,0.85-5.525,1.358-4.25,5.186
			c1.955,6.545,4.08,13.261,6.205,19.806h0.17c3.146-8.159,6.291-16.916,9.861-26.69h2.21c3.146,8.841,6.631,17.852,10.2,26.947
			h0.17c1.871-5.866,4.25-13.263,5.781-19.553c1.104-4.421,0.594-4.931-4.932-5.694V25.1h15.387V27.225L171.871,27.225z"/>
		<path fill="#323031" d="M172.8,62.247v-2.21c5.355-0.51,6.121-1.021,6.121-6.631V13.198c0-5.78-0.51-6.035-5.865-6.461v-2.04
			c4.42-0.51,9.689-1.955,12.581-2.975v51.684c0,5.61,0.68,6.121,6.12,6.631v2.21H172.8z"/>
	</g>
</g>
<g id="_x3C_Layer_x3E_">
</g>
</svg>
