<?xml version="1.0" encoding="utf-8"?>
<!-- Generator: Adobe Illustrator 16.0.0, SVG Export Plug-In . SVG Version: 6.00 Build 0)  -->
<!DOCTYPE svg PUBLIC "-//W3C//DTD SVG 1.1//EN" "http://www.w3.org/Graphics/SVG/1.1/DTD/svg11.dtd">
<svg version="1.1" id="Layer_1" xmlns="http://www.w3.org/2000/svg" xmlns:xlink="http://www.w3.org/1999/xlink" x="0px" y="0px"
	 width="713px" height="357px" viewBox="0 0 713 357" enable-background="new 0 0 713 357" xml:space="preserve">
<g id="_x3C_Layer_x3E_">
</g>
<g>
	<g>
		<path fill="#323031" d="M14.713,20.635c-1.66,1.8-3.234,2.729-3.967,2.729c-0.703,0-0.956-0.76-0.449-2.925
			c0.534-2.109,1.012-4.162,1.518-6.244c0.396-1.604,0.226-2.025-0.224-2.025c-1.237,0-4.501,3.488-5.907,5.878
			c-0.337,1.378-0.76,3.065-1.098,4.753c-0.73,0.141-1.488,0.365-2.023,0.563l-0.17-0.226c0.76-3.038,1.604-6.413,2.278-9.534
			c0.226-0.899,0.142-1.125-0.028-1.125c-0.253,0-1.125,0.59-1.827,1.265l-0.366-0.675c1.519-1.659,3.178-2.672,3.966-2.672
			c0.647,0,0.76,0.956,0.226,3.122L6.05,15.966h0.056c1.913-2.616,3.994-4.247,5.175-4.95c0.731-0.422,1.322-0.619,1.884-0.619
			c0.677,0,1.464,0.422,0.619,4.022c-0.449,1.913-0.9,3.881-1.377,5.85c-0.169,0.759-0.142,1.013,0.057,1.013
			c0.252,0,1.012-0.506,1.855-1.322L14.713,20.635z"/>
		<path fill="#323031" d="M16.848,18.975c0-3.656,1.94-6.44,4.275-7.678c1.013-0.534,2.165-0.9,3.037-0.9
			c2.335,0,3.74,1.604,3.74,4.388c0,2.418-1.039,5.174-3.008,6.806c-1.21,1.013-2.757,1.772-4.332,1.772
			C17.888,23.363,16.848,21.254,16.848,18.975z M22.473,22.069c1.519-0.647,3.066-3.628,3.066-7.229
			c0-2.277-0.984-3.375-2.278-3.375c-0.423,0-0.759,0.113-1.069,0.254c-1.096,0.477-2.981,2.784-2.981,7.115
			c0,2.082,0.872,3.404,2.363,3.404C21.91,22.238,22.191,22.182,22.473,22.069z"/>
		<path fill="#323031" d="M42.721,20.494c-1.35,1.632-3.206,2.87-4.078,2.87c-0.59,0-0.984-0.535-0.422-2.981
			c0.226-0.984,0.338-1.547,0.535-2.475H38.7c-1.379,1.828-3.038,3.543-4.529,4.584c-0.787,0.563-1.603,0.872-2.278,0.872
			c-0.76,0-1.66-0.535-0.928-3.573c0.506-2.166,1.013-4.331,1.518-6.468c0.17-0.703,0.143-0.957-0.084-0.957
			c-0.197,0-0.984,0.563-1.969,1.35l-0.308-0.675c1.63-1.631,3.374-2.644,4.134-2.644c0.646,0,0.759,0.563,0.31,2.447
			c-0.507,2.221-1.014,4.5-1.548,6.75c-0.31,1.378-0.084,1.856,0.338,1.856c1.574,0,4.725-3.768,5.822-5.822
			c0.31-1.293,0.647-2.784,1.012-4.5l1.94-0.731h0.31c-0.759,2.982-1.49,6.132-2.193,9.788c-0.168,0.872-0.113,1.097,0.084,1.097
			c0.253,0,1.266-0.675,2.025-1.463L42.721,20.494z"/>
		<path fill="#323031" d="M57.092,20.635c-1.66,1.8-3.234,2.729-3.967,2.729c-0.703,0-0.955-0.76-0.449-2.925
			c0.535-2.109,1.012-4.162,1.519-6.244c0.394-1.604,0.225-2.025-0.226-2.025c-1.236,0-4.5,3.488-5.906,5.878
			c-0.337,1.378-0.76,3.065-1.097,4.753c-0.731,0.141-1.49,0.365-2.024,0.563l-0.169-0.226c0.759-3.038,1.604-6.413,2.277-9.534
			c0.226-0.899,0.142-1.125-0.028-1.125c-0.252,0-1.124,0.59-1.827,1.265l-0.366-0.675c1.52-1.659,3.18-2.672,3.967-2.672
			c0.646,0,0.758,0.956,0.224,3.122l-0.591,2.447h0.057c1.913-2.616,3.995-4.247,5.174-4.95c0.733-0.422,1.322-0.619,1.886-0.619
			c0.675,0,1.462,0.422,0.618,4.022c-0.449,1.913-0.898,3.881-1.378,5.85c-0.167,0.759-0.14,1.013,0.057,1.013
			c0.253,0,1.013-0.506,1.856-1.322L57.092,20.635z"/>
	</g>
	<g>
		<path fill="#323031" d="M7.006,119.173c1.153-1.435,4.359-5.541,4.359-7.426c0-0.477-0.113-0.928-0.31-1.237
			c-0.084-0.225-0.084-0.45,0-0.703c0.196-0.449,0.675-0.815,1.209-0.815c0.676,0,1.182,0.647,1.21,1.604
			c0,0.871-0.45,1.968-1.744,3.769c-1.631,2.278-4.135,5.513-5.822,7.594H5.149c-0.084-2.616-0.394-7.032-0.534-8.747
			c-0.141-1.688-0.311-2.167-0.507-2.167c-0.253,0-0.759,0.451-1.659,1.491L2,111.916c1.012-1.462,2.446-2.925,3.347-2.925
			c0.73,0,1.097,1.068,1.237,3.123c0.113,2.475,0.281,4.752,0.365,7.06H7.006z"/>
		<path fill="#323031" d="M23.541,118.779c-2.476,2.644-4.585,3.178-5.934,3.178c-1.295,0-3.095-0.76-3.095-4.107
			c0-2.644,1.153-5.596,3.375-7.284c1.21-0.928,2.7-1.576,3.882-1.576c1.49,0,2.475,1.041,2.475,2.25
			c0,2.785-4.725,4.303-7.425,4.979c-0.056,0.337-0.056,0.619-0.056,0.899c0,1.52,0.478,3.179,2.192,3.179
			c1.183,0,2.7-0.788,4.106-2.166L23.541,118.779z M19.576,110.482c-0.76,0.421-2.166,1.716-2.646,4.866
			c4.023-1.069,5.204-2.363,5.204-3.656c0-0.984-0.59-1.547-1.406-1.547C20.335,110.145,19.886,110.285,19.576,110.482z"/>
		<path fill="#323031" d="M25.902,111.747c1.434-1.603,3.178-2.756,3.938-2.756c0.703,0,0.731,1.294,0.309,3.263l-0.28,1.405h0.084
			c1.435-2.756,3.094-4.668,4.219-4.668c0.478,0,0.956,0.31,1.21,0.703c0.196,0.365,0.196,0.815-0.028,1.209
			c-0.197,0.338-0.478,0.619-0.731,0.817c-0.254,0.168-0.479,0.168-0.619,0.027c-0.309-0.336-0.646-0.477-0.956-0.477
			c-0.338,0-0.787,0.281-1.435,1.18c-0.618,0.901-1.49,2.223-1.997,3.488c-0.45,1.884-0.788,3.657-1.125,5.513
			c-0.618,0.085-1.378,0.282-1.996,0.507l-0.226-0.225c0.732-3.01,1.519-6.469,2.053-9.478c0.169-0.929,0.169-1.21-0.057-1.21
			c-0.252,0-1.152,0.563-1.996,1.351L25.902,111.747z"/>
		<path fill="#323031" d="M37.572,102.551c2.194-0.253,3.742-0.957,4.192-0.957c0.28,0,0.28,0.282,0.139,0.872
			c-0.956,3.853-1.715,7.145-2.503,10.745h0.057c2.418-2.953,4.811-4.219,6.104-4.219c1.237,0,1.996,1.237,1.996,3.094
			c0,3.094-1.855,6.666-4.331,8.325c-1.688,1.152-3.206,1.547-4.246,1.547c-0.9,0-1.829-0.507-2.25-1.21
			c-0.422-0.675-0.534-1.688-0.169-3.515c0.788-3.854,1.771-8.101,2.701-12.629c0.252-1.266,0.167-1.35-0.93-1.35l-0.815-0.028
			L37.572,102.551z M41.849,120.242c1.659-0.984,3.374-4.247,3.374-7.679c0-1.434-0.421-2.025-0.955-2.025
			c-0.986,0-3.32,1.8-5.12,4.36c-0.168,0.506-0.337,1.238-0.507,2.193c-0.505,2.757,0.592,3.572,1.745,3.572
			C40.863,120.663,41.426,120.495,41.849,120.242z"/>
	</g>
	<g>
		<path fill="#323031" d="M105.318,23.026v-0.76c2.559-0.197,2.7-0.421,2.7-2.447V8.991c0-1.462-0.114-1.603-1.351-1.66l-1.35-0.056
			V6.628c1.799-0.31,3.459-0.844,5.006-1.462v14.653c0,2.026,0.169,2.25,2.729,2.447v0.76H105.318z"/>
		<path fill="#323031" d="M117.382,21.731c0-0.899,0.675-1.603,1.574-1.603c0.9,0,1.576,0.704,1.576,1.603
			c0,0.984-0.676,1.632-1.576,1.632C118.057,23.363,117.382,22.716,117.382,21.731z"/>
	</g>
	<g>
		<path fill="#323031" d="M142.721,23.363c-0.422,0-1.013-0.253-1.321-0.535c-0.366-0.394-0.536-0.787-0.677-1.265
			c-1.124,0.759-2.475,1.8-3.318,1.8c-1.997,0-3.375-1.659-3.375-3.432c0-1.378,0.732-2.25,2.277-2.785
			c1.689-0.562,3.742-1.321,4.36-1.828v-0.506c0-2.025-0.956-3.178-2.362-3.178c-0.563,0-0.984,0.226-1.266,0.562
			c-0.365,0.367-0.618,0.985-0.844,1.856c-0.112,0.451-0.422,0.647-0.815,0.647c-0.507,0-1.237-0.563-1.237-1.209
			c0-0.422,0.365-0.731,0.9-1.125c0.787-0.563,2.615-1.659,4.218-1.969c0.843,0,1.688,0.253,2.307,0.76
			c0.984,0.815,1.265,1.968,1.265,3.431v5.231c0,1.266,0.508,1.688,0.984,1.688c0.338,0,0.731-0.141,1.013-0.31l0.281,0.732
			L142.721,23.363z M140.667,16.276c-0.591,0.31-1.94,0.899-2.531,1.181c-1.097,0.507-1.715,1.041-1.715,2.053
			c0,1.463,1.124,2.167,1.997,2.167c0.731-0.028,1.715-0.507,2.249-1.013V16.276z"/>
		<path fill="#323031" d="M152.082,23.026v-0.732c1.773-0.168,2.026-0.337,2.026-2.194V6.797c0-1.912-0.169-1.997-1.941-2.137V3.984
			c1.464-0.169,3.207-0.646,4.163-0.984v17.1c0,1.857,0.225,2.026,2.025,2.194v0.732H152.082z"/>
		<path fill="#323031" d="M172.078,16.669c0,4.527-3.318,6.694-6.103,6.694c-3.854,0-6.159-3.094-6.159-6.216
			c0-4.641,3.6-6.75,6.159-6.75C169.464,10.397,172.078,13.182,172.078,16.669z M162.432,16.247c0,3.543,1.547,6.188,3.854,6.188
			c1.744,0,3.179-1.293,3.179-5.147c0-3.291-1.322-5.962-3.77-5.962C163.95,11.326,162.432,13.069,162.432,16.247z"/>
		<path fill="#323031" d="M181.668,23.026v-0.732c1.658-0.168,1.856-0.394,1.856-2.334v-4.697c0-1.94-0.676-3.207-2.56-3.207
			c-1.125,0-2.223,0.704-3.065,1.435V20.1c0,1.913,0.168,2.026,1.827,2.194v0.732h-6.104v-0.732
			c1.913-0.196,2.054-0.337,2.054-2.194v-5.821c0-1.8-0.168-1.884-1.687-2.166v-0.647c1.349-0.253,2.671-0.59,3.909-1.153v2.25
			c0.562-0.422,1.181-0.844,1.884-1.322c0.787-0.506,1.518-0.844,2.335-0.844c2.221,0,3.628,1.547,3.628,4.275V20.1
			c0,1.913,0.141,2.026,1.771,2.194v0.732H181.668z"/>
		<path fill="#323031" d="M201.156,10.931c-0.254,0.45-0.816,1.182-1.266,1.435l-1.604-0.084c0.535,0.618,0.844,1.491,0.844,2.503
			c0,3.038-2.531,4.5-4.922,4.5c-0.479,0-0.984-0.084-1.435-0.141c-0.394,0.253-0.844,0.76-0.844,1.154
			c0,0.563,0.507,1.097,1.771,1.097c1.014,0,2.025-0.028,2.954-0.028c1.742,0,4.049,0.563,4.049,3.318c0,2.841-3.289,5.57-7.03,5.57
			c-3.122,0-4.837-1.829-4.865-3.432c0-0.619,0.253-1.153,0.673-1.575c0.563-0.563,1.661-1.462,2.336-1.969
			c-1.014-0.31-1.715-0.957-2.082-1.547c-0.254-0.422-0.336-0.899-0.309-1.181c1.125-0.422,2.024-1.153,2.476-1.716
			c-1.267-0.534-2.476-1.855-2.476-3.769c0-3.205,2.868-4.668,5.035-4.668c0.955,0,1.883,0.253,2.699,0.704
			c1.379-0.056,2.813-0.225,3.826-0.394L201.156,10.931z M192.324,23.954c-0.731,0.591-1.293,1.378-1.293,2.194
			c0,1.519,1.631,2.672,3.712,2.672c2.673,0,4.051-1.378,4.051-3.122c0-0.956-0.479-1.659-1.294-1.998
			c-0.704-0.281-1.519-0.365-2.701-0.365C193.449,23.335,192.83,23.504,192.324,23.954z M191.847,14.616
			c0,2.194,1.068,3.769,2.643,3.769c1.238-0.028,2.335-1.125,2.335-3.347s-1.04-3.797-2.643-3.797
			C192.943,11.241,191.847,12.422,191.847,14.616z"/>
		<path fill="#323031" d="M219.012,20.494c-1.237,1.632-3.121,2.87-4.78,2.87c-3.545,0-5.626-2.87-5.626-5.878
			c0-2.166,0.929-4.051,2.813-5.513c1.463-1.125,3.15-1.575,4.248-1.575c1.124,0,2.053,0.366,2.502,0.731
			c0.366,0.31,0.45,0.563,0.45,0.872c0,0.59-0.618,1.209-0.929,1.209c-0.141,0-0.281-0.085-0.534-0.31
			c-0.845-0.787-1.828-1.153-2.812-1.153c-1.857,0-3.487,1.547-3.487,4.5c0,3.91,2.671,5.203,4.247,5.203
			c1.207,0,2.137-0.337,3.431-1.546L219.012,20.494z"/>
		<path fill="#323031" d="M224.578,13.379c0.845-1.407,2.055-2.982,3.404-2.982c0.956,0,1.631,0.731,1.631,1.406
			c0,0.563-0.366,1.125-0.9,1.378c-0.338,0.141-0.592,0.112-0.76-0.057c-0.393-0.42-0.73-0.59-1.181-0.59
			c-0.73,0-1.632,0.844-2.251,2.418V20.1c0,1.857,0.142,2.026,2.308,2.194v0.732h-6.47v-0.732c1.744-0.168,1.941-0.337,1.941-2.194
			v-5.821c0-1.856-0.141-1.969-1.743-2.194v-0.619c1.378-0.225,2.614-0.562,3.964-1.153v3.066H224.578z"/>
		<path fill="#323031" d="M244.098,11.438c-1.492,0.225-1.745,0.449-2.504,2.053c-0.704,1.491-1.576,3.824-3.517,8.466
			c-1.885,4.5-2.503,6.104-2.896,7.622c-0.142,0.534-0.507,0.675-0.901,0.675c-0.788,0-1.603-0.675-1.603-1.35
			c0-0.45,0.253-0.703,0.73-1.013c0.872-0.563,1.434-1.266,2.082-2.503c0.534-0.984,0.76-1.575,0.872-1.941
			c0.14-0.421,0.14-0.787-0.028-1.266c-1.125-3.207-2.391-6.609-3.234-8.606c-0.592-1.547-0.872-1.913-2.42-2.137v-0.703h5.71v0.703
			c-1.294,0.225-1.434,0.506-1.068,1.547l2.559,7.06c0.787-1.913,1.998-5.231,2.588-7.003c0.338-1.069,0.141-1.378-1.462-1.603
			v-0.703h5.092V11.438z"/>
		<path fill="#323031" d="M264.513,22.351c-1.294,0.196-2.729,0.591-4.135,1.013l-0.168-0.168v-1.998
			c-0.647,0.479-1.296,0.985-2.083,1.464c-0.815,0.477-1.406,0.703-2.165,0.703c-1.884,0-3.487-1.153-3.487-4.191V13.66
			c0-1.547-0.112-1.66-1.715-1.969v-0.646c1.321-0.085,2.671-0.253,4.021-0.507c-0.084,0.873-0.084,2.194-0.084,4.107v3.768
			c0,2.503,1.209,3.178,2.477,3.178c1.011,0,2.079-0.422,3.037-1.35v-6.554c0-1.603-0.17-1.715-2.195-1.997v-0.646
			c1.463-0.085,2.927-0.197,4.417-0.507v9.394c0,1.406,0.225,1.604,1.293,1.659l0.788,0.057V22.351z"/>
		<path fill="#323031" d="M271.035,22.997c-0.479,0.253-0.93,0.366-1.182,0.366c-1.771,0-2.757-1.125-2.757-3.347v-8.185h-1.94
			l-0.112-0.281l0.759-0.816h1.294V8.682l1.829-1.857l0.393,0.056v3.854h3.18c0.253,0.281,0.167,0.9-0.17,1.097h-3.01v7.229
			c0,2.278,0.93,2.7,1.632,2.7c0.704,0,1.35-0.281,1.744-0.478l0.253,0.731L271.035,22.997z"/>
		<path fill="#323031" d="M279.331,22.997c-0.478,0.253-0.929,0.366-1.181,0.366c-1.773,0-2.758-1.125-2.758-3.347v-8.185h-1.94
			l-0.112-0.281l0.76-0.816h1.293V8.682l1.829-1.857l0.394,0.056v3.854h3.178c0.253,0.281,0.17,0.9-0.168,1.097h-3.01v7.229
			c0,2.278,0.928,2.7,1.632,2.7c0.702,0,1.35-0.281,1.743-0.478l0.254,0.731L279.331,22.997z"/>
		<path fill="#323031" d="M292.408,20.635c-1.771,2.222-3.713,2.729-4.585,2.729c-3.459,0-5.484-2.813-5.484-5.991
			c0-1.94,0.703-3.657,1.856-4.923c1.153-1.293,2.672-2.053,4.135-2.053c2.334,0,4.219,2.082,4.219,4.275
			c0,0.562-0.141,0.788-0.646,0.9c-0.479,0.084-3.994,0.365-7.341,0.478c0.026,3.825,2.222,5.4,4.19,5.4
			c1.125,0,2.193-0.449,3.206-1.406L292.408,20.635z M284.701,14.898c1.576,0,3.122-0.029,4.754-0.085
			c0.506,0,0.674-0.168,0.674-0.563c0.029-1.462-0.927-2.812-2.475-2.812C286.361,11.438,285.123,12.619,284.701,14.898z"/>
		<path fill="#323031" d="M298.396,13.379c0.844-1.407,2.053-2.982,3.402-2.982c0.957,0,1.632,0.731,1.632,1.406
			c0,0.563-0.365,1.125-0.899,1.378c-0.338,0.141-0.592,0.112-0.761-0.057c-0.392-0.42-0.73-0.59-1.18-0.59
			c-0.731,0-1.632,0.844-2.251,2.418V20.1c0,1.857,0.141,2.026,2.307,2.194v0.732h-6.469v-0.732c1.743-0.168,1.94-0.337,1.94-2.194
			v-5.821c0-1.856-0.141-1.969-1.743-2.194v-0.619c1.377-0.225,2.615-0.562,3.965-1.153v3.066H298.396z"/>
		<path fill="#323031" d="M314.454,20.635c-1.771,2.222-3.712,2.729-4.584,2.729c-3.46,0-5.484-2.813-5.484-5.991
			c0-1.94,0.702-3.657,1.856-4.923c1.152-1.293,2.671-2.053,4.134-2.053c2.335,0,4.22,2.082,4.22,4.275
			c0,0.562-0.142,0.788-0.648,0.9c-0.478,0.084-3.992,0.365-7.34,0.478c0.027,3.825,2.222,5.4,4.19,5.4
			c1.126,0,2.194-0.449,3.206-1.406L314.454,20.635z M306.748,14.898c1.574,0,3.122-0.029,4.752-0.085
			c0.507,0,0.676-0.168,0.676-0.563c0.029-1.462-0.928-2.812-2.475-2.812C308.406,11.438,307.17,12.619,306.748,14.898z"/>
		<path fill="#323031" d="M329.978,22.294c-0.619,0.113-2.729,0.479-4.359,1.069v-1.828l-1.716,1.012
			c-1.097,0.648-1.856,0.816-2.194,0.816c-2.249,0-5.202-2.054-5.202-5.991c0-3.91,3.43-6.976,7.256-6.976
			c0.394,0,1.209,0.085,1.856,0.31V6.741c0-1.856-0.142-1.94-2.166-2.081V3.984c1.462-0.197,3.347-0.619,4.389-0.984v16.791
			c0,1.463,0.196,1.604,1.236,1.716l0.9,0.084V22.294z M325.618,12.872c-0.676-0.985-1.829-1.434-2.897-1.434
			c-1.293,0-3.656,1.097-3.656,5.175c0,3.347,2.054,4.978,3.854,4.978c1.014,0,2.024-0.449,2.7-0.956V12.872z"/>
		<path fill="#323031" d="M343.221,10.678c0.45-0.196,0.844-0.281,1.153-0.281c3.011,0,5.541,2.588,5.541,5.907
			c0,4.134-3.29,7.06-7.06,7.06c-1.153,0-2.587-0.281-4.136-1.013V6.713c0-1.744-0.056-1.913-1.855-2.081V3.984
			c1.321-0.169,3.038-0.619,4.079-0.984v8.663L343.221,10.678z M340.943,19.763c0,0.422,0.056,0.703,0.169,0.957
			c0.168,0.562,1.012,1.546,2.504,1.574c2.333,0,3.824-1.996,3.824-5.259c0-3.207-1.969-5.063-4.304-5.063
			c-0.788,0-1.688,0.225-2.193,0.534V19.763z"/>
		<path fill="#323031" d="M363.975,11.438c-1.49,0.225-1.742,0.449-2.503,2.053c-0.702,1.491-1.575,3.824-3.516,8.466
			c-1.885,4.5-2.503,6.104-2.896,7.622c-0.142,0.534-0.508,0.675-0.901,0.675c-0.787,0-1.603-0.675-1.603-1.35
			c0-0.45,0.253-0.703,0.73-1.013c0.872-0.563,1.436-1.266,2.082-2.503c0.534-0.984,0.76-1.575,0.872-1.941
			c0.14-0.421,0.14-0.787-0.028-1.266c-1.124-3.207-2.391-6.609-3.234-8.606c-0.591-1.547-0.872-1.913-2.42-2.137v-0.703h5.71v0.703
			c-1.294,0.225-1.435,0.506-1.068,1.547l2.56,7.06c0.788-1.913,1.997-5.231,2.587-7.003c0.338-1.069,0.142-1.378-1.462-1.603
			v-0.703h5.09V11.438z"/>
		<path fill="#323031" d="M379.609,23.363c-0.422,0-1.013-0.253-1.321-0.535c-0.366-0.394-0.534-0.787-0.676-1.265
			c-1.125,0.759-2.475,1.8-3.317,1.8c-1.998,0-3.376-1.659-3.376-3.432c0-1.378,0.731-2.25,2.278-2.785
			c1.687-0.562,3.74-1.321,4.359-1.828v-0.506c0-2.025-0.956-3.178-2.362-3.178c-0.563,0-0.985,0.226-1.267,0.562
			c-0.365,0.367-0.618,0.985-0.843,1.856c-0.112,0.451-0.423,0.647-0.817,0.647c-0.505,0-1.236-0.563-1.236-1.209
			c0-0.422,0.366-0.731,0.9-1.125c0.787-0.563,2.615-1.659,4.219-1.969c0.844,0,1.688,0.253,2.307,0.76
			c0.984,0.815,1.266,1.968,1.266,3.431v5.231c0,1.266,0.506,1.688,0.983,1.688c0.338,0,0.731-0.141,1.014-0.31l0.281,0.732
			L379.609,23.363z M377.557,16.276c-0.591,0.31-1.941,0.899-2.531,1.181c-1.098,0.507-1.716,1.041-1.716,2.053
			c0,1.463,1.125,2.167,1.996,2.167c0.731-0.028,1.716-0.507,2.251-1.013V16.276z"/>
		<path fill="#323031" d="M390.803,23.026v-0.732c1.66-0.168,1.856-0.394,1.856-2.334v-4.697c0-1.94-0.676-3.207-2.56-3.207
			c-1.125,0-2.223,0.704-3.066,1.435V20.1c0,1.913,0.169,2.026,1.828,2.194v0.732h-6.104v-0.732
			c1.913-0.196,2.054-0.337,2.054-2.194v-5.821c0-1.8-0.169-1.884-1.688-2.166v-0.647c1.352-0.253,2.673-0.59,3.91-1.153v2.25
			c0.563-0.422,1.182-0.844,1.885-1.322c0.787-0.506,1.52-0.844,2.335-0.844c2.222,0,3.628,1.547,3.628,4.275V20.1
			c0,1.913,0.141,2.026,1.771,2.194v0.732H390.803z"/>
		<path fill="#323031" d="M413.496,23.363c-0.423,0-1.012-0.253-1.322-0.535c-0.365-0.394-0.534-0.787-0.675-1.265
			c-1.124,0.759-2.476,1.8-3.318,1.8c-1.998,0-3.376-1.659-3.376-3.432c0-1.378,0.731-2.25,2.278-2.785
			c1.687-0.562,3.741-1.321,4.36-1.828v-0.506c0-2.025-0.957-3.178-2.363-3.178c-0.563,0-0.984,0.226-1.266,0.562
			c-0.366,0.367-0.619,0.985-0.844,1.856c-0.112,0.451-0.423,0.647-0.815,0.647c-0.507,0-1.237-0.563-1.237-1.209
			c0-0.422,0.366-0.731,0.9-1.125c0.787-0.563,2.615-1.659,4.218-1.969c0.844,0,1.688,0.253,2.307,0.76
			c0.984,0.815,1.265,1.968,1.265,3.431v5.231c0,1.266,0.507,1.688,0.984,1.688c0.339,0,0.732-0.141,1.014-0.31l0.281,0.732
			L413.496,23.363z M411.443,16.276c-0.592,0.31-1.941,0.899-2.532,1.181c-1.097,0.507-1.716,1.041-1.716,2.053
			c0,1.463,1.126,2.167,1.997,2.167c0.731-0.028,1.716-0.507,2.251-1.013V16.276z"/>
		<path fill="#323031" d="M424.688,23.026v-0.732c1.659-0.168,1.856-0.394,1.856-2.334v-4.697c0-1.94-0.677-3.207-2.561-3.207
			c-1.125,0-2.222,0.704-3.065,1.435V20.1c0,1.913,0.169,2.026,1.828,2.194v0.732h-6.103v-0.732
			c1.911-0.196,2.053-0.337,2.053-2.194v-5.821c0-1.8-0.17-1.884-1.688-2.166v-0.647c1.351-0.253,2.673-0.59,3.91-1.153v2.25
			c0.562-0.422,1.183-0.844,1.884-1.322c0.788-0.506,1.52-0.844,2.335-0.844c2.222,0,3.629,1.547,3.629,4.275V20.1
			c0,1.913,0.14,2.026,1.771,2.194v0.732H424.688z"/>
		<path fill="#323031" d="M432.11,23.026v-0.732c1.772-0.168,1.969-0.337,1.969-2.25V14.25c0-1.744-0.084-1.855-1.772-2.137v-0.675
			c1.436-0.226,2.758-0.591,3.994-1.097v9.703c0,1.913,0.198,2.082,1.997,2.25v0.732H432.11z M433.602,6.516
			c0-0.843,0.674-1.462,1.434-1.462c0.788,0,1.406,0.619,1.406,1.462c0,0.76-0.618,1.435-1.434,1.435
			C434.275,7.95,433.602,7.275,433.602,6.516z"/>
		<path fill="#323031" d="M455.145,23.026v-0.732c1.659-0.168,1.968-0.281,1.968-2.277v-4.697c0-1.997-0.703-3.263-2.475-3.263
			c-1.012,0-2.081,0.563-3.149,1.463c0.056,0.337,0.084,0.647,0.084,1.181v5.485c0,1.772,0.253,1.941,1.8,2.109v0.732h-6.019v-0.732
			c1.744-0.168,1.996-0.309,1.996-2.166v-4.837c0-2.082-0.73-3.235-2.447-3.235c-1.124,0-2.221,0.76-3.065,1.463v6.609
			c0,1.829,0.226,1.998,1.604,2.166v0.732h-5.935v-0.732c1.855-0.168,2.109-0.337,2.109-2.166v-5.822c0-1.8-0.085-1.941-1.716-2.194
			v-0.647c1.237-0.225,2.672-0.59,3.908-1.153v2.277c0.591-0.394,1.21-0.899,2.055-1.434c0.73-0.45,1.405-0.76,2.306-0.76
			c1.35,0,2.56,0.844,3.121,2.307c0.817-0.619,1.633-1.153,2.336-1.576c0.589-0.394,1.321-0.731,2.108-0.731
			c2.193,0,3.572,1.547,3.572,4.303v5.428c0,1.884,0.226,1.998,1.828,2.166v0.732H455.145z"/>
		<path fill="#323031" d="M471.51,23.363c-0.422,0-1.013-0.253-1.322-0.535c-0.365-0.394-0.533-0.787-0.675-1.265
			c-1.125,0.759-2.475,1.8-3.318,1.8c-1.997,0-3.375-1.659-3.375-3.432c0-1.378,0.73-2.25,2.278-2.785
			c1.687-0.562,3.74-1.321,4.358-1.828v-0.506c0-2.025-0.956-3.178-2.362-3.178c-0.563,0-0.984,0.226-1.266,0.562
			c-0.365,0.367-0.618,0.985-0.844,1.856c-0.112,0.451-0.422,0.647-0.816,0.647c-0.505,0-1.237-0.563-1.237-1.209
			c0-0.422,0.366-0.731,0.901-1.125c0.787-0.563,2.615-1.659,4.218-1.969c0.844,0,1.688,0.253,2.308,0.76
			c0.984,0.815,1.265,1.968,1.265,3.431v5.231c0,1.266,0.507,1.688,0.984,1.688c0.338,0,0.731-0.141,1.013-0.31l0.281,0.732
			L471.51,23.363z M469.456,16.276c-0.591,0.31-1.94,0.899-2.53,1.181c-1.098,0.507-1.716,1.041-1.716,2.053
			c0,1.463,1.125,2.167,1.996,2.167c0.731-0.028,1.716-0.507,2.25-1.013V16.276z"/>
		<path fill="#323031" d="M474.603,23.026v-0.732c1.771-0.168,2.024-0.337,2.024-2.194V6.797c0-1.912-0.168-1.997-1.941-2.137V3.984
			c1.463-0.169,3.207-0.646,4.163-0.984v17.1c0,1.857,0.225,2.026,2.025,2.194v0.732H474.603z"/>
		<path fill="#323031" d="M482.926,21.731c0-0.899,0.675-1.603,1.575-1.603c0.899,0,1.575,0.704,1.575,1.603
			c0,0.984-0.676,1.632-1.575,1.632C483.601,23.363,482.926,22.716,482.926,21.731z"/>
	</g>
	<g>
		<path fill="#323031" d="M140.386,37.787c-1.321,0.506-2.39,1.322-2.447,2.502c-0.056,0.873,0.507,1.379,1.35,1.576
			c0.17,0.057,0.339,0.225,0.311,0.506c-0.028,0.731-0.702,1.097-1.236,1.097c-0.985,0-2.251-0.957-2.195-2.616
			c0.084-2.222,2.278-3.375,3.909-3.825L140.386,37.787z M145.139,37.787c-1.322,0.506-2.418,1.35-2.475,2.531
			c-0.057,0.872,0.535,1.378,1.378,1.604c0.169,0.027,0.338,0.196,0.338,0.478c-0.057,0.732-0.731,1.125-1.266,1.125
			c-0.985,0-2.277-0.957-2.193-2.672c0.084-2.222,2.278-3.375,3.937-3.825L145.139,37.787z"/>
		<path fill="#323031" d="M152.084,45.887l-2.784,0.141l-1.659,7.763c-0.281,1.378-0.141,1.688,0.169,1.688
			c0.478,0,1.856-0.929,2.53-1.631l0.395,0.59c-0.928,1.125-3.037,3.01-4.528,3.01c-0.647,0-1.208-0.816-0.59-3.713l1.659-7.706
			h-2.082l-0.085-0.253l0.704-0.844h1.688l0.646-2.672l2.138-1.744l0.254,0.169l-0.985,4.247h3.264L152.084,45.887z"/>
		<path fill="#323031" d="M165.162,54.746c-1.492,1.716-3.234,2.701-4.051,2.701c-0.73,0-0.928-0.788-0.479-2.729l1.491-6.525
			c0.338-1.49,0.225-1.997-0.226-1.997c-1.293,0-4.584,3.15-5.963,5.597c-0.281,1.237-0.787,3.741-1.04,5.119
			c-0.647,0.113-1.378,0.31-1.997,0.535l-0.197-0.226c1.21-5.428,2.447-11.11,3.545-16.875c0.309-1.462,0.168-1.547-0.929-1.576
			l-0.815-0.027l0.084-0.675c2.223-0.226,3.741-0.984,4.135-0.984c0.252,0,0.281,0.225,0.113,0.984l-2.532,11.672h0.057
			c1.856-2.503,3.937-3.994,5.203-4.669c0.73-0.394,1.378-0.591,1.884-0.591c0.703,0,1.491,0.507,0.787,3.572l-1.461,6.301
			c-0.17,0.816-0.142,1.013,0.084,1.013c0.28,0,1.152-0.535,1.939-1.294L165.162,54.746z"/>
		<path fill="#323031" d="M176.186,54.269c-2.477,2.643-4.586,3.178-5.937,3.178c-1.292,0-3.094-0.76-3.094-4.107
			c0-2.644,1.153-5.597,3.376-7.284c1.209-0.928,2.699-1.576,3.881-1.576c1.491,0,2.475,1.042,2.475,2.25
			c0,2.785-4.725,4.303-7.424,4.978c-0.057,0.338-0.057,0.619-0.057,0.901c0,1.519,0.478,3.178,2.193,3.178
			c1.182,0,2.7-0.788,4.106-2.167L176.186,54.269z M172.219,45.971c-0.759,0.422-2.166,1.716-2.644,4.866
			c4.021-1.068,5.202-2.362,5.202-3.655c0-0.985-0.59-1.548-1.405-1.548C172.978,45.633,172.528,45.774,172.219,45.971z"/>
		<path fill="#323031" d="M197.22,54.606c-1.492,1.771-3.348,2.841-4.135,2.841c-0.563,0-0.957-0.45-0.507-2.616l0.507-2.39
			l-0.058,0.028c-1.265,1.688-2.727,2.925-3.711,3.685c-1.041,0.844-1.941,1.294-2.729,1.294c-0.929,0-1.828-1.125-1.828-3.375
			c0-2.644,1.209-5.653,3.262-7.425c1.322-1.153,3.657-2.167,4.979-2.167c0.395,0,0.956,0.029,1.659,0.31l0.929-4.641
			c0.253-1.265,0.168-1.378-1.068-1.378h-0.9l0.084-0.702c2.362-0.281,3.881-0.984,4.304-0.984c0.253,0,0.31,0.225,0.196,0.787
			c-1.322,5.625-2.503,11.082-3.486,16.537c-0.142,0.676-0.086,0.929,0.111,0.929c0.338,0,1.237-0.619,1.996-1.378L197.22,54.606z
			 M193.422,50.443l0.899-4.022c-0.421-0.394-1.434-0.731-2.278-0.731c-0.871,0-1.461,0.226-1.967,0.591
			c-1.885,1.35-2.982,4.894-2.982,7.257c0,1.434,0.394,2.082,0.871,2.082C189.4,55.619,192.494,52.131,193.422,50.443z"/>
		<path fill="#323031" d="M199.102,53.059c0-3.656,1.939-6.44,4.274-7.678c1.012-0.534,2.165-0.901,3.037-0.901
			c2.336,0,3.742,1.604,3.742,4.389c0,2.418-1.041,5.174-3.011,6.806c-1.209,1.013-2.757,1.772-4.332,1.772
			C200.142,57.447,199.102,55.337,199.102,53.059z M204.726,56.153c1.52-0.647,3.066-3.628,3.066-7.229
			c0-2.278-0.984-3.375-2.278-3.375c-0.422,0-0.76,0.113-1.069,0.254c-1.097,0.478-2.981,2.784-2.981,7.115
			c0,2.082,0.872,3.404,2.363,3.404C204.163,56.322,204.444,56.265,204.726,56.153z"/>
		<path fill="#323031" d="M224.412,45.128c-0.815,0.899-1.547,1.237-1.997,1.321c-0.226,0.057-0.421,0.084-0.731,0.084
			c0.141,0.395,0.226,0.815,0.226,1.576c0,1.997-1.097,3.488-2.137,4.303c-0.761,0.618-2.026,1.321-3.63,1.631
			c-0.337,0.281-0.563,0.563-0.563,0.9c0,0.422,0.675,0.928,2.025,1.631c2.701,1.434,3.797,2.532,3.797,3.741
			c0,2.334-3.938,4.021-6.637,4.021c-2.729,0-5.092-1.406-5.035-3.149c0.028-1.21,1.631-2.476,4.725-4.05
			c-0.703-0.45-1.068-1.013-1.04-1.378c0-0.45,0.393-0.957,1.715-1.745c-1.603-0.365-2.446-1.519-2.446-3.431
			c0-1.829,0.928-3.572,2.362-4.697c1.153-0.928,2.587-1.407,3.601-1.407c0.899,0,1.771,0.253,2.391,0.789
			c1.631-0.028,2.644-0.338,3.178-0.676L224.412,45.128z M219.349,61.074c0-0.759-0.759-1.462-2.053-2.222
			c-0.928-0.563-1.716-1.012-2.109-1.208c-1.884,0.9-3.122,2.025-3.122,3.065c0,1.435,1.857,2.447,3.826,2.447
			C218,63.156,219.349,62.171,219.349,61.074z M219.827,48.193c0-1.603-0.646-2.728-1.885-2.728c-0.815,0-1.546,0.506-2.052,1.266
			c-0.591,0.844-1.07,2.138-1.07,3.657c0,1.66,0.816,2.531,1.828,2.531C218.14,52.918,219.827,51.203,219.827,48.193z"/>
		<path fill="#323031" d="M243.477,54.577c-1.349,1.632-3.205,2.87-4.077,2.87c-0.591,0-0.984-0.535-0.421-2.981
			c0.225-0.985,0.336-1.547,0.533-2.475h-0.055c-1.379,1.828-3.037,3.543-4.529,4.584c-0.787,0.563-1.604,0.873-2.278,0.873
			c-0.76,0-1.66-0.535-0.928-3.573c0.506-2.166,1.013-4.331,1.519-6.468c0.168-0.703,0.142-0.957-0.084-0.957
			c-0.198,0-0.985,0.563-1.97,1.35l-0.308-0.675c1.63-1.631,3.374-2.644,4.133-2.644c0.647,0,0.76,0.563,0.311,2.448
			c-0.508,2.221-1.014,4.5-1.549,6.75c-0.309,1.378-0.084,1.856,0.339,1.856c1.574,0,4.725-3.769,5.821-5.822
			c0.311-1.293,0.648-2.784,1.013-4.5l1.94-0.732h0.31c-0.759,2.982-1.49,6.132-2.194,9.789c-0.168,0.872-0.112,1.097,0.085,1.097
			c0.253,0,1.266-0.675,2.025-1.463L243.477,54.577z"/>
		<path fill="#323031" d="M257.848,54.718c-1.66,1.8-3.233,2.729-3.967,2.729c-0.701,0-0.955-0.76-0.449-2.925
			c0.535-2.109,1.013-4.162,1.52-6.244c0.394-1.604,0.225-2.025-0.226-2.025c-1.236,0-4.5,3.488-5.906,5.878
			c-0.337,1.378-0.759,3.065-1.097,4.753c-0.731,0.141-1.49,0.366-2.024,0.563l-0.169-0.226c0.759-3.038,1.604-6.413,2.277-9.535
			c0.226-0.899,0.142-1.125-0.028-1.125c-0.253,0-1.124,0.59-1.827,1.265l-0.367-0.675c1.52-1.659,3.18-2.672,3.967-2.672
			c0.647,0,0.759,0.957,0.225,3.123l-0.591,2.447h0.057c1.913-2.616,3.995-4.247,5.175-4.951c0.732-0.421,1.322-0.619,1.885-0.619
			c0.676,0,1.462,0.422,0.618,4.022c-0.449,1.912-0.899,3.881-1.378,5.85c-0.168,0.759-0.141,1.013,0.057,1.013
			c0.253,0,1.013-0.506,1.856-1.322L257.848,54.718z"/>
		<path fill="#323031" d="M265.104,54.437c-1.464,1.744-3.461,3.01-4.332,3.01c-0.535,0-0.985-0.647-0.394-3.404
			c0.983-4.612,1.968-9.225,2.924-13.866c0.282-1.209,0.114-1.407-1.181-1.407l-0.76-0.027l0.113-0.675
			c2.193-0.254,3.797-0.984,4.162-0.984c0.254,0,0.282,0.252,0.168,0.844c-1.152,5.428-2.305,10.884-3.486,16.453
			c-0.17,0.815-0.057,0.984,0.111,0.984c0.311,0,1.463-0.731,2.251-1.547L265.104,54.437z"/>
		<path fill="#323031" d="M275.816,54.269c-2.475,2.643-4.584,3.178-5.935,3.178c-1.294,0-3.093-0.76-3.093-4.107
			c0-2.644,1.152-5.597,3.375-7.284c1.209-0.928,2.699-1.576,3.881-1.576c1.49,0,2.476,1.042,2.476,2.25
			c0,2.785-4.726,4.303-7.425,4.978c-0.057,0.338-0.057,0.619-0.057,0.901c0,1.519,0.479,3.178,2.193,3.178
			c1.182,0,2.7-0.788,4.105-2.167L275.816,54.269z M271.851,45.971c-0.759,0.422-2.165,1.716-2.644,4.866
			c4.022-1.068,5.203-2.362,5.203-3.655c0-0.985-0.59-1.548-1.406-1.548C272.611,45.633,272.16,45.774,271.851,45.971z"/>
		<path fill="#323031" d="M289.709,54.521c-1.519,1.884-3.403,2.925-4.105,2.925c-0.534,0-0.9-0.422-0.507-2.476l0.563-2.671h-0.057
			c-1.098,1.547-2.42,2.896-3.629,3.881c-0.929,0.759-1.855,1.266-2.615,1.266c-0.731,0-1.632-0.929-1.632-3.178
			c0-2.841,1.322-5.907,3.375-7.622c1.406-1.182,3.459-2.167,5.231-2.167c0.591,0,1.153,0.085,1.744,0.198
			c0.393,0.084,0.76,0.169,1.068,0.169l0.085,0.112c-0.45,1.744-1.294,5.569-1.94,9.141c-0.197,0.985-0.113,1.209,0.056,1.209
			c0.226,0,1.21-0.647,2.025-1.462L289.709,54.521z M286.053,50.133c0.309-1.124,0.731-3.15,0.928-4.049
			c-0.394-0.197-1.152-0.395-1.884-0.395s-1.52,0.226-1.997,0.591c-1.912,1.406-3.037,4.725-3.037,7.51
			c0,1.266,0.365,1.856,0.759,1.856C281.918,55.646,285.097,52.074,286.053,50.133z"/>
		<path fill="#323031" d="M290.747,55.421c-0.027-0.478,0.338-0.899,0.815-1.18c0.34-0.169,0.563-0.113,0.703,0.083
			c0.732,1.097,1.773,1.716,2.701,1.716c1.125,0,1.855-0.788,1.855-1.688c0-0.703-0.309-1.322-1.63-2.362
			c-1.267-0.957-2.447-1.998-2.447-3.431c0-0.844,0.337-1.745,1.462-2.729c0.873-0.759,2.223-1.35,3.122-1.35
			c1.238,0,2.193,0.844,2.193,1.576c0,0.478-0.28,0.899-0.702,1.152c-0.281,0.169-0.45,0.114-0.619-0.112
			c-0.563-0.703-1.237-1.266-2.193-1.266c-0.815,0-1.519,0.619-1.519,1.576c0,1.013,0.814,1.716,1.827,2.503
			c1.688,1.266,2.362,2.082,2.362,3.291c0,2.138-2.813,4.248-5.091,4.248C292.266,57.447,290.747,56.406,290.747,55.421z"/>
		<path fill="#323031" d="M312.994,54.746c-1.492,1.716-3.234,2.701-4.051,2.701c-0.731,0-0.928-0.788-0.479-2.729l1.492-6.525
			c0.337-1.49,0.225-1.997-0.227-1.997c-1.294,0-4.584,3.15-5.962,5.597c-0.281,1.237-0.787,3.741-1.041,5.119
			c-0.646,0.113-1.378,0.31-1.997,0.535l-0.196-0.226c1.209-5.428,2.447-11.11,3.544-16.875c0.31-1.462,0.168-1.547-0.929-1.576
			l-0.815-0.027l0.085-0.675c2.222-0.226,3.74-0.984,4.134-0.984c0.253,0,0.281,0.225,0.113,0.984l-2.531,11.672h0.056
			c1.856-2.503,3.937-3.994,5.204-4.669c0.73-0.394,1.377-0.591,1.884-0.591c0.702,0,1.49,0.507,0.787,3.572l-1.464,6.301
			c-0.168,0.816-0.139,1.013,0.085,1.013c0.282,0,1.153-0.535,1.941-1.294L312.994,54.746z"/>
		<path fill="#323031" d="M323.988,54.269c-2.475,2.643-4.585,3.178-5.935,3.178c-1.293,0-3.094-0.76-3.094-4.107
			c0-2.644,1.153-5.597,3.375-7.284c1.21-0.928,2.7-1.576,3.881-1.576c1.492,0,2.476,1.042,2.476,2.25
			c0,2.785-4.725,4.303-7.425,4.978c-0.057,0.338-0.057,0.619-0.057,0.901c0,1.519,0.479,3.178,2.193,3.178
			c1.183,0,2.701-0.788,4.107-2.167L323.988,54.269z M320.022,45.971c-0.759,0.422-2.165,1.716-2.644,4.866
			c4.022-1.068,5.203-2.362,5.203-3.655c0-0.985-0.59-1.548-1.406-1.548C320.782,45.633,320.333,45.774,320.022,45.971z"/>
		<path fill="#323031" d="M338.442,54.606c-1.489,1.771-3.346,2.841-4.134,2.841c-0.563,0-0.956-0.45-0.506-2.616l0.506-2.39
			l-0.057,0.028c-1.266,1.688-2.729,2.925-3.711,3.685c-1.041,0.844-1.941,1.294-2.729,1.294c-0.93,0-1.829-1.125-1.829-3.375
			c0-2.644,1.21-5.653,3.263-7.425c1.322-1.153,3.655-2.167,4.978-2.167c0.395,0,0.957,0.029,1.66,0.31l0.929-4.641
			c0.252-1.265,0.168-1.378-1.07-1.378h-0.899l0.084-0.702c2.363-0.281,3.882-0.984,4.304-0.984c0.253,0,0.311,0.225,0.197,0.787
			c-1.322,5.625-2.503,11.082-3.488,16.537c-0.14,0.676-0.083,0.929,0.113,0.929c0.338,0,1.237-0.619,1.998-1.378L338.442,54.606z
			 M334.646,50.443l0.9-4.022c-0.424-0.394-1.435-0.731-2.279-0.731c-0.871,0-1.462,0.226-1.969,0.591
			c-1.884,1.35-2.981,4.894-2.981,7.257c0,1.434,0.395,2.082,0.873,2.082C330.624,55.619,333.719,52.131,334.646,50.443z"/>
		<path fill="#323031" d="M358.634,54.521c-1.519,1.884-3.404,2.925-4.106,2.925c-0.534,0-0.9-0.422-0.506-2.476l0.563-2.671h-0.057
			c-1.097,1.547-2.419,2.896-3.629,3.881c-0.927,0.759-1.855,1.266-2.615,1.266c-0.731,0-1.631-0.929-1.631-3.178
			c0-2.841,1.322-5.907,3.374-7.622c1.406-1.182,3.46-2.167,5.232-2.167c0.591,0,1.153,0.085,1.743,0.198
			c0.394,0.084,0.76,0.169,1.07,0.169l0.084,0.112c-0.451,1.744-1.295,5.569-1.941,9.141c-0.197,0.985-0.112,1.209,0.057,1.209
			c0.225,0,1.209-0.647,2.024-1.462L358.634,54.521z M354.977,50.133c0.311-1.124,0.732-3.15,0.929-4.049
			c-0.394-0.197-1.152-0.395-1.884-0.395c-0.732,0-1.52,0.226-1.997,0.591c-1.913,1.406-3.038,4.725-3.038,7.51
			c0,1.266,0.366,1.856,0.759,1.856C350.844,55.646,354.021,52.074,354.977,50.133z"/>
		<path fill="#323031" d="M386.811,54.746c-1.49,1.66-3.262,2.701-3.965,2.701s-0.929-0.844-0.45-2.897l1.548-6.498
			c0.309-1.378,0.14-1.827-0.281-1.827c-1.323,0-4.754,3.994-5.738,5.878c-0.337,1.322-0.76,3.207-1.098,4.837
			c-0.73,0.085-1.461,0.281-2.053,0.507l-0.169-0.197c0.703-2.841,1.435-5.71,2.025-8.438c0.394-1.913,0.365-2.587-0.226-2.587
			c-1.35,0-4.781,4.078-5.681,5.878c-0.365,1.266-0.787,3.149-1.153,4.837c-0.703,0.085-1.406,0.281-2.025,0.507l-0.196-0.197
			c0.844-3.178,1.631-6.385,2.334-9.563c0.226-1.013,0.169-1.208-0.028-1.208c-0.28,0-1.266,0.759-1.94,1.378l-0.338-0.675
			c1.576-1.688,3.235-2.701,3.967-2.701c0.73,0,0.814,1.042,0.224,3.46l-0.478,1.997h0.057c1.913-2.7,3.853-4.219,5.034-4.894
			c0.646-0.365,1.181-0.563,1.744-0.563c0.759,0,1.463,0.704,0.675,4.275l-0.254,1.153h0.058c1.912-2.672,3.937-4.219,5.146-4.895
			c0.703-0.393,1.182-0.534,1.716-0.534c0.562,0,1.49,0.338,0.591,4.079l-1.378,5.877c-0.17,0.704-0.112,0.9,0.056,0.9
			c0.225,0,1.097-0.506,1.913-1.266L386.811,54.746z"/>
		<path fill="#323031" d="M394.093,54.634c-0.928,1.154-3.122,2.813-4.106,2.813c-0.562,0-0.928-0.45-0.365-2.757l1.744-7.2
			c0.169-0.618,0.169-0.9-0.028-0.9c-0.226,0-1.069,0.479-1.912,1.209l-0.339-0.647c1.548-1.519,3.517-2.672,4.275-2.672
			c0.619,0,0.591,0.901,0.281,2.223l-1.94,7.763c-0.168,0.675-0.112,0.9,0.056,0.9c0.338,0,1.322-0.731,1.97-1.322L394.093,54.634z
			 M394.824,40.346c0,0.872-0.646,1.631-1.49,1.631c-0.675,0-1.153-0.506-1.182-1.237c0-0.703,0.563-1.66,1.547-1.66
			C394.432,39.08,394.796,39.671,394.824,40.346z"/>
		<path fill="#323031" d="M408.238,45.128c-0.815,0.899-1.546,1.237-1.996,1.321c-0.226,0.057-0.422,0.084-0.731,0.084
			c0.141,0.395,0.225,0.815,0.225,1.576c0,1.997-1.097,3.488-2.137,4.303c-0.761,0.618-2.025,1.321-3.628,1.631
			c-0.338,0.281-0.563,0.563-0.563,0.9c0,0.422,0.676,0.928,2.024,1.631c2.701,1.434,3.798,2.532,3.798,3.741
			c0,2.334-3.938,4.021-6.638,4.021c-2.728,0-5.091-1.406-5.034-3.149c0.027-1.21,1.631-2.476,4.724-4.05
			c-0.701-0.45-1.068-1.013-1.039-1.378c0-0.45,0.394-0.957,1.715-1.745c-1.603-0.365-2.446-1.519-2.446-3.431
			c0-1.829,0.928-3.572,2.362-4.697c1.153-0.928,2.588-1.407,3.601-1.407c0.898,0,1.771,0.253,2.391,0.789
			c1.632-0.028,2.644-0.338,3.178-0.676L408.238,45.128z M403.177,61.074c0-0.759-0.761-1.462-2.054-2.222
			c-0.929-0.563-1.716-1.012-2.109-1.208c-1.885,0.9-3.123,2.025-3.123,3.065c0,1.435,1.856,2.447,3.826,2.447
			C401.826,63.156,403.177,62.171,403.177,61.074z M403.654,48.193c0-1.603-0.646-2.728-1.885-2.728
			c-0.814,0-1.547,0.506-2.053,1.266c-0.591,0.844-1.068,2.138-1.068,3.657c0,1.66,0.815,2.531,1.827,2.531
			C401.967,52.918,403.654,51.203,403.654,48.193z"/>
		<path fill="#323031" d="M420.106,54.746c-1.49,1.716-3.235,2.701-4.05,2.701c-0.732,0-0.929-0.788-0.479-2.729l1.49-6.525
			c0.337-1.49,0.226-1.997-0.225-1.997c-1.294,0-4.584,3.15-5.962,5.597c-0.281,1.237-0.788,3.741-1.042,5.119
			c-0.646,0.113-1.377,0.31-1.996,0.535l-0.197-0.226c1.209-5.428,2.447-11.11,3.544-16.875c0.31-1.462,0.169-1.547-0.929-1.576
			l-0.814-0.027l0.084-0.675c2.222-0.226,3.74-0.984,4.135-0.984c0.254,0,0.28,0.225,0.112,0.984l-2.532,11.672h0.057
			c1.856-2.503,3.938-3.994,5.204-4.669c0.73-0.394,1.378-0.591,1.883-0.591c0.704,0,1.492,0.507,0.789,3.572l-1.463,6.301
			c-0.169,0.816-0.141,1.013,0.085,1.013c0.281,0,1.152-0.535,1.939-1.294L420.106,54.746z"/>
		<path fill="#323031" d="M429.217,45.887l-2.785,0.141l-1.659,7.763c-0.28,1.378-0.141,1.688,0.169,1.688
			c0.478,0,1.856-0.929,2.53-1.631l0.395,0.59c-0.929,1.125-3.038,3.01-4.528,3.01c-0.646,0-1.209-0.816-0.591-3.713l1.659-7.706
			h-2.081l-0.084-0.253l0.703-0.844h1.688l0.647-2.672l2.138-1.744l0.253,0.169l-0.984,4.247h3.261L429.217,45.887z"/>
		<path fill="#323031" d="M435.852,55c1.21-1.856,3.798-5.682,3.77-7.735c0-0.562-0.169-1.012-0.309-1.322
			c-0.084-0.197-0.057-0.478,0.056-0.703c0.196-0.422,0.703-0.76,1.181-0.76c0.619,0,1.098,0.619,1.098,1.547
			c0.027,0.787-0.281,1.744-0.984,2.982c-1.21,2.137-3.601,5.85-5.091,7.959c-1.66,2.391-3.487,4.866-5.063,6.609l-2.925,0.759
			l-0.226-0.619c3.01-1.968,5.231-4.443,6.61-6.299c-0.028-2.222-0.479-6.61-0.872-9.169c-0.197-1.407-0.366-1.744-0.591-1.744
			c-0.226,0-0.928,0.646-1.632,1.631l-0.478-0.647c0.899-1.406,2.307-3.01,3.318-3.01c0.788,0,1.21,1.042,1.435,3.291
			c0.28,2.138,0.479,4.669,0.646,7.229H435.852z"/>
		<path fill="#323031" d="M461.388,54.746c-1.49,1.716-3.235,2.701-4.05,2.701c-0.732,0-0.929-0.788-0.479-2.729l1.49-6.525
			c0.337-1.49,0.225-1.997-0.226-1.997c-1.293,0-4.583,3.15-5.962,5.597c-0.281,1.237-0.788,3.741-1.041,5.119
			c-0.646,0.113-1.377,0.31-1.997,0.535l-0.196-0.226c1.209-5.428,2.446-11.11,3.544-16.875c0.31-1.462,0.169-1.547-0.929-1.576
			l-0.814-0.027l0.084-0.675c2.221-0.226,3.739-0.984,4.134-0.984c0.254,0,0.281,0.225,0.113,0.984l-2.532,11.672h0.057
			c1.856-2.503,3.938-3.994,5.203-4.669c0.731-0.394,1.379-0.591,1.884-0.591c0.703,0,1.492,0.507,0.788,3.572l-1.462,6.301
			c-0.169,0.816-0.141,1.013,0.085,1.013c0.281,0,1.152-0.535,1.939-1.294L461.388,54.746z"/>
		<path fill="#323031" d="M463.438,53.059c0-3.656,1.941-6.44,4.275-7.678c1.012-0.534,2.165-0.901,3.038-0.901
			c2.333,0,3.74,1.604,3.74,4.389c0,2.418-1.042,5.174-3.01,6.806c-1.21,1.013-2.757,1.772-4.331,1.772
			C464.479,57.447,463.438,55.337,463.438,53.059z M469.063,56.153c1.519-0.647,3.066-3.628,3.066-7.229
			c0-2.278-0.984-3.375-2.278-3.375c-0.422,0-0.76,0.113-1.069,0.254c-1.097,0.478-2.98,2.784-2.98,7.115
			c0,2.082,0.871,3.404,2.363,3.404C468.5,56.322,468.781,56.265,469.063,56.153z"/>
		<path fill="#323031" d="M487.934,54.549c1.153-1.575,3.966-5.456,3.966-7.256c0-0.59-0.142-0.984-0.282-1.294
			c-0.112-0.196-0.112-0.478,0-0.703c0.198-0.449,0.675-0.816,1.154-0.816c0.703,0,1.209,0.619,1.209,1.604
			c0,0.956-0.534,1.884-1.154,2.953c-0.956,1.547-4.358,6.244-5.934,8.41h-0.787c-0.225-2.981-0.507-5.935-0.787-8.776h-0.057
			c-1.8,3.01-3.853,6.3-5.371,8.776h-0.732c-0.028-2.729-0.169-6.357-0.281-9.057c-0.057-1.35-0.169-1.857-0.45-1.857
			c-0.196,0-0.618,0.338-1.66,1.435l-0.477-0.562c1.181-1.576,2.644-2.926,3.601-2.926c0.646,0,0.955,0.844,1.012,2.785
			c0.057,2.25,0.084,4.782,0.084,6.638h0.057c1.688-2.897,3.571-5.962,5.231-9h0.703c0.309,3.149,0.563,6.413,0.899,9.647H487.934z"
			/>
		<path fill="#323031" d="M500.277,54.437c-1.462,1.744-3.459,3.01-4.33,3.01c-0.535,0-0.984-0.647-0.395-3.404
			c0.984-4.612,1.969-9.225,2.925-13.866c0.28-1.209,0.112-1.407-1.181-1.407l-0.76-0.027l0.111-0.675
			c2.195-0.254,3.799-0.984,4.163-0.984c0.253,0,0.282,0.252,0.17,0.844c-1.153,5.428-2.308,10.884-3.488,16.453
			c-0.168,0.815-0.056,0.984,0.112,0.984c0.31,0,1.463-0.731,2.25-1.547L500.277,54.437z"/>
		<path fill="#323031" d="M502.921,42.849c1.35-0.506,2.418-1.294,2.475-2.503c0.056-0.872-0.534-1.378-1.378-1.603
			c-0.169-0.028-0.339-0.169-0.311-0.45c0.029-0.731,0.703-1.125,1.238-1.125c0.984,0,2.25,0.956,2.166,2.672
			c-0.057,2.166-2.25,3.347-3.909,3.769L502.921,42.849z M507.674,42.849c1.322-0.506,2.446-1.294,2.503-2.503
			c0.027-0.872-0.534-1.378-1.405-1.603c-0.17-0.028-0.311-0.169-0.311-0.45c0.028-0.731,0.703-1.125,1.238-1.125
			c0.984,0,2.277,0.956,2.193,2.644c-0.084,2.193-2.25,3.375-3.91,3.796L507.674,42.849z"/>
	</g>
	<g>
		<path fill="#323031" d="M105.318,121.591v-0.76c2.559-0.196,2.7-0.421,2.7-2.446v-10.829c0-1.462-0.114-1.603-1.351-1.659
			l-1.35-0.056v-0.647c1.799-0.309,3.459-0.843,5.006-1.462v14.653c0,2.025,0.169,2.25,2.729,2.446v0.76H105.318z"/>
		<path fill="#323031" d="M117.382,120.297c0-0.899,0.675-1.603,1.574-1.603c0.9,0,1.576,0.703,1.576,1.603
			c0,0.984-0.676,1.632-1.576,1.632C118.057,121.929,117.382,121.282,117.382,120.297z"/>
	</g>
	<g>
		<path fill="#323031" d="M149.33,121.591v-0.731c1.659-0.169,1.969-0.281,1.969-2.278v-4.697c0-1.997-0.703-3.263-2.476-3.263
			c-1.012,0-2.08,0.563-3.149,1.463c0.056,0.337,0.084,0.646,0.084,1.181v5.485c0,1.772,0.254,1.94,1.801,2.109v0.731h-6.02v-0.731
			c1.744-0.169,1.998-0.309,1.998-2.165v-4.838c0-2.081-0.732-3.235-2.447-3.235c-1.125,0-2.223,0.76-3.066,1.463v6.609
			c0,1.828,0.225,1.996,1.604,2.165v0.731h-5.935v-0.731c1.856-0.169,2.109-0.337,2.109-2.165v-5.822c0-1.8-0.085-1.941-1.716-2.194
			v-0.647c1.236-0.225,2.672-0.59,3.91-1.153v2.278c0.59-0.394,1.208-0.899,2.053-1.435c0.73-0.45,1.406-0.759,2.306-0.759
			c1.35,0,2.56,0.844,3.122,2.307c0.816-0.619,1.632-1.154,2.335-1.576c0.591-0.394,1.322-0.731,2.109-0.731
			c2.194,0,3.571,1.547,3.571,4.303v5.429c0,1.884,0.226,1.996,1.828,2.165v0.731H149.33z"/>
		<path fill="#323031" d="M165.695,121.929c-0.422,0-1.014-0.254-1.321-0.535c-0.366-0.394-0.536-0.787-0.676-1.265
			c-1.125,0.759-2.475,1.8-3.317,1.8c-1.998,0-3.377-1.659-3.377-3.432c0-1.378,0.732-2.25,2.279-2.785
			c1.688-0.562,3.739-1.321,4.358-1.827v-0.507c0-2.025-0.956-3.178-2.362-3.178c-0.562,0-0.984,0.226-1.266,0.563
			c-0.365,0.366-0.618,0.984-0.844,1.857c-0.113,0.45-0.421,0.646-0.816,0.646c-0.505,0-1.236-0.563-1.236-1.209
			c0-0.421,0.365-0.731,0.9-1.125c0.787-0.563,2.615-1.659,4.219-1.969c0.843,0,1.688,0.253,2.307,0.759
			c0.983,0.816,1.265,1.969,1.265,3.432v5.231c0,1.266,0.507,1.688,0.985,1.688c0.337,0,0.73-0.141,1.012-0.31l0.281,0.731
			L165.695,121.929z M163.642,114.841c-0.59,0.31-1.94,0.9-2.531,1.181c-1.097,0.507-1.715,1.042-1.715,2.054
			c0,1.463,1.124,2.166,1.996,2.166c0.731-0.028,1.716-0.507,2.25-1.013V114.841z"/>
		<path fill="#323031" d="M178.94,121.648c-1.295-1.435-3.065-3.685-4.612-5.569c-0.366-0.479-0.619-0.62-0.872-0.62
			c-0.113,0-0.254,0.028-0.45,0.085v3.122c0,1.857,0.254,2.025,2.053,2.194v0.731h-6.301v-0.731
			c1.886-0.169,2.055-0.394,2.055-2.194v-13.303c0-1.855-0.141-1.997-1.856-2.165v-0.647c1.35-0.141,2.953-0.619,4.05-0.984v13.247
			c0.844-0.169,1.35-0.535,1.771-0.984c0.619-0.619,1.462-1.716,1.997-2.476c0.563-0.872,0.479-1.096-0.844-1.237v-0.731
			l5.738-0.253v0.703c-1.94,0.337-2.531,0.618-3.628,1.66c-0.704,0.703-1.21,1.265-2.42,2.672c0.563,0.844,3.403,4.163,4.359,5.146
			c1.013,1.069,1.744,1.491,2.814,1.547v0.731L178.94,121.648z"/>
		<path fill="#323031" d="M193.197,119.2c-1.772,2.223-3.713,2.729-4.584,2.729c-3.46,0-5.485-2.813-5.485-5.991
			c0-1.94,0.703-3.656,1.856-4.922c1.154-1.294,2.673-2.053,4.134-2.053c2.336,0,4.22,2.081,4.22,4.275
			c0,0.563-0.141,0.788-0.646,0.901c-0.479,0.083-3.994,0.365-7.342,0.477c0.029,3.826,2.224,5.4,4.192,5.4
			c1.125,0,2.193-0.449,3.205-1.406L193.197,119.2z M185.491,113.463c1.575,0,3.122-0.028,4.753-0.085
			c0.507,0,0.676-0.168,0.676-0.563c0.028-1.462-0.93-2.812-2.475-2.812C187.15,110.004,185.913,111.185,185.491,113.463z"/>
		<path fill="#323031" d="M210.209,121.929c-0.42,0-1.011-0.254-1.321-0.535c-0.365-0.394-0.534-0.787-0.675-1.265
			c-1.125,0.759-2.475,1.8-3.319,1.8c-1.995,0-3.374-1.659-3.374-3.432c0-1.378,0.731-2.25,2.277-2.785
			c1.688-0.562,3.741-1.321,4.359-1.827v-0.507c0-2.025-0.956-3.178-2.362-3.178c-0.563,0-0.983,0.226-1.265,0.563
			c-0.366,0.366-0.619,0.984-0.844,1.857c-0.113,0.45-0.424,0.646-0.815,0.646c-0.507,0-1.239-0.563-1.239-1.209
			c0-0.421,0.366-0.731,0.9-1.125c0.788-0.563,2.616-1.659,4.22-1.969c0.844,0,1.687,0.253,2.306,0.759
			c0.984,0.816,1.266,1.969,1.266,3.432v5.231c0,1.266,0.507,1.688,0.984,1.688c0.338,0,0.731-0.141,1.013-0.31l0.282,0.731
			L210.209,121.929z M208.156,114.841c-0.59,0.31-1.94,0.9-2.53,1.181c-1.097,0.507-1.716,1.042-1.716,2.054
			c0,1.463,1.125,2.166,1.996,2.166c0.731-0.028,1.716-0.507,2.25-1.013V114.841z"/>
		<path fill="#323031" d="M227.645,121.591v-0.731c1.631-0.169,1.856-0.337,1.856-2.165v-4.669c0-2.307-0.872-3.459-2.756-3.459
			c-1.068,0-2.138,0.534-2.926,1.434v6.694c0,1.8,0.142,1.996,1.801,2.165v0.731h-5.964v-0.731c1.688-0.141,1.941-0.309,1.941-2.165
			v-13.416c0-1.771-0.057-1.913-1.912-2.081v-0.647c1.35-0.197,3.037-0.647,4.134-0.984v9.45c0.984-1.012,2.503-2.053,4.021-2.053
			c2.279,0,3.882,1.435,3.882,4.809v4.923c0,1.856,0.197,2.024,1.856,2.165v0.731H227.645z"/>
		<path fill="#323031" d="M247.359,115.235c0,4.528-3.319,6.694-6.104,6.694c-3.854,0-6.16-3.094-6.16-6.217
			c0-4.64,3.6-6.75,6.16-6.75C244.744,108.963,247.359,111.747,247.359,115.235z M237.712,114.813c0,3.543,1.547,6.187,3.854,6.187
			c1.743,0,3.179-1.293,3.179-5.147c0-3.29-1.323-5.962-3.77-5.962C239.229,109.891,237.712,111.635,237.712,114.813z"/>
		<path fill="#323031" d="M267.523,110.004c-1.407,0.225-1.66,0.563-2.25,2.109c-0.845,2.222-2.082,5.963-3.376,9.788h-0.787
			c-1.126-3.037-2.278-5.794-3.433-8.747c-1.068,2.813-2.221,5.625-3.318,8.747h-0.816c-1.011-3.347-2.079-6.666-3.233-10.041
			c-0.506-1.462-0.759-1.66-2.109-1.856v-0.703h5.822v0.703c-1.687,0.281-1.829,0.449-1.406,1.715
			c0.647,2.166,1.351,4.388,2.053,6.553h0.057c1.04-2.7,2.081-5.597,3.262-8.831h0.731c1.041,2.925,2.195,5.906,3.377,8.915h0.055
			c0.619-1.94,1.406-4.387,1.912-6.468c0.366-1.462,0.197-1.631-1.631-1.884v-0.703h5.092V110.004z"/>
		<path fill="#323031" d="M267.801,121.591v-0.731c1.771-0.169,2.025-0.337,2.025-2.194v-13.303c0-1.913-0.17-1.997-1.94-2.137
			v-0.675c1.462-0.169,3.206-0.647,4.162-0.984v17.1c0,1.857,0.226,2.025,2.024,2.194v0.731H267.801z"/>
		<path fill="#323031" d="M275.394,121.591v-0.731c1.771-0.169,1.97-0.337,1.97-2.25v-5.794c0-1.744-0.085-1.855-1.773-2.137v-0.675
			c1.436-0.226,2.757-0.591,3.994-1.097v9.703c0,1.913,0.197,2.081,1.998,2.25v0.731H275.394z M276.884,105.082
			c0-0.844,0.676-1.462,1.435-1.462c0.787,0,1.406,0.618,1.406,1.462c0,0.76-0.619,1.435-1.435,1.435
			C277.56,106.516,276.884,105.841,276.884,105.082z"/>
		<path fill="#323031" d="M290.89,121.591v-0.731c1.659-0.169,1.855-0.394,1.855-2.334v-4.696c0-1.941-0.674-3.207-2.559-3.207
			c-1.126,0-2.223,0.704-3.066,1.435v6.609c0,1.913,0.169,2.025,1.828,2.194v0.731h-6.103v-0.731
			c1.912-0.197,2.054-0.337,2.054-2.194v-5.822c0-1.8-0.17-1.884-1.688-2.166v-0.647c1.35-0.253,2.671-0.59,3.908-1.153v2.25
			c0.563-0.422,1.181-0.844,1.886-1.322c0.787-0.506,1.518-0.844,2.334-0.844c2.221,0,3.627,1.547,3.627,4.275v5.428
			c0,1.913,0.143,2.025,1.772,2.194v0.731H290.89z"/>
		<path fill="#323031" d="M310.35,109.497c-0.252,0.45-0.815,1.182-1.266,1.435l-1.603-0.084c0.534,0.618,0.845,1.491,0.845,2.503
			c0,3.038-2.532,4.5-4.923,4.5c-0.479,0-0.984-0.084-1.435-0.14c-0.394,0.252-0.844,0.76-0.844,1.153
			c0,0.562,0.507,1.097,1.772,1.097c1.013,0,2.024-0.028,2.954-0.028c1.742,0,4.049,0.563,4.049,3.318
			c0,2.841-3.291,5.569-7.031,5.569c-3.122,0-4.838-1.828-4.867-3.431c0-0.62,0.254-1.154,0.676-1.575
			c0.563-0.563,1.659-1.462,2.335-1.969c-1.013-0.31-1.716-0.956-2.081-1.547c-0.254-0.422-0.338-0.899-0.311-1.181
			c1.126-0.421,2.025-1.153,2.477-1.715c-1.267-0.535-2.477-1.856-2.477-3.77c0-3.206,2.869-4.668,5.036-4.668
			c0.954,0,1.884,0.253,2.699,0.703c1.378-0.056,2.813-0.225,3.825-0.394L310.35,109.497z M301.518,122.519
			c-0.73,0.591-1.293,1.378-1.293,2.194c0,1.519,1.631,2.672,3.713,2.672c2.672,0,4.051-1.378,4.051-3.122
			c0-0.957-0.479-1.66-1.294-1.997c-0.704-0.282-1.52-0.366-2.7-0.366C302.644,121.901,302.024,122.07,301.518,122.519z
			 M301.04,113.182c0,2.194,1.069,3.769,2.645,3.769c1.237-0.028,2.335-1.125,2.335-3.348c0-2.222-1.041-3.797-2.645-3.797
			C302.137,109.807,301.04,110.988,301.04,113.182z"/>
		<path fill="#323031" d="M325,112.62c-0.535-1.659-1.52-2.785-2.896-2.785c-1.068,0-1.828,0.844-1.828,1.941
			c0,1.266,1.125,1.912,2.391,2.446c2.108,0.872,3.543,1.885,3.543,3.826c0,2.559-2.39,3.881-4.64,3.881
			c-1.435,0-2.729-0.535-3.235-0.957c-0.197-0.394-0.45-2.306-0.45-3.319l0.731-0.141c0.506,1.856,1.771,3.488,3.459,3.488
			c1.041,0,1.998-0.787,1.998-1.969c0-1.237-0.815-1.912-2.222-2.559c-1.688-0.787-3.517-1.715-3.517-3.881
			c0-1.969,1.687-3.628,4.275-3.628c1.152,0,1.912,0.253,2.503,0.479c0.226,0.646,0.534,2.306,0.619,3.009L325,112.62z"/>
		<path fill="#323031" d="M340.579,115.235c0,4.528-3.319,6.694-6.103,6.694c-3.854,0-6.16-3.094-6.16-6.217
			c0-4.64,3.6-6.75,6.16-6.75C337.965,108.963,340.579,111.747,340.579,115.235z M330.933,114.813c0,3.543,1.546,6.187,3.853,6.187
			c1.744,0,3.18-1.293,3.18-5.147c0-3.29-1.322-5.962-3.77-5.962C332.45,109.891,330.933,111.635,330.933,114.813z"/>
		<path fill="#323031" d="M355.878,120.917c-1.294,0.196-2.729,0.591-4.135,1.013l-0.169-0.169v-1.997
			c-0.646,0.479-1.294,0.984-2.081,1.463c-0.815,0.478-1.407,0.703-2.166,0.703c-1.884,0-3.487-1.153-3.487-4.191v-5.513
			c0-1.547-0.113-1.659-1.716-1.968v-0.647c1.322-0.085,2.672-0.254,4.021-0.507c-0.083,0.873-0.083,2.194-0.083,4.107v3.768
			c0,2.503,1.209,3.178,2.475,3.178c1.012,0,2.081-0.422,3.037-1.35v-6.553c0-1.603-0.169-1.715-2.193-1.996v-0.647
			c1.463-0.085,2.925-0.198,4.416-0.507v9.394c0,1.407,0.225,1.604,1.293,1.66l0.788,0.057V120.917z"/>
		<path fill="#323031" d="M365.1,121.591v-0.731c1.66-0.169,1.856-0.394,1.856-2.334v-4.696c0-1.941-0.675-3.207-2.56-3.207
			c-1.125,0-2.222,0.704-3.064,1.435v6.609c0,1.913,0.168,2.025,1.827,2.194v0.731h-6.104v-0.731
			c1.913-0.197,2.053-0.337,2.053-2.194v-5.822c0-1.8-0.167-1.884-1.687-2.166v-0.647c1.35-0.253,2.672-0.59,3.91-1.153v2.25
			c0.562-0.422,1.181-0.844,1.885-1.322c0.786-0.506,1.519-0.844,2.333-0.844c2.222,0,3.63,1.547,3.63,4.275v5.428
			c0,1.913,0.14,2.025,1.771,2.194v0.731H365.1z"/>
		<path fill="#323031" d="M386.08,120.86c-0.619,0.112-2.729,0.479-4.359,1.069v-1.828l-1.716,1.012
			c-1.097,0.647-1.856,0.816-2.194,0.816c-2.249,0-5.203-2.054-5.203-5.991c0-3.909,3.432-6.975,7.256-6.975
			c0.395,0,1.21,0.085,1.857,0.31v-3.966c0-1.856-0.142-1.94-2.166-2.081v-0.675c1.463-0.197,3.347-0.619,4.388-0.984v16.79
			c0,1.463,0.197,1.604,1.237,1.716l0.9,0.084V120.86z M381.721,111.438c-0.676-0.984-1.828-1.434-2.897-1.434
			c-1.293,0-3.656,1.097-3.656,5.174c0,3.347,2.054,4.979,3.854,4.979c1.013,0,2.024-0.449,2.7-0.957V111.438z"/>
		<path fill="#323031" d="M387.877,120.297c0-0.899,0.675-1.603,1.575-1.603c0.899,0,1.575,0.703,1.575,1.603
			c0,0.984-0.676,1.632-1.575,1.632C388.552,121.929,387.877,121.282,387.877,120.297z"/>
	</g>
	<g>
		<path fill="#323031" d="M140.386,136.353c-1.321,0.507-2.39,1.321-2.447,2.503c-0.056,0.872,0.507,1.379,1.35,1.575
			c0.17,0.057,0.339,0.225,0.311,0.506c-0.028,0.731-0.702,1.098-1.236,1.098c-0.985,0-2.251-0.957-2.195-2.616
			c0.084-2.223,2.278-3.375,3.909-3.825L140.386,136.353z M145.139,136.353c-1.322,0.507-2.418,1.351-2.475,2.531
			c-0.057,0.872,0.535,1.378,1.378,1.604c0.169,0.027,0.338,0.196,0.338,0.478c-0.057,0.731-0.731,1.125-1.266,1.125
			c-0.985,0-2.277-0.956-2.193-2.672c0.084-2.223,2.278-3.375,3.937-3.825L145.139,136.353z"/>
		<path fill="#323031" d="M152.084,144.453l-2.784,0.141l-1.659,7.762c-0.281,1.379-0.141,1.688,0.169,1.688
			c0.478,0,1.856-0.928,2.53-1.631l0.395,0.591c-0.928,1.124-3.037,3.01-4.528,3.01c-0.647,0-1.208-0.817-0.59-3.714l1.659-7.705
			h-2.082l-0.085-0.254l0.704-0.844h1.688l0.646-2.672l2.138-1.744l0.254,0.17l-0.985,4.246h3.264L152.084,144.453z"/>
		<path fill="#323031" d="M165.162,153.313c-1.492,1.715-3.234,2.7-4.051,2.7c-0.73,0-0.928-0.788-0.479-2.729l1.491-6.525
			c0.338-1.49,0.225-1.996-0.226-1.996c-1.293,0-4.584,3.15-5.963,5.598c-0.281,1.236-0.787,3.74-1.04,5.118
			c-0.647,0.112-1.378,0.31-1.997,0.535l-0.197-0.226c1.21-5.428,2.447-11.109,3.545-16.875c0.309-1.463,0.168-1.547-0.929-1.576
			l-0.815-0.027l0.084-0.674c2.223-0.227,3.741-0.985,4.135-0.985c0.252,0,0.281,0.225,0.113,0.985l-2.532,11.671h0.057
			c1.856-2.503,3.937-3.993,5.203-4.669c0.73-0.394,1.378-0.59,1.884-0.59c0.703,0,1.491,0.506,0.787,3.571l-1.461,6.3
			c-0.17,0.816-0.142,1.014,0.084,1.014c0.28,0,1.152-0.535,1.939-1.295L165.162,153.313z"/>
		<path fill="#323031" d="M176.186,152.834c-2.477,2.644-4.586,3.179-5.937,3.179c-1.292,0-3.094-0.76-3.094-4.106
			c0-2.645,1.153-5.598,3.376-7.285c1.209-0.928,2.699-1.574,3.881-1.574c1.491,0,2.475,1.041,2.475,2.25
			c0,2.784-4.725,4.303-7.424,4.979c-0.057,0.337-0.057,0.619-0.057,0.898c0,1.52,0.478,3.18,2.193,3.18
			c1.182,0,2.7-0.789,4.106-2.166L176.186,152.834z M172.219,144.537c-0.759,0.422-2.166,1.716-2.644,4.865
			c4.021-1.068,5.202-2.362,5.202-3.656c0-0.984-0.59-1.547-1.405-1.547C172.978,144.199,172.528,144.34,172.219,144.537z"/>
		<path fill="#323031" d="M197.05,153.313c-1.49,1.715-3.233,2.7-4.05,2.7c-0.73,0-0.928-0.788-0.478-2.729l1.49-6.525
			c0.337-1.49,0.225-1.996-0.226-1.996c-1.293,0-4.584,3.15-5.961,5.598c-0.282,1.236-0.788,3.74-1.041,5.118
			c-0.646,0.112-1.379,0.31-1.997,0.535l-0.197-0.226c1.21-5.428,2.447-11.109,3.544-16.875c0.309-1.463,0.169-1.547-0.928-1.576
			l-0.816-0.027l0.085-0.674c2.222-0.227,3.74-0.985,4.135-0.985c0.253,0,0.28,0.225,0.11,0.985l-2.529,11.671h0.055
			c1.857-2.503,3.938-3.993,5.204-4.669c0.731-0.394,1.378-0.59,1.885-0.59c0.702,0,1.489,0.506,0.788,3.571l-1.464,6.3
			c-0.168,0.816-0.14,1.014,0.085,1.014c0.281,0,1.153-0.535,1.941-1.295L197.05,153.313z"/>
		<path fill="#323031" d="M211.73,153.143c-1.352,1.632-3.207,2.87-4.079,2.87c-0.591,0-0.984-0.535-0.421-2.981
			c0.225-0.984,0.336-1.547,0.533-2.476h-0.056c-1.378,1.829-3.038,3.544-4.528,4.585c-0.787,0.563-1.604,0.872-2.278,0.872
			c-0.76,0-1.66-0.535-0.928-3.573c0.506-2.164,1.013-4.33,1.519-6.469c0.168-0.703,0.141-0.955-0.084-0.955
			c-0.198,0-0.985,0.563-1.97,1.35l-0.309-0.676c1.631-1.631,3.375-2.643,4.134-2.643c0.647,0,0.76,0.563,0.31,2.447
			c-0.507,2.221-1.013,4.499-1.548,6.749c-0.309,1.379-0.084,1.856,0.338,1.856c1.575,0,4.726-3.769,5.822-5.822
			c0.311-1.293,0.648-2.783,1.013-4.5l1.94-0.73h0.309c-0.758,2.981-1.49,6.131-2.193,9.787c-0.168,0.872-0.112,1.098,0.086,1.098
			c0.252,0,1.265-0.676,2.023-1.463L211.73,153.143z"/>
		<path fill="#323031" d="M212.936,153.986c-0.026-0.477,0.338-0.898,0.816-1.18c0.337-0.17,0.563-0.113,0.703,0.084
			c0.731,1.096,1.771,1.715,2.7,1.715c1.125,0,1.855-0.787,1.855-1.688c0-0.703-0.31-1.322-1.632-2.362
			c-1.265-0.956-2.445-1.997-2.445-3.431c0-0.844,0.338-1.744,1.463-2.729c0.872-0.76,2.222-1.35,3.122-1.35
			c1.237,0,2.193,0.844,2.193,1.574c0,0.479-0.282,0.9-0.703,1.154c-0.282,0.168-0.45,0.111-0.619-0.113
			c-0.563-0.703-1.237-1.266-2.194-1.266c-0.816,0-1.518,0.619-1.518,1.574c0,1.014,0.815,1.717,1.827,2.504
			c1.688,1.266,2.363,2.081,2.363,3.291c0,2.137-2.813,4.247-5.091,4.247C214.455,156.013,212.936,154.971,212.936,153.986z"/>
		<path fill="#323031" d="M234.508,153.453c-1.322,2.081-2.504,2.56-3.095,2.56c-0.59,0-1.153-0.338-1.856-1.856
			c-0.674-1.436-1.434-3.235-2.137-5.231c-0.731,0.759-1.293,1.321-1.574,1.8c-0.311,1.519-0.648,3.15-0.958,4.753
			c-0.729,0.141-1.435,0.31-2.024,0.535l-0.197-0.169c1.35-5.738,2.616-11.391,3.825-17.242c0.226-1.125,0.085-1.236-1.013-1.266
			l-0.871-0.027l0.141-0.674c2.278-0.254,3.769-0.985,4.135-0.985c0.28,0,0.253,0.253,0.139,0.815
			c-0.954,4.19-1.855,8.326-2.812,12.516h0.028c0.872-1.04,1.603-1.743,2.418-2.531c1.576-1.604,3.629-3.402,4.923-3.402
			c0.76,0,1.181,0.449,1.181,0.871c0,0.337-0.281,0.844-0.563,1.125c-0.169,0.141-0.336,0.197-0.449,0.141
			c-0.254-0.111-0.592-0.225-1.069-0.225c-1.293,0-2.868,1.463-3.657,2.334c0.507,1.772,1.632,4.303,2.308,5.541
			c0.507,1.041,0.788,1.35,1.097,1.35c0.281,0,0.9-0.478,1.603-1.293L234.508,153.453z"/>
		<path fill="#323031" d="M241.34,153.564c1.209-1.855,3.797-5.681,3.769-7.734c0-0.563-0.169-1.012-0.31-1.32
			c-0.084-0.197-0.057-0.479,0.057-0.704c0.196-0.421,0.703-0.759,1.182-0.759c0.617,0,1.097,0.619,1.097,1.547
			c0.027,0.787-0.281,1.743-0.984,2.98c-1.21,2.138-3.601,5.85-5.091,7.96c-1.66,2.391-3.488,4.866-5.063,6.61l-2.926,0.76
			l-0.225-0.619c3.009-1.971,5.23-4.445,6.609-6.301c-0.027-2.223-0.479-6.609-0.872-9.17c-0.196-1.405-0.364-1.742-0.591-1.742
			c-0.224,0-0.928,0.646-1.631,1.631l-0.479-0.648c0.9-1.405,2.307-3.008,3.318-3.008c0.789,0,1.211,1.041,1.435,3.29
			c0.282,2.138,0.479,4.669,0.647,7.228H241.34z"/>
		<path fill="#323031" d="M266.874,153.313c-1.49,1.715-3.234,2.7-4.05,2.7c-0.73,0-0.929-0.788-0.479-2.729l1.49-6.525
			c0.338-1.49,0.226-1.996-0.224-1.996c-1.294,0-4.585,3.15-5.963,5.598c-0.282,1.236-0.789,3.74-1.042,5.118
			c-0.646,0.112-1.377,0.31-1.995,0.535l-0.198-0.226c1.21-5.428,2.446-11.109,3.545-16.875c0.309-1.463,0.168-1.547-0.929-1.576
			l-0.815-0.027l0.084-0.674c2.222-0.227,3.741-0.985,4.135-0.985c0.254,0,0.281,0.225,0.112,0.985l-2.532,11.671h0.058
			c1.855-2.503,3.938-3.993,5.203-4.669c0.73-0.394,1.378-0.59,1.884-0.59c0.703,0,1.491,0.506,0.787,3.571l-1.461,6.3
			c-0.169,0.816-0.142,1.014,0.084,1.014c0.281,0,1.152-0.535,1.939-1.295L266.874,153.313z"/>
		<path fill="#323031" d="M268.924,151.624c0-3.655,1.941-6.44,4.275-7.678c1.013-0.534,2.166-0.899,3.038-0.899
			c2.335,0,3.741,1.603,3.741,4.387c0,2.419-1.041,5.176-3.011,6.807c-1.208,1.013-2.756,1.772-4.33,1.772
			C269.966,156.013,268.924,153.902,268.924,151.624z M274.551,154.719c1.519-0.646,3.064-3.629,3.064-7.229
			c0-2.277-0.984-3.375-2.277-3.375c-0.422,0-0.76,0.113-1.068,0.254c-1.098,0.477-2.981,2.783-2.981,7.115
			c0,2.08,0.872,3.402,2.362,3.402C273.987,154.887,274.27,154.83,274.551,154.719z"/>
		<path fill="#323031" d="M293.42,153.115c1.153-1.575,3.965-5.456,3.965-7.256c0-0.592-0.139-0.984-0.281-1.295
			c-0.111-0.195-0.111-0.477,0-0.703c0.197-0.449,0.677-0.814,1.154-0.814c0.703,0,1.21,0.619,1.21,1.603
			c0,0.956-0.534,1.884-1.153,2.952c-0.957,1.548-4.359,6.245-5.935,8.411h-0.788c-0.225-2.981-0.507-5.936-0.787-8.775h-0.058
			c-1.799,3.009-3.852,6.3-5.37,8.775h-0.732c-0.027-2.729-0.169-6.356-0.281-9.057c-0.056-1.351-0.168-1.856-0.449-1.856
			c-0.196,0-0.619,0.338-1.659,1.434l-0.478-0.563c1.18-1.574,2.643-2.924,3.6-2.924c0.646,0,0.955,0.844,1.012,2.783
			c0.057,2.251,0.085,4.782,0.085,6.639h0.056c1.688-2.897,3.572-5.963,5.231-9h0.703c0.31,3.149,0.563,6.412,0.9,9.646H293.42z"/>
		<path fill="#323031" d="M305.764,153.003c-1.462,1.743-3.459,3.01-4.33,3.01c-0.535,0-0.986-0.647-0.395-3.403
			c0.984-4.613,1.969-9.225,2.926-13.867c0.28-1.209,0.111-1.406-1.182-1.406l-0.76-0.027l0.111-0.674
			c2.194-0.254,3.799-0.985,4.164-0.985c0.252,0,0.281,0.253,0.168,0.844c-1.152,5.429-2.307,10.884-3.487,16.454
			c-0.168,0.814-0.056,0.984,0.112,0.984c0.311,0,1.463-0.732,2.251-1.547L305.764,153.003z"/>
		<path fill="#323031" d="M316.451,152.834c-2.475,2.644-4.584,3.179-5.936,3.179c-1.293,0-3.094-0.76-3.094-4.106
			c0-2.645,1.154-5.598,3.375-7.285c1.21-0.928,2.7-1.574,3.882-1.574c1.491,0,2.476,1.041,2.476,2.25
			c0,2.784-4.726,4.303-7.426,4.979c-0.056,0.337-0.056,0.619-0.056,0.898c0,1.52,0.479,3.18,2.194,3.18
			c1.18,0,2.699-0.789,4.105-2.166L316.451,152.834z M312.485,144.537c-0.76,0.422-2.166,1.716-2.644,4.865
			c4.021-1.068,5.203-2.362,5.203-3.656c0-0.984-0.591-1.547-1.407-1.547C313.244,144.199,312.794,144.34,312.485,144.537z"/>
		<path fill="#323031" d="M330.904,153.172c-1.489,1.771-3.346,2.841-4.133,2.841c-0.563,0-0.957-0.45-0.507-2.616l0.507-2.391
			l-0.057,0.028c-1.266,1.687-2.729,2.925-3.713,3.685c-1.04,0.844-1.94,1.294-2.729,1.294c-0.928,0-1.828-1.126-1.828-3.376
			c0-2.644,1.21-5.652,3.263-7.424c1.322-1.154,3.656-2.166,4.979-2.166c0.393,0,0.955,0.027,1.658,0.309l0.929-4.641
			c0.253-1.266,0.169-1.379-1.069-1.379h-0.899l0.084-0.701c2.362-0.282,3.882-0.985,4.304-0.985c0.253,0,0.31,0.225,0.196,0.787
			c-1.321,5.626-2.504,11.081-3.486,16.538c-0.142,0.676-0.086,0.928,0.11,0.928c0.338,0,1.238-0.619,1.998-1.377L330.904,153.172z
			 M327.107,149.009l0.901-4.022c-0.422-0.393-1.435-0.731-2.278-0.731c-0.872,0-1.463,0.226-1.969,0.591
			c-1.885,1.35-2.981,4.895-2.981,7.258c0,1.434,0.394,2.08,0.872,2.08C323.087,154.184,326.181,150.696,327.107,149.009z"/>
		<path fill="#323031" d="M344.486,153.003c-1.462,1.743-3.459,3.01-4.332,3.01c-0.533,0-0.984-0.647-0.393-3.403
			c0.984-4.613,1.968-9.225,2.925-13.867c0.281-1.209,0.112-1.406-1.182-1.406l-0.759-0.027l0.113-0.674
			c2.192-0.254,3.797-0.985,4.162-0.985c0.252,0,0.281,0.253,0.168,0.844c-1.152,5.429-2.307,10.884-3.487,16.454
			c-0.169,0.814-0.056,0.984,0.112,0.984c0.31,0,1.463-0.732,2.25-1.547L344.486,153.003z"/>
		<path fill="#323031" d="M346.201,151.624c0-3.655,1.94-6.44,4.275-7.678c1.012-0.534,2.166-0.899,3.037-0.899
			c2.334,0,3.74,1.603,3.74,4.387c0,2.419-1.039,5.176-3.009,6.807c-1.21,1.013-2.757,1.772-4.332,1.772
			C347.242,156.013,346.201,153.902,346.201,151.624z M351.826,154.719c1.52-0.646,3.066-3.629,3.066-7.229
			c0-2.277-0.985-3.375-2.278-3.375c-0.422,0-0.76,0.113-1.069,0.254c-1.098,0.477-2.981,2.783-2.981,7.115
			c0,2.08,0.872,3.402,2.362,3.402C351.264,154.887,351.545,154.83,351.826,154.719z"/>
		<path fill="#323031" d="M372.047,153.143c-1.35,1.632-3.205,2.87-4.078,2.87c-0.591,0-0.984-0.535-0.422-2.981
			c0.225-0.984,0.337-1.547,0.534-2.476h-0.057c-1.378,1.829-3.037,3.544-4.528,4.585c-0.787,0.563-1.603,0.872-2.277,0.872
			c-0.759,0-1.66-0.535-0.929-3.573c0.507-2.164,1.013-4.33,1.519-6.469c0.169-0.703,0.141-0.955-0.084-0.955
			c-0.196,0-0.984,0.563-1.969,1.35l-0.31-0.676c1.632-1.631,3.376-2.643,4.135-2.643c0.646,0,0.759,0.563,0.31,2.447
			c-0.506,2.221-1.013,4.499-1.548,6.749c-0.308,1.379-0.084,1.856,0.338,1.856c1.576,0,4.726-3.769,5.822-5.822
			c0.31-1.293,0.646-2.783,1.013-4.5l1.94-0.73h0.31c-0.76,2.981-1.491,6.131-2.194,9.787c-0.168,0.872-0.112,1.098,0.085,1.098
			c0.254,0,1.266-0.676,2.025-1.463L372.047,153.143z"/>
		<path fill="#323031" d="M386.36,153.172c-1.492,1.771-3.348,2.841-4.135,2.841c-0.563,0-0.956-0.45-0.506-2.616l0.506-2.391
			l-0.057,0.028c-1.265,1.687-2.728,2.925-3.712,3.685c-1.041,0.844-1.94,1.294-2.729,1.294c-0.929,0-1.828-1.126-1.828-3.376
			c0-2.644,1.21-5.652,3.263-7.424c1.322-1.154,3.657-2.166,4.978-2.166c0.395,0,0.956,0.027,1.659,0.309l0.929-4.641
			c0.254-1.266,0.169-1.379-1.068-1.379h-0.9l0.084-0.701c2.362-0.282,3.881-0.985,4.304-0.985c0.253,0,0.31,0.225,0.197,0.787
			c-1.321,5.626-2.503,11.081-3.487,16.538c-0.142,0.676-0.085,0.928,0.112,0.928c0.338,0,1.236-0.619,1.997-1.377L386.36,153.172z
			 M382.563,149.009l0.9-4.022c-0.422-0.393-1.435-0.731-2.277-0.731c-0.873,0-1.463,0.226-1.97,0.591
			c-1.884,1.35-2.981,4.895-2.981,7.258c0,1.434,0.395,2.08,0.872,2.08C378.541,154.184,381.635,150.696,382.563,149.009z"/>
		<path fill="#323031" d="M393.389,153.003c-1.463,1.743-3.459,3.01-4.33,3.01c-0.535,0-0.984-0.647-0.395-3.403
			c0.984-4.613,1.969-9.225,2.924-13.867c0.282-1.209,0.113-1.406-1.181-1.406l-0.759-0.027l0.112-0.674
			c2.194-0.254,3.797-0.985,4.162-0.985c0.255,0,0.281,0.253,0.169,0.844c-1.152,5.429-2.306,10.884-3.488,16.454
			c-0.168,0.814-0.055,0.984,0.114,0.984c0.309,0,1.462-0.732,2.249-1.547L393.389,153.003z"/>
		<path fill="#323031" d="M400.278,153.564c1.21-1.855,3.798-5.681,3.77-7.734c0-0.563-0.169-1.012-0.31-1.32
			c-0.084-0.197-0.057-0.479,0.057-0.704c0.196-0.421,0.703-0.759,1.181-0.759c0.619,0,1.097,0.619,1.097,1.547
			c0.028,0.787-0.281,1.743-0.984,2.98c-1.209,2.138-3.6,5.85-5.091,7.96c-1.659,2.391-3.488,4.866-5.062,6.61l-2.926,0.76
			l-0.225-0.619c3.01-1.971,5.231-4.445,6.609-6.301c-0.028-2.223-0.479-6.609-0.872-9.17c-0.196-1.405-0.365-1.742-0.591-1.742
			c-0.225,0-0.928,0.646-1.631,1.631l-0.479-0.648c0.9-1.405,2.307-3.008,3.318-3.008c0.788,0,1.211,1.041,1.435,3.29
			c0.281,2.138,0.479,4.669,0.647,7.228H400.278z"/>
		<path fill="#323031" d="M407.844,141.415c1.35-0.506,2.418-1.294,2.475-2.503c0.057-0.872-0.534-1.379-1.379-1.604
			c-0.169-0.027-0.338-0.168-0.309-0.449c0.028-0.732,0.703-1.126,1.237-1.126c0.984,0,2.25,0.956,2.166,2.673
			c-0.057,2.165-2.25,3.347-3.909,3.769L407.844,141.415z M412.598,141.415c1.321-0.506,2.445-1.294,2.501-2.503
			c0.028-0.872-0.534-1.379-1.405-1.604c-0.169-0.027-0.309-0.168-0.309-0.449c0.027-0.732,0.703-1.126,1.236-1.126
			c0.985,0,2.277,0.956,2.193,2.644c-0.084,2.194-2.25,3.376-3.909,3.798L412.598,141.415z"/>
	</g>
	<g>
		<path fill="#D1232A" d="M114.628,211.637c-0.366,1.18-0.647,2.418-0.985,3.684h-10.52v-0.646c1.576-1.547,3.15-3.15,4.557-4.781
			c1.745-2.082,3.517-4.389,3.517-6.807c0-2.363-1.237-3.742-3.319-3.742c-1.912,0-3.094,1.52-3.825,2.617l-0.618-0.563l1.604-2.279
			c0.844-0.928,2.166-1.658,3.797-1.658c2.475,0,4.725,1.801,4.725,4.752c0,2.447-1.125,4.107-3.713,6.863l-3.993,4.191h5.26
			c1.518,0,1.884-0.113,2.729-1.885L114.628,211.637z"/>
		<path fill="#D1232A" d="M117.382,214.025c0-0.898,0.675-1.602,1.574-1.602c0.9,0,1.576,0.703,1.576,1.602
			c0,0.984-0.676,1.633-1.576,1.633C118.057,215.658,117.382,215.01,117.382,214.025z"/>
	</g>
	<g>
		<path fill="#D1232A" d="M140.863,220.074c-4.105-2.756-5.963-7.285-5.963-12.375c0-5.035,1.857-9.535,5.963-12.32l0.508,0.646
			c-2.813,2.334-4.416,6.863-4.416,11.701s1.631,9.365,4.416,11.729L140.863,220.074z"/>
		<path fill="#D1232A" d="M155.966,208.963c0,4.529-3.318,6.695-6.104,6.695c-3.853,0-6.159-3.094-6.159-6.217
			c0-4.641,3.6-6.75,6.159-6.75C153.352,202.691,155.966,205.477,155.966,208.963z M146.319,208.543
			c0,3.543,1.546,6.186,3.854,6.186c1.743,0,3.179-1.293,3.179-5.146c0-3.291-1.322-5.961-3.771-5.961
			C147.838,203.621,146.319,205.363,146.319,208.543z"/>
		<path fill="#D1232A" d="M159.536,203.029v-0.619c0-0.871,0.112-1.688,0.31-2.305c0.195-0.619,0.646-1.998,2.165-3.291
			c0.984-0.873,1.997-1.379,3.094-1.52c0.957,0.027,1.772,0.422,2.223,0.957c0.253,0.309,0.28,0.674,0.14,0.984
			c-0.083,0.225-0.253,0.449-0.534,0.674c-0.253,0.197-0.506,0.197-0.76-0.084c-0.562-0.506-1.349-1.041-2.278-1.041
			c-0.73,0-1.181,0.338-1.489,0.844c-0.366,0.535-0.676,1.885-0.647,4.275v1.125h3.318c0.17,0.254,0.028,0.928-0.281,1.098h-3.037
			v8.1c0,2.082,0.196,2.166,2.418,2.391v0.703h-6.638v-0.732c1.802-0.168,1.998-0.309,1.998-2.164v-8.297h-1.97l-0.112-0.281
			l0.761-0.816H159.536z"/>
		<path fill="#D1232A" d="M181.189,215.658c-0.42,0-1.012-0.254-1.321-0.535c-0.366-0.395-0.534-0.787-0.676-1.266
			c-1.124,0.76-2.475,1.801-3.319,1.801c-1.996,0-3.374-1.66-3.374-3.432c0-1.379,0.731-2.25,2.278-2.785
			c1.688-0.563,3.741-1.322,4.359-1.828v-0.506c0-2.025-0.957-3.178-2.363-3.178c-0.563,0-0.983,0.225-1.265,0.563
			c-0.366,0.365-0.619,0.984-0.844,1.855c-0.113,0.451-0.423,0.646-0.815,0.646c-0.507,0-1.238-0.563-1.238-1.209
			c0-0.422,0.366-0.73,0.9-1.125c0.787-0.563,2.615-1.658,4.22-1.969c0.843,0,1.687,0.254,2.305,0.76
			c0.985,0.816,1.267,1.969,1.267,3.432v5.23c0,1.266,0.506,1.688,0.983,1.688c0.339,0,0.731-0.141,1.013-0.309l0.281,0.73
			L181.189,215.658z M179.137,208.57c-0.591,0.309-1.941,0.9-2.531,1.182c-1.097,0.506-1.716,1.041-1.716,2.053
			c0,1.463,1.126,2.166,1.997,2.166c0.731-0.029,1.716-0.508,2.25-1.014V208.57z"/>
		<path fill="#D1232A" d="M204.672,214.588c-0.619,0.113-2.729,0.48-4.36,1.07v-1.828l-1.715,1.012
			c-1.097,0.646-1.856,0.816-2.194,0.816c-2.25,0-5.203-2.055-5.203-5.99c0-3.91,3.432-6.977,7.257-6.977
			c0.394,0,1.209,0.086,1.855,0.311v-3.967c0-1.855-0.14-1.939-2.165-2.08v-0.676c1.463-0.197,3.348-0.619,4.387-0.984v16.791
			c0,1.463,0.197,1.604,1.238,1.715l0.9,0.084V214.588z M200.312,205.166c-0.675-0.984-1.827-1.434-2.896-1.434
			c-1.295,0-3.657,1.098-3.657,5.176c0,3.346,2.053,4.977,3.853,4.977c1.013,0,2.025-0.449,2.7-0.955V205.166z"/>
		<path fill="#D1232A" d="M218.282,208.963c0,4.529-3.319,6.695-6.104,6.695c-3.852,0-6.158-3.094-6.158-6.217
			c0-4.641,3.6-6.75,6.158-6.75C215.666,202.691,218.282,205.477,218.282,208.963z M208.635,208.543
			c0,3.543,1.547,6.186,3.854,6.186c1.743,0,3.178-1.293,3.178-5.146c0-3.291-1.322-5.961-3.768-5.961
			C210.153,203.621,208.635,205.363,208.635,208.543z"/>
		<path fill="#D1232A" d="M232.483,203.227c-0.254,0.449-0.817,1.182-1.265,1.434l-1.605-0.084c0.536,0.619,0.845,1.49,0.845,2.504
			c0,3.037-2.531,4.5-4.923,4.5c-0.478,0-0.983-0.084-1.434-0.141c-0.394,0.252-0.844,0.76-0.844,1.152
			c0,0.563,0.507,1.098,1.771,1.098c1.013,0,2.025-0.029,2.954-0.029c1.743,0,4.05,0.563,4.05,3.32c0,2.84-3.291,5.568-7.032,5.568
			c-3.122,0-4.837-1.828-4.864-3.432c0-0.619,0.253-1.152,0.674-1.574c0.563-0.563,1.659-1.463,2.335-1.971
			c-1.013-0.309-1.716-0.955-2.082-1.547c-0.253-0.422-0.337-0.898-0.309-1.18c1.124-0.422,2.024-1.154,2.476-1.717
			c-1.268-0.533-2.476-1.855-2.476-3.77c0-3.205,2.868-4.668,5.034-4.668c0.957,0,1.884,0.254,2.701,0.703
			c1.377-0.055,2.812-0.225,3.824-0.393L232.483,203.227z M223.651,216.248c-0.731,0.592-1.293,1.379-1.293,2.193
			c0,1.52,1.63,2.672,3.712,2.672c2.672,0,4.051-1.377,4.051-3.121c0-0.957-0.479-1.66-1.295-1.996
			c-0.703-0.283-1.519-0.367-2.699-0.367C224.777,215.629,224.158,215.799,223.651,216.248z M223.174,206.91
			c0,2.195,1.068,3.77,2.643,3.77c1.238-0.027,2.336-1.125,2.336-3.348c0-2.221-1.042-3.797-2.645-3.797
			C224.271,203.535,223.174,204.717,223.174,206.91z"/>
		<path fill="#D1232A" d="M234.28,195.379c4.191,2.813,5.935,7.285,5.935,12.348s-1.743,9.506-5.935,12.348l-0.534-0.619
			c2.87-2.391,4.443-6.891,4.443-11.729s-1.631-9.395-4.443-11.701L234.28,195.379z"/>
		<path fill="#D1232A" d="M258.382,215.658c-0.423,0-1.013-0.254-1.321-0.535c-0.366-0.395-0.536-0.787-0.676-1.266
			c-1.125,0.76-2.475,1.801-3.318,1.801c-1.998,0-3.375-1.66-3.375-3.432c0-1.379,0.73-2.25,2.278-2.785
			c1.688-0.563,3.739-1.322,4.358-1.828v-0.506c0-2.025-0.956-3.178-2.363-3.178c-0.561,0-0.984,0.225-1.265,0.563
			c-0.365,0.365-0.618,0.984-0.845,1.855c-0.111,0.451-0.42,0.646-0.815,0.646c-0.505,0-1.236-0.563-1.236-1.209
			c0-0.422,0.364-0.73,0.899-1.125c0.787-0.563,2.616-1.658,4.219-1.969c0.844,0,1.688,0.254,2.307,0.76
			c0.984,0.816,1.266,1.969,1.266,3.432v5.23c0,1.266,0.506,1.688,0.985,1.688c0.337,0,0.73-0.141,1.011-0.309l0.281,0.73
			L258.382,215.658z M256.328,208.57c-0.59,0.309-1.94,0.9-2.531,1.182c-1.097,0.506-1.715,1.041-1.715,2.053
			c0,1.463,1.124,2.166,1.996,2.166c0.731-0.029,1.716-0.508,2.25-1.014V208.57z"/>
		<path fill="#D1232A" d="M278.798,212.789c-1.237,1.631-3.122,2.869-4.781,2.869c-3.544,0-5.625-2.869-5.625-5.879
			c0-2.166,0.927-4.051,2.813-5.512c1.461-1.125,3.149-1.576,4.246-1.576c1.126,0,2.054,0.367,2.503,0.732
			c0.367,0.309,0.45,0.563,0.45,0.871c0,0.59-0.618,1.209-0.928,1.209c-0.142,0-0.28-0.084-0.534-0.309
			c-0.844-0.787-1.829-1.154-2.813-1.154c-1.856,0-3.488,1.547-3.488,4.502c0,3.908,2.673,5.201,4.248,5.201
			c1.209,0,2.138-0.336,3.432-1.545L278.798,212.789z"/>
		<path fill="#D1232A" d="M284.365,205.674c0.842-1.406,2.052-2.982,3.402-2.982c0.956,0,1.631,0.732,1.631,1.406
			c0,0.563-0.364,1.125-0.898,1.379c-0.339,0.141-0.592,0.111-0.761-0.057c-0.394-0.422-0.731-0.59-1.181-0.59
			c-0.732,0-1.631,0.844-2.251,2.418v5.146c0,1.857,0.141,2.025,2.308,2.193v0.732h-6.47v-0.732c1.743-0.168,1.94-0.336,1.94-2.193
			v-5.822c0-1.855-0.141-1.969-1.744-2.193v-0.619c1.379-0.225,2.617-0.561,3.966-1.152v3.066H284.365z"/>
		<path fill="#D1232A" d="M303.882,203.732c-1.492,0.225-1.745,0.449-2.503,2.053c-0.704,1.49-1.575,3.826-3.516,8.467
			c-1.885,4.5-2.504,6.104-2.897,7.621c-0.14,0.535-0.507,0.676-0.9,0.676c-0.788,0-1.603-0.676-1.603-1.35
			c0-0.451,0.252-0.703,0.73-1.014c0.872-0.563,1.434-1.266,2.082-2.502c0.534-0.984,0.759-1.576,0.871-1.941
			c0.142-0.422,0.142-0.787-0.028-1.266c-1.124-3.207-2.391-6.609-3.233-8.607c-0.591-1.547-0.872-1.912-2.419-2.137v-0.703h5.71
			v0.703c-1.295,0.225-1.436,0.506-1.068,1.547l2.559,7.061c0.787-1.914,1.996-5.232,2.587-7.004
			c0.338-1.068,0.142-1.379-1.464-1.604v-0.703h5.093V203.732z"/>
		<path fill="#D1232A" d="M312.569,203.029v-0.619c0-0.871,0.112-1.688,0.309-2.305c0.198-0.619,0.647-1.998,2.167-3.291
			c0.983-0.873,1.996-1.379,3.094-1.52c0.956,0.027,1.771,0.422,2.221,0.957c0.254,0.309,0.281,0.674,0.141,0.984
			c-0.083,0.225-0.253,0.449-0.533,0.674c-0.254,0.197-0.506,0.197-0.76-0.084c-0.563-0.506-1.35-1.041-2.278-1.041
			c-0.73,0-1.182,0.338-1.49,0.844c-0.366,0.535-0.675,1.885-0.646,4.275v1.125h3.317c0.17,0.254,0.029,0.928-0.28,1.098h-3.037v8.1
			c0,2.082,0.196,2.166,2.418,2.391v0.703h-6.638v-0.732c1.801-0.168,1.997-0.309,1.997-2.164v-8.297h-1.968l-0.114-0.281
			l0.76-0.816H312.569z"/>
		<path fill="#D1232A" d="M331.131,208.963c0,4.529-3.318,6.695-6.104,6.695c-3.854,0-6.16-3.094-6.16-6.217
			c0-4.641,3.601-6.75,6.16-6.75C328.514,202.691,331.131,205.477,331.131,208.963z M321.483,208.543
			c0,3.543,1.547,6.186,3.854,6.186c1.741,0,3.176-1.293,3.176-5.146c0-3.291-1.32-5.961-3.768-5.961
			C323.002,203.621,321.483,205.363,321.483,208.543z"/>
		<path fill="#D1232A" d="M337.007,205.674c0.843-1.406,2.053-2.982,3.402-2.982c0.957,0,1.632,0.732,1.632,1.406
			c0,0.563-0.366,1.125-0.9,1.379c-0.337,0.141-0.591,0.111-0.759-0.057c-0.394-0.422-0.731-0.59-1.182-0.59
			c-0.731,0-1.632,0.844-2.251,2.418v5.146c0,1.857,0.142,2.025,2.307,2.193v0.732h-6.468v-0.732c1.743-0.168,1.94-0.336,1.94-2.193
			v-5.822c0-1.855-0.142-1.969-1.744-2.193v-0.619c1.379-0.225,2.615-0.561,3.965-1.152v3.066H337.007z"/>
		<path fill="#D1232A" d="M357.169,215.32v-0.732c1.632-0.168,1.856-0.336,1.856-2.164v-4.67c0-2.307-0.871-3.459-2.756-3.459
			c-1.069,0-2.138,0.535-2.925,1.434v6.695c0,1.799,0.14,1.996,1.8,2.164v0.732h-5.963v-0.732c1.688-0.139,1.941-0.309,1.941-2.164
			v-13.416c0-1.771-0.057-1.912-1.914-2.082v-0.646c1.352-0.197,3.039-0.646,4.136-0.984v9.449c0.984-1.012,2.503-2.053,4.022-2.053
			c2.277,0,3.881,1.436,3.881,4.809v4.924c0,1.855,0.196,2.025,1.855,2.164v0.732H357.169z"/>
		<path fill="#D1232A" d="M374.689,212.93c-1.771,2.223-3.712,2.729-4.585,2.729c-3.459,0-5.484-2.813-5.484-5.99
			c0-1.941,0.703-3.658,1.856-4.924c1.153-1.293,2.672-2.053,4.135-2.053c2.334,0,4.219,2.082,4.219,4.275
			c0,0.563-0.141,0.787-0.647,0.9c-0.478,0.084-3.994,0.365-7.341,0.477c0.028,3.826,2.222,5.4,4.191,5.4
			c1.124,0,2.193-0.449,3.206-1.404L374.689,212.93z M366.982,207.191c1.576,0,3.122-0.027,4.754-0.084
			c0.506,0,0.675-0.168,0.675-0.563c0.028-1.463-0.929-2.813-2.475-2.813C368.643,203.732,367.404,204.914,366.982,207.191z"/>
		<path fill="#D1232A" d="M375.868,215.32v-0.732c1.772-0.168,2.024-0.336,2.024-2.193v-13.303c0-1.912-0.168-1.996-1.94-2.137
			v-0.676c1.464-0.168,3.208-0.646,4.163-0.984v17.1c0,1.857,0.226,2.025,2.025,2.193v0.732H375.868z"/>
		<path fill="#D1232A" d="M389.593,203.113c0.506-0.281,1.04-0.422,1.378-0.422c3.121,0,4.978,2.531,4.978,5.316
			c0,4.246-3.347,6.975-7.003,7.65c-0.815-0.029-1.574-0.311-1.939-0.506v3.684c0,2.137,0.196,2.277,2.39,2.475v0.76h-6.666v-0.76
			c1.802-0.168,2.054-0.338,2.054-2.193v-12.713c0-1.828-0.112-1.885-1.857-2.109v-0.674c1.183-0.197,2.758-0.676,4.08-1.211v2.223
			L389.593,203.113z M387.006,213.182c0.617,0.648,1.687,1.098,2.643,1.098c2.363,0,3.938-2.025,3.938-5.203
			c0-3.01-1.715-4.697-3.77-4.697c-0.899,0-2.053,0.619-2.811,1.182V213.182z"/>
		<path fill="#D1232A" d="M397.831,214.025c0-0.898,0.675-1.602,1.575-1.602s1.575,0.703,1.575,1.602
			c0,0.984-0.675,1.633-1.575,1.633S397.831,215.01,397.831,214.025z"/>
	</g>
	<g>
		<path fill="#D1232A" d="M140.386,230.08c-1.321,0.508-2.39,1.322-2.447,2.504c-0.056,0.871,0.507,1.379,1.35,1.574
			c0.17,0.057,0.339,0.225,0.311,0.506c-0.028,0.732-0.702,1.098-1.236,1.098c-0.985,0-2.251-0.957-2.195-2.615
			c0.084-2.223,2.278-3.375,3.909-3.826L140.386,230.08z M145.139,230.08c-1.322,0.508-2.418,1.352-2.475,2.531
			c-0.057,0.873,0.535,1.379,1.378,1.604c0.169,0.027,0.338,0.197,0.338,0.479c-0.057,0.73-0.731,1.125-1.266,1.125
			c-0.985,0-2.277-0.957-2.193-2.672c0.084-2.223,2.278-3.375,3.937-3.826L145.139,230.08z"/>
		<path fill="#D1232A" d="M152.084,238.18l-2.784,0.141l-1.659,7.764c-0.281,1.379-0.141,1.688,0.169,1.688
			c0.478,0,1.856-0.928,2.53-1.631l0.395,0.59c-0.928,1.125-3.037,3.01-4.528,3.01c-0.647,0-1.208-0.816-0.59-3.713l1.659-7.707
			h-2.082l-0.085-0.252l0.704-0.844h1.688l0.646-2.672l2.138-1.744l0.254,0.17l-0.985,4.246h3.264L152.084,238.18z"/>
		<path fill="#D1232A" d="M165.162,247.041c-1.492,1.715-3.234,2.699-4.051,2.699c-0.73,0-0.928-0.787-0.479-2.729l1.491-6.525
			c0.338-1.49,0.225-1.996-0.226-1.996c-1.293,0-4.584,3.15-5.963,5.596c-0.281,1.238-0.787,3.742-1.04,5.119
			c-0.647,0.113-1.378,0.311-1.997,0.535l-0.197-0.225c1.21-5.43,2.447-11.109,3.545-16.875c0.309-1.463,0.168-1.549-0.929-1.576
			l-0.815-0.027l0.084-0.676c2.223-0.225,3.741-0.984,4.135-0.984c0.252,0,0.281,0.225,0.113,0.984l-2.532,11.672h0.057
			c1.856-2.502,3.937-3.992,5.203-4.668c0.73-0.395,1.378-0.592,1.884-0.592c0.703,0,1.491,0.508,0.787,3.572l-1.461,6.301
			c-0.17,0.816-0.142,1.014,0.084,1.014c0.28,0,1.152-0.535,1.939-1.295L165.162,247.041z"/>
		<path fill="#D1232A" d="M176.186,246.563c-2.477,2.643-4.586,3.178-5.937,3.178c-1.292,0-3.094-0.76-3.094-4.105
			c0-2.645,1.153-5.598,3.376-7.285c1.209-0.928,2.699-1.576,3.881-1.576c1.491,0,2.475,1.043,2.475,2.252
			c0,2.783-4.725,4.303-7.424,4.977c-0.057,0.338-0.057,0.619-0.057,0.9c0,1.52,0.478,3.18,2.193,3.18
			c1.182,0,2.7-0.789,4.106-2.168L176.186,246.563z M172.219,238.266c-0.759,0.42-2.166,1.715-2.644,4.865
			c4.021-1.068,5.202-2.363,5.202-3.656c0-0.984-0.59-1.547-1.405-1.547C172.978,237.928,172.528,238.068,172.219,238.266z"/>
		<path fill="#D1232A" d="M197.22,246.898c-1.492,1.773-3.348,2.842-4.135,2.842c-0.563,0-0.957-0.449-0.507-2.615l0.507-2.391
			l-0.058,0.027c-1.265,1.688-2.727,2.926-3.711,3.686c-1.041,0.844-1.941,1.293-2.729,1.293c-0.929,0-1.828-1.125-1.828-3.375
			c0-2.645,1.209-5.652,3.262-7.426c1.322-1.152,3.657-2.166,4.979-2.166c0.395,0,0.956,0.029,1.659,0.311l0.929-4.641
			c0.253-1.266,0.168-1.379-1.068-1.379h-0.9l0.084-0.703c2.362-0.281,3.881-0.984,4.304-0.984c0.253,0,0.31,0.225,0.196,0.787
			c-1.322,5.625-2.503,11.082-3.486,16.539c-0.142,0.674-0.086,0.928,0.111,0.928c0.338,0,1.237-0.619,1.996-1.377L197.22,246.898z
			 M193.422,242.736l0.899-4.021c-0.421-0.395-1.434-0.732-2.278-0.732c-0.871,0-1.461,0.227-1.967,0.592
			c-1.885,1.35-2.982,4.895-2.982,7.256c0,1.436,0.394,2.082,0.871,2.082C189.4,247.912,192.494,244.424,193.422,242.736z"/>
		<path fill="#D1232A" d="M199.102,245.352c0-3.654,1.939-6.439,4.274-7.678c1.012-0.533,2.165-0.9,3.037-0.9
			c2.336,0,3.742,1.604,3.742,4.389c0,2.418-1.041,5.176-3.011,6.807c-1.209,1.012-2.757,1.771-4.332,1.771
			C200.142,249.74,199.102,247.631,199.102,245.352z M204.726,248.447c1.52-0.646,3.066-3.629,3.066-7.229
			c0-2.279-0.984-3.377-2.278-3.377c-0.422,0-0.76,0.113-1.069,0.254c-1.097,0.479-2.981,2.785-2.981,7.115
			c0,2.082,0.872,3.404,2.363,3.404C204.163,248.615,204.444,248.559,204.726,248.447z"/>
		<path fill="#D1232A" d="M224.412,237.422c-0.815,0.898-1.547,1.238-1.997,1.322c-0.226,0.057-0.421,0.084-0.731,0.084
			c0.141,0.393,0.226,0.814,0.226,1.574c0,1.998-1.097,3.488-2.137,4.303c-0.761,0.619-2.026,1.322-3.63,1.633
			c-0.337,0.279-0.563,0.561-0.563,0.9c0,0.422,0.675,0.928,2.025,1.631c2.701,1.434,3.797,2.531,3.797,3.74
			c0,2.334-3.938,4.021-6.637,4.021c-2.729,0-5.092-1.406-5.035-3.148c0.028-1.211,1.631-2.477,4.725-4.051
			c-0.703-0.451-1.068-1.014-1.04-1.379c0-0.451,0.393-0.955,1.715-1.744c-1.603-0.365-2.446-1.52-2.446-3.432
			c0-1.828,0.928-3.572,2.362-4.697c1.153-0.928,2.587-1.406,3.601-1.406c0.899,0,1.771,0.254,2.391,0.789
			c1.631-0.029,2.644-0.338,3.178-0.676L224.412,237.422z M219.349,253.367c0-0.758-0.759-1.461-2.053-2.221
			c-0.928-0.563-1.716-1.012-2.109-1.209c-1.884,0.9-3.122,2.025-3.122,3.064c0,1.436,1.857,2.447,3.826,2.447
			C218,255.449,219.349,254.465,219.349,253.367z M219.827,240.486c0-1.602-0.646-2.729-1.885-2.729
			c-0.815,0-1.546,0.508-2.052,1.268c-0.591,0.844-1.07,2.137-1.07,3.656c0,1.658,0.816,2.529,1.828,2.529
			C218.14,245.211,219.827,243.496,219.827,240.486z"/>
		<path fill="#D1232A" d="M242.719,247.041c-1.491,1.715-3.234,2.699-4.05,2.699c-0.731,0-0.929-0.787-0.479-2.729l1.492-6.525
			c0.337-1.49,0.224-1.996-0.225-1.996c-1.295,0-4.586,3.15-5.965,5.596c-0.28,1.238-0.787,3.742-1.039,5.119
			c-0.647,0.113-1.378,0.311-1.998,0.535l-0.196-0.225c1.209-5.43,2.446-11.109,3.544-16.875c0.31-1.463,0.169-1.549-0.929-1.576
			l-0.814-0.027l0.084-0.676c2.222-0.225,3.741-0.984,4.134-0.984c0.253,0,0.281,0.225,0.113,0.984l-2.531,11.672h0.057
			c1.855-2.502,3.937-3.992,5.202-4.668c0.73-0.395,1.379-0.592,1.884-0.592c0.704,0,1.492,0.508,0.788,3.572l-1.462,6.301
			c-0.169,0.816-0.141,1.014,0.084,1.014c0.281,0,1.153-0.535,1.94-1.295L242.719,247.041z"/>
		<path fill="#D1232A" d="M244.769,245.352c0-3.654,1.941-6.439,4.276-7.678c1.012-0.533,2.165-0.9,3.037-0.9
			c2.334,0,3.74,1.604,3.74,4.389c0,2.418-1.041,5.176-3.01,6.807c-1.209,1.012-2.756,1.771-4.33,1.771
			C245.81,249.74,244.769,247.631,244.769,245.352z M250.396,248.447c1.517-0.646,3.065-3.629,3.065-7.229
			c0-2.279-0.986-3.377-2.279-3.377c-0.422,0-0.759,0.113-1.068,0.254c-1.097,0.479-2.981,2.785-2.981,7.115
			c0,2.082,0.872,3.404,2.363,3.404C249.832,248.615,250.113,248.559,250.396,248.447z"/>
		<path fill="#D1232A" d="M269.265,246.844c1.153-1.574,3.966-5.457,3.966-7.256c0-0.592-0.142-0.986-0.281-1.295
			c-0.112-0.197-0.112-0.477,0-0.703c0.196-0.449,0.676-0.816,1.152-0.816c0.703,0,1.21,0.619,1.21,1.604
			c0,0.957-0.534,1.885-1.152,2.953c-0.958,1.547-4.359,6.244-5.936,8.41h-0.787c-0.226-2.982-0.507-5.936-0.787-8.775h-0.058
			c-1.799,3.01-3.852,6.301-5.371,8.775h-0.731c-0.028-2.729-0.169-6.357-0.281-9.057c-0.058-1.35-0.168-1.855-0.449-1.855
			c-0.197,0-0.619,0.336-1.66,1.434l-0.478-0.563c1.181-1.574,2.644-2.926,3.6-2.926c0.646,0,0.957,0.844,1.013,2.785
			c0.057,2.25,0.084,4.781,0.084,6.639h0.057c1.688-2.898,3.571-5.963,5.231-9h0.703c0.311,3.148,0.563,6.412,0.899,9.646H269.265z"
			/>
		<path fill="#D1232A" d="M281.608,246.73c-1.463,1.744-3.46,3.01-4.331,3.01c-0.535,0-0.984-0.646-0.394-3.402
			c0.984-4.613,1.97-9.227,2.925-13.867c0.281-1.209,0.113-1.406-1.181-1.406l-0.76-0.027l0.112-0.676
			c2.193-0.254,3.797-0.984,4.162-0.984c0.254,0,0.282,0.254,0.169,0.844c-1.152,5.428-2.306,10.885-3.487,16.453
			c-0.169,0.816-0.057,0.986,0.113,0.986c0.309,0,1.461-0.732,2.249-1.547L281.608,246.73z"/>
		<path fill="#D1232A" d="M292.407,246.563c-2.475,2.643-4.584,3.178-5.935,3.178c-1.294,0-3.093-0.76-3.093-4.105
			c0-2.645,1.152-5.598,3.374-7.285c1.21-0.928,2.701-1.576,3.882-1.576c1.49,0,2.476,1.043,2.476,2.252
			c0,2.783-4.725,4.303-7.426,4.977c-0.056,0.338-0.056,0.619-0.056,0.9c0,1.52,0.478,3.18,2.193,3.18
			c1.181,0,2.7-0.789,4.106-2.168L292.407,246.563z M288.441,238.266c-0.76,0.42-2.166,1.715-2.644,4.865
			c4.022-1.068,5.203-2.363,5.203-3.656c0-0.984-0.591-1.547-1.406-1.547C289.202,237.928,288.752,238.068,288.441,238.266z"/>
		<path fill="#D1232A" d="M306.834,246.898c-1.49,1.773-3.347,2.842-4.134,2.842c-0.563,0-0.957-0.449-0.507-2.615l0.507-2.391
			l-0.057,0.027c-1.265,1.688-2.729,2.926-3.712,3.686c-1.041,0.844-1.941,1.293-2.729,1.293c-0.927,0-1.827-1.125-1.827-3.375
			c0-2.645,1.209-5.652,3.262-7.426c1.322-1.152,3.656-2.166,4.979-2.166c0.394,0,0.957,0.029,1.659,0.311l0.929-4.641
			c0.253-1.266,0.169-1.379-1.068-1.379h-0.9l0.085-0.703c2.362-0.281,3.881-0.984,4.302-0.984c0.254,0,0.31,0.225,0.197,0.787
			c-1.322,5.625-2.504,11.082-3.488,16.539c-0.139,0.674-0.084,0.928,0.113,0.928c0.338,0,1.238-0.619,1.997-1.377L306.834,246.898z
			 M303.038,242.736l0.899-4.021c-0.422-0.395-1.434-0.732-2.278-0.732c-0.872,0-1.462,0.227-1.969,0.592
			c-1.884,1.35-2.98,4.895-2.98,7.256c0,1.436,0.394,2.082,0.871,2.082C299.015,247.912,302.109,244.424,303.038,242.736z"/>
		<path fill="#D1232A" d="M320.584,246.928c-0.928,1.154-3.122,2.813-4.106,2.813c-0.563,0-0.929-0.449-0.365-2.758l1.744-7.199
			c0.169-0.619,0.169-0.898-0.029-0.898c-0.225,0-1.068,0.479-1.912,1.209l-0.338-0.646c1.548-1.52,3.518-2.674,4.275-2.674
			c0.619,0,0.591,0.9,0.282,2.223l-1.941,7.762c-0.168,0.676-0.113,0.902,0.057,0.902c0.337,0,1.321-0.732,1.969-1.322
			L320.584,246.928z M321.316,232.641c0,0.871-0.648,1.631-1.491,1.631c-0.676,0-1.154-0.506-1.183-1.238
			c0-0.703,0.563-1.658,1.548-1.658C320.922,231.375,321.287,231.965,321.316,232.641z"/>
		<path fill="#D1232A" d="M335.181,247.012c-1.66,1.801-3.235,2.729-3.967,2.729c-0.703,0-0.956-0.76-0.449-2.924
			c0.534-2.111,1.013-4.164,1.518-6.244c0.396-1.604,0.226-2.027-0.224-2.027c-1.238,0-4.501,3.488-5.907,5.879
			c-0.337,1.379-0.76,3.066-1.098,4.754c-0.73,0.141-1.489,0.365-2.024,0.563l-0.168-0.225c0.759-3.037,1.604-6.412,2.277-9.535
			c0.226-0.9,0.142-1.125-0.028-1.125c-0.253,0-1.125,0.592-1.827,1.266l-0.366-0.674c1.519-1.66,3.178-2.674,3.966-2.674
			c0.646,0,0.76,0.957,0.225,3.123l-0.59,2.447h0.057c1.912-2.615,3.993-4.248,5.174-4.951c0.732-0.422,1.322-0.619,1.885-0.619
			c0.676,0,1.463,0.424,0.619,4.023c-0.449,1.912-0.901,3.881-1.378,5.85c-0.169,0.76-0.142,1.014,0.056,1.014
			c0.254,0,1.013-0.508,1.855-1.322L335.181,247.012z"/>
		<path fill="#D1232A" d="M356.58,247.012c-1.659,1.801-3.234,2.729-3.965,2.729c-0.703,0-0.957-0.76-0.451-2.924
			c0.535-2.111,1.013-4.164,1.52-6.244c0.394-1.604,0.224-2.027-0.225-2.027c-1.239,0-4.501,3.488-5.907,5.879
			c-0.337,1.379-0.759,3.066-1.097,4.754c-0.73,0.141-1.49,0.365-2.025,0.563l-0.169-0.225c0.76-3.037,1.603-6.412,2.279-9.535
			c0.224-0.9,0.14-1.125-0.028-1.125c-0.253,0-1.125,0.592-1.828,1.266l-0.365-0.674c1.518-1.66,3.177-2.674,3.965-2.674
			c0.646,0,0.76,0.957,0.225,3.123l-0.59,2.447h0.056c1.913-2.615,3.993-4.248,5.176-4.951c0.73-0.422,1.321-0.619,1.884-0.619
			c0.675,0,1.463,0.424,0.619,4.023c-0.45,1.912-0.9,3.881-1.379,5.85c-0.168,0.76-0.14,1.014,0.057,1.014
			c0.253,0,1.012-0.508,1.856-1.322L356.58,247.012z"/>
		<path fill="#D1232A" d="M367.716,246.563c-2.475,2.643-4.585,3.178-5.935,3.178c-1.294,0-3.094-0.76-3.094-4.105
			c0-2.645,1.153-5.598,3.375-7.285c1.209-0.928,2.699-1.576,3.882-1.576c1.49,0,2.475,1.043,2.475,2.252
			c0,2.783-4.726,4.303-7.425,4.977c-0.057,0.338-0.057,0.619-0.057,0.9c0,1.52,0.479,3.18,2.193,3.18
			c1.181,0,2.699-0.789,4.105-2.168L367.716,246.563z M363.749,238.266c-0.759,0.42-2.165,1.715-2.643,4.865
			c4.022-1.068,5.203-2.363,5.203-3.656c0-0.984-0.592-1.547-1.406-1.547C364.51,237.928,364.059,238.068,363.749,238.266z"/>
		<path fill="#D1232A" d="M381.861,237.422c-0.815,0.898-1.547,1.238-1.996,1.322c-0.226,0.057-0.422,0.084-0.732,0.084
			c0.142,0.393,0.226,0.814,0.226,1.574c0,1.998-1.097,3.488-2.138,4.303c-0.76,0.619-2.025,1.322-3.629,1.633
			c-0.337,0.279-0.562,0.561-0.562,0.9c0,0.422,0.675,0.928,2.024,1.631c2.701,1.434,3.798,2.531,3.798,3.74
			c0,2.334-3.938,4.021-6.638,4.021c-2.729,0-5.091-1.406-5.035-3.148c0.028-1.211,1.632-2.477,4.725-4.051
			c-0.703-0.451-1.068-1.014-1.039-1.379c0-0.451,0.394-0.955,1.715-1.744c-1.603-0.365-2.447-1.52-2.447-3.432
			c0-1.828,0.929-3.572,2.363-4.697c1.153-0.928,2.588-1.406,3.6-1.406c0.899,0,1.772,0.254,2.391,0.789
			c1.631-0.029,2.645-0.338,3.179-0.676L381.861,237.422z M376.8,253.367c0-0.758-0.761-1.461-2.054-2.221
			c-0.929-0.563-1.716-1.012-2.109-1.209c-1.885,0.9-3.123,2.025-3.123,3.064c0,1.436,1.856,2.447,3.826,2.447
			C375.449,255.449,376.8,254.465,376.8,253.367z M377.276,240.486c0-1.602-0.646-2.729-1.884-2.729
			c-0.815,0-1.547,0.508-2.053,1.268c-0.591,0.844-1.068,2.137-1.068,3.656c0,1.658,0.815,2.529,1.827,2.529
			C375.59,245.211,377.276,243.496,377.276,240.486z"/>
		<path fill="#D1232A" d="M386.754,246.73c-1.462,1.744-3.459,3.01-4.33,3.01c-0.535,0-0.984-0.646-0.396-3.402
			c0.984-4.613,1.97-9.227,2.926-13.867c0.28-1.209,0.112-1.406-1.181-1.406l-0.761-0.027l0.112-0.676
			c2.195-0.254,3.797-0.984,4.163-0.984c0.253,0,0.281,0.254,0.169,0.844c-1.152,5.428-2.307,10.885-3.487,16.453
			c-0.169,0.816-0.056,0.986,0.112,0.986c0.31,0,1.463-0.732,2.25-1.547L386.754,246.73z"/>
		<path fill="#D1232A" d="M397.469,246.563c-2.475,2.643-4.584,3.178-5.934,3.178c-1.295,0-3.095-0.76-3.095-4.105
			c0-2.645,1.154-5.598,3.375-7.285c1.21-0.928,2.7-1.576,3.882-1.576c1.491,0,2.476,1.043,2.476,2.252
			c0,2.783-4.726,4.303-7.426,4.977c-0.057,0.338-0.057,0.619-0.057,0.9c0,1.52,0.479,3.18,2.194,3.18
			c1.18,0,2.699-0.789,4.106-2.168L397.469,246.563z M393.504,238.266c-0.76,0.42-2.166,1.715-2.645,4.865
			c4.022-1.068,5.203-2.363,5.203-3.656c0-0.984-0.59-1.547-1.406-1.547C394.263,237.928,393.813,238.068,393.504,238.266z"/>
		<path fill="#D1232A" d="M408.184,246.617c-1.744,1.998-3.966,3.123-5.626,3.123c-1.8,0-3.009-1.434-3.009-4.135
			c0-2.334,1.097-5.09,2.896-6.75c1.154-1.014,3.123-2.082,4.5-2.082c1.21,0,2.109,0.703,2.138,1.406
			c0,0.422-0.28,0.957-0.928,1.295c-0.225,0.141-0.421,0.084-0.619-0.17c-0.591-0.814-1.237-1.209-2.109-1.209
			c-1.012,0-1.799,0.844-2.335,1.857c-0.702,1.266-1.236,3.178-1.236,5.09c0,1.998,0.788,3.039,1.996,3.039
			c1.436,0,3.15-1.295,3.91-2.082L408.184,246.617z"/>
		<path fill="#D1232A" d="M417.941,238.18l-2.784,0.141l-1.66,7.764c-0.281,1.379-0.141,1.688,0.169,1.688
			c0.478,0,1.856-0.928,2.531-1.631l0.394,0.59c-0.929,1.125-3.038,3.01-4.528,3.01c-0.646,0-1.209-0.816-0.591-3.713l1.66-7.707
			h-2.082l-0.084-0.252l0.703-0.844h1.688l0.647-2.672l2.138-1.744l0.253,0.17l-0.984,4.246h3.262L417.941,238.18z"/>
		<path fill="#D1232A" d="M420.078,235.143c1.35-0.506,2.418-1.293,2.475-2.502c0.056-0.873-0.535-1.379-1.379-1.604
			c-0.168-0.029-0.338-0.17-0.309-0.449c0.028-0.732,0.702-1.127,1.236-1.127c0.984,0,2.251,0.957,2.167,2.674
			c-0.058,2.164-2.251,3.346-3.909,3.768L420.078,235.143z M424.831,235.143c1.321-0.506,2.446-1.293,2.502-2.502
			c0.028-0.873-0.534-1.379-1.405-1.604c-0.169-0.029-0.31-0.17-0.31-0.449c0.028-0.732,0.703-1.127,1.237-1.127
			c0.984,0,2.278,0.957,2.193,2.645c-0.084,2.193-2.25,3.375-3.909,3.797L424.831,235.143z"/>
	</g>
</g>
</svg>
