<?xml version="1.0" encoding="utf-8"?>
<!-- Generator: Adobe Illustrator 16.0.0, SVG Export Plug-In . SVG Version: 6.00 Build 0)  -->
<!DOCTYPE svg PUBLIC "-//W3C//DTD SVG 1.1//EN" "http://www.w3.org/Graphics/SVG/1.1/DTD/svg11.dtd">
<svg version="1.1" xmlns="http://www.w3.org/2000/svg" xmlns:xlink="http://www.w3.org/1999/xlink" x="0px" y="0px"
	 width="166.245px" height="80.773px" viewBox="0 0 166.245 80.773" enable-background="new 0 0 166.245 80.773"
	 xml:space="preserve">
<g id="Layer_1">
	<g>
		<path fill="#323031" d="M25.672,60.834v-2.21c4.931-0.51,5.61-1.021,5.61-6.546V37.967c0-6.97-2.635-10.455-8.33-10.455
			c-3.23,0-6.461,1.615-8.841,4.335v20.231c0,5.44,0.425,6.036,5.44,6.546v2.21H1.53v-2.21c5.101-0.425,5.865-0.936,5.865-6.546
			V11.53c0-5.355-0.17-5.78-5.78-6.291V3.284c4.08-0.595,9.181-1.955,12.496-2.975v28.562c2.975-3.06,7.565-6.205,12.155-6.205
			c6.886,0,11.731,4.335,11.731,14.536v14.876c0,5.61,0.595,6.121,5.61,6.546v2.21H25.672z"/>
		<path fill="#323031" d="M85.343,41.622c0,13.687-10.03,20.232-18.446,20.232c-11.646,0-18.616-9.352-18.616-18.787
			c0-14.026,10.881-20.401,18.616-20.401C77.438,22.666,85.343,31.082,85.343,41.622z M56.186,40.348
			c0,10.711,4.676,18.701,11.646,18.701c5.27,0,9.605-3.91,9.605-15.557c0-9.945-3.995-18.021-11.391-18.021
			C60.776,25.472,56.186,30.741,56.186,40.348z"/>
		<path fill="#323031" d="M146.289,25.812c-4.251,0.68-5.016,1.7-6.801,6.375c-2.551,6.716-6.291,18.021-10.201,29.583h-2.38
			c-3.4-9.182-6.886-17.512-10.371-26.438c-3.23,8.501-6.715,17.001-10.03,26.438h-2.466c-3.06-10.116-6.29-20.147-9.775-30.348
			c-1.53-4.421-2.295-5.016-6.376-5.61v-2.125h17.597v2.125c-5.101,0.85-5.525,1.359-4.25,5.186
			c1.955,6.545,4.08,13.261,6.205,19.806h0.17c3.146-8.16,6.291-16.916,9.861-26.691h2.21c3.146,8.841,6.631,17.852,10.201,26.947
			h0.17c1.87-5.866,4.25-13.262,5.78-19.552c1.104-4.421,0.595-4.931-4.931-5.695v-2.125h15.387V25.812z"/>
		<path fill="#323031" d="M147.134,60.834v-2.21c5.355-0.51,6.12-1.021,6.12-6.631V11.785c0-5.78-0.51-6.035-5.865-6.461v-2.04
			c4.42-0.51,9.69-1.955,12.581-2.975v51.684c0,5.61,0.68,6.121,6.12,6.631v2.21H147.134z"/>
	</g>
</g>
<g id="_x3C_Layer_x3E_">
</g>
</svg>
