<?xml version="1.0" encoding="utf-8"?>
<!-- Generator: Adobe Illustrator 16.0.0, SVG Export Plug-In . SVG Version: 6.00 Build 0)  -->
<!DOCTYPE svg PUBLIC "-//W3C//DTD SVG 1.1//EN" "http://www.w3.org/Graphics/SVG/1.1/DTD/svg11.dtd">
<svg version="1.1" xmlns="http://www.w3.org/2000/svg" xmlns:xlink="http://www.w3.org/1999/xlink" x="0px" y="0px" width="81.72px"
	 height="22.586px" viewBox="0 0 81.72 22.586" enable-background="new 0 0 81.72 22.586" xml:space="preserve">
<g id="Layer_1">
	<g>
		<g>
			<path fill="#323031" d="M15.902,18.426h-0.28c-2.692-0.141-3.646-0.869-4.656-2.748c-0.729-1.375-1.318-2.721-1.907-4.15
				c-0.448-1.094-0.813-1.318-1.822-1.318H6.058L5.245,14.64c-0.478,2.468-0.309,2.608,1.963,2.805L7.04,18.201H0l0.169-0.757
				c2.159-0.224,2.327-0.337,2.804-2.805l2.16-11.274c0.448-2.328,0.336-2.412-1.907-2.637L3.422,0h6.086
				c1.515,0,3.001,0.196,3.982,0.869c0.953,0.646,1.654,1.768,1.654,3.449c0,2.805-2.104,4.572-4.347,5.357
				c0.309,0.785,1.037,2.496,1.683,3.758s1.149,2.16,1.739,2.945c0.673,0.869,1.205,1.121,1.906,1.346L15.902,18.426z M7.545,9.34
				c1.205,0,2.188-0.169,3-0.701c1.263-0.87,2.104-2.356,2.104-4.096c0-2.439-1.262-3.674-3.309-3.674
				c-0.562,0-1.01,0.084-1.263,0.281C7.825,1.318,7.685,1.654,7.545,2.384L6.227,9.34H7.545z"/>
			<path fill="#323031" d="M26.758,15.369c-2.468,2.637-4.571,3.169-5.917,3.169c-1.29,0-3.085-0.757-3.085-4.095
				c0-2.637,1.149-5.581,3.365-7.264c1.206-0.926,2.692-1.57,3.87-1.57c1.486,0,2.468,1.037,2.468,2.244
				c0,2.775-4.711,4.29-7.403,4.963c-0.057,0.337-0.057,0.617-0.057,0.898c0,1.514,0.477,3.168,2.188,3.168
				c1.178,0,2.692-0.785,4.095-2.158L26.758,15.369z M22.804,7.096c-0.757,0.42-2.159,1.711-2.637,4.852
				c4.011-1.065,5.188-2.355,5.188-3.646c0-0.981-0.589-1.543-1.402-1.543C23.561,6.759,23.112,6.899,22.804,7.096z"/>
			<path fill="#323031" d="M28.078,16.52c-0.028-0.478,0.336-0.898,0.813-1.179c0.337-0.168,0.562-0.112,0.701,0.085
				c0.729,1.094,1.768,1.71,2.692,1.71c1.122,0,1.852-0.785,1.852-1.683c0-0.701-0.309-1.318-1.627-2.355
				c-1.262-0.954-2.439-1.992-2.439-3.422c0-0.842,0.336-1.738,1.458-2.721c0.869-0.757,2.216-1.346,3.113-1.346
				c1.233,0,2.188,0.842,2.188,1.57c0,0.477-0.28,0.897-0.701,1.15c-0.28,0.168-0.449,0.111-0.617-0.113
				c-0.561-0.701-1.234-1.262-2.188-1.262c-0.813,0-1.515,0.617-1.515,1.57c0,1.01,0.813,1.711,1.823,2.496
				c1.683,1.263,2.355,2.076,2.355,3.281c0,2.132-2.805,4.235-5.076,4.235C29.592,18.538,28.078,17.5,28.078,16.52z"/>
			<path fill="#323031" d="M45.944,7.012l-2.776,0.141l-1.654,7.74c-0.28,1.374-0.141,1.683,0.168,1.683
				c0.477,0,1.851-0.926,2.524-1.627l0.393,0.589c-0.926,1.122-3.029,3.001-4.516,3.001c-0.645,0-1.206-0.813-0.589-3.702
				l1.654-7.684h-2.075l-0.084-0.253l0.701-0.841h1.683l0.646-2.665l2.131-1.739l0.253,0.169l-0.981,4.235h3.253L45.944,7.012z"/>
			<path fill="#323031" d="M58.846,15.621c-1.515,1.879-3.394,2.917-4.095,2.917c-0.532,0-0.897-0.421-0.505-2.468l0.562-2.664
				h-0.057c-1.094,1.542-2.412,2.889-3.617,3.87c-0.926,0.757-1.852,1.262-2.608,1.262c-0.729,0-1.627-0.925-1.627-3.169
				c0-2.832,1.318-5.89,3.365-7.601c1.402-1.178,3.45-2.159,5.217-2.159c0.589,0,1.149,0.084,1.739,0.196
				c0.393,0.084,0.757,0.168,1.065,0.168l0.084,0.112c-0.448,1.738-1.29,5.553-1.936,9.115c-0.196,0.981-0.111,1.205,0.057,1.205
				c0.225,0,1.206-0.645,2.02-1.458L58.846,15.621z M55.2,11.246c0.309-1.121,0.729-3.141,0.926-4.038
				c-0.394-0.196-1.15-0.394-1.88-0.394c-0.729,0-1.514,0.225-1.991,0.59c-1.907,1.402-3.028,4.711-3.028,7.488
				c0,1.262,0.364,1.851,0.757,1.851C51.077,16.743,54.246,13.182,55.2,11.246z"/>
			<path fill="#323031" d="M60.924,8.357c1.431-1.599,3.169-2.748,3.927-2.748c0.701,0,0.729,1.29,0.309,3.253l-0.28,1.402h0.084
				c1.43-2.749,3.085-4.655,4.207-4.655c0.477,0,0.953,0.309,1.205,0.701c0.196,0.364,0.196,0.813-0.027,1.205
				c-0.196,0.338-0.478,0.617-0.729,0.814c-0.252,0.168-0.477,0.168-0.617,0.027c-0.309-0.336-0.645-0.477-0.953-0.477
				c-0.337,0-0.785,0.28-1.431,1.178c-0.617,0.897-1.486,2.216-1.991,3.479c-0.448,1.879-0.785,3.646-1.122,5.496
				c-0.616,0.084-1.374,0.281-1.991,0.505l-0.224-0.224c0.729-3.002,1.514-6.451,2.047-9.452c0.168-0.925,0.168-1.206-0.056-1.206
				c-0.253,0-1.15,0.561-1.991,1.347L60.924,8.357z"/>
			<path fill="#323031" d="M78.565,7.012l-2.776,0.141l-1.654,7.74c-0.28,1.374-0.141,1.683,0.168,1.683
				c0.477,0,1.851-0.926,2.524-1.627l0.393,0.589c-0.926,1.122-3.029,3.001-4.516,3.001c-0.645,0-1.206-0.813-0.589-3.702
				l1.654-7.684h-2.075L71.61,6.899l0.701-0.841h1.683l0.646-2.665l2.131-1.739l0.253,0.169l-0.981,4.235h3.253L78.565,7.012z"/>
		</g>
		<line fill="none" stroke="#D1232A" stroke-miterlimit="10" x1="0.22" y1="22.586" x2="81.72" y2="22.586"/>
	</g>
</g>
<g id="_x3C_Layer_x3E_">
</g>
</svg>
