<?xml version="1.0" encoding="utf-8"?>
<!-- Generator: Adobe Illustrator 16.0.0, SVG Export Plug-In . SVG Version: 6.00 Build 0)  -->
<!DOCTYPE svg PUBLIC "-//W3C//DTD SVG 1.1//EN" "http://www.w3.org/Graphics/SVG/1.1/DTD/svg11.dtd">
<svg version="1.1" xmlns="http://www.w3.org/2000/svg" xmlns:xlink="http://www.w3.org/1999/xlink" x="0px" y="0px" width="713px"
	 height="357px" viewBox="0 0 713 357" enable-background="new 0 0 713 357" xml:space="preserve">
<g id="Layer_1">
	<g>
		<g>
			<path fill="#323031" d="M13.883,20.242c-1.655,1.795-3.226,2.721-3.955,2.721c-0.701,0-0.953-0.758-0.448-2.917
				c0.533-2.104,1.01-4.15,1.515-6.227c0.393-1.599,0.224-2.019-0.225-2.019c-1.234,0-4.487,3.478-5.89,5.861
				c-0.337,1.374-0.757,3.057-1.094,4.739c-0.729,0.141-1.486,0.365-2.02,0.562l-0.168-0.225c0.757-3.029,1.599-6.395,2.271-9.508
				c0.225-0.897,0.141-1.122-0.028-1.122c-0.252,0-1.121,0.59-1.822,1.263l-0.365-0.673c1.515-1.655,3.17-2.665,3.955-2.665
				c0.645,0,0.757,0.954,0.224,3.113l-0.589,2.44h0.057c1.907-2.608,3.982-4.235,5.16-4.937c0.729-0.421,1.318-0.617,1.879-0.617
				c0.673,0,1.459,0.421,0.617,4.011c-0.448,1.907-0.897,3.87-1.374,5.834c-0.168,0.757-0.141,1.009,0.056,1.009
				c0.253,0,1.01-0.505,1.852-1.317L13.883,20.242z"/>
			<path fill="#323031" d="M16.017,18.587c0-3.646,1.936-6.422,4.263-7.656c1.01-0.532,2.16-0.897,3.029-0.897
				c2.328,0,3.73,1.599,3.73,4.375c0,2.412-1.038,5.161-3.001,6.787c-1.206,1.01-2.749,1.768-4.319,1.768
				C17.055,22.963,16.017,20.859,16.017,18.587z M21.626,21.673c1.515-0.646,3.057-3.618,3.057-7.208
				c0-2.271-0.981-3.365-2.271-3.365c-0.421,0-0.757,0.111-1.065,0.252c-1.094,0.477-2.974,2.776-2.974,7.096
				c0,2.075,0.87,3.394,2.356,3.394C21.064,21.841,21.346,21.784,21.626,21.673z"/>
			<path fill="#323031" d="M41.819,20.102c-1.347,1.627-3.197,2.861-4.066,2.861c-0.589,0-0.981-0.533-0.421-2.974
				c0.225-0.981,0.337-1.542,0.533-2.468h-0.057c-1.374,1.823-3.028,3.534-4.516,4.571c-0.785,0.562-1.599,0.87-2.271,0.87
				c-0.757,0-1.654-0.533-0.925-3.563c0.504-2.159,1.009-4.318,1.514-6.45c0.169-0.701,0.141-0.953-0.084-0.953
				c-0.196,0-0.981,0.561-1.963,1.346l-0.309-0.673c1.627-1.627,3.365-2.637,4.123-2.637c0.645,0,0.757,0.562,0.309,2.44
				c-0.505,2.216-1.01,4.487-1.543,6.73c-0.309,1.375-0.084,1.852,0.337,1.852c1.57,0,4.711-3.759,5.805-5.806
				c0.309-1.29,0.646-2.776,1.01-4.487l1.936-0.729h0.309c-0.758,2.973-1.486,6.114-2.188,9.76c-0.169,0.87-0.112,1.094,0.084,1.094
				c0.252,0,1.262-0.673,2.02-1.458L41.819,20.102z"/>
			<path fill="#323031" d="M56.153,20.242c-1.655,1.795-3.226,2.721-3.955,2.721c-0.701,0-0.953-0.758-0.448-2.917
				c0.533-2.104,1.01-4.15,1.515-6.227c0.393-1.599,0.225-2.019-0.225-2.019c-1.234,0-4.487,3.478-5.89,5.861
				c-0.337,1.374-0.757,3.057-1.094,4.739c-0.729,0.141-1.486,0.365-2.02,0.562l-0.168-0.225c0.757-3.029,1.599-6.395,2.271-9.508
				c0.225-0.897,0.141-1.122-0.028-1.122c-0.252,0-1.121,0.59-1.822,1.263l-0.365-0.673c1.515-1.655,3.17-2.665,3.955-2.665
				c0.645,0,0.757,0.954,0.225,3.113l-0.59,2.44h0.057c1.907-2.608,3.982-4.235,5.16-4.937c0.729-0.421,1.318-0.617,1.879-0.617
				c0.674,0,1.459,0.421,0.617,4.011c-0.448,1.907-0.897,3.87-1.374,5.834c-0.168,0.757-0.141,1.009,0.056,1.009
				c0.253,0,1.01-0.505,1.852-1.317L56.153,20.242z"/>
		</g>
		<g>
			<path fill="#323031" d="M6.198,118.529c1.149-1.43,4.347-5.524,4.347-7.403c0-0.477-0.112-0.926-0.309-1.234
				c-0.084-0.225-0.084-0.448,0-0.701c0.196-0.448,0.674-0.813,1.206-0.813c0.674,0,1.178,0.646,1.206,1.599
				c0,0.87-0.448,1.964-1.738,3.759c-1.627,2.271-4.123,5.496-5.806,7.572H4.347c-0.084-2.608-0.393-7.012-0.532-8.723
				c-0.141-1.683-0.309-2.159-0.505-2.159c-0.253,0-0.758,0.448-1.655,1.486l-0.448-0.617c1.01-1.458,2.439-2.917,3.337-2.917
				c0.729,0,1.094,1.066,1.234,3.113c0.112,2.468,0.28,4.74,0.364,7.039H6.198z"/>
			<path fill="#323031" d="M22.69,118.137c-2.468,2.637-4.571,3.17-5.917,3.17c-1.29,0-3.085-0.758-3.085-4.095
				c0-2.637,1.149-5.581,3.365-7.264c1.206-0.926,2.692-1.571,3.87-1.571c1.486,0,2.468,1.038,2.468,2.244
				c0,2.776-4.711,4.291-7.403,4.964c-0.057,0.337-0.057,0.617-0.057,0.897c0,1.515,0.477,3.169,2.188,3.169
				c1.178,0,2.692-0.785,4.095-2.159L22.69,118.137z M18.736,109.863c-0.757,0.421-2.159,1.711-2.637,4.853
				c4.011-1.066,5.188-2.356,5.188-3.646c0-0.981-0.589-1.542-1.402-1.542C19.493,109.527,19.045,109.667,18.736,109.863z"/>
			<path fill="#323031" d="M25.048,111.126c1.431-1.599,3.169-2.749,3.927-2.749c0.701,0,0.729,1.29,0.309,3.254l-0.28,1.402h0.084
				c1.43-2.749,3.085-4.656,4.207-4.656c0.477,0,0.953,0.309,1.205,0.701c0.196,0.365,0.196,0.813-0.027,1.206
				c-0.196,0.337-0.477,0.617-0.729,0.813c-0.252,0.168-0.477,0.168-0.617,0.028c-0.309-0.337-0.645-0.477-0.953-0.477
				c-0.337,0-0.785,0.28-1.431,1.178c-0.617,0.897-1.486,2.215-1.991,3.478c-0.448,1.879-0.785,3.646-1.122,5.497
				c-0.616,0.084-1.374,0.28-1.991,0.505l-0.224-0.225c0.729-3.001,1.514-6.45,2.047-9.451c0.168-0.926,0.168-1.206-0.056-1.206
				c-0.253,0-1.15,0.561-1.991,1.346L25.048,111.126z"/>
			<path fill="#323031" d="M36.688,101.955c2.188-0.253,3.73-0.954,4.179-0.954c0.28,0,0.28,0.28,0.141,0.87
				c-0.954,3.842-1.711,7.123-2.496,10.713h0.056c2.412-2.944,4.796-4.207,6.086-4.207c1.234,0,1.991,1.234,1.991,3.085
				c0,3.085-1.851,6.647-4.319,8.302c-1.683,1.15-3.197,1.543-4.234,1.543c-0.897,0-1.823-0.505-2.244-1.206
				c-0.42-0.674-0.532-1.683-0.168-3.506c0.785-3.843,1.767-8.077,2.692-12.593c0.253-1.262,0.168-1.346-0.926-1.346l-0.813-0.028
				L36.688,101.955z M40.951,119.596c1.655-0.981,3.365-4.235,3.365-7.656c0-1.431-0.42-2.02-0.953-2.02
				c-0.981,0-3.31,1.795-5.104,4.347c-0.168,0.505-0.336,1.234-0.505,2.188c-0.505,2.749,0.589,3.563,1.739,3.563
				C39.97,120.017,40.53,119.848,40.951,119.596z"/>
		</g>
		<g>
			<path fill="#323031" d="M104.261,22.626v-0.757c2.553-0.196,2.692-0.421,2.692-2.44V8.631c0-1.458-0.112-1.599-1.346-1.654
				l-1.347-0.056V6.275c1.795-0.309,3.45-0.842,4.992-1.458v14.611c0,2.02,0.169,2.244,2.721,2.44v0.757H104.261z"/>
			<path fill="#323031" d="M116.295,21.336c0-0.897,0.673-1.599,1.57-1.599s1.57,0.701,1.57,1.599c0,0.981-0.673,1.627-1.57,1.627
				S116.295,22.317,116.295,21.336z"/>
		</g>
		<g>
			<path fill="#323031" d="M138.257,22.598c-0.477,0.253-0.925,0.365-1.178,0.365c-1.767,0-2.748-1.122-2.748-3.338v-8.161h-1.936
				l-0.112-0.28l0.758-0.813h1.29V8.322l1.822-1.851l0.393,0.056v3.843h3.17c0.252,0.28,0.168,0.897-0.169,1.094h-3.001v7.208
				c0,2.271,0.926,2.692,1.627,2.692s1.347-0.281,1.739-0.478l0.252,0.729L138.257,22.598z"/>
			<path fill="#323031" d="M148.972,22.626v-0.729c1.627-0.168,1.852-0.336,1.852-2.159v-4.655c0-2.3-0.87-3.45-2.749-3.45
				c-1.065,0-2.132,0.533-2.917,1.431v6.675c0,1.795,0.141,1.991,1.795,2.159v0.729h-5.945v-0.729
				c1.683-0.14,1.936-0.309,1.936-2.159V6.359c0-1.767-0.057-1.907-1.907-2.075V3.639c1.346-0.196,3.028-0.645,4.122-0.981v9.424
				c0.981-1.01,2.496-2.048,4.011-2.048c2.271,0,3.87,1.431,3.87,4.796v4.908c0,1.851,0.196,2.02,1.852,2.159v0.729H148.972z"/>
			<path fill="#323031" d="M166.446,20.242c-1.767,2.216-3.702,2.721-4.571,2.721c-3.45,0-5.469-2.805-5.469-5.974
				c0-1.936,0.701-3.646,1.851-4.908c1.15-1.29,2.664-2.048,4.123-2.048c2.327,0,4.207,2.075,4.207,4.264
				c0,0.561-0.141,0.785-0.646,0.897c-0.477,0.084-3.982,0.364-7.32,0.477c0.028,3.814,2.216,5.385,4.179,5.385
				c1.122,0,2.188-0.449,3.197-1.402L166.446,20.242z M158.762,14.521c1.57,0,3.113-0.027,4.739-0.084
				c0.505,0,0.674-0.168,0.674-0.561c0.027-1.459-0.926-2.805-2.469-2.805C160.416,11.071,159.183,12.249,158.762,14.521z"/>
			<path fill="#323031" d="M183.416,22.963c-0.421,0-1.01-0.253-1.318-0.533c-0.364-0.393-0.532-0.785-0.673-1.262
				c-1.122,0.757-2.468,1.795-3.31,1.795c-1.991,0-3.365-1.655-3.365-3.422c0-1.374,0.729-2.244,2.271-2.776
				c1.683-0.562,3.73-1.318,4.348-1.823v-0.505c0-2.02-0.954-3.169-2.356-3.169c-0.561,0-0.981,0.225-1.262,0.561
				c-0.364,0.365-0.617,0.981-0.842,1.852c-0.111,0.448-0.42,0.645-0.813,0.645c-0.505,0-1.234-0.561-1.234-1.206
				c0-0.42,0.364-0.729,0.897-1.121c0.785-0.562,2.608-1.655,4.207-1.964c0.841,0,1.683,0.253,2.3,0.758
				c0.981,0.813,1.262,1.963,1.262,3.421v5.217c0,1.262,0.505,1.683,0.981,1.683c0.337,0,0.729-0.14,1.01-0.309l0.28,0.729
				L183.416,22.963z M181.369,15.896c-0.589,0.308-1.936,0.896-2.524,1.178c-1.094,0.505-1.711,1.037-1.711,2.047
				c0,1.459,1.122,2.16,1.991,2.16c0.729-0.028,1.711-0.505,2.244-1.01V15.896z"/>
			<path fill="#323031" d="M197.412,20.102c-1.233,1.627-3.113,2.861-4.768,2.861c-3.534,0-5.609-2.861-5.609-5.862
				c0-2.159,0.926-4.038,2.805-5.496c1.459-1.122,3.142-1.571,4.235-1.571c1.121,0,2.047,0.365,2.496,0.729
				c0.364,0.309,0.448,0.561,0.448,0.869c0,0.589-0.617,1.206-0.926,1.206c-0.14,0-0.28-0.084-0.532-0.309
				c-0.842-0.785-1.823-1.149-2.805-1.149c-1.852,0-3.478,1.542-3.478,4.487c0,3.898,2.664,5.188,4.234,5.188
				c1.206,0,2.132-0.337,3.422-1.543L197.412,20.102z"/>
			<path fill="#323031" d="M204.453,22.598c-0.477,0.253-0.925,0.365-1.178,0.365c-1.767,0-2.748-1.122-2.748-3.338v-8.161h-1.936
				l-0.112-0.28l0.758-0.813h1.29V8.322l1.822-1.851l0.393,0.056v3.843h3.17c0.252,0.28,0.168,0.897-0.169,1.094h-3.001v7.208
				c0,2.271,0.926,2.692,1.627,2.692s1.347-0.281,1.739-0.478l0.252,0.729L204.453,22.598z"/>
			<path fill="#323031" d="M226.19,16.288c0,4.515-3.31,6.675-6.086,6.675c-3.842,0-6.142-3.085-6.142-6.198
				c0-4.628,3.59-6.731,6.142-6.731C223.582,10.033,226.19,12.81,226.19,16.288z M216.57,15.867c0,3.533,1.543,6.17,3.843,6.17
				c1.738,0,3.169-1.29,3.169-5.133c0-3.281-1.318-5.945-3.758-5.945C218.085,10.959,216.57,12.698,216.57,15.867z"/>
			<path fill="#323031" d="M232.055,13.006c0.841-1.401,2.047-2.973,3.394-2.973c0.953,0,1.626,0.729,1.626,1.402
				c0,0.562-0.364,1.122-0.897,1.374c-0.336,0.141-0.589,0.112-0.757-0.056c-0.393-0.421-0.729-0.589-1.178-0.589
				c-0.729,0-1.627,0.841-2.244,2.412v5.132c0,1.852,0.141,2.02,2.3,2.188v0.729h-6.45v-0.729c1.738-0.168,1.935-0.336,1.935-2.188
				v-5.806c0-1.851-0.14-1.963-1.738-2.188V11.1c1.374-0.225,2.608-0.562,3.954-1.15v3.057H232.055z"/>
			<path fill="#323031" d="M251.94,13.68c-0.532-1.655-1.514-2.776-2.889-2.776c-1.065,0-1.822,0.841-1.822,1.935
				c0,1.263,1.121,1.907,2.384,2.44c2.104,0.869,3.533,1.879,3.533,3.813c0,2.553-2.384,3.871-4.627,3.871
				c-1.431,0-2.721-0.533-3.226-0.954c-0.196-0.393-0.449-2.3-0.449-3.31l0.729-0.14c0.505,1.851,1.767,3.478,3.45,3.478
				c1.037,0,1.991-0.785,1.991-1.963c0-1.234-0.813-1.907-2.216-2.553c-1.683-0.785-3.506-1.711-3.506-3.87
				c0-1.963,1.683-3.618,4.263-3.618c1.15,0,1.907,0.253,2.496,0.478c0.225,0.645,0.533,2.299,0.617,3L251.94,13.68z"/>
			<path fill="#323031" d="M267.479,16.288c0,4.515-3.31,6.675-6.086,6.675c-3.842,0-6.142-3.085-6.142-6.198
				c0-4.628,3.59-6.731,6.142-6.731C264.871,10.033,267.479,12.81,267.479,16.288z M257.859,15.867c0,3.533,1.543,6.17,3.843,6.17
				c1.738,0,3.169-1.29,3.169-5.133c0-3.281-1.318-5.945-3.758-5.945C259.374,10.959,257.859,12.698,257.859,15.867z"/>
			<path fill="#323031" d="M282.738,21.953c-1.29,0.196-2.72,0.589-4.122,1.01l-0.169-0.169v-1.991
				c-0.645,0.478-1.29,0.981-2.075,1.459c-0.813,0.477-1.402,0.701-2.159,0.701c-1.879,0-3.478-1.15-3.478-4.179v-5.497
				c0-1.543-0.112-1.655-1.711-1.964v-0.645c1.318-0.084,2.664-0.253,4.011-0.505c-0.085,0.869-0.085,2.188-0.085,4.095v3.758
				c0,2.496,1.206,3.169,2.469,3.169c1.01,0,2.075-0.42,3.028-1.346v-6.535c0-1.599-0.168-1.71-2.188-1.991v-0.645
				c1.459-0.084,2.917-0.196,4.403-0.505v9.367c0,1.402,0.225,1.599,1.29,1.654l0.785,0.057V21.953z"/>
			<path fill="#323031" d="M291.939,22.626v-0.729c1.655-0.168,1.852-0.393,1.852-2.327v-4.684c0-1.936-0.673-3.197-2.553-3.197
				c-1.121,0-2.215,0.701-3.057,1.43v6.591c0,1.907,0.168,2.02,1.823,2.188v0.729h-6.086v-0.729
				c1.907-0.196,2.047-0.336,2.047-2.188v-5.806c0-1.795-0.168-1.879-1.683-2.159V11.1c1.347-0.253,2.664-0.589,3.898-1.15v2.244
				c0.561-0.421,1.178-0.842,1.879-1.318c0.785-0.505,1.515-0.842,2.328-0.842c2.216,0,3.618,1.543,3.618,4.264v5.412
				c0,1.907,0.14,2.02,1.767,2.188v0.729H291.939z"/>
			<path fill="#323031" d="M312.864,21.896c-0.617,0.112-2.721,0.478-4.348,1.066V21.14l-1.711,1.01
				c-1.094,0.645-1.851,0.813-2.188,0.813c-2.243,0-5.188-2.048-5.188-5.974c0-3.898,3.422-6.956,7.236-6.956
				c0.393,0,1.206,0.084,1.851,0.309V6.388c0-1.852-0.14-1.936-2.159-2.075V3.639c1.458-0.196,3.337-0.616,4.375-0.981V19.4
				c0,1.459,0.196,1.599,1.234,1.711l0.897,0.084V21.896z M308.517,12.502c-0.673-0.982-1.823-1.431-2.889-1.431
				c-1.29,0-3.646,1.094-3.646,5.16c0,3.338,2.047,4.964,3.842,4.964c1.01,0,2.02-0.448,2.692-0.953V12.502z"/>
			<path fill="#323031" d="M332.808,16.288c0,4.515-3.31,6.675-6.086,6.675c-3.842,0-6.142-3.085-6.142-6.198
				c0-4.628,3.59-6.731,6.142-6.731C330.199,10.033,332.808,12.81,332.808,16.288z M323.188,15.867c0,3.533,1.543,6.17,3.843,6.17
				c1.738,0,3.169-1.29,3.169-5.133c0-3.281-1.318-5.945-3.758-5.945C324.702,10.959,323.188,12.698,323.188,15.867z"/>
			<path fill="#323031" d="M336.344,10.37V9.753c0-0.869,0.111-1.683,0.308-2.3c0.197-0.617,0.646-1.991,2.16-3.281
				c0.981-0.869,1.991-1.374,3.085-1.515c0.953,0.028,1.767,0.421,2.216,0.954c0.252,0.309,0.28,0.673,0.14,0.981
				c-0.084,0.225-0.252,0.448-0.532,0.673c-0.253,0.196-0.505,0.196-0.758-0.084c-0.561-0.505-1.346-1.038-2.271-1.038
				c-0.729,0-1.178,0.337-1.486,0.842c-0.364,0.533-0.673,1.879-0.646,4.263v1.122h3.31c0.168,0.252,0.028,0.926-0.28,1.094h-3.029
				v8.077c0,2.075,0.196,2.159,2.412,2.384v0.701h-6.618v-0.729c1.795-0.168,1.991-0.309,1.991-2.159v-8.273h-1.964l-0.112-0.28
				l0.758-0.813H336.344z"/>
			<path fill="#323031" d="M356.426,13.68c-0.532-1.655-1.515-2.776-2.889-2.776c-1.065,0-1.822,0.841-1.822,1.935
				c0,1.263,1.121,1.907,2.384,2.44c2.104,0.869,3.533,1.879,3.533,3.813c0,2.553-2.384,3.871-4.627,3.871
				c-1.431,0-2.721-0.533-3.226-0.954c-0.196-0.393-0.449-2.3-0.449-3.31l0.729-0.14c0.505,1.851,1.767,3.478,3.45,3.478
				c1.037,0,1.991-0.785,1.991-1.963c0-1.234-0.813-1.907-2.216-2.553c-1.683-0.785-3.506-1.711-3.506-3.87
				c0-1.963,1.683-3.618,4.263-3.618c1.15,0,1.907,0.253,2.496,0.478c0.225,0.645,0.533,2.299,0.617,3L356.426,13.68z"/>
			<path fill="#323031" d="M367.309,22.626v-0.729c1.655-0.168,1.852-0.393,1.852-2.327v-4.684c0-1.936-0.673-3.197-2.553-3.197
				c-1.121,0-2.215,0.701-3.057,1.43v6.591c0,1.907,0.168,2.02,1.823,2.188v0.729h-6.086v-0.729
				c1.907-0.196,2.047-0.336,2.047-2.188v-5.806c0-1.795-0.168-1.879-1.683-2.159V11.1c1.347-0.253,2.664-0.589,3.898-1.15v2.244
				c0.561-0.421,1.178-0.842,1.879-1.318c0.785-0.505,1.515-0.842,2.328-0.842c2.216,0,3.618,1.543,3.618,4.264v5.412
				c0,1.907,0.14,2.02,1.767,2.188v0.729H367.309z"/>
			<path fill="#323031" d="M383.521,22.963c-0.421,0-1.01-0.253-1.318-0.533c-0.364-0.393-0.532-0.785-0.673-1.262
				c-1.122,0.757-2.468,1.795-3.31,1.795c-1.991,0-3.365-1.655-3.365-3.422c0-1.374,0.729-2.244,2.271-2.776
				c1.683-0.562,3.73-1.318,4.348-1.823v-0.505c0-2.02-0.954-3.169-2.356-3.169c-0.561,0-0.981,0.225-1.262,0.561
				c-0.364,0.365-0.617,0.981-0.842,1.852c-0.111,0.448-0.42,0.645-0.813,0.645c-0.505,0-1.234-0.561-1.234-1.206
				c0-0.42,0.364-0.729,0.897-1.121c0.785-0.562,2.608-1.655,4.207-1.964c0.841,0,1.683,0.253,2.3,0.758
				c0.981,0.813,1.262,1.963,1.262,3.421v5.217c0,1.262,0.505,1.683,0.981,1.683c0.337,0,0.729-0.14,1.01-0.309l0.28,0.729
				L383.521,22.963z M381.475,15.896c-0.589,0.308-1.936,0.896-2.524,1.178c-1.094,0.505-1.711,1.037-1.711,2.047
				c0,1.459,1.122,2.16,1.991,2.16c0.729-0.028,1.711-0.505,2.244-1.01V15.896z"/>
			<path fill="#323031" d="M390.983,13.006c0.841-1.401,2.047-2.973,3.393-2.973c0.954,0,1.627,0.729,1.627,1.402
				c0,0.562-0.364,1.122-0.897,1.374c-0.336,0.141-0.589,0.112-0.757-0.056c-0.393-0.421-0.729-0.589-1.178-0.589
				c-0.729,0-1.627,0.841-2.244,2.412v5.132c0,1.852,0.141,2.02,2.3,2.188v0.729h-6.45v-0.729c1.738-0.168,1.935-0.336,1.935-2.188
				v-5.806c0-1.851-0.14-1.963-1.738-2.188V11.1c1.374-0.225,2.608-0.562,3.954-1.15v3.057H390.983z"/>
			<path fill="#323031" d="M396.565,22.626v-0.729c1.767-0.168,2.02-0.336,2.02-2.188V6.443c0-1.907-0.169-1.991-1.936-2.131V3.639
				c1.458-0.168,3.197-0.645,4.15-0.981v17.052c0,1.852,0.225,2.02,2.02,2.188v0.729H396.565z"/>
			<path fill="#323031" d="M404.139,22.626v-0.729c1.767-0.168,1.963-0.336,1.963-2.243v-5.777c0-1.739-0.084-1.852-1.767-2.132
				v-0.673c1.431-0.225,2.748-0.589,3.982-1.094v9.676c0,1.907,0.196,2.075,1.991,2.243v0.729H404.139z M405.625,6.163
				c0-0.841,0.673-1.458,1.431-1.458c0.785,0,1.402,0.617,1.402,1.458c0,0.758-0.617,1.431-1.431,1.431
				C406.298,7.594,405.625,6.921,405.625,6.163z"/>
			<path fill="#323031" d="M419.593,22.626v-0.729c1.655-0.168,1.852-0.393,1.852-2.327v-4.684c0-1.936-0.673-3.197-2.553-3.197
				c-1.121,0-2.215,0.701-3.057,1.43v6.591c0,1.907,0.168,2.02,1.823,2.188v0.729h-6.086v-0.729
				c1.907-0.196,2.047-0.336,2.047-2.188v-5.806c0-1.795-0.168-1.879-1.683-2.159V11.1c1.347-0.253,2.664-0.589,3.898-1.15v2.244
				c0.561-0.421,1.178-0.842,1.879-1.318c0.785-0.505,1.515-0.842,2.328-0.842c2.216,0,3.618,1.543,3.618,4.264v5.412
				c0,1.907,0.14,2.02,1.767,2.188v0.729H419.593z"/>
			<path fill="#323031" d="M439.002,10.566c-0.252,0.448-0.813,1.178-1.262,1.431l-1.599-0.085c0.533,0.617,0.842,1.487,0.842,2.496
				c0,3.029-2.524,4.487-4.908,4.487c-0.477,0-0.981-0.084-1.431-0.14c-0.393,0.252-0.841,0.757-0.841,1.149
				c0,0.562,0.505,1.094,1.767,1.094c1.01,0,2.02-0.027,2.944-0.027c1.739,0,4.039,0.561,4.039,3.309
				c0,2.833-3.281,5.554-7.012,5.554c-3.113,0-4.823-1.823-4.852-3.422c0-0.617,0.252-1.149,0.673-1.57
				c0.561-0.562,1.655-1.459,2.328-1.964c-1.01-0.308-1.711-0.953-2.075-1.542c-0.253-0.421-0.337-0.897-0.309-1.178
				c1.121-0.421,2.019-1.15,2.468-1.711c-1.262-0.533-2.468-1.852-2.468-3.758c0-3.197,2.86-4.656,5.02-4.656
				c0.954,0,1.879,0.253,2.692,0.701c1.375-0.056,2.805-0.224,3.814-0.393L439.002,10.566z M430.196,23.552
				c-0.729,0.589-1.29,1.374-1.29,2.188c0,1.515,1.626,2.664,3.702,2.664c2.664,0,4.038-1.374,4.038-3.113
				c0-0.953-0.477-1.654-1.29-1.991c-0.701-0.28-1.515-0.364-2.692-0.364C431.317,22.935,430.701,23.103,430.196,23.552z
				 M429.719,14.24c0,2.188,1.066,3.758,2.637,3.758c1.234-0.027,2.328-1.121,2.328-3.337s-1.038-3.786-2.637-3.786
				C430.813,10.875,429.719,12.053,429.719,14.24z"/>
			<path fill="#323031" d="M440.715,21.336c0-0.897,0.673-1.599,1.57-1.599s1.57,0.701,1.57,1.599c0,0.981-0.673,1.627-1.57,1.627
				S440.715,22.317,440.715,21.336z"/>
		</g>
		<g>
			<path fill="#323031" d="M139.238,37.355c-1.317,0.505-2.384,1.318-2.439,2.496c-0.056,0.869,0.505,1.374,1.346,1.57
				c0.169,0.057,0.337,0.225,0.309,0.505c-0.027,0.729-0.701,1.094-1.233,1.094c-0.981,0-2.244-0.953-2.188-2.607
				c0.084-2.216,2.271-3.366,3.898-3.814L139.238,37.355z M143.979,37.355c-1.318,0.505-2.412,1.347-2.468,2.524
				c-0.057,0.869,0.532,1.374,1.374,1.599c0.168,0.028,0.337,0.196,0.337,0.477c-0.057,0.729-0.729,1.122-1.263,1.122
				c-0.981,0-2.271-0.954-2.188-2.664c0.084-2.216,2.271-3.366,3.927-3.814L143.979,37.355z"/>
			<path fill="#323031" d="M153.347,54.043c-1.515,1.879-3.394,2.917-4.095,2.917c-0.532,0-0.897-0.421-0.505-2.469l0.562-2.664
				h-0.057c-1.094,1.543-2.412,2.889-3.617,3.87c-0.926,0.758-1.852,1.263-2.608,1.263c-0.729,0-1.627-0.926-1.627-3.17
				c0-2.832,1.318-5.89,3.365-7.6c1.402-1.179,3.45-2.16,5.217-2.16c0.589,0,1.149,0.084,1.739,0.196
				c0.393,0.084,0.757,0.169,1.065,0.169l0.084,0.111c-0.449,1.739-1.29,5.554-1.936,9.115c-0.196,0.981-0.111,1.206,0.057,1.206
				c0.225,0,1.206-0.646,2.02-1.458L153.347,54.043z M149.701,49.668c0.309-1.122,0.729-3.142,0.925-4.039
				c-0.393-0.196-1.149-0.393-1.879-0.393c-0.729,0-1.514,0.225-1.991,0.589c-1.907,1.402-3.028,4.712-3.028,7.488
				c0,1.263,0.364,1.852,0.757,1.852C145.578,55.165,148.747,51.603,149.701,49.668z"/>
			<path fill="#323031" d="M160.81,54.94c-0.028-0.477,0.336-0.897,0.813-1.178c0.337-0.169,0.562-0.112,0.701,0.084
				c0.729,1.094,1.768,1.711,2.692,1.711c1.122,0,1.852-0.785,1.852-1.683c0-0.701-0.309-1.318-1.627-2.356
				c-1.262-0.953-2.439-1.991-2.439-3.422c0-0.841,0.336-1.738,1.458-2.72c0.869-0.758,2.216-1.347,3.113-1.347
				c1.233,0,2.188,0.842,2.188,1.571c0,0.477-0.28,0.897-0.701,1.149c-0.28,0.168-0.449,0.112-0.617-0.112
				c-0.561-0.701-1.234-1.262-2.188-1.262c-0.813,0-1.515,0.617-1.515,1.57c0,1.01,0.813,1.711,1.823,2.496
				c1.683,1.262,2.355,2.075,2.355,3.281c0,2.132-2.805,4.235-5.076,4.235C162.323,56.96,160.81,55.922,160.81,54.94z"/>
			<path fill="#323031" d="M183.555,54.239c-1.655,1.795-3.226,2.721-3.955,2.721c-0.701,0-0.953-0.758-0.448-2.917
				c0.533-2.104,1.01-4.151,1.515-6.227c0.393-1.599,0.224-2.019-0.225-2.019c-1.234,0-4.487,3.478-5.89,5.861
				c-0.337,1.374-0.757,3.057-1.094,4.739c-0.729,0.141-1.486,0.365-2.02,0.562l-0.168-0.225c0.757-3.029,1.599-6.395,2.271-9.508
				c0.225-0.897,0.141-1.122-0.028-1.122c-0.252,0-1.121,0.59-1.822,1.263l-0.365-0.673c1.515-1.655,3.17-2.665,3.955-2.665
				c0.645,0,0.757,0.954,0.224,3.113l-0.589,2.44h0.057c1.907-2.608,3.982-4.235,5.16-4.937c0.729-0.421,1.318-0.617,1.879-0.617
				c0.673,0,1.459,0.421,0.617,4.011c-0.448,1.907-0.897,3.87-1.374,5.834c-0.168,0.757-0.141,1.009,0.056,1.009
				c0.253,0,1.01-0.504,1.852-1.317L183.555,54.239z"/>
			<path fill="#323031" d="M197.439,54.043c-1.515,1.879-3.394,2.917-4.095,2.917c-0.532,0-0.897-0.421-0.505-2.469l0.562-2.664
				h-0.057c-1.094,1.543-2.412,2.889-3.617,3.87c-0.926,0.758-1.852,1.263-2.608,1.263c-0.729,0-1.627-0.926-1.627-3.17
				c0-2.832,1.318-5.89,3.365-7.6c1.402-1.179,3.45-2.16,5.217-2.16c0.589,0,1.149,0.084,1.739,0.196
				c0.393,0.084,0.757,0.169,1.065,0.169l0.084,0.111c-0.448,1.739-1.29,5.554-1.936,9.115c-0.196,0.981-0.111,1.206,0.057,1.206
				c0.225,0,1.206-0.646,2.02-1.458L197.439,54.043z M193.794,49.668c0.309-1.122,0.729-3.142,0.926-4.039
				c-0.394-0.196-1.15-0.393-1.88-0.393c-0.729,0-1.514,0.225-1.991,0.589c-1.907,1.402-3.028,4.712-3.028,7.488
				c0,1.263,0.364,1.852,0.757,1.852C189.671,55.165,192.84,51.603,193.794,49.668z"/>
			<path fill="#323031" d="M199.097,46.779c1.431-1.599,3.169-2.749,3.927-2.749c0.701,0,0.729,1.29,0.309,3.254l-0.28,1.402h0.084
				c1.43-2.749,3.085-4.656,4.207-4.656c0.477,0,0.953,0.309,1.205,0.701c0.196,0.365,0.196,0.813-0.027,1.206
				c-0.196,0.337-0.477,0.617-0.729,0.813c-0.252,0.168-0.477,0.168-0.617,0.028c-0.309-0.337-0.645-0.478-0.953-0.478
				c-0.337,0-0.785,0.281-1.431,1.179c-0.617,0.897-1.486,2.215-1.991,3.478c-0.448,1.879-0.785,3.646-1.122,5.497
				c-0.616,0.084-1.374,0.28-1.991,0.505l-0.224-0.225c0.729-3.001,1.514-6.45,2.047-9.451c0.168-0.926,0.168-1.206-0.056-1.206
				c-0.253,0-1.15,0.561-1.991,1.346L199.097,46.779z"/>
			<path fill="#323031" d="M214.242,53.959c-1.458,1.738-3.449,3.001-4.318,3.001c-0.533,0-0.982-0.646-0.393-3.394
				c0.981-4.6,1.963-9.199,2.916-13.827c0.28-1.206,0.112-1.402-1.178-1.402l-0.757-0.027l0.112-0.674
				c2.188-0.252,3.786-0.981,4.15-0.981c0.252,0,0.28,0.253,0.168,0.842c-1.149,5.413-2.3,10.854-3.478,16.406
				c-0.168,0.813-0.056,0.981,0.112,0.981c0.309,0,1.458-0.729,2.244-1.542L214.242,53.959z"/>
			<path fill="#323031" d="M222.489,52.585c0-3.646,1.936-6.423,4.263-7.657c1.01-0.532,2.16-0.897,3.029-0.897
				c2.328,0,3.73,1.599,3.73,4.375c0,2.412-1.038,5.161-3.001,6.787c-1.206,1.01-2.749,1.768-4.319,1.768
				C223.527,56.96,222.489,54.856,222.489,52.585z M228.099,55.67c1.515-0.646,3.057-3.618,3.057-7.208
				c0-2.271-0.981-3.365-2.271-3.365c-0.421,0-0.757,0.111-1.065,0.252c-1.094,0.477-2.974,2.776-2.974,7.096
				c0,2.075,0.87,3.394,2.356,3.394C227.537,55.838,227.818,55.781,228.099,55.67z"/>
			<path fill="#323031" d="M238.085,44.479c0.421-2.132,1.094-4.179,2.355-5.581c1.29-1.431,2.889-2.244,4.011-2.244
				c0.981,0,1.711,0.701,1.683,1.206c0,0.421-0.393,0.926-0.701,1.15c-0.225,0.168-0.505,0.196-0.701-0.028
				c-0.589-0.617-1.178-0.981-1.767-0.981c-1.038,0-1.879,1.29-2.721,6.479h3.169l-0.589,0.869l-2.805,0.28
				c-0.505,3.085-0.813,4.796-1.43,7.909c-0.981,4.824-2.02,6.927-3.563,8.525c-1.233,1.318-2.411,1.768-3.169,1.768
				c-0.813,0-1.767-0.562-1.738-1.206c0-0.365,0.336-0.842,0.757-1.178c0.225-0.196,0.364-0.169,0.533,0
				c0.448,0.42,1.262,0.701,1.767,0.701c0.477,0,0.926-0.225,1.206-0.562c0.364-0.421,1.038-1.599,1.963-7.039
				c0.673-3.87,1.038-6.227,1.515-8.975h-2.328l-0.084-0.309l0.842-0.785H238.085z"/>
			<path fill="#323031" d="M249.473,46.779c1.431-1.599,3.169-2.749,3.927-2.749c0.701,0,0.729,1.29,0.309,3.254l-0.28,1.402h0.084
				c1.43-2.749,3.085-4.656,4.207-4.656c0.477,0,0.953,0.309,1.205,0.701c0.196,0.365,0.196,0.813-0.027,1.206
				c-0.196,0.337-0.478,0.617-0.729,0.813c-0.252,0.168-0.477,0.168-0.617,0.028c-0.309-0.337-0.645-0.478-0.953-0.478
				c-0.337,0-0.785,0.281-1.431,1.179c-0.617,0.897-1.486,2.215-1.991,3.478c-0.448,1.879-0.785,3.646-1.122,5.497
				c-0.616,0.084-1.374,0.28-1.991,0.505l-0.224-0.225c0.729-3.001,1.514-6.45,2.047-9.451c0.168-0.926,0.168-1.206-0.056-1.206
				c-0.253,0-1.15,0.561-1.991,1.346L249.473,46.779z"/>
			<path fill="#323031" d="M270.901,54.043c-1.515,1.879-3.394,2.917-4.095,2.917c-0.532,0-0.897-0.421-0.505-2.469l0.562-2.664
				h-0.057c-1.094,1.543-2.412,2.889-3.617,3.87c-0.926,0.758-1.852,1.263-2.608,1.263c-0.729,0-1.627-0.926-1.627-3.17
				c0-2.832,1.318-5.89,3.365-7.6c1.402-1.179,3.45-2.16,5.217-2.16c0.589,0,1.149,0.084,1.739,0.196
				c0.393,0.084,0.757,0.169,1.065,0.169l0.084,0.111c-0.449,1.739-1.29,5.554-1.936,9.115c-0.196,0.981-0.111,1.206,0.057,1.206
				c0.225,0,1.206-0.646,2.02-1.458L270.901,54.043z M267.256,49.668c0.309-1.122,0.729-3.142,0.925-4.039
				c-0.393-0.196-1.149-0.393-1.879-0.393c-0.729,0-1.514,0.225-1.991,0.589c-1.907,1.402-3.028,4.712-3.028,7.488
				c0,1.263,0.364,1.852,0.757,1.852C263.133,55.165,266.302,51.603,267.256,49.668z"/>
			<path fill="#323031" d="M284.533,44.676c-0.813,0.897-1.542,1.233-1.991,1.318c-0.225,0.056-0.421,0.084-0.729,0.084
				c0.141,0.393,0.225,0.813,0.225,1.57c0,1.991-1.094,3.478-2.131,4.291c-0.758,0.617-2.02,1.318-3.618,1.627
				c-0.337,0.28-0.562,0.561-0.562,0.897c0,0.42,0.674,0.925,2.02,1.626c2.692,1.431,3.786,2.524,3.786,3.73
				c0,2.328-3.926,4.011-6.618,4.011c-2.721,0-5.077-1.402-5.021-3.142c0.028-1.206,1.627-2.468,4.712-4.038
				c-0.701-0.449-1.066-1.01-1.038-1.375c0-0.448,0.393-0.953,1.711-1.738c-1.599-0.364-2.44-1.515-2.44-3.422
				c0-1.822,0.926-3.562,2.356-4.684c1.149-0.926,2.58-1.402,3.59-1.402c0.897,0,1.767,0.253,2.384,0.785
				c1.627-0.027,2.636-0.336,3.169-0.673L284.533,44.676z M279.485,60.577c0-0.757-0.758-1.458-2.048-2.215
				c-0.925-0.562-1.711-1.01-2.104-1.206c-1.879,0.897-3.112,2.019-3.112,3.057c0,1.431,1.851,2.44,3.813,2.44
				C278.139,62.653,279.485,61.671,279.485,60.577z M279.962,47.732c0-1.599-0.646-2.721-1.879-2.721
				c-0.813,0-1.543,0.505-2.048,1.263c-0.589,0.841-1.065,2.131-1.065,3.646c0,1.655,0.813,2.524,1.823,2.524
				C278.279,52.444,279.962,50.733,279.962,47.732z"/>
			<path fill="#323031" d="M293.201,53.79c-2.468,2.637-4.571,3.17-5.917,3.17c-1.29,0-3.085-0.758-3.085-4.095
				c0-2.637,1.149-5.581,3.365-7.264c1.206-0.926,2.692-1.571,3.87-1.571c1.486,0,2.468,1.038,2.468,2.244
				c0,2.776-4.711,4.291-7.403,4.964c-0.057,0.337-0.057,0.617-0.057,0.897c0,1.515,0.477,3.169,2.188,3.169
				c1.178,0,2.692-0.785,4.095-2.159L293.201,53.79z M289.247,45.517c-0.757,0.421-2.159,1.711-2.637,4.853
				c4.011-1.066,5.188-2.356,5.188-3.646c0-0.981-0.589-1.542-1.402-1.542C290.004,45.181,289.556,45.32,289.247,45.517z"/>
			<path fill="#323031" d="M295.502,42.404c1.346-0.505,2.412-1.29,2.468-2.496c0.056-0.87-0.533-1.375-1.374-1.599
				c-0.169-0.028-0.337-0.169-0.309-0.449c0.028-0.729,0.701-1.122,1.233-1.122c0.982,0,2.244,0.954,2.16,2.665
				c-0.057,2.159-2.244,3.337-3.898,3.758L295.502,42.404z M300.241,42.404c1.318-0.505,2.44-1.29,2.496-2.496
				c0.028-0.87-0.532-1.375-1.402-1.599c-0.168-0.028-0.309-0.169-0.309-0.449c0.028-0.729,0.701-1.122,1.234-1.122
				c0.981,0,2.271,0.954,2.188,2.637c-0.084,2.188-2.243,3.365-3.898,3.786L300.241,42.404z"/>
		</g>
		<g>
			<path fill="#323031" d="M104.261,120.941v-0.757c2.553-0.196,2.692-0.421,2.692-2.44v-10.798c0-1.458-0.112-1.599-1.346-1.654
				l-1.347-0.057v-0.645c1.795-0.309,3.45-0.842,4.992-1.458v14.611c0,2.02,0.169,2.244,2.721,2.44v0.757H104.261z"/>
			<path fill="#323031" d="M116.295,119.651c0-0.897,0.673-1.599,1.57-1.599s1.57,0.701,1.57,1.599c0,0.981-0.673,1.627-1.57,1.627
				S116.295,120.633,116.295,119.651z"/>
		</g>
		<g>
			<path fill="#323031" d="M139.716,125.681c-4.095-2.748-5.946-7.264-5.946-12.34c0-5.02,1.852-9.507,5.946-12.284l0.505,0.646
				c-2.805,2.328-4.403,6.843-4.403,11.667s1.626,9.339,4.403,11.695L139.716,125.681z"/>
			<path fill="#323031" d="M154.777,114.604c0,4.515-3.31,6.675-6.086,6.675c-3.842,0-6.142-3.085-6.142-6.198
				c0-4.628,3.59-6.731,6.142-6.731C152.169,108.349,154.777,111.125,154.777,114.604z M145.157,114.183
				c0,3.533,1.543,6.17,3.843,6.17c1.738,0,3.169-1.29,3.169-5.133c0-3.281-1.318-5.945-3.758-5.945
				C146.672,109.274,145.157,111.014,145.157,114.183z"/>
			<path fill="#323031" d="M158.342,108.686v-0.617c0-0.869,0.111-1.683,0.308-2.3c0.197-0.617,0.646-1.991,2.16-3.281
				c0.981-0.869,1.991-1.374,3.085-1.515c0.953,0.028,1.767,0.421,2.216,0.954c0.252,0.309,0.28,0.673,0.14,0.981
				c-0.084,0.225-0.252,0.448-0.532,0.673c-0.253,0.196-0.505,0.196-0.758-0.084c-0.561-0.505-1.346-1.038-2.271-1.038
				c-0.729,0-1.178,0.337-1.486,0.842c-0.364,0.533-0.673,1.879-0.646,4.263v1.122h3.31c0.168,0.252,0.028,0.926-0.28,1.094h-3.029
				v8.077c0,2.075,0.196,2.159,2.412,2.384v0.701h-6.618v-0.729c1.795-0.168,1.991-0.309,1.991-2.159v-8.273h-1.964l-0.112-0.28
				l0.758-0.813H158.342z"/>
			<path fill="#323031" d="M179.938,121.278c-0.421,0-1.01-0.253-1.318-0.533c-0.364-0.393-0.532-0.785-0.673-1.262
				c-1.122,0.757-2.468,1.795-3.31,1.795c-1.991,0-3.365-1.655-3.365-3.422c0-1.374,0.729-2.244,2.271-2.776
				c1.683-0.562,3.73-1.318,4.348-1.823v-0.505c0-2.02-0.954-3.169-2.356-3.169c-0.561,0-0.981,0.225-1.262,0.561
				c-0.364,0.365-0.617,0.981-0.842,1.852c-0.112,0.448-0.42,0.645-0.813,0.645c-0.505,0-1.234-0.561-1.234-1.206
				c0-0.42,0.364-0.729,0.897-1.121c0.785-0.562,2.608-1.655,4.207-1.964c0.841,0,1.683,0.253,2.3,0.758
				c0.981,0.813,1.262,1.963,1.262,3.421v5.217c0,1.262,0.505,1.683,0.981,1.683c0.337,0,0.729-0.14,1.01-0.309l0.28,0.729
				L179.938,121.278z M177.892,114.21c-0.589,0.309-1.936,0.898-2.524,1.179c-1.094,0.505-1.711,1.037-1.711,2.047
				c0,1.459,1.122,2.159,1.991,2.159c0.729-0.027,1.711-0.504,2.244-1.009V114.21z"/>
			<path fill="#323031" d="M191.102,120.941v-0.729c1.655-0.168,1.852-0.393,1.852-2.327v-4.684c0-1.936-0.673-3.197-2.553-3.197
				c-1.121,0-2.215,0.701-3.057,1.43v6.591c0,1.907,0.168,2.02,1.823,2.188v0.729h-6.086v-0.729
				c1.907-0.196,2.047-0.336,2.047-2.188v-5.806c0-1.795-0.168-1.879-1.683-2.159v-0.645c1.347-0.253,2.664-0.59,3.898-1.15v2.244
				c0.561-0.421,1.178-0.842,1.879-1.318c0.785-0.505,1.515-0.842,2.328-0.842c2.216,0,3.618,1.543,3.618,4.264v5.412
				c0,1.907,0.14,2.02,1.767,2.188v0.729H191.102z"/>
			<path fill="#323031" d="M213.737,121.278c-0.421,0-1.01-0.253-1.318-0.533c-0.364-0.393-0.532-0.785-0.673-1.262
				c-1.122,0.757-2.468,1.795-3.31,1.795c-1.991,0-3.365-1.655-3.365-3.422c0-1.374,0.729-2.244,2.271-2.776
				c1.683-0.562,3.73-1.318,4.348-1.823v-0.505c0-2.02-0.954-3.169-2.356-3.169c-0.561,0-0.981,0.225-1.262,0.561
				c-0.364,0.365-0.617,0.981-0.842,1.852c-0.112,0.448-0.42,0.645-0.813,0.645c-0.505,0-1.234-0.561-1.234-1.206
				c0-0.42,0.364-0.729,0.897-1.121c0.785-0.562,2.608-1.655,4.207-1.964c0.841,0,1.683,0.253,2.3,0.758
				c0.981,0.813,1.262,1.963,1.262,3.421v5.217c0,1.262,0.505,1.683,0.981,1.683c0.337,0,0.729-0.14,1.01-0.309l0.28,0.729
				L213.737,121.278z M211.69,114.21c-0.589,0.309-1.936,0.898-2.524,1.179c-1.094,0.505-1.711,1.037-1.711,2.047
				c0,1.459,1.122,2.159,1.991,2.159c0.729-0.027,1.711-0.504,2.244-1.009V114.21z"/>
			<path fill="#323031" d="M224.873,120.941v-0.729c1.655-0.168,1.852-0.393,1.852-2.327v-4.684c0-1.936-0.673-3.197-2.553-3.197
				c-1.121,0-2.215,0.701-3.057,1.43v6.591c0,1.907,0.168,2.02,1.823,2.188v0.729h-6.086v-0.729
				c1.907-0.196,2.047-0.336,2.047-2.188v-5.806c0-1.795-0.168-1.879-1.683-2.159v-0.645c1.347-0.253,2.664-0.59,3.898-1.15v2.244
				c0.561-0.421,1.178-0.842,1.879-1.318c0.785-0.505,1.515-0.842,2.328-0.842c2.216,0,3.618,1.543,3.618,4.264v5.412
				c0,1.907,0.14,2.02,1.767,2.188v0.729H224.873z"/>
			<path fill="#323031" d="M232.279,120.941v-0.729c1.767-0.168,1.963-0.336,1.963-2.243v-5.777c0-1.739-0.084-1.852-1.767-2.132
				v-0.673c1.431-0.225,2.748-0.589,3.982-1.094v9.676c0,1.907,0.196,2.075,1.991,2.243v0.729H232.279z M233.766,104.479
				c0-0.841,0.673-1.458,1.431-1.458c0.785,0,1.402,0.617,1.402,1.458c0,0.757-0.617,1.431-1.431,1.431
				C234.438,105.909,233.766,105.235,233.766,104.479z"/>
			<path fill="#323031" d="M255.25,120.941v-0.729c1.654-0.168,1.963-0.28,1.963-2.271v-4.684c0-1.991-0.701-3.253-2.468-3.253
				c-1.01,0-2.075,0.561-3.141,1.458c0.056,0.337,0.084,0.646,0.084,1.178v5.469c0,1.768,0.252,1.936,1.795,2.104v0.729h-6.002
				v-0.729c1.738-0.168,1.991-0.309,1.991-2.159v-4.824c0-2.075-0.729-3.225-2.44-3.225c-1.121,0-2.215,0.757-3.057,1.458v6.591
				c0,1.823,0.225,1.991,1.599,2.159v0.729h-5.918v-0.729c1.852-0.168,2.104-0.336,2.104-2.159v-5.806
				c0-1.795-0.084-1.935-1.711-2.188v-0.645c1.234-0.225,2.665-0.59,3.898-1.15v2.271c0.589-0.393,1.206-0.897,2.048-1.43
				c0.729-0.449,1.402-0.758,2.3-0.758c1.346,0,2.552,0.842,3.113,2.3c0.813-0.617,1.626-1.149,2.327-1.57
				c0.589-0.393,1.318-0.729,2.104-0.729c2.188,0,3.562,1.543,3.562,4.291v5.413c0,1.879,0.225,1.991,1.823,2.159v0.729H255.25z"/>
			<path fill="#323031" d="M271.575,121.278c-0.421,0-1.01-0.253-1.318-0.533c-0.364-0.393-0.532-0.785-0.673-1.262
				c-1.122,0.757-2.468,1.795-3.31,1.795c-1.991,0-3.365-1.655-3.365-3.422c0-1.374,0.729-2.244,2.271-2.776
				c1.683-0.562,3.73-1.318,4.348-1.823v-0.505c0-2.02-0.954-3.169-2.356-3.169c-0.561,0-0.981,0.225-1.262,0.561
				c-0.364,0.365-0.617,0.981-0.842,1.852c-0.112,0.448-0.42,0.645-0.813,0.645c-0.505,0-1.234-0.561-1.234-1.206
				c0-0.42,0.364-0.729,0.897-1.121c0.785-0.562,2.608-1.655,4.207-1.964c0.841,0,1.683,0.253,2.3,0.758
				c0.981,0.813,1.262,1.963,1.262,3.421v5.217c0,1.262,0.505,1.683,0.981,1.683c0.337,0,0.729-0.14,1.01-0.309l0.28,0.729
				L271.575,121.278z M269.528,114.21c-0.589,0.309-1.936,0.898-2.524,1.179c-1.094,0.505-1.711,1.037-1.711,2.047
				c0,1.459,1.122,2.159,1.991,2.159c0.729-0.027,1.711-0.504,2.244-1.009V114.21z"/>
			<path fill="#323031" d="M274.662,120.941v-0.729c1.767-0.168,2.02-0.336,2.02-2.188v-13.266c0-1.907-0.169-1.991-1.936-2.131
				v-0.674c1.458-0.168,3.197-0.645,4.15-0.981v17.052c0,1.852,0.225,2.02,2.02,2.188v0.729H274.662z"/>
			<path fill="#323031" d="M283.133,101.057c4.179,2.805,5.918,7.265,5.918,12.313s-1.739,9.479-5.918,12.312l-0.533-0.616
				c2.861-2.384,4.432-6.871,4.432-11.695s-1.627-9.367-4.432-11.667L283.133,101.057z"/>
			<path fill="#323031" d="M313.761,120.941v-0.729c1.654-0.168,1.963-0.28,1.963-2.271v-4.684c0-1.991-0.701-3.253-2.468-3.253
				c-1.01,0-2.075,0.561-3.141,1.458c0.056,0.337,0.084,0.646,0.084,1.178v5.469c0,1.768,0.252,1.936,1.795,2.104v0.729h-6.002
				v-0.729c1.739-0.168,1.991-0.309,1.991-2.159v-4.824c0-2.075-0.729-3.225-2.44-3.225c-1.121,0-2.215,0.757-3.057,1.458v6.591
				c0,1.823,0.225,1.991,1.599,2.159v0.729h-5.918v-0.729c1.852-0.168,2.104-0.336,2.104-2.159v-5.806
				c0-1.795-0.084-1.935-1.711-2.188v-0.645c1.234-0.225,2.665-0.59,3.898-1.15v2.271c0.589-0.393,1.206-0.897,2.048-1.43
				c0.729-0.449,1.402-0.758,2.3-0.758c1.346,0,2.552,0.842,3.113,2.3c0.813-0.617,1.626-1.149,2.327-1.57
				c0.589-0.393,1.318-0.729,2.104-0.729c2.188,0,3.562,1.543,3.562,4.291v5.413c0,1.879,0.225,1.991,1.823,2.159v0.729H313.761z"/>
			<path fill="#323031" d="M330.087,121.278c-0.421,0-1.01-0.253-1.318-0.533c-0.364-0.393-0.532-0.785-0.673-1.262
				c-1.122,0.757-2.468,1.795-3.31,1.795c-1.991,0-3.365-1.655-3.365-3.422c0-1.374,0.729-2.244,2.271-2.776
				c1.683-0.562,3.73-1.318,4.348-1.823v-0.505c0-2.02-0.954-3.169-2.356-3.169c-0.561,0-0.981,0.225-1.262,0.561
				c-0.364,0.365-0.617,0.981-0.842,1.852c-0.112,0.448-0.42,0.645-0.813,0.645c-0.505,0-1.234-0.561-1.234-1.206
				c0-0.42,0.364-0.729,0.897-1.121c0.785-0.562,2.608-1.655,4.207-1.964c0.841,0,1.683,0.253,2.3,0.758
				c0.981,0.813,1.262,1.963,1.262,3.421v5.217c0,1.262,0.505,1.683,0.981,1.683c0.337,0,0.729-0.14,1.01-0.309l0.28,0.729
				L330.087,121.278z M328.04,114.21c-0.589,0.309-1.936,0.898-2.524,1.179c-1.094,0.505-1.711,1.037-1.711,2.047
				c0,1.459,1.122,2.159,1.991,2.159c0.729-0.027,1.711-0.504,2.244-1.009V114.21z"/>
			<path fill="#323031" d="M343.325,120.997c-1.29-1.43-3.057-3.674-4.6-5.553c-0.364-0.477-0.616-0.617-0.869-0.617
				c-0.112,0-0.252,0.028-0.448,0.084v3.113c0,1.852,0.252,2.02,2.047,2.188v0.729h-6.282v-0.729
				c1.879-0.168,2.048-0.393,2.048-2.188v-13.266c0-1.851-0.141-1.991-1.852-2.159v-0.646c1.347-0.14,2.945-0.616,4.039-0.981v13.21
				c0.841-0.169,1.346-0.533,1.767-0.981c0.617-0.617,1.458-1.711,1.991-2.469c0.561-0.869,0.477-1.094-0.842-1.233v-0.729
				l5.722-0.252v0.701c-1.936,0.336-2.524,0.616-3.618,1.654c-0.701,0.701-1.206,1.262-2.412,2.664
				c0.562,0.842,3.394,4.151,4.348,5.133c1.01,1.065,1.738,1.486,2.805,1.542v0.729L343.325,120.997z"/>
			<path fill="#323031" d="M357.547,118.558c-1.767,2.216-3.702,2.721-4.571,2.721c-3.45,0-5.469-2.805-5.469-5.974
				c0-1.936,0.701-3.646,1.851-4.908c1.149-1.29,2.664-2.048,4.123-2.048c2.327,0,4.206,2.075,4.206,4.264
				c0,0.561-0.14,0.785-0.645,0.897c-0.477,0.084-3.982,0.364-7.32,0.477c0.028,3.813,2.216,5.385,4.179,5.385
				c1.122,0,2.188-0.449,3.197-1.402L357.547,118.558z M349.862,112.836c1.57,0,3.113-0.027,4.739-0.084
				c0.505,0,0.674-0.168,0.674-0.561c0.027-1.459-0.926-2.805-2.469-2.805C351.517,109.387,350.283,110.564,349.862,112.836z"/>
			<path fill="#323031" d="M374.517,121.278c-0.421,0-1.01-0.253-1.318-0.533c-0.364-0.393-0.532-0.785-0.673-1.262
				c-1.122,0.757-2.468,1.795-3.31,1.795c-1.991,0-3.365-1.655-3.365-3.422c0-1.374,0.729-2.244,2.271-2.776
				c1.683-0.562,3.73-1.318,4.348-1.823v-0.505c0-2.02-0.954-3.169-2.356-3.169c-0.561,0-0.981,0.225-1.262,0.561
				c-0.364,0.365-0.617,0.981-0.842,1.852c-0.112,0.448-0.42,0.645-0.813,0.645c-0.505,0-1.234-0.561-1.234-1.206
				c0-0.42,0.364-0.729,0.897-1.121c0.785-0.562,2.608-1.655,4.207-1.964c0.841,0,1.683,0.253,2.3,0.758
				c0.981,0.813,1.262,1.963,1.262,3.421v5.217c0,1.262,0.505,1.683,0.981,1.683c0.337,0,0.729-0.14,1.01-0.309l0.28,0.729
				L374.517,121.278z M372.47,114.21c-0.589,0.309-1.936,0.898-2.524,1.179c-1.094,0.505-1.711,1.037-1.711,2.047
				c0,1.459,1.122,2.159,1.991,2.159c0.729-0.027,1.711-0.504,2.244-1.009V114.21z"/>
			<path fill="#323031" d="M385.651,120.941v-0.729c1.655-0.168,1.852-0.393,1.852-2.327v-4.684c0-1.936-0.673-3.197-2.553-3.197
				c-1.121,0-2.215,0.701-3.057,1.43v6.591c0,1.907,0.168,2.02,1.823,2.188v0.729h-6.086v-0.729
				c1.907-0.196,2.047-0.336,2.047-2.188v-5.806c0-1.795-0.168-1.879-1.683-2.159v-0.645c1.347-0.253,2.664-0.59,3.898-1.15v2.244
				c0.561-0.421,1.178-0.842,1.879-1.318c0.785-0.505,1.515-0.842,2.328-0.842c2.216,0,3.618,1.543,3.618,4.264v5.412
				c0,1.907,0.14,2.02,1.767,2.188v0.729H385.651z"/>
			<path fill="#323031" d="M408.287,121.278c-0.421,0-1.01-0.253-1.318-0.533c-0.364-0.393-0.532-0.785-0.673-1.262
				c-1.122,0.757-2.468,1.795-3.31,1.795c-1.991,0-3.365-1.655-3.365-3.422c0-1.374,0.729-2.244,2.271-2.776
				c1.683-0.562,3.73-1.318,4.348-1.823v-0.505c0-2.02-0.954-3.169-2.356-3.169c-0.561,0-0.981,0.225-1.262,0.561
				c-0.364,0.365-0.617,0.981-0.842,1.852c-0.111,0.448-0.42,0.645-0.813,0.645c-0.505,0-1.234-0.561-1.234-1.206
				c0-0.42,0.364-0.729,0.897-1.121c0.785-0.562,2.608-1.655,4.207-1.964c0.841,0,1.683,0.253,2.3,0.758
				c0.981,0.813,1.262,1.963,1.262,3.421v5.217c0,1.262,0.505,1.683,0.981,1.683c0.337,0,0.729-0.14,1.01-0.309l0.28,0.729
				L408.287,121.278z M406.24,114.21c-0.589,0.309-1.936,0.898-2.524,1.179c-1.094,0.505-1.711,1.037-1.711,2.047
				c0,1.459,1.122,2.159,1.991,2.159c0.729-0.027,1.711-0.504,2.244-1.009V114.21z"/>
			<path fill="#323031" d="M423.854,108.882c-0.252,0.448-0.813,1.178-1.262,1.431l-1.599-0.085
				c0.533,0.617,0.842,1.487,0.842,2.496c0,3.029-2.524,4.487-4.908,4.487c-0.477,0-0.981-0.084-1.431-0.14
				c-0.393,0.252-0.841,0.757-0.841,1.149c0,0.562,0.505,1.094,1.767,1.094c1.01,0,2.02-0.027,2.944-0.027
				c1.739,0,4.039,0.561,4.039,3.309c0,2.833-3.281,5.554-7.012,5.554c-3.113,0-4.823-1.823-4.852-3.422
				c0-0.617,0.252-1.149,0.673-1.57c0.561-0.562,1.655-1.459,2.328-1.964c-1.01-0.308-1.711-0.953-2.075-1.542
				c-0.253-0.421-0.337-0.897-0.309-1.178c1.121-0.421,2.019-1.15,2.468-1.711c-1.262-0.533-2.468-1.852-2.468-3.758
				c0-3.197,2.86-4.656,5.02-4.656c0.954,0,1.879,0.253,2.692,0.701c1.375-0.056,2.805-0.225,3.814-0.393L423.854,108.882z
				 M415.048,121.867c-0.729,0.589-1.29,1.374-1.29,2.188c0,1.515,1.626,2.664,3.702,2.664c2.664,0,4.038-1.374,4.038-3.113
				c0-0.953-0.477-1.654-1.29-1.991c-0.701-0.28-1.515-0.364-2.692-0.364C416.169,121.25,415.553,121.418,415.048,121.867z
				 M414.57,112.556c0,2.188,1.066,3.758,2.637,3.758c1.234-0.027,2.328-1.121,2.328-3.337s-1.038-3.786-2.637-3.786
				C415.665,109.19,414.57,110.368,414.57,112.556z"/>
			<path fill="#323031" d="M437.149,108.882c-0.252,0.448-0.813,1.178-1.262,1.431l-1.599-0.085
				c0.533,0.617,0.842,1.487,0.842,2.496c0,3.029-2.524,4.487-4.908,4.487c-0.477,0-0.981-0.084-1.431-0.14
				c-0.393,0.252-0.841,0.757-0.841,1.149c0,0.562,0.505,1.094,1.767,1.094c1.01,0,2.02-0.027,2.944-0.027
				c1.739,0,4.039,0.561,4.039,3.309c0,2.833-3.281,5.554-7.012,5.554c-3.113,0-4.823-1.823-4.852-3.422
				c0-0.617,0.252-1.149,0.673-1.57c0.561-0.562,1.654-1.459,2.328-1.964c-1.01-0.308-1.711-0.953-2.075-1.542
				c-0.253-0.421-0.337-0.897-0.309-1.178c1.121-0.421,2.019-1.15,2.468-1.711c-1.262-0.533-2.468-1.852-2.468-3.758
				c0-3.197,2.86-4.656,5.02-4.656c0.954,0,1.879,0.253,2.692,0.701c1.375-0.056,2.805-0.225,3.814-0.393L437.149,108.882z
				 M428.344,121.867c-0.729,0.589-1.29,1.374-1.29,2.188c0,1.515,1.626,2.664,3.701,2.664c2.665,0,4.039-1.374,4.039-3.113
				c0-0.953-0.477-1.654-1.29-1.991c-0.701-0.28-1.515-0.364-2.692-0.364C429.465,121.25,428.849,121.418,428.344,121.867z
				 M427.866,112.556c0,2.188,1.066,3.758,2.637,3.758c1.234-0.027,2.328-1.121,2.328-3.337s-1.038-3.786-2.637-3.786
				C428.96,109.19,427.866,110.368,427.866,112.556z"/>
			<path fill="#323031" d="M442.396,111.321c0.841-1.401,2.047-2.973,3.393-2.973c0.954,0,1.627,0.729,1.627,1.402
				c0,0.562-0.364,1.122-0.897,1.374c-0.336,0.141-0.589,0.112-0.757-0.056c-0.393-0.421-0.729-0.589-1.178-0.589
				c-0.729,0-1.627,0.841-2.244,2.412v5.132c0,1.852,0.141,2.02,2.3,2.188v0.729h-6.45v-0.729c1.738-0.168,1.935-0.336,1.935-2.188
				v-5.806c0-1.851-0.14-1.963-1.738-2.188v-0.616c1.374-0.225,2.608-0.562,3.954-1.15v3.057H442.396z"/>
			<path fill="#323031" d="M458.411,118.558c-1.767,2.216-3.702,2.721-4.571,2.721c-3.45,0-5.469-2.805-5.469-5.974
				c0-1.936,0.701-3.646,1.851-4.908c1.15-1.29,2.664-2.048,4.123-2.048c2.327,0,4.207,2.075,4.207,4.264
				c0,0.561-0.141,0.785-0.646,0.897c-0.477,0.084-3.982,0.364-7.32,0.477c0.028,3.813,2.216,5.385,4.179,5.385
				c1.122,0,2.188-0.449,3.197-1.402L458.411,118.558z M450.727,112.836c1.57,0,3.113-0.027,4.739-0.084
				c0.505,0,0.674-0.168,0.674-0.561c0.027-1.459-0.926-2.805-2.469-2.805C452.381,109.387,451.147,110.564,450.727,112.836z"/>
			<path fill="#323031" d="M467.499,111.995c-0.532-1.655-1.514-2.776-2.889-2.776c-1.065,0-1.822,0.841-1.822,1.935
				c0,1.262,1.121,1.907,2.384,2.44c2.104,0.869,3.533,1.879,3.533,3.813c0,2.553-2.384,3.871-4.627,3.871
				c-1.431,0-2.721-0.533-3.226-0.954c-0.196-0.393-0.449-2.3-0.449-3.31l0.729-0.14c0.505,1.851,1.767,3.478,3.45,3.478
				c1.037,0,1.991-0.785,1.991-1.963c0-1.234-0.813-1.907-2.216-2.553c-1.683-0.785-3.506-1.711-3.506-3.87
				c0-1.963,1.683-3.618,4.263-3.618c1.15,0,1.907,0.253,2.496,0.477c0.225,0.646,0.533,2.3,0.617,3.001L467.499,111.995z"/>
			<path fill="#323031" d="M477.681,111.995c-0.532-1.655-1.514-2.776-2.889-2.776c-1.065,0-1.822,0.841-1.822,1.935
				c0,1.262,1.121,1.907,2.384,2.44c2.104,0.869,3.533,1.879,3.533,3.813c0,2.553-2.384,3.871-4.627,3.871
				c-1.431,0-2.721-0.533-3.226-0.954c-0.196-0.393-0.449-2.3-0.449-3.31l0.729-0.14c0.505,1.851,1.767,3.478,3.45,3.478
				c1.037,0,1.991-0.785,1.991-1.963c0-1.234-0.813-1.907-2.216-2.553c-1.683-0.785-3.506-1.711-3.506-3.87
				c0-1.963,1.683-3.618,4.263-3.618c1.15,0,1.907,0.253,2.496,0.477c0.225,0.646,0.533,2.3,0.617,3.001L477.681,111.995z"/>
			<path fill="#323031" d="M480.627,120.941v-0.729c1.767-0.168,1.963-0.336,1.963-2.243v-5.777c0-1.739-0.084-1.852-1.767-2.132
				v-0.673c1.431-0.225,2.748-0.589,3.982-1.094v9.676c0,1.907,0.196,2.075,1.991,2.243v0.729H480.627z M482.113,104.479
				c0-0.841,0.673-1.458,1.431-1.458c0.785,0,1.402,0.617,1.402,1.458c0,0.757-0.617,1.431-1.431,1.431
				C482.786,105.909,482.113,105.235,482.113,104.479z"/>
			<path fill="#323031" d="M500.456,109.387c-1.459,0.196-1.711,0.448-2.468,2.132c-0.926,2.103-2.412,5.553-3.955,9.731h-0.757
				c-1.262-3.365-2.553-6.563-3.87-9.816c-0.646-1.626-0.87-1.822-2.384-2.047v-0.701h5.749v0.701
				c-1.515,0.196-1.57,0.421-1.122,1.627c0.729,1.963,1.852,4.907,2.664,6.927c0.982-2.328,1.88-4.88,2.496-6.703
				c0.421-1.346,0.253-1.654-1.346-1.851v-0.701h4.992V109.387z"/>
			<path fill="#323031" d="M510.92,118.558c-1.767,2.216-3.702,2.721-4.571,2.721c-3.45,0-5.469-2.805-5.469-5.974
				c0-1.936,0.701-3.646,1.851-4.908c1.149-1.29,2.664-2.048,4.123-2.048c2.327,0,4.206,2.075,4.206,4.264
				c0,0.561-0.14,0.785-0.645,0.897c-0.477,0.084-3.982,0.364-7.32,0.477c0.028,3.813,2.216,5.385,4.179,5.385
				c1.122,0,2.188-0.449,3.197-1.402L510.92,118.558z M503.235,112.836c1.57,0,3.113-0.027,4.739-0.084
				c0.505,0,0.674-0.168,0.674-0.561c0.027-1.459-0.926-2.805-2.469-2.805C504.89,109.387,503.656,110.564,503.235,112.836z"/>
			<path fill="#323031" d="M531.255,108.882c-0.252,0.448-0.813,1.178-1.262,1.431l-1.599-0.085
				c0.533,0.617,0.842,1.487,0.842,2.496c0,3.029-2.524,4.487-4.908,4.487c-0.477,0-0.981-0.084-1.431-0.14
				c-0.393,0.252-0.841,0.757-0.841,1.149c0,0.562,0.505,1.094,1.767,1.094c1.01,0,2.02-0.027,2.944-0.027
				c1.739,0,4.039,0.561,4.039,3.309c0,2.833-3.281,5.554-7.012,5.554c-3.113,0-4.823-1.823-4.852-3.422
				c0-0.617,0.252-1.149,0.673-1.57c0.561-0.562,1.654-1.459,2.328-1.964c-1.01-0.308-1.711-0.953-2.075-1.542
				c-0.253-0.421-0.337-0.897-0.309-1.178c1.121-0.421,2.019-1.15,2.468-1.711c-1.262-0.533-2.468-1.852-2.468-3.758
				c0-3.197,2.86-4.656,5.02-4.656c0.954,0,1.879,0.253,2.692,0.701c1.375-0.056,2.805-0.225,3.814-0.393L531.255,108.882z
				 M522.449,121.867c-0.729,0.589-1.29,1.374-1.29,2.188c0,1.515,1.626,2.664,3.701,2.664c2.665,0,4.039-1.374,4.039-3.113
				c0-0.953-0.477-1.654-1.29-1.991c-0.701-0.28-1.515-0.364-2.692-0.364C523.57,121.25,522.954,121.418,522.449,121.867z
				 M521.972,112.556c0,2.188,1.066,3.758,2.637,3.758c1.234-0.027,2.328-1.121,2.328-3.337s-1.038-3.786-2.637-3.786
				C523.065,109.19,521.972,110.368,521.972,112.556z"/>
			<path fill="#323031" d="M536.529,111.321c0.841-1.401,2.047-2.973,3.394-2.973c0.953,0,1.626,0.729,1.626,1.402
				c0,0.562-0.364,1.122-0.897,1.374c-0.336,0.141-0.589,0.112-0.757-0.056c-0.393-0.421-0.729-0.589-1.178-0.589
				c-0.729,0-1.627,0.841-2.244,2.412v5.132c0,1.852,0.141,2.02,2.3,2.188v0.729h-6.45v-0.729c1.738-0.168,1.935-0.336,1.935-2.188
				v-5.806c0-1.851-0.14-1.963-1.738-2.188v-0.616c1.374-0.225,2.608-0.562,3.954-1.15v3.057H536.529z"/>
			<path fill="#323031" d="M554.732,114.604c0,4.515-3.31,6.675-6.086,6.675c-3.842,0-6.142-3.085-6.142-6.198
				c0-4.628,3.59-6.731,6.142-6.731C552.124,108.349,554.732,111.125,554.732,114.604z M545.112,114.183
				c0,3.533,1.543,6.17,3.843,6.17c1.738,0,3.169-1.29,3.169-5.133c0-3.281-1.318-5.945-3.758-5.945
				C546.627,109.274,545.112,111.014,545.112,114.183z"/>
			<path fill="#323031" d="M574.843,109.387c-1.402,0.225-1.654,0.561-2.243,2.104c-0.842,2.216-2.075,5.945-3.366,9.76h-0.785
				c-1.121-3.029-2.271-5.777-3.421-8.723c-1.066,2.805-2.216,5.609-3.31,8.723h-0.813c-1.01-3.338-2.075-6.646-3.226-10.013
				c-0.505-1.458-0.757-1.654-2.104-1.851v-0.701h5.806v0.701c-1.683,0.28-1.822,0.448-1.402,1.711
				c0.646,2.159,1.347,4.375,2.048,6.534h0.056c1.038-2.692,2.075-5.581,3.254-8.807h0.729c1.038,2.917,2.188,5.89,3.366,8.891
				h0.056c0.617-1.935,1.402-4.375,1.907-6.45c0.364-1.458,0.196-1.627-1.627-1.879v-0.701h5.076V109.387z"/>
			<path fill="#323031" d="M575.154,120.941v-0.729c1.767-0.168,2.02-0.336,2.02-2.188v-13.266c0-1.907-0.169-1.991-1.936-2.131
				v-0.674c1.458-0.168,3.197-0.645,4.15-0.981v17.052c0,1.852,0.225,2.02,2.02,2.188v0.729H575.154z"/>
			<path fill="#323031" d="M583.317,119.651c0-0.897,0.673-1.599,1.57-1.599s1.57,0.701,1.57,1.599c0,0.981-0.673,1.627-1.57,1.627
				S583.317,120.633,583.317,119.651z"/>
		</g>
		<g>
			<path fill="#323031" d="M139.238,135.671c-1.317,0.505-2.384,1.318-2.439,2.496c-0.056,0.869,0.505,1.374,1.346,1.57
				c0.169,0.057,0.337,0.225,0.309,0.505c-0.027,0.729-0.701,1.094-1.233,1.094c-0.981,0-2.244-0.953-2.188-2.607
				c0.084-2.216,2.271-3.366,3.898-3.814L139.238,135.671z M143.979,135.671c-1.318,0.505-2.412,1.347-2.468,2.524
				c-0.057,0.869,0.532,1.374,1.374,1.599c0.168,0.028,0.337,0.196,0.337,0.477c-0.057,0.729-0.729,1.122-1.263,1.122
				c-0.981,0-2.271-0.954-2.188-2.664c0.084-2.216,2.271-3.366,3.927-3.814L143.979,135.671z"/>
			<path fill="#323031" d="M141.736,153.256c-0.028-0.477,0.336-0.897,0.813-1.178c0.337-0.169,0.562-0.112,0.701,0.084
				c0.729,1.094,1.768,1.711,2.692,1.711c1.122,0,1.852-0.785,1.852-1.683c0-0.701-0.309-1.318-1.627-2.356
				c-1.262-0.953-2.439-1.991-2.439-3.421c0-0.842,0.336-1.739,1.458-2.721c0.869-0.758,2.216-1.347,3.113-1.347
				c1.233,0,2.188,0.842,2.188,1.571c0,0.477-0.28,0.897-0.701,1.149c-0.28,0.168-0.449,0.112-0.617-0.112
				c-0.561-0.701-1.234-1.262-2.188-1.262c-0.813,0-1.515,0.617-1.515,1.57c0,1.01,0.813,1.711,1.823,2.496
				c1.683,1.262,2.355,2.075,2.355,3.281c0,2.132-2.805,4.235-5.076,4.235C143.25,155.275,141.736,154.237,141.736,153.256z"/>
			<path fill="#323031" d="M164.482,152.555c-1.655,1.795-3.226,2.721-3.955,2.721c-0.701,0-0.953-0.758-0.448-2.917
				c0.533-2.104,1.01-4.15,1.515-6.227c0.393-1.599,0.224-2.019-0.225-2.019c-1.234,0-4.487,3.478-5.89,5.861
				c-0.337,1.374-0.757,3.057-1.094,4.739c-0.729,0.141-1.486,0.365-2.02,0.562l-0.168-0.225c0.757-3.029,1.599-6.395,2.271-9.508
				c0.225-0.897,0.141-1.122-0.028-1.122c-0.252,0-1.121,0.59-1.822,1.263l-0.365-0.673c1.515-1.655,3.17-2.665,3.955-2.665
				c0.645,0,0.757,0.954,0.224,3.113l-0.589,2.44h0.057c1.907-2.608,3.982-4.235,5.16-4.937c0.729-0.421,1.318-0.617,1.879-0.617
				c0.673,0,1.459,0.421,0.617,4.011c-0.448,1.907-0.897,3.87-1.374,5.834c-0.168,0.757-0.141,1.009,0.056,1.009
				c0.253,0,1.01-0.505,1.852-1.317L164.482,152.555z"/>
			<path fill="#323031" d="M178.367,152.358c-1.515,1.879-3.394,2.917-4.095,2.917c-0.532,0-0.897-0.421-0.505-2.469l0.562-2.664
				h-0.057c-1.094,1.543-2.412,2.889-3.617,3.87c-0.926,0.758-1.852,1.263-2.608,1.263c-0.729,0-1.627-0.926-1.627-3.17
				c0-2.832,1.318-5.89,3.365-7.6c1.402-1.179,3.45-2.16,5.217-2.16c0.589,0,1.149,0.084,1.739,0.196
				c0.393,0.084,0.757,0.169,1.065,0.169l0.084,0.112c-0.448,1.738-1.29,5.553-1.936,9.114c-0.196,0.981-0.111,1.206,0.057,1.206
				c0.225,0,1.206-0.646,2.02-1.458L178.367,152.358z M174.722,147.983c0.309-1.122,0.729-3.142,0.926-4.039
				c-0.394-0.196-1.15-0.393-1.88-0.393c-0.729,0-1.514,0.225-1.991,0.589c-1.907,1.402-3.028,4.712-3.028,7.488
				c0,1.263,0.364,1.852,0.757,1.852C170.599,153.48,173.768,149.918,174.722,147.983z"/>
			<path fill="#323031" d="M180.023,145.095c1.431-1.599,3.169-2.749,3.927-2.749c0.701,0,0.729,1.29,0.309,3.254l-0.28,1.402h0.084
				c1.43-2.749,3.085-4.656,4.207-4.656c0.477,0,0.953,0.309,1.205,0.701c0.196,0.365,0.196,0.813-0.027,1.206
				c-0.196,0.337-0.478,0.617-0.729,0.813c-0.252,0.168-0.477,0.168-0.617,0.028c-0.309-0.337-0.645-0.477-0.953-0.477
				c-0.337,0-0.785,0.28-1.431,1.178c-0.617,0.897-1.486,2.215-1.991,3.478c-0.448,1.879-0.785,3.646-1.122,5.497
				c-0.616,0.084-1.374,0.28-1.991,0.505l-0.224-0.225c0.729-3.001,1.514-6.45,2.047-9.451c0.168-0.926,0.168-1.206-0.056-1.206
				c-0.253,0-1.15,0.561-1.991,1.346L180.023,145.095z"/>
			<path fill="#323031" d="M195.17,152.274c-1.458,1.738-3.449,3.001-4.318,3.001c-0.533,0-0.982-0.646-0.393-3.394
				c0.981-4.6,1.963-9.199,2.916-13.827c0.28-1.206,0.112-1.402-1.178-1.402l-0.757-0.027l0.112-0.674
				c2.188-0.252,3.786-0.981,4.15-0.981c0.252,0,0.28,0.253,0.168,0.842c-1.149,5.413-2.3,10.854-3.478,16.406
				c-0.168,0.813-0.056,0.981,0.112,0.981c0.309,0,1.458-0.729,2.244-1.542L195.17,152.274z"/>
			<path fill="#323031" d="M201.958,152.471c-0.926,1.149-3.113,2.805-4.095,2.805c-0.562,0-0.926-0.449-0.365-2.749l1.739-7.18
				c0.168-0.617,0.168-0.897-0.028-0.897c-0.225,0-1.065,0.477-1.907,1.206l-0.336-0.645c1.542-1.515,3.506-2.665,4.263-2.665
				c0.617,0,0.589,0.897,0.28,2.216l-1.935,7.74c-0.169,0.674-0.112,0.897,0.056,0.897c0.337,0,1.318-0.729,1.963-1.317
				L201.958,152.471z M202.687,138.224c0,0.869-0.645,1.626-1.486,1.626c-0.673,0-1.149-0.505-1.178-1.233
				c0-0.701,0.561-1.655,1.543-1.655C202.294,136.961,202.659,137.55,202.687,138.224z"/>
			<path fill="#323031" d="M216.515,152.555c-1.655,1.795-3.226,2.721-3.955,2.721c-0.701,0-0.953-0.758-0.448-2.917
				c0.533-2.104,1.01-4.15,1.515-6.227c0.393-1.599,0.225-2.019-0.225-2.019c-1.234,0-4.487,3.478-5.89,5.861
				c-0.337,1.374-0.757,3.057-1.094,4.739c-0.729,0.141-1.486,0.365-2.02,0.562l-0.168-0.225c0.757-3.029,1.599-6.395,2.271-9.508
				c0.225-0.897,0.141-1.122-0.028-1.122c-0.252,0-1.121,0.59-1.822,1.263l-0.365-0.673c1.515-1.655,3.17-2.665,3.955-2.665
				c0.645,0,0.757,0.954,0.225,3.113l-0.59,2.44h0.057c1.907-2.608,3.982-4.235,5.16-4.937c0.729-0.421,1.318-0.617,1.879-0.617
				c0.674,0,1.459,0.421,0.617,4.011c-0.448,1.907-0.897,3.87-1.374,5.834c-0.168,0.757-0.141,1.009,0.056,1.009
				c0.253,0,1.01-0.505,1.852-1.317L216.515,152.555z"/>
			<path fill="#323031" d="M230.567,142.991c-0.813,0.897-1.542,1.233-1.991,1.318c-0.225,0.056-0.421,0.084-0.729,0.084
				c0.141,0.393,0.225,0.813,0.225,1.57c0,1.991-1.094,3.478-2.131,4.291c-0.758,0.617-2.02,1.318-3.618,1.627
				c-0.337,0.28-0.562,0.561-0.562,0.897c0,0.42,0.674,0.925,2.02,1.626c2.692,1.431,3.786,2.524,3.786,3.73
				c0,2.328-3.926,4.011-6.618,4.011c-2.721,0-5.076-1.402-5.021-3.142c0.028-1.206,1.627-2.468,4.712-4.038
				c-0.701-0.449-1.066-1.01-1.038-1.374c0-0.449,0.393-0.954,1.711-1.739c-1.599-0.364-2.44-1.515-2.44-3.422
				c0-1.822,0.926-3.562,2.356-4.684c1.149-0.925,2.58-1.402,3.59-1.402c0.897,0,1.767,0.253,2.384,0.785
				c1.627-0.027,2.636-0.336,3.169-0.673L230.567,142.991z M225.52,158.893c0-0.757-0.758-1.458-2.048-2.215
				c-0.925-0.562-1.711-1.01-2.104-1.206c-1.879,0.897-3.112,2.019-3.112,3.057c0,1.431,1.851,2.44,3.813,2.44
				C224.173,160.969,225.52,159.986,225.52,158.893z M225.996,146.048c0-1.599-0.646-2.721-1.879-2.721
				c-0.813,0-1.543,0.505-2.048,1.263c-0.589,0.841-1.065,2.131-1.065,3.646c0,1.655,0.813,2.524,1.823,2.524
				C224.313,150.76,225.996,149.049,225.996,146.048z"/>
			<path fill="#323031" d="M248.463,152.358c-1.515,1.879-3.394,2.917-4.095,2.917c-0.532,0-0.897-0.421-0.505-2.469l0.562-2.664
				h-0.057c-1.094,1.543-2.412,2.889-3.617,3.87c-0.926,0.758-1.852,1.263-2.608,1.263c-0.729,0-1.627-0.926-1.627-3.17
				c0-2.832,1.318-5.89,3.365-7.6c1.402-1.179,3.45-2.16,5.217-2.16c0.589,0,1.149,0.084,1.739,0.196
				c0.393,0.084,0.757,0.169,1.065,0.169l0.084,0.112c-0.448,1.738-1.29,5.553-1.936,9.114c-0.196,0.981-0.111,1.206,0.057,1.206
				c0.225,0,1.206-0.646,2.02-1.458L248.463,152.358z M244.817,147.983c0.309-1.122,0.729-3.142,0.926-4.039
				c-0.394-0.196-1.15-0.393-1.88-0.393c-0.729,0-1.514,0.225-1.991,0.589c-1.907,1.402-3.028,4.712-3.028,7.488
				c0,1.263,0.364,1.852,0.757,1.852C240.694,153.48,243.863,149.918,244.817,147.983z"/>
			<path fill="#323031" d="M255.336,152.274c-1.458,1.738-3.449,3.001-4.318,3.001c-0.533,0-0.982-0.646-0.393-3.394
				c0.981-4.6,1.963-9.199,2.916-13.827c0.28-1.206,0.112-1.402-1.178-1.402l-0.757-0.027l0.112-0.674
				c2.188-0.252,3.786-0.981,4.15-0.981c0.252,0,0.28,0.253,0.168,0.842c-1.149,5.413-2.3,10.854-3.478,16.406
				c-0.168,0.813-0.056,0.981,0.112,0.981c0.309,0,1.458-0.729,2.244-1.542L255.336,152.274z"/>
			<path fill="#323031" d="M256.291,153.256c-0.028-0.477,0.336-0.897,0.813-1.178c0.337-0.169,0.562-0.112,0.701,0.084
				c0.729,1.094,1.768,1.711,2.692,1.711c1.122,0,1.852-0.785,1.852-1.683c0-0.701-0.309-1.318-1.627-2.356
				c-1.262-0.953-2.439-1.991-2.439-3.421c0-0.842,0.336-1.739,1.458-2.721c0.869-0.758,2.216-1.347,3.113-1.347
				c1.233,0,2.188,0.842,2.188,1.571c0,0.477-0.28,0.897-0.701,1.149c-0.28,0.168-0.449,0.112-0.617-0.112
				c-0.561-0.701-1.234-1.262-2.188-1.262c-0.813,0-1.515,0.617-1.515,1.57c0,1.01,0.813,1.711,1.823,2.496
				c1.683,1.262,2.355,2.075,2.355,3.281c0,2.132-2.805,4.235-5.076,4.235C257.805,155.275,256.291,154.237,256.291,153.256z"/>
			<path fill="#323031" d="M278.531,152.358c-1.515,1.879-3.394,2.917-4.095,2.917c-0.532,0-0.897-0.421-0.505-2.469l0.562-2.664
				h-0.057c-1.094,1.543-2.412,2.889-3.617,3.87c-0.926,0.758-1.852,1.263-2.608,1.263c-0.729,0-1.627-0.926-1.627-3.17
				c0-2.832,1.318-5.89,3.365-7.6c1.402-1.179,3.45-2.16,5.217-2.16c0.589,0,1.149,0.084,1.739,0.196
				c0.393,0.084,0.757,0.169,1.065,0.169l0.084,0.112c-0.448,1.738-1.29,5.553-1.936,9.114c-0.196,0.981-0.111,1.206,0.057,1.206
				c0.225,0,1.206-0.646,2.02-1.458L278.531,152.358z M274.886,147.983c0.309-1.122,0.729-3.142,0.926-4.039
				c-0.394-0.196-1.15-0.393-1.88-0.393c-0.729,0-1.514,0.225-1.991,0.589c-1.907,1.402-3.028,4.712-3.028,7.488
				c0,1.263,0.364,1.852,0.757,1.852C270.763,153.48,273.932,149.918,274.886,147.983z"/>
			<path fill="#323031" d="M287.396,143.748l-2.776,0.141l-1.654,7.74c-0.28,1.374-0.141,1.683,0.168,1.683
				c0.477,0,1.851-0.925,2.524-1.626l0.393,0.589c-0.926,1.121-3.029,3.001-4.516,3.001c-0.645,0-1.206-0.813-0.589-3.702
				l1.654-7.685h-2.075l-0.084-0.253l0.701-0.841h1.683l0.646-2.665l2.131-1.738l0.253,0.168l-0.981,4.235h3.253L287.396,143.748z"
				/>
			<path fill="#323031" d="M293.651,152.471c-0.926,1.149-3.113,2.805-4.095,2.805c-0.562,0-0.926-0.449-0.365-2.749l1.739-7.18
				c0.168-0.617,0.168-0.897-0.028-0.897c-0.225,0-1.065,0.477-1.907,1.206l-0.336-0.645c1.542-1.515,3.506-2.665,4.263-2.665
				c0.617,0,0.589,0.897,0.28,2.216l-1.935,7.74c-0.169,0.674-0.112,0.897,0.056,0.897c0.337,0,1.318-0.729,1.963-1.317
				L293.651,152.471z M294.38,138.224c0,0.869-0.645,1.626-1.486,1.626c-0.673,0-1.149-0.505-1.178-1.233
				c0-0.701,0.561-1.655,1.543-1.655C293.987,136.961,294.353,137.55,294.38,138.224z"/>
			<path fill="#323031" d="M295.896,150.899c0-3.646,1.936-6.422,4.263-7.656c1.01-0.532,2.16-0.897,3.029-0.897
				c2.328,0,3.73,1.599,3.73,4.375c0,2.412-1.038,5.161-3.001,6.787c-1.206,1.01-2.749,1.768-4.319,1.768
				C296.934,155.275,295.896,153.172,295.896,150.899z M301.505,153.985c1.515-0.646,3.057-3.618,3.057-7.208
				c0-2.271-0.981-3.365-2.271-3.365c-0.421,0-0.757,0.111-1.065,0.252c-1.094,0.477-2.974,2.776-2.974,7.096
				c0,2.075,0.87,3.394,2.356,3.394C300.943,154.153,301.225,154.097,301.505,153.985z"/>
			<path fill="#323031" d="M321.419,152.555c-1.655,1.795-3.226,2.721-3.955,2.721c-0.701,0-0.953-0.758-0.448-2.917
				c0.533-2.104,1.01-4.15,1.515-6.227c0.393-1.599,0.225-2.019-0.225-2.019c-1.234,0-4.487,3.478-5.89,5.861
				c-0.337,1.374-0.757,3.057-1.094,4.739c-0.729,0.141-1.486,0.365-2.02,0.562l-0.168-0.225c0.757-3.029,1.599-6.395,2.271-9.508
				c0.225-0.897,0.141-1.122-0.028-1.122c-0.252,0-1.121,0.59-1.822,1.263l-0.365-0.673c1.515-1.655,3.17-2.665,3.955-2.665
				c0.645,0,0.757,0.954,0.225,3.113l-0.59,2.44h0.057c1.907-2.608,3.982-4.235,5.16-4.937c0.729-0.421,1.318-0.617,1.879-0.617
				c0.674,0,1.459,0.421,0.617,4.011c-0.448,1.907-0.897,3.87-1.374,5.834c-0.168,0.757-0.141,1.009,0.056,1.009
				c0.253,0,1.01-0.505,1.852-1.317L321.419,152.555z"/>
			<path fill="#323031" d="M322.796,153.256c-0.028-0.477,0.336-0.897,0.813-1.178c0.337-0.169,0.562-0.112,0.701,0.084
				c0.729,1.094,1.768,1.711,2.692,1.711c1.122,0,1.852-0.785,1.852-1.683c0-0.701-0.309-1.318-1.627-2.356
				c-1.262-0.953-2.439-1.991-2.439-3.421c0-0.842,0.336-1.739,1.458-2.721c0.869-0.758,2.216-1.347,3.113-1.347
				c1.233,0,2.188,0.842,2.188,1.571c0,0.477-0.28,0.897-0.701,1.149c-0.28,0.168-0.449,0.112-0.617-0.112
				c-0.561-0.701-1.234-1.262-2.188-1.262c-0.813,0-1.515,0.617-1.515,1.57c0,1.01,0.813,1.711,1.823,2.496
				c1.683,1.262,2.355,2.075,2.355,3.281c0,2.132-2.805,4.235-5.076,4.235C324.31,155.275,322.796,154.237,322.796,153.256z"/>
			<path fill="#323031" d="M333.51,140.72c1.346-0.505,2.412-1.29,2.468-2.496c0.056-0.87-0.533-1.375-1.374-1.599
				c-0.169-0.028-0.337-0.169-0.309-0.449c0.028-0.729,0.701-1.122,1.233-1.122c0.982,0,2.244,0.954,2.16,2.665
				c-0.057,2.159-2.244,3.337-3.898,3.758L333.51,140.72z M338.249,140.72c1.318-0.505,2.44-1.29,2.496-2.496
				c0.028-0.87-0.532-1.375-1.402-1.599c-0.168-0.028-0.309-0.169-0.309-0.449c0.028-0.729,0.701-1.122,1.234-1.122
				c0.981,0,2.271,0.954,2.188,2.637c-0.084,2.188-2.243,3.365-3.898,3.786L338.249,140.72z"/>
		</g>
		<g>
			<path fill="#D1232A" d="M113.544,215.021c-0.364,1.178-0.645,2.412-0.981,3.674h-10.489v-0.646
				c1.571-1.542,3.142-3.141,4.544-4.768c1.738-2.075,3.506-4.375,3.506-6.787c0-2.355-1.234-3.729-3.31-3.729
				c-1.907,0-3.085,1.515-3.814,2.608l-0.617-0.562l1.599-2.271c0.842-0.926,2.159-1.654,3.786-1.654
				c2.468,0,4.712,1.795,4.712,4.739c0,2.44-1.122,4.095-3.702,6.843l-3.982,4.18h5.244c1.515,0,1.88-0.112,2.721-1.88
				L113.544,215.021z"/>
			<path fill="#D1232A" d="M116.295,217.405c0-0.897,0.673-1.599,1.57-1.599s1.57,0.701,1.57,1.599c0,0.981-0.673,1.627-1.57,1.627
				S116.295,218.387,116.295,217.405z"/>
		</g>
		<g>
			<path fill="#D1232A" d="M139.716,223.435c-4.095-2.748-5.946-7.264-5.946-12.34c0-5.02,1.852-9.507,5.946-12.284l0.505,0.646
				c-2.805,2.328-4.403,6.843-4.403,11.667s1.626,9.339,4.403,11.695L139.716,223.435z"/>
			<path fill="#D1232A" d="M154.777,212.357c0,4.515-3.31,6.675-6.086,6.675c-3.842,0-6.142-3.085-6.142-6.198
				c0-4.628,3.59-6.731,6.142-6.731C152.169,206.103,154.777,208.879,154.777,212.357z M145.157,211.937
				c0,3.533,1.543,6.17,3.843,6.17c1.738,0,3.169-1.29,3.169-5.133c0-3.281-1.318-5.945-3.758-5.945
				C146.672,207.028,145.157,208.768,145.157,211.937z"/>
			<path fill="#D1232A" d="M158.342,206.439v-0.617c0-0.869,0.111-1.683,0.308-2.3c0.197-0.617,0.646-1.991,2.16-3.281
				c0.981-0.869,1.991-1.374,3.085-1.515c0.953,0.028,1.767,0.421,2.216,0.954c0.252,0.309,0.28,0.673,0.14,0.981
				c-0.084,0.225-0.252,0.448-0.532,0.673c-0.253,0.196-0.505,0.196-0.758-0.084c-0.561-0.505-1.346-1.038-2.271-1.038
				c-0.729,0-1.178,0.337-1.486,0.842c-0.364,0.533-0.673,1.879-0.646,4.263v1.122h3.31c0.168,0.252,0.028,0.926-0.28,1.094h-3.029
				v8.077c0,2.075,0.196,2.159,2.412,2.384v0.701h-6.618v-0.729c1.795-0.168,1.991-0.309,1.991-2.159v-8.273h-1.964l-0.112-0.28
				l0.758-0.813H158.342z"/>
			<path fill="#D1232A" d="M179.938,219.032c-0.421,0-1.01-0.253-1.318-0.533c-0.364-0.393-0.532-0.785-0.673-1.262
				c-1.122,0.757-2.468,1.795-3.31,1.795c-1.991,0-3.365-1.655-3.365-3.422c0-1.374,0.729-2.244,2.271-2.776
				c1.683-0.562,3.73-1.318,4.348-1.823v-0.505c0-2.02-0.954-3.169-2.356-3.169c-0.561,0-0.981,0.225-1.262,0.561
				c-0.364,0.365-0.617,0.981-0.842,1.852c-0.112,0.448-0.42,0.645-0.813,0.645c-0.505,0-1.234-0.561-1.234-1.206
				c0-0.42,0.364-0.729,0.897-1.121c0.785-0.562,2.608-1.655,4.207-1.964c0.841,0,1.683,0.253,2.3,0.758
				c0.981,0.813,1.262,1.963,1.262,3.421v5.217c0,1.262,0.505,1.683,0.981,1.683c0.337,0,0.729-0.14,1.01-0.309l0.28,0.729
				L179.938,219.032z M177.892,211.964c-0.589,0.309-1.936,0.898-2.524,1.179c-1.094,0.505-1.711,1.037-1.711,2.047
				c0,1.459,1.122,2.159,1.991,2.159c0.729-0.027,1.711-0.504,2.244-1.009V211.964z"/>
			<path fill="#D1232A" d="M203.359,217.966c-0.617,0.112-2.721,0.478-4.348,1.066v-1.823l-1.711,1.01
				c-1.094,0.645-1.851,0.813-2.188,0.813c-2.243,0-5.188-2.048-5.188-5.974c0-3.898,3.422-6.956,7.236-6.956
				c0.393,0,1.206,0.084,1.851,0.309v-3.954c0-1.852-0.14-1.936-2.159-2.075v-0.674c1.458-0.196,3.337-0.616,4.375-0.981v16.743
				c0,1.459,0.196,1.599,1.234,1.711l0.897,0.084V217.966z M199.012,208.571c-0.673-0.982-1.823-1.431-2.889-1.431
				c-1.29,0-3.646,1.094-3.646,5.16c0,3.338,2.047,4.964,3.842,4.964c1.01,0,2.02-0.448,2.692-0.953V208.571z"/>
			<path fill="#D1232A" d="M216.936,212.357c0,4.515-3.31,6.675-6.086,6.675c-3.842,0-6.142-3.085-6.142-6.198
				c0-4.628,3.59-6.731,6.142-6.731C214.327,206.103,216.936,208.879,216.936,212.357z M207.315,211.937
				c0,3.533,1.543,6.17,3.843,6.17c1.738,0,3.169-1.29,3.169-5.133c0-3.281-1.318-5.945-3.758-5.945
				C208.83,207.028,207.315,208.768,207.315,211.937z"/>
			<path fill="#D1232A" d="M231.101,206.636c-0.252,0.448-0.813,1.178-1.262,1.431l-1.599-0.085
				c0.533,0.617,0.842,1.487,0.842,2.496c0,3.029-2.524,4.487-4.908,4.487c-0.477,0-0.981-0.084-1.431-0.14
				c-0.393,0.252-0.841,0.757-0.841,1.149c0,0.562,0.505,1.094,1.767,1.094c1.01,0,2.02-0.027,2.944-0.027
				c1.739,0,4.039,0.561,4.039,3.309c0,2.833-3.281,5.554-7.012,5.554c-3.113,0-4.823-1.823-4.852-3.422
				c0-0.617,0.252-1.149,0.673-1.57c0.561-0.562,1.654-1.459,2.328-1.964c-1.01-0.308-1.711-0.953-2.075-1.542
				c-0.253-0.421-0.337-0.897-0.309-1.178c1.121-0.421,2.019-1.15,2.468-1.711c-1.262-0.533-2.468-1.852-2.468-3.758
				c0-3.197,2.86-4.656,5.02-4.656c0.954,0,1.879,0.253,2.692,0.701c1.375-0.056,2.805-0.225,3.814-0.393L231.101,206.636z
				 M222.295,219.621c-0.729,0.589-1.29,1.374-1.29,2.188c0,1.515,1.626,2.664,3.701,2.664c2.665,0,4.039-1.374,4.039-3.113
				c0-0.953-0.477-1.654-1.29-1.991c-0.701-0.28-1.515-0.364-2.692-0.364C223.416,219.004,222.8,219.172,222.295,219.621z
				 M221.817,210.31c0,2.188,1.066,3.758,2.637,3.758c1.234-0.027,2.328-1.121,2.328-3.337s-1.038-3.786-2.637-3.786
				C222.911,206.944,221.817,208.122,221.817,210.31z"/>
			<path fill="#D1232A" d="M232.897,198.811c4.179,2.805,5.918,7.265,5.918,12.313s-1.739,9.479-5.918,12.312l-0.533-0.616
				c2.861-2.384,4.432-6.871,4.432-11.695s-1.627-9.367-4.432-11.667L232.897,198.811z"/>
			<path fill="#D1232A" d="M256.935,219.032c-0.421,0-1.01-0.253-1.318-0.533c-0.364-0.393-0.532-0.785-0.673-1.262
				c-1.122,0.757-2.468,1.795-3.31,1.795c-1.991,0-3.365-1.655-3.365-3.422c0-1.374,0.729-2.244,2.271-2.776
				c1.683-0.562,3.73-1.318,4.348-1.823v-0.505c0-2.02-0.954-3.169-2.356-3.169c-0.561,0-0.981,0.225-1.262,0.561
				c-0.364,0.365-0.617,0.981-0.842,1.852c-0.112,0.448-0.42,0.645-0.813,0.645c-0.505,0-1.234-0.561-1.234-1.206
				c0-0.42,0.364-0.729,0.897-1.121c0.785-0.562,2.608-1.655,4.207-1.964c0.841,0,1.683,0.253,2.3,0.758
				c0.981,0.813,1.262,1.963,1.262,3.421v5.217c0,1.262,0.505,1.683,0.981,1.683c0.337,0,0.729-0.14,1.01-0.309l0.28,0.729
				L256.935,219.032z M254.888,211.964c-0.589,0.309-1.936,0.898-2.524,1.179c-1.094,0.505-1.711,1.037-1.711,2.047
				c0,1.459,1.122,2.159,1.991,2.159c0.729-0.027,1.711-0.504,2.244-1.009V211.964z"/>
			<path fill="#D1232A" d="M277.298,216.171c-1.233,1.627-3.113,2.861-4.768,2.861c-3.533,0-5.609-2.861-5.609-5.862
				c0-2.159,0.926-4.038,2.805-5.496c1.459-1.122,3.142-1.571,4.235-1.571c1.121,0,2.047,0.365,2.496,0.729
				c0.364,0.309,0.448,0.561,0.448,0.869c0,0.589-0.617,1.206-0.926,1.206c-0.14,0-0.28-0.084-0.532-0.309
				c-0.842-0.785-1.823-1.149-2.805-1.149c-1.851,0-3.478,1.542-3.478,4.487c0,3.898,2.664,5.188,4.234,5.188
				c1.206,0,2.132-0.337,3.422-1.543L277.298,216.171z"/>
			<path fill="#D1232A" d="M282.854,209.075c0.841-1.401,2.047-2.973,3.394-2.973c0.953,0,1.626,0.729,1.626,1.402
				c0,0.562-0.364,1.122-0.897,1.374c-0.336,0.141-0.589,0.112-0.757-0.056c-0.393-0.421-0.729-0.589-1.178-0.589
				c-0.729,0-1.627,0.841-2.244,2.412v5.132c0,1.852,0.141,2.02,2.3,2.188v0.729h-6.45v-0.729c1.738-0.168,1.935-0.336,1.935-2.188
				v-5.806c0-1.851-0.14-1.963-1.738-2.188v-0.616c1.374-0.225,2.608-0.562,3.954-1.15v3.057H282.854z"/>
			<path fill="#D1232A" d="M302.318,207.141c-1.487,0.225-1.739,0.448-2.496,2.047c-0.701,1.486-1.571,3.814-3.506,8.442
				c-1.879,4.487-2.496,6.086-2.889,7.6c-0.141,0.533-0.505,0.674-0.897,0.674c-0.785,0-1.599-0.674-1.599-1.347
				c0-0.448,0.252-0.701,0.729-1.01c0.87-0.561,1.431-1.262,2.076-2.496c0.532-0.981,0.757-1.57,0.869-1.935
				c0.14-0.421,0.14-0.785-0.028-1.263c-1.122-3.196-2.384-6.59-3.225-8.581c-0.59-1.543-0.87-1.907-2.412-2.132v-0.701h5.693v0.701
				c-1.29,0.225-1.431,0.505-1.066,1.542l2.553,7.04c0.785-1.907,1.991-5.217,2.58-6.983c0.336-1.065,0.14-1.374-1.459-1.599v-0.701
				h5.077V207.141z"/>
			<path fill="#D1232A" d="M310.987,206.439v-0.617c0-0.869,0.111-1.683,0.309-2.3c0.196-0.617,0.645-1.991,2.159-3.281
				c0.981-0.869,1.991-1.374,3.085-1.515c0.953,0.028,1.767,0.421,2.216,0.954c0.252,0.309,0.28,0.673,0.14,0.981
				c-0.084,0.225-0.252,0.448-0.532,0.673c-0.253,0.196-0.505,0.196-0.758-0.084c-0.561-0.505-1.346-1.038-2.271-1.038
				c-0.729,0-1.178,0.337-1.486,0.842c-0.364,0.533-0.673,1.879-0.646,4.263v1.122h3.31c0.169,0.252,0.028,0.926-0.28,1.094h-3.029
				v8.077c0,2.075,0.196,2.159,2.412,2.384v0.701h-6.618v-0.729c1.795-0.168,1.991-0.309,1.991-2.159v-8.273h-1.964l-0.112-0.28
				l0.758-0.813H310.987z"/>
			<path fill="#D1232A" d="M329.499,212.357c0,4.515-3.31,6.675-6.086,6.675c-3.842,0-6.142-3.085-6.142-6.198
				c0-4.628,3.59-6.731,6.142-6.731C326.891,206.103,329.499,208.879,329.499,212.357z M319.879,211.937
				c0,3.533,1.543,6.17,3.843,6.17c1.738,0,3.169-1.29,3.169-5.133c0-3.281-1.318-5.945-3.758-5.945
				C321.394,207.028,319.879,208.768,319.879,211.937z"/>
			<path fill="#D1232A" d="M335.363,209.075c0.841-1.401,2.047-2.973,3.394-2.973c0.953,0,1.626,0.729,1.626,1.402
				c0,0.562-0.364,1.122-0.897,1.374c-0.336,0.141-0.589,0.112-0.757-0.056c-0.393-0.421-0.729-0.589-1.178-0.589
				c-0.729,0-1.627,0.841-2.244,2.412v5.132c0,1.852,0.141,2.02,2.3,2.188v0.729h-6.45v-0.729c1.738-0.168,1.935-0.336,1.935-2.188
				v-5.806c0-1.851-0.14-1.963-1.738-2.188v-0.616c1.374-0.225,2.608-0.562,3.954-1.15v3.057H335.363z"/>
			<path fill="#D1232A" d="M355.474,218.695v-0.729c1.627-0.168,1.852-0.336,1.852-2.159v-4.655c0-2.3-0.87-3.45-2.749-3.45
				c-1.065,0-2.132,0.533-2.917,1.431v6.675c0,1.795,0.141,1.991,1.795,2.159v0.729h-5.945v-0.729
				c1.683-0.14,1.936-0.309,1.936-2.159v-13.378c0-1.767-0.057-1.907-1.907-2.075v-0.646c1.346-0.196,3.028-0.645,4.122-0.981v9.424
				c0.981-1.01,2.496-2.048,4.011-2.048c2.271,0,3.87,1.431,3.87,4.796v4.908c0,1.851,0.196,2.02,1.852,2.159v0.729H355.474z"/>
			<path fill="#D1232A" d="M372.948,216.312c-1.767,2.216-3.702,2.721-4.571,2.721c-3.45,0-5.469-2.805-5.469-5.974
				c0-1.936,0.701-3.646,1.851-4.908c1.15-1.29,2.664-2.048,4.123-2.048c2.327,0,4.207,2.075,4.207,4.264
				c0,0.561-0.141,0.785-0.646,0.897c-0.477,0.084-3.982,0.364-7.32,0.477c0.028,3.813,2.216,5.385,4.179,5.385
				c1.122,0,2.188-0.449,3.197-1.402L372.948,216.312z M365.264,210.59c1.57,0,3.113-0.027,4.739-0.084
				c0.505,0,0.674-0.168,0.674-0.561c0.027-1.459-0.926-2.805-2.469-2.805C366.918,207.141,365.685,208.318,365.264,210.59z"/>
			<path fill="#D1232A" d="M374.127,218.695v-0.729c1.767-0.168,2.02-0.336,2.02-2.188v-13.266c0-1.907-0.169-1.991-1.936-2.131
				v-0.674c1.458-0.168,3.197-0.645,4.15-0.981v17.052c0,1.852,0.225,2.02,2.02,2.188v0.729H374.127z"/>
			<path fill="#D1232A" d="M387.815,206.523c0.505-0.28,1.037-0.421,1.374-0.421c3.113,0,4.964,2.524,4.964,5.301
				c0,4.235-3.338,6.955-6.983,7.629c-0.813-0.028-1.57-0.309-1.936-0.505v3.674c0,2.131,0.196,2.271,2.385,2.468v0.758h-6.647
				v-0.758c1.795-0.168,2.048-0.337,2.048-2.188v-12.677c0-1.823-0.112-1.879-1.852-2.104v-0.673
				c1.178-0.196,2.749-0.673,4.066-1.206v2.216L387.815,206.523z M385.234,216.563c0.617,0.646,1.684,1.094,2.637,1.094
				c2.355,0,3.927-2.019,3.927-5.188c0-3-1.711-4.684-3.759-4.684c-0.897,0-2.047,0.617-2.805,1.179V216.563z"/>
			<path fill="#D1232A" d="M396.034,217.405c0-0.897,0.673-1.599,1.57-1.599s1.57,0.701,1.57,1.599c0,0.981-0.673,1.627-1.57,1.627
				S396.034,218.387,396.034,217.405z"/>
		</g>
		<g>
			<path fill="#D1232A" d="M139.238,233.425c-1.317,0.505-2.384,1.318-2.439,2.496c-0.056,0.869,0.505,1.374,1.346,1.57
				c0.169,0.057,0.337,0.225,0.309,0.505c-0.027,0.729-0.701,1.094-1.233,1.094c-0.981,0-2.244-0.953-2.188-2.607
				c0.084-2.216,2.271-3.366,3.898-3.814L139.238,233.425z M143.979,233.425c-1.318,0.505-2.412,1.347-2.468,2.524
				c-0.057,0.869,0.532,1.374,1.374,1.599c0.168,0.028,0.337,0.196,0.337,0.477c-0.057,0.729-0.729,1.122-1.263,1.122
				c-0.981,0-2.271-0.954-2.188-2.664c0.084-2.216,2.271-3.366,3.927-3.814L143.979,233.425z"/>
			<path fill="#D1232A" d="M150.907,241.502l-2.776,0.141l-1.654,7.74c-0.28,1.374-0.141,1.683,0.168,1.683
				c0.477,0,1.851-0.925,2.524-1.626l0.393,0.589c-0.926,1.121-3.029,3.001-4.516,3.001c-0.645,0-1.206-0.813-0.589-3.702
				l1.654-7.685h-2.075l-0.084-0.253l0.701-0.841h1.683l0.646-2.665l2.131-1.738l0.253,0.168l-0.981,4.235h3.253L150.907,241.502z"
				/>
			<path fill="#D1232A" d="M163.95,250.337c-1.487,1.71-3.226,2.692-4.039,2.692c-0.729,0-0.926-0.786-0.477-2.721l1.486-6.507
				c0.337-1.486,0.225-1.991-0.225-1.991c-1.29,0-4.571,3.142-5.945,5.581c-0.28,1.234-0.785,3.73-1.038,5.104
				c-0.645,0.112-1.374,0.309-1.991,0.533l-0.196-0.225c1.206-5.413,2.44-11.078,3.534-16.827c0.309-1.459,0.168-1.543-0.926-1.571
				l-0.813-0.027l0.084-0.674c2.216-0.224,3.73-0.981,4.123-0.981c0.252,0,0.28,0.225,0.112,0.981l-2.524,11.64h0.057
				c1.851-2.496,3.926-3.982,5.188-4.656c0.729-0.393,1.374-0.589,1.879-0.589c0.701,0,1.486,0.505,0.785,3.563l-1.459,6.282
				c-0.168,0.813-0.14,1.009,0.085,1.009c0.28,0,1.149-0.532,1.935-1.29L163.95,250.337z"/>
			<path fill="#D1232A" d="M174.945,249.859c-2.468,2.637-4.571,3.17-5.917,3.17c-1.29,0-3.085-0.758-3.085-4.095
				c0-2.637,1.149-5.581,3.365-7.264c1.206-0.926,2.692-1.571,3.87-1.571c1.486,0,2.468,1.038,2.468,2.244
				c0,2.776-4.711,4.291-7.403,4.964c-0.057,0.337-0.057,0.617-0.057,0.897c0,1.515,0.477,3.169,2.188,3.169
				c1.178,0,2.692-0.785,4.095-2.159L174.945,249.859z M170.991,241.586c-0.757,0.421-2.159,1.711-2.637,4.853
				c4.011-1.066,5.188-2.356,5.188-3.646c0-0.981-0.589-1.542-1.402-1.542C171.748,241.25,171.3,241.39,170.991,241.586z"/>
			<path fill="#D1232A" d="M192.195,249.916c-1.738,1.991-3.954,3.113-5.608,3.113c-1.795,0-3.001-1.431-3.001-4.123
				c0-2.328,1.094-5.076,2.889-6.731c1.149-1.009,3.112-2.075,4.487-2.075c1.206,0,2.104,0.701,2.131,1.402
				c0,0.421-0.28,0.954-0.925,1.29c-0.225,0.141-0.421,0.084-0.617-0.168c-0.589-0.813-1.234-1.206-2.104-1.206
				c-1.01,0-1.795,0.842-2.328,1.851c-0.701,1.263-1.233,3.17-1.233,5.077c0,1.991,0.785,3.028,1.991,3.028
				c1.43,0,3.141-1.29,3.897-2.075L192.195,249.916z"/>
			<path fill="#D1232A" d="M205.938,250.112c-1.515,1.879-3.394,2.917-4.095,2.917c-0.532,0-0.897-0.421-0.505-2.469l0.562-2.664
				h-0.057c-1.094,1.543-2.412,2.889-3.617,3.87c-0.926,0.758-1.852,1.263-2.608,1.263c-0.729,0-1.627-0.926-1.627-3.17
				c0-2.832,1.318-5.89,3.365-7.6c1.402-1.179,3.45-2.16,5.217-2.16c0.589,0,1.149,0.084,1.739,0.196
				c0.393,0.084,0.757,0.169,1.065,0.169l0.084,0.112c-0.449,1.738-1.29,5.553-1.936,9.114c-0.196,0.981-0.111,1.206,0.057,1.206
				c0.225,0,1.206-0.646,2.02-1.458L205.938,250.112z M202.293,245.737c0.309-1.122,0.729-3.142,0.925-4.039
				c-0.393-0.196-1.149-0.393-1.879-0.393c-0.729,0-1.514,0.225-1.991,0.589c-1.907,1.402-3.028,4.712-3.028,7.488
				c0,1.263,0.364,1.852,0.757,1.852C198.17,251.234,201.339,247.672,202.293,245.737z"/>
			<path fill="#D1232A" d="M219.57,240.745c-0.813,0.897-1.542,1.233-1.991,1.318c-0.225,0.056-0.421,0.084-0.729,0.084
				c0.141,0.393,0.225,0.813,0.225,1.57c0,1.991-1.094,3.478-2.131,4.291c-0.758,0.617-2.02,1.318-3.618,1.627
				c-0.337,0.28-0.562,0.561-0.562,0.897c0,0.42,0.674,0.925,2.02,1.626c2.692,1.431,3.786,2.524,3.786,3.73
				c0,2.328-3.926,4.011-6.618,4.011c-2.721,0-5.077-1.402-5.021-3.142c0.028-1.206,1.627-2.468,4.712-4.038
				c-0.701-0.449-1.066-1.01-1.038-1.374c0-0.449,0.393-0.954,1.711-1.739c-1.599-0.364-2.44-1.515-2.44-3.422
				c0-1.822,0.926-3.562,2.356-4.684c1.149-0.925,2.58-1.402,3.59-1.402c0.897,0,1.767,0.253,2.384,0.785
				c1.627-0.027,2.636-0.336,3.169-0.673L219.57,240.745z M214.522,256.646c0-0.757-0.758-1.458-2.048-2.215
				c-0.925-0.562-1.711-1.01-2.104-1.206c-1.879,0.897-3.112,2.019-3.112,3.057c0,1.431,1.851,2.44,3.813,2.44
				C213.176,258.723,214.522,257.74,214.522,256.646z M214.999,243.802c0-1.599-0.646-2.721-1.879-2.721
				c-0.813,0-1.543,0.505-2.048,1.263c-0.589,0.841-1.065,2.131-1.065,3.646c0,1.655,0.813,2.524,1.823,2.524
				C213.316,248.514,214.999,246.803,214.999,243.802z"/>
			<path fill="#D1232A" d="M228.238,249.859c-2.468,2.637-4.571,3.17-5.917,3.17c-1.29,0-3.085-0.758-3.085-4.095
				c0-2.637,1.149-5.581,3.365-7.264c1.206-0.926,2.692-1.571,3.87-1.571c1.486,0,2.468,1.038,2.468,2.244
				c0,2.776-4.711,4.291-7.403,4.964c-0.057,0.337-0.057,0.617-0.057,0.897c0,1.515,0.477,3.169,2.188,3.169
				c1.178,0,2.692-0.785,4.095-2.159L228.238,249.859z M224.284,241.586c-0.757,0.421-2.159,1.711-2.637,4.853
				c4.011-1.066,5.188-2.356,5.188-3.646c0-0.981-0.589-1.542-1.402-1.542C225.041,241.25,224.593,241.39,224.284,241.586z"/>
			<path fill="#D1232A" d="M242.628,250.196c-1.486,1.767-3.338,2.833-4.123,2.833c-0.561,0-0.953-0.449-0.505-2.608l0.505-2.384
				l-0.056,0.027c-1.263,1.684-2.721,2.917-3.702,3.675c-1.038,0.841-1.936,1.29-2.721,1.29c-0.926,0-1.823-1.122-1.823-3.366
				c0-2.636,1.206-5.637,3.254-7.403c1.318-1.15,3.646-2.16,4.964-2.16c0.393,0,0.953,0.028,1.654,0.309l0.926-4.627
				c0.253-1.263,0.168-1.375-1.065-1.375h-0.897l0.084-0.701c2.355-0.28,3.87-0.981,4.291-0.981c0.252,0,0.309,0.225,0.196,0.785
				c-1.318,5.609-2.496,11.051-3.478,16.491c-0.141,0.673-0.084,0.926,0.112,0.926c0.336,0,1.233-0.617,1.991-1.374L242.628,250.196
				z M238.842,246.046l0.897-4.011c-0.421-0.393-1.431-0.729-2.271-0.729c-0.87,0-1.459,0.225-1.964,0.589
				c-1.879,1.347-2.973,4.88-2.973,7.236c0,1.43,0.393,2.075,0.869,2.075C234.831,251.206,237.916,247.729,238.842,246.046z"/>
			<path fill="#D1232A" d="M263.3,250.196c-1.486,1.767-3.338,2.833-4.123,2.833c-0.561,0-0.953-0.449-0.505-2.608l0.505-2.384
				l-0.056,0.027c-1.263,1.684-2.721,2.917-3.702,3.675c-1.038,0.841-1.936,1.29-2.721,1.29c-0.926,0-1.823-1.122-1.823-3.366
				c0-2.636,1.206-5.637,3.254-7.403c1.318-1.15,3.646-2.16,4.964-2.16c0.393,0,0.953,0.028,1.654,0.309l0.926-4.627
				c0.253-1.263,0.168-1.375-1.065-1.375h-0.897l0.084-0.701c2.355-0.28,3.87-0.981,4.291-0.981c0.252,0,0.309,0.225,0.196,0.785
				c-1.318,5.609-2.496,11.051-3.478,16.491c-0.141,0.673-0.084,0.926,0.112,0.926c0.336,0,1.233-0.617,1.991-1.374L263.3,250.196z
				 M259.514,246.046l0.897-4.011c-0.421-0.393-1.431-0.729-2.271-0.729c-0.87,0-1.459,0.225-1.964,0.589
				c-1.879,1.347-2.973,4.88-2.973,7.236c0,1.43,0.393,2.075,0.869,2.075C255.503,251.206,258.588,247.729,259.514,246.046z"/>
			<path fill="#D1232A" d="M265.152,248.653c0-3.646,1.936-6.422,4.263-7.656c1.01-0.532,2.16-0.897,3.029-0.897
				c2.328,0,3.73,1.599,3.73,4.375c0,2.412-1.038,5.161-3.001,6.787c-1.206,1.01-2.749,1.768-4.319,1.768
				C266.19,253.029,265.152,250.926,265.152,248.653z M270.762,251.739c1.515-0.646,3.057-3.618,3.057-7.208
				c0-2.271-0.981-3.365-2.271-3.365c-0.421,0-0.757,0.111-1.065,0.252c-1.094,0.477-2.974,2.776-2.974,7.096
				c0,2.075,0.87,3.394,2.356,3.394C270.2,251.907,270.481,251.851,270.762,251.739z"/>
			<path fill="#D1232A" d="M290.395,240.745c-0.813,0.897-1.542,1.233-1.991,1.318c-0.225,0.056-0.421,0.084-0.729,0.084
				c0.141,0.393,0.225,0.813,0.225,1.57c0,1.991-1.094,3.478-2.131,4.291c-0.758,0.617-2.02,1.318-3.618,1.627
				c-0.337,0.28-0.562,0.561-0.562,0.897c0,0.42,0.674,0.925,2.02,1.626c2.692,1.431,3.786,2.524,3.786,3.73
				c0,2.328-3.926,4.011-6.618,4.011c-2.721,0-5.077-1.402-5.021-3.142c0.028-1.206,1.627-2.468,4.712-4.038
				c-0.701-0.449-1.066-1.01-1.038-1.374c0-0.449,0.393-0.954,1.711-1.739c-1.599-0.364-2.44-1.515-2.44-3.422
				c0-1.822,0.926-3.562,2.356-4.684c1.149-0.925,2.58-1.402,3.59-1.402c0.897,0,1.767,0.253,2.384,0.785
				c1.627-0.027,2.636-0.336,3.169-0.673L290.395,240.745z M285.347,256.646c0-0.757-0.758-1.458-2.048-2.215
				c-0.925-0.562-1.711-1.01-2.104-1.206c-1.879,0.897-3.112,2.019-3.112,3.057c0,1.431,1.851,2.44,3.813,2.44
				C284,258.723,285.347,257.74,285.347,256.646z M285.823,243.802c0-1.599-0.646-2.721-1.879-2.721
				c-0.813,0-1.543,0.505-2.048,1.263c-0.589,0.841-1.065,2.131-1.065,3.646c0,1.655,0.813,2.524,1.823,2.524
				C284.141,248.514,285.823,246.803,285.823,243.802z"/>
			<path fill="#D1232A" d="M295.586,251.01c-0.028-0.477,0.336-0.897,0.813-1.178c0.337-0.169,0.562-0.112,0.701,0.084
				c0.729,1.094,1.768,1.711,2.692,1.711c1.122,0,1.852-0.785,1.852-1.683c0-0.701-0.309-1.318-1.627-2.356
				c-1.262-0.953-2.439-1.991-2.439-3.421c0-0.842,0.336-1.739,1.458-2.721c0.869-0.758,2.216-1.347,3.113-1.347
				c1.233,0,2.188,0.842,2.188,1.571c0,0.477-0.28,0.897-0.701,1.149c-0.28,0.168-0.449,0.112-0.617-0.112
				c-0.561-0.701-1.234-1.262-2.188-1.262c-0.813,0-1.515,0.617-1.515,1.57c0,1.01,0.813,1.711,1.823,2.496
				c1.683,1.262,2.355,2.075,2.355,3.281c0,2.132-2.805,4.235-5.076,4.235C297.1,253.029,295.586,251.991,295.586,251.01z"/>
			<path fill="#D1232A" d="M318.304,250.309c-1.655,1.795-3.226,2.721-3.955,2.721c-0.701,0-0.953-0.758-0.448-2.917
				c0.533-2.104,1.01-4.15,1.515-6.227c0.393-1.599,0.225-2.019-0.225-2.019c-1.234,0-4.487,3.478-5.89,5.861
				c-0.337,1.374-0.757,3.057-1.094,4.739c-0.729,0.141-1.486,0.365-2.02,0.562l-0.168-0.225c0.757-3.029,1.599-6.395,2.271-9.508
				c0.225-0.897,0.141-1.122-0.028-1.122c-0.252,0-1.121,0.59-1.822,1.263l-0.365-0.673c1.515-1.655,3.17-2.665,3.955-2.665
				c0.645,0,0.757,0.954,0.225,3.113l-0.59,2.44h0.057c1.907-2.608,3.982-4.235,5.16-4.937c0.729-0.421,1.318-0.617,1.879-0.617
				c0.674,0,1.459,0.421,0.617,4.011c-0.448,1.907-0.897,3.87-1.374,5.834c-0.168,0.757-0.141,1.009,0.056,1.009
				c0.253,0,1.01-0.505,1.852-1.317L318.304,250.309z"/>
			<path fill="#D1232A" d="M332.217,250.112c-1.515,1.879-3.394,2.917-4.095,2.917c-0.532,0-0.897-0.421-0.505-2.469l0.562-2.664
				h-0.057c-1.094,1.543-2.412,2.889-3.617,3.87c-0.926,0.758-1.852,1.263-2.608,1.263c-0.729,0-1.627-0.926-1.627-3.17
				c0-2.832,1.318-5.89,3.365-7.6c1.402-1.179,3.45-2.16,5.217-2.16c0.589,0,1.149,0.084,1.739,0.196
				c0.393,0.084,0.757,0.169,1.065,0.169l0.084,0.112c-0.448,1.738-1.29,5.553-1.936,9.114c-0.196,0.981-0.111,1.206,0.057,1.206
				c0.225,0,1.206-0.646,2.02-1.458L332.217,250.112z M328.571,245.737c0.309-1.122,0.729-3.142,0.926-4.039
				c-0.394-0.196-1.15-0.393-1.88-0.393c-0.729,0-1.514,0.225-1.991,0.589c-1.907,1.402-3.028,4.712-3.028,7.488
				c0,1.263,0.364,1.852,0.757,1.852C324.448,251.234,327.617,247.672,328.571,245.737z"/>
			<path fill="#D1232A" d="M333.873,242.849c1.431-1.599,3.169-2.749,3.927-2.749c0.701,0,0.729,1.29,0.309,3.254l-0.28,1.402h0.084
				c1.43-2.749,3.085-4.656,4.207-4.656c0.477,0,0.953,0.309,1.205,0.701c0.196,0.365,0.196,0.813-0.027,1.206
				c-0.196,0.337-0.478,0.617-0.729,0.813c-0.252,0.168-0.477,0.168-0.617,0.028c-0.309-0.337-0.645-0.477-0.953-0.477
				c-0.337,0-0.785,0.28-1.431,1.178c-0.617,0.897-1.486,2.215-1.991,3.478c-0.448,1.879-0.785,3.646-1.122,5.497
				c-0.616,0.084-1.374,0.28-1.991,0.505l-0.224-0.225c0.729-3.001,1.514-6.45,2.047-9.451c0.168-0.926,0.168-1.206-0.056-1.206
				c-0.253,0-1.15,0.561-1.991,1.346L333.873,242.849z"/>
			<path fill="#D1232A" d="M348.991,250.028c-1.458,1.738-3.449,3.001-4.318,3.001c-0.533,0-0.982-0.646-0.393-3.394
				c0.981-4.6,1.963-9.199,2.916-13.827c0.281-1.206,0.112-1.402-1.178-1.402l-0.757-0.027l0.112-0.674
				c2.188-0.252,3.786-0.981,4.15-0.981c0.252,0,0.28,0.253,0.168,0.842c-1.149,5.413-2.3,10.854-3.478,16.406
				c-0.168,0.813-0.056,0.981,0.112,0.981c0.309,0,1.458-0.729,2.244-1.542L348.991,250.028z"/>
			<path fill="#D1232A" d="M359.649,249.859c-2.468,2.637-4.571,3.17-5.917,3.17c-1.29,0-3.085-0.758-3.085-4.095
				c0-2.637,1.149-5.581,3.365-7.264c1.206-0.926,2.692-1.571,3.87-1.571c1.486,0,2.468,1.038,2.468,2.244
				c0,2.776-4.711,4.291-7.403,4.964c-0.057,0.337-0.057,0.617-0.057,0.897c0,1.515,0.477,3.169,2.188,3.169
				c1.178,0,2.692-0.785,4.095-2.159L359.649,249.859z M355.695,241.586c-0.757,0.421-2.159,1.711-2.637,4.853
				c4.011-1.066,5.188-2.356,5.188-3.646c0-0.981-0.589-1.542-1.402-1.542C356.452,241.25,356.004,241.39,355.695,241.586z"/>
			<path fill="#D1232A" d="M374.066,250.196c-1.486,1.767-3.338,2.833-4.123,2.833c-0.561,0-0.953-0.449-0.505-2.608l0.505-2.384
				l-0.056,0.027c-1.263,1.684-2.721,2.917-3.702,3.675c-1.038,0.841-1.936,1.29-2.721,1.29c-0.926,0-1.823-1.122-1.823-3.366
				c0-2.636,1.206-5.637,3.254-7.403c1.318-1.15,3.646-2.16,4.964-2.16c0.393,0,0.954,0.028,1.654,0.309l0.926-4.627
				c0.253-1.263,0.169-1.375-1.065-1.375h-0.897l0.084-0.701c2.355-0.28,3.87-0.981,4.291-0.981c0.252,0,0.309,0.225,0.196,0.785
				c-1.318,5.609-2.496,11.051-3.478,16.491c-0.141,0.673-0.084,0.926,0.112,0.926c0.336,0,1.233-0.617,1.991-1.374L374.066,250.196
				z M370.28,246.046l0.897-4.011c-0.421-0.393-1.431-0.729-2.271-0.729c-0.87,0-1.459,0.225-1.964,0.589
				c-1.879,1.347-2.973,4.88-2.973,7.236c0,1.43,0.393,2.075,0.869,2.075C366.27,251.206,369.354,247.729,370.28,246.046z"/>
			<path fill="#D1232A" d="M387.783,250.225c-0.926,1.149-3.113,2.805-4.095,2.805c-0.562,0-0.926-0.449-0.365-2.749l1.739-7.18
				c0.168-0.617,0.168-0.897-0.028-0.897c-0.225,0-1.065,0.477-1.907,1.206l-0.336-0.645c1.542-1.515,3.506-2.665,4.263-2.665
				c0.617,0,0.589,0.897,0.28,2.216l-1.935,7.74c-0.169,0.674-0.112,0.897,0.056,0.897c0.337,0,1.318-0.729,1.963-1.317
				L387.783,250.225z M388.512,235.978c0,0.869-0.645,1.626-1.486,1.626c-0.673,0-1.149-0.505-1.178-1.233
				c0-0.701,0.561-1.655,1.543-1.655C388.119,234.715,388.484,235.304,388.512,235.978z"/>
			<path fill="#D1232A" d="M402.368,250.309c-1.655,1.795-3.226,2.721-3.955,2.721c-0.701,0-0.953-0.758-0.448-2.917
				c0.533-2.104,1.01-4.15,1.515-6.227c0.393-1.599,0.225-2.019-0.225-2.019c-1.234,0-4.487,3.478-5.89,5.861
				c-0.337,1.374-0.757,3.057-1.094,4.739c-0.729,0.141-1.486,0.365-2.02,0.562l-0.168-0.225c0.757-3.029,1.599-6.395,2.271-9.508
				c0.225-0.897,0.141-1.122-0.028-1.122c-0.252,0-1.121,0.59-1.822,1.263l-0.365-0.673c1.515-1.655,3.17-2.665,3.955-2.665
				c0.645,0,0.757,0.954,0.225,3.113l-0.59,2.44h0.057c1.907-2.608,3.982-4.235,5.16-4.937c0.729-0.421,1.318-0.617,1.879-0.617
				c0.674,0,1.459,0.421,0.617,4.011c-0.448,1.907-0.897,3.87-1.374,5.834c-0.168,0.757-0.141,1.009,0.056,1.009
				c0.253,0,1.01-0.505,1.852-1.317L402.368,250.309z"/>
			<path fill="#D1232A" d="M422.872,250.112c-1.515,1.879-3.394,2.917-4.095,2.917c-0.532,0-0.897-0.421-0.505-2.469l0.562-2.664
				h-0.057c-1.094,1.543-2.412,2.889-3.617,3.87c-0.926,0.758-1.852,1.263-2.608,1.263c-0.729,0-1.627-0.926-1.627-3.17
				c0-2.832,1.318-5.89,3.365-7.6c1.402-1.179,3.45-2.16,5.217-2.16c0.589,0,1.149,0.084,1.739,0.196
				c0.393,0.084,0.757,0.169,1.065,0.169l0.084,0.112c-0.449,1.738-1.29,5.553-1.936,9.114c-0.196,0.981-0.111,1.206,0.057,1.206
				c0.225,0,1.206-0.646,2.02-1.458L422.872,250.112z M419.227,245.737c0.309-1.122,0.729-3.142,0.925-4.039
				c-0.393-0.196-1.149-0.393-1.879-0.393c-0.729,0-1.514,0.225-1.991,0.589c-1.907,1.402-3.028,4.712-3.028,7.488
				c0,1.263,0.364,1.852,0.757,1.852C415.104,251.234,418.272,247.672,419.227,245.737z"/>
			<path fill="#D1232A" d="M437.037,250.309c-1.655,1.795-3.226,2.721-3.955,2.721c-0.701,0-0.953-0.758-0.448-2.917
				c0.533-2.104,1.01-4.15,1.515-6.227c0.393-1.599,0.224-2.019-0.225-2.019c-1.234,0-4.487,3.478-5.89,5.861
				c-0.337,1.374-0.757,3.057-1.094,4.739c-0.729,0.141-1.486,0.365-2.02,0.562l-0.168-0.225c0.757-3.029,1.599-6.395,2.271-9.508
				c0.225-0.897,0.141-1.122-0.028-1.122c-0.252,0-1.121,0.59-1.822,1.263l-0.365-0.673c1.515-1.655,3.17-2.665,3.955-2.665
				c0.645,0,0.757,0.954,0.224,3.113l-0.589,2.44h0.057c1.907-2.608,3.982-4.235,5.16-4.937c0.729-0.421,1.318-0.617,1.879-0.617
				c0.673,0,1.459,0.421,0.617,4.011c-0.448,1.907-0.897,3.87-1.374,5.834c-0.168,0.757-0.141,1.009,0.056,1.009
				c0.253,0,1.01-0.505,1.852-1.317L437.037,250.309z"/>
			<path fill="#D1232A" d="M451.09,240.745c-0.813,0.897-1.542,1.233-1.991,1.318c-0.225,0.056-0.421,0.084-0.729,0.084
				c0.141,0.393,0.225,0.813,0.225,1.57c0,1.991-1.094,3.478-2.131,4.291c-0.758,0.617-2.02,1.318-3.618,1.627
				c-0.337,0.28-0.562,0.561-0.562,0.897c0,0.42,0.674,0.925,2.02,1.626c2.692,1.431,3.786,2.524,3.786,3.73
				c0,2.328-3.926,4.011-6.618,4.011c-2.721,0-5.077-1.402-5.021-3.142c0.028-1.206,1.627-2.468,4.712-4.038
				c-0.701-0.449-1.066-1.01-1.038-1.374c0-0.449,0.393-0.954,1.711-1.739c-1.599-0.364-2.44-1.515-2.44-3.422
				c0-1.822,0.926-3.562,2.356-4.684c1.149-0.925,2.58-1.402,3.59-1.402c0.897,0,1.767,0.253,2.384,0.785
				c1.627-0.027,2.636-0.336,3.169-0.673L451.09,240.745z M446.042,256.646c0-0.757-0.758-1.458-2.048-2.215
				c-0.925-0.562-1.711-1.01-2.104-1.206c-1.879,0.897-3.112,2.019-3.112,3.057c0,1.431,1.851,2.44,3.813,2.44
				C444.695,258.723,446.042,257.74,446.042,256.646z M446.519,243.802c0-1.599-0.646-2.721-1.879-2.721
				c-0.813,0-1.543,0.505-2.048,1.263c-0.589,0.841-1.065,2.131-1.065,3.646c0,1.655,0.813,2.524,1.823,2.524
				C444.836,248.514,446.519,246.803,446.519,243.802z"/>
			<path fill="#D1232A" d="M459.758,249.859c-2.468,2.637-4.571,3.17-5.917,3.17c-1.29,0-3.085-0.758-3.085-4.095
				c0-2.637,1.149-5.581,3.365-7.264c1.206-0.926,2.692-1.571,3.87-1.571c1.486,0,2.468,1.038,2.468,2.244
				c0,2.776-4.711,4.291-7.403,4.964c-0.057,0.337-0.057,0.617-0.057,0.897c0,1.515,0.477,3.169,2.188,3.169
				c1.178,0,2.692-0.785,4.095-2.159L459.758,249.859z M455.804,241.586c-0.757,0.421-2.159,1.711-2.637,4.853
				c4.011-1.066,5.188-2.356,5.188-3.646c0-0.981-0.589-1.542-1.402-1.542C456.561,241.25,456.112,241.39,455.804,241.586z"/>
			<path fill="#D1232A" d="M462.115,242.849c1.431-1.599,3.169-2.749,3.927-2.749c0.701,0,0.729,1.29,0.309,3.254l-0.28,1.402h0.084
				c1.43-2.749,3.085-4.656,4.207-4.656c0.477,0,0.953,0.309,1.205,0.701c0.196,0.365,0.196,0.813-0.027,1.206
				c-0.196,0.337-0.478,0.617-0.729,0.813c-0.252,0.168-0.477,0.168-0.617,0.028c-0.309-0.337-0.645-0.477-0.953-0.477
				c-0.337,0-0.785,0.28-1.431,1.178c-0.617,0.897-1.486,2.215-1.991,3.478c-0.448,1.879-0.785,3.646-1.122,5.497
				c-0.616,0.084-1.374,0.28-1.991,0.505l-0.224-0.225c0.729-3.001,1.514-6.45,2.047-9.451c0.168-0.926,0.168-1.206-0.056-1.206
				c-0.253,0-1.15,0.561-1.991,1.346L462.115,242.849z"/>
			<path fill="#D1232A" d="M473.504,238.474c1.346-0.505,2.412-1.29,2.468-2.496c0.056-0.87-0.533-1.375-1.374-1.599
				c-0.169-0.028-0.337-0.169-0.309-0.449c0.028-0.729,0.701-1.122,1.233-1.122c0.982,0,2.244,0.954,2.16,2.665
				c-0.057,2.159-2.244,3.337-3.898,3.758L473.504,238.474z M478.243,238.474c1.318-0.505,2.44-1.29,2.496-2.496
				c0.028-0.87-0.532-1.375-1.402-1.599c-0.168-0.028-0.309-0.169-0.309-0.449c0.028-0.729,0.701-1.122,1.234-1.122
				c0.981,0,2.271,0.954,2.188,2.637c-0.084,2.188-2.243,3.365-3.898,3.786L478.243,238.474z"/>
		</g>
	</g>
</g>
<g id="_x3C_Layer_x3E_">
</g>
</svg>
