<?xml version="1.0" encoding="utf-8"?>
<!-- Generator: Adobe Illustrator 16.0.0, SVG Export Plug-In . SVG Version: 6.00 Build 0)  -->
<!DOCTYPE svg PUBLIC "-//W3C//DTD SVG 1.1//EN" "http://www.w3.org/Graphics/SVG/1.1/DTD/svg11.dtd">
<svg version="1.1" xmlns="http://www.w3.org/2000/svg" xmlns:xlink="http://www.w3.org/1999/xlink" x="0px" y="0px" width="326px"
	 height="66px" viewBox="0 0 326 66" enable-background="new 0 0 326 66" xml:space="preserve">
<g id="Layer_1">
	<g>
		<path fill="#323031" d="M13.49,6.787c-2.188,0.225-2.328,0.365-2.721,2.412L8.498,21.006c-0.422,2.16-0.254,2.328,2.047,2.496
			l-0.168,0.758h-7.18l0.195-0.758c2.188-0.168,2.385-0.363,2.805-2.496L8.469,9.199c0.393-2.047,0.197-2.188-2.131-2.412
			l0.197-0.729h7.123L13.49,6.787z"/>
		<path fill="#323031" d="M15.762,12.116c0.422-2.132,1.094-4.179,2.355-5.581c1.291-1.431,2.889-2.244,4.012-2.244
			c0.98,0,1.711,0.701,1.682,1.206c0,0.421-0.393,0.926-0.701,1.149c-0.225,0.169-0.504,0.197-0.701-0.027
			c-0.588-0.617-1.178-0.982-1.766-0.982c-1.039,0-1.879,1.291-2.721,6.479h3.168l-0.588,0.869l-2.805,0.28
			c-0.506,3.086-0.813,4.796-1.43,7.909c-0.982,4.823-2.02,6.927-3.563,8.526c-1.234,1.317-2.412,1.766-3.17,1.766
			c-0.813,0-1.766-0.561-1.738-1.205c0-0.365,0.336-0.842,0.758-1.178c0.225-0.197,0.363-0.168,0.533,0
			c0.447,0.42,1.262,0.701,1.766,0.701c0.477,0,0.926-0.225,1.207-0.562c0.363-0.421,1.037-1.599,1.963-7.039
			c0.672-3.87,1.037-6.226,1.514-8.975h-2.328l-0.084-0.309l0.842-0.785H15.762z"/>
		<path fill="#323031" d="M27.066,20.221c0-3.646,1.936-6.422,4.262-7.656c1.01-0.533,2.16-0.896,3.029-0.896
			c2.328,0,3.73,1.598,3.73,4.375c0,2.411-1.037,5.16-3,6.787c-1.207,1.009-2.75,1.766-4.32,1.766
			C28.104,24.596,27.066,22.492,27.066,20.221z M32.676,23.307c1.514-0.646,3.057-3.618,3.057-7.208
			c0-2.272-0.982-3.366-2.271-3.366c-0.422,0-0.758,0.113-1.066,0.253c-1.094,0.478-2.973,2.776-2.973,7.096
			c0,2.075,0.869,3.394,2.355,3.394C32.113,23.475,32.395,23.418,32.676,23.307z"/>
		<path fill="#323031" d="M52.59,21.876c-1.656,1.795-3.227,2.72-3.955,2.72c-0.701,0-0.953-0.757-0.449-2.916
			c0.533-2.104,1.01-4.15,1.516-6.227c0.393-1.598,0.223-2.02-0.225-2.02c-1.234,0-4.488,3.479-5.891,5.862
			c-0.336,1.374-0.756,3.057-1.094,4.739c-0.729,0.141-1.486,0.365-2.02,0.561l-0.168-0.224c0.758-3.028,1.6-6.395,2.271-9.508
			c0.225-0.897,0.141-1.122-0.027-1.122c-0.252,0-1.121,0.59-1.822,1.263l-0.365-0.673c1.514-1.655,3.17-2.664,3.955-2.664
			c0.645,0,0.756,0.953,0.223,3.112l-0.588,2.44h0.057c1.906-2.609,3.982-4.235,5.16-4.937c0.729-0.421,1.318-0.616,1.879-0.616
			c0.672,0,1.459,0.42,0.617,4.01c-0.449,1.907-0.898,3.871-1.375,5.834c-0.168,0.757-0.141,1.01,0.057,1.01
			c0.252,0,1.01-0.506,1.852-1.318L52.59,21.876z"/>
		<path fill="#323031" d="M59.855,21.596c-1.459,1.738-3.449,3-4.318,3c-0.533,0-0.982-0.645-0.393-3.393
			c0.98-4.6,1.963-9.199,2.916-13.826c0.279-1.207,0.111-1.402-1.178-1.402l-0.758-0.029l0.113-0.672
			c2.188-0.253,3.785-0.982,4.15-0.982c0.252,0,0.279,0.252,0.168,0.842c-1.15,5.412-2.301,10.854-3.479,16.406
			c-0.168,0.813-0.055,0.982,0.113,0.982c0.309,0,1.457-0.73,2.244-1.543L59.855,21.596z"/>
		<path fill="#323031" d="M66.727,22.156c1.207-1.852,3.787-5.665,3.76-7.713c0-0.561-0.17-1.01-0.309-1.318
			c-0.086-0.195-0.057-0.477,0.055-0.701c0.197-0.42,0.701-0.756,1.178-0.756c0.617,0,1.094,0.616,1.094,1.542
			c0.029,0.785-0.279,1.739-0.98,2.973c-1.207,2.132-3.59,5.833-5.076,7.937c-1.654,2.385-3.479,4.852-5.049,6.592l-2.916,0.756
			l-0.225-0.616c3-1.964,5.217-4.431,6.59-6.282c-0.027-2.216-0.477-6.591-0.869-9.143c-0.195-1.402-0.365-1.739-0.588-1.739
			c-0.225,0-0.926,0.646-1.627,1.626l-0.477-0.645c0.896-1.402,2.299-3,3.309-3c0.785,0,1.205,1.037,1.43,3.281
			c0.281,2.131,0.477,4.654,0.646,7.207H66.727z"/>
		<path fill="#323031" d="M91.662,21.707c1.148-1.57,3.953-5.44,3.953-7.235c0-0.589-0.139-0.981-0.279-1.29
			c-0.113-0.196-0.113-0.477,0-0.701c0.195-0.449,0.672-0.813,1.15-0.813c0.699,0,1.205,0.616,1.205,1.598
			c0,0.953-0.533,1.879-1.15,2.945c-0.953,1.543-4.346,6.227-5.918,8.385h-0.785c-0.225-2.973-0.504-5.917-0.785-8.75h-0.055
			c-1.795,3.002-3.844,6.283-5.357,8.75h-0.729c-0.029-2.72-0.17-6.338-0.281-9.03c-0.057-1.347-0.168-1.851-0.449-1.851
			c-0.195,0-0.617,0.336-1.654,1.43l-0.477-0.561c1.178-1.57,2.637-2.916,3.59-2.916c0.645,0,0.953,0.841,1.01,2.775
			c0.057,2.244,0.084,4.768,0.084,6.619h0.057c1.682-2.889,3.561-5.945,5.215-8.975h0.701c0.309,3.141,0.563,6.395,0.898,9.619
			H91.662z"/>
		<path fill="#323031" d="M107.734,21.428c-2.469,2.636-4.572,3.168-5.918,3.168c-1.289,0-3.084-0.757-3.084-4.094
			c0-2.637,1.148-5.582,3.365-7.264c1.205-0.926,2.691-1.57,3.869-1.57c1.486,0,2.469,1.037,2.469,2.243
			c0,2.776-4.711,4.29-7.404,4.964c-0.057,0.336-0.057,0.617-0.057,0.897c0,1.515,0.477,3.169,2.188,3.169
			c1.178,0,2.693-0.785,4.096-2.159L107.734,21.428z M103.779,13.154c-0.756,0.42-2.158,1.71-2.637,4.852
			c4.012-1.066,5.189-2.355,5.189-3.646c0-0.981-0.59-1.543-1.402-1.543C104.537,12.816,104.088,12.957,103.779,13.154z"/>
		<path fill="#323031" d="M115.477,22.577c-0.027-0.478,0.336-0.897,0.813-1.179c0.338-0.168,0.563-0.111,0.701,0.085
			c0.73,1.094,1.768,1.71,2.693,1.71c1.121,0,1.852-0.785,1.852-1.682c0-0.701-0.309-1.318-1.627-2.356
			c-1.262-0.954-2.439-1.991-2.439-3.421c0-0.842,0.336-1.739,1.457-2.721c0.869-0.758,2.217-1.346,3.113-1.346
			c1.234,0,2.188,0.841,2.188,1.57c0,0.477-0.279,0.896-0.701,1.149c-0.279,0.169-0.449,0.112-0.617-0.112
			c-0.561-0.701-1.234-1.262-2.188-1.262c-0.813,0-1.514,0.617-1.514,1.57c0,1.01,0.813,1.711,1.822,2.496
			c1.684,1.262,2.355,2.075,2.355,3.281c0,2.131-2.805,4.234-5.076,4.234C116.99,24.596,115.477,23.559,115.477,22.577z"/>
		<path fill="#323031" d="M130.539,12.004c0.785-0.225,1.85-0.336,2.607-0.336c2.889,0,4.039,1.373,4.039,3.869
			c0,1.852-0.785,3.982-2.385,5.807c-1.402,1.57-3.422,2.804-5.217,3.252c-0.447,0-1.121-0.056-1.654-0.279l-0.785,3.954
			c-0.336,1.599-0.168,1.851,1.207,1.991l0.672,0.057l-0.084,0.729l-6.479,0.336l0.113-0.729c1.766-0.336,2.074-0.561,2.467-2.3
			c1.039-4.908,2.104-9.815,3.141-14.668c-0.896,0.28-1.625,0.673-2.271,1.01l-0.195-0.701c0.758-0.532,1.766-1.038,2.691-1.402
			l0.309-1.263c0.533-0.616,1.402-1.262,2.049-1.626l0.279,0.14L130.539,12.004z M128.379,22.408
			c0.309,0.422,1.066,0.954,1.738,0.954c1.992,0,4.713-3.786,4.713-7.376c0-2.496-1.318-3.113-2.945-3.113
			c-0.449,0-1.066,0.057-1.6,0.196L128.379,22.408z"/>
		<path fill="#323031" d="M139.15,20.221c0-3.646,1.936-6.422,4.262-7.656c1.01-0.533,2.16-0.896,3.029-0.896
			c2.328,0,3.73,1.598,3.73,4.375c0,2.411-1.037,5.16-3,6.787c-1.207,1.009-2.75,1.766-4.32,1.766
			C140.188,24.596,139.15,22.492,139.15,20.221z M144.76,23.307c1.514-0.646,3.057-3.618,3.057-7.208
			c0-2.272-0.982-3.366-2.271-3.366c-0.422,0-0.758,0.113-1.066,0.253c-1.094,0.478-2.973,2.776-2.973,7.096
			c0,2.075,0.869,3.394,2.355,3.394C144.197,23.475,144.479,23.418,144.76,23.307z"/>
		<path fill="#323031" d="M163.521,22.044c-1.316,2.075-2.496,2.552-3.084,2.552c-0.59,0-1.15-0.336-1.852-1.851
			c-0.672-1.431-1.43-3.226-2.131-5.216c-0.73,0.757-1.291,1.318-1.57,1.795c-0.309,1.514-0.646,3.141-0.955,4.739
			c-0.729,0.14-1.43,0.309-2.018,0.532l-0.197-0.168c1.346-5.721,2.609-11.358,3.814-17.191c0.225-1.122,0.084-1.234-1.01-1.262
			l-0.869-0.029l0.141-0.672c2.271-0.253,3.758-0.982,4.123-0.982c0.279,0,0.252,0.252,0.139,0.813
			c-0.953,4.179-1.85,8.302-2.805,12.48h0.029c0.869-1.038,1.598-1.739,2.412-2.524c1.57-1.598,3.617-3.393,4.908-3.393
			c0.756,0,1.178,0.448,1.178,0.869c0,0.336-0.281,0.841-0.563,1.121c-0.168,0.141-0.336,0.197-0.447,0.141
			c-0.254-0.112-0.59-0.225-1.066-0.225c-1.289,0-2.861,1.459-3.646,2.328c0.506,1.767,1.627,4.291,2.301,5.525
			c0.504,1.037,0.785,1.346,1.094,1.346c0.279,0,0.896-0.477,1.598-1.29L163.521,22.044z"/>
		<path fill="#323031" d="M174.041,21.428c-2.467,2.636-4.57,3.168-5.916,3.168c-1.291,0-3.086-0.757-3.086-4.094
			c0-2.637,1.15-5.582,3.365-7.264c1.207-0.926,2.693-1.57,3.871-1.57c1.486,0,2.467,1.037,2.467,2.243
			c0,2.776-4.711,4.29-7.402,4.964c-0.057,0.336-0.057,0.617-0.057,0.897c0,1.515,0.477,3.169,2.188,3.169
			c1.178,0,2.691-0.785,4.094-2.159L174.041,21.428z M170.088,13.154c-0.758,0.42-2.16,1.71-2.637,4.852
			c4.01-1.066,5.188-2.355,5.188-3.646c0-0.981-0.588-1.543-1.402-1.543C170.844,12.816,170.396,12.957,170.088,13.154z"/>
		<path fill="#323031" d="M195.021,21.764c-1.486,1.768-3.338,2.832-4.123,2.832c-0.561,0-0.953-0.448-0.504-2.607l0.504-2.385
			l-0.055,0.029c-1.264,1.682-2.721,2.916-3.703,3.674c-1.037,0.841-1.936,1.289-2.721,1.289c-0.926,0-1.822-1.121-1.822-3.365
			c0-2.636,1.205-5.637,3.254-7.404c1.318-1.149,3.645-2.158,4.963-2.158c0.393,0,0.953,0.027,1.654,0.308l0.926-4.628
			c0.254-1.262,0.168-1.373-1.064-1.373h-0.898l0.084-0.701c2.355-0.281,3.871-0.982,4.291-0.982c0.252,0,0.309,0.225,0.197,0.785
			c-1.318,5.609-2.496,11.051-3.479,16.491c-0.141,0.673-0.084,0.925,0.113,0.925c0.336,0,1.232-0.616,1.99-1.373L195.021,21.764z
			 M191.236,17.613l0.896-4.011c-0.42-0.393-1.43-0.729-2.271-0.729c-0.869,0-1.459,0.225-1.963,0.59
			c-1.879,1.346-2.973,4.879-2.973,7.234c0,1.432,0.393,2.076,0.869,2.076C187.225,22.773,190.311,19.296,191.236,17.613z"/>
		<path fill="#323031" d="M196.875,20.221c0-3.646,1.936-6.422,4.262-7.656c1.01-0.533,2.16-0.896,3.029-0.896
			c2.328,0,3.73,1.598,3.73,4.375c0,2.411-1.037,5.16-3,6.787c-1.207,1.009-2.75,1.766-4.32,1.766
			C197.912,24.596,196.875,22.492,196.875,20.221z M202.484,23.307c1.514-0.646,3.057-3.618,3.057-7.208
			c0-2.272-0.982-3.366-2.271-3.366c-0.422,0-0.758,0.113-1.066,0.253c-1.094,0.478-2.973,2.776-2.973,7.096
			c0,2.075,0.869,3.394,2.355,3.394C201.922,23.475,202.203,23.418,202.484,23.307z"/>
		<path fill="#323031" d="M222.117,12.313c-0.814,0.897-1.543,1.234-1.992,1.318c-0.225,0.056-0.42,0.084-0.729,0.084
			c0.141,0.393,0.225,0.813,0.225,1.57c0,1.991-1.094,3.478-2.131,4.291c-0.758,0.617-2.02,1.318-3.619,1.627
			c-0.336,0.28-0.561,0.561-0.561,0.896c0,0.422,0.674,0.926,2.02,1.627c2.691,1.431,3.785,2.524,3.785,3.73
			c0,2.328-3.926,4.01-6.617,4.01c-2.721,0-5.078-1.401-5.021-3.141c0.029-1.205,1.627-2.468,4.713-4.039
			c-0.701-0.448-1.066-1.009-1.039-1.373c0-0.449,0.393-0.954,1.711-1.739c-1.598-0.364-2.439-1.515-2.439-3.421
			c0-1.824,0.926-3.563,2.355-4.685c1.15-0.925,2.58-1.401,3.59-1.401c0.898,0,1.768,0.252,2.385,0.785
			c1.627-0.029,2.635-0.337,3.168-0.674L222.117,12.313z M217.068,28.215c0-0.758-0.758-1.459-2.047-2.217
			c-0.926-0.561-1.711-1.01-2.104-1.205c-1.879,0.896-3.113,2.02-3.113,3.057c0,1.43,1.852,2.439,3.814,2.439
			C215.723,30.289,217.068,29.309,217.068,28.215z M217.545,15.369c0-1.599-0.645-2.721-1.879-2.721
			c-0.813,0-1.543,0.506-2.047,1.263c-0.59,0.841-1.066,2.132-1.066,3.646c0,1.654,0.814,2.524,1.824,2.524
			C215.863,20.081,217.545,18.37,217.545,15.369z"/>
		<path fill="#323031" d="M221.445,23.139c0-1.01,0.674-1.74,1.627-1.74c0.785,0,1.346,0.646,1.346,1.487
			c0,1.122-0.785,1.71-1.598,1.71C222.006,24.596,221.445,23.979,221.445,23.139z"/>
		<path fill="#323031" d="M228.037,23.139c0-1.01,0.674-1.74,1.627-1.74c0.785,0,1.346,0.646,1.346,1.487
			c0,1.122-0.785,1.71-1.598,1.71C228.598,24.596,228.037,23.979,228.037,23.139z"/>
		<path fill="#323031" d="M234.629,23.139c0-1.01,0.674-1.74,1.627-1.74c0.785,0,1.346,0.646,1.346,1.487
			c0,1.122-0.785,1.71-1.598,1.71C235.189,24.596,234.629,23.979,234.629,23.139z"/>
	</g>
	<g>
		<path fill="#D1232A" d="M28.13,40.643c-1.852,0.281-2.02,0.365-3.169,2.609c-1.066,2.02-3.534,7.319-7.152,15.145h-0.869
			l-2.271-13.911h-0.084L7.881,58.396H7.012L5.329,43.336c-0.253-2.385-0.365-2.469-2.272-2.693l0.169-0.729h6.338l-0.196,0.729
			l-0.701,0.113c-1.122,0.168-1.29,0.309-1.122,1.851L8.75,54.33h0.057l6.646-14.08h0.813l2.328,14.107h0.056
			c1.739-3.814,4.15-8.946,5.217-11.779c0.561-1.402,0.393-1.627-1.01-1.822l-0.729-0.113l0.168-0.729h6.002L28.13,40.643z"/>
		<path fill="#D1232A" d="M34.274,55.283c-2.468,2.637-4.571,3.169-5.917,3.169c-1.29,0-3.085-0.757-3.085-4.095
			c0-2.637,1.149-5.581,3.365-7.264c1.206-0.926,2.692-1.57,3.87-1.57c1.486,0,2.468,1.037,2.468,2.244
			c0,2.775-4.711,4.29-7.403,4.963c-0.057,0.337-0.057,0.617-0.057,0.898c0,1.514,0.477,3.168,2.188,3.168
			c1.178,0,2.692-0.785,4.095-2.158L34.274,55.283z M30.32,47.01c-0.757,0.42-2.159,1.711-2.637,4.852
			c4.011-1.065,5.188-2.355,5.188-3.646c0-0.981-0.589-1.543-1.402-1.543C31.077,46.673,30.629,46.813,30.32,47.01z"/>
		<path fill="#D1232A" d="M51.524,55.34c-1.738,1.99-3.954,3.112-5.608,3.112c-1.795,0-3.001-1.431-3.001-4.122
			c0-2.328,1.094-5.076,2.889-6.731c1.149-1.01,3.112-2.075,4.487-2.075c1.206,0,2.104,0.701,2.131,1.402
			c0,0.42-0.28,0.953-0.925,1.29c-0.225,0.14-0.421,0.084-0.617-0.169c-0.589-0.813-1.234-1.205-2.104-1.205
			c-1.01,0-1.795,0.841-2.328,1.851c-0.701,1.263-1.233,3.169-1.233,5.076c0,1.991,0.785,3.028,1.991,3.028
			c1.43,0,3.141-1.289,3.897-2.074L51.524,55.34z"/>
		<path fill="#D1232A" d="M53.518,54.077c0-3.646,1.936-6.423,4.263-7.656c1.01-0.533,2.16-0.897,3.029-0.897
			c2.328,0,3.73,1.599,3.73,4.375c0,2.412-1.038,5.16-3.001,6.787c-1.206,1.01-2.749,1.767-4.319,1.767
			C54.556,58.452,53.518,56.349,53.518,54.077z M59.127,57.162c1.515-0.645,3.057-3.617,3.057-7.207
			c0-2.272-0.981-3.366-2.271-3.366c-0.421,0-0.757,0.112-1.065,0.253c-1.094,0.477-2.974,2.775-2.974,7.096
			c0,2.074,0.87,3.393,2.356,3.393C58.565,57.33,58.847,57.274,59.127,57.162z"/>
		<path fill="#D1232A" d="M79.322,55.592c-1.347,1.627-3.197,2.86-4.066,2.86c-0.589,0-0.981-0.532-0.421-2.973
			c0.225-0.981,0.337-1.542,0.533-2.468h-0.057c-1.374,1.822-3.028,3.533-4.516,4.571c-0.785,0.561-1.599,0.869-2.271,0.869
			c-0.757,0-1.654-0.532-0.925-3.562c0.504-2.16,1.009-4.319,1.514-6.451c0.169-0.701,0.141-0.953-0.084-0.953
			c-0.196,0-0.981,0.561-1.963,1.346l-0.309-0.672c1.627-1.627,3.365-2.637,4.123-2.637c0.645,0,0.757,0.561,0.309,2.439
			c-0.505,2.216-1.01,4.488-1.543,6.731c-0.309,1.374-0.084,1.851,0.337,1.851c1.57,0,4.711-3.758,5.805-5.805
			c0.309-1.291,0.646-2.777,1.01-4.488l1.936-0.729h0.309c-0.758,2.973-1.486,6.113-2.188,9.76
			c-0.169,0.869-0.112,1.094,0.084,1.094c0.252,0,1.262-0.674,2.02-1.459L79.322,55.592z"/>
		<path fill="#D1232A" d="M86.447,55.451c-1.458,1.739-3.449,3.001-4.318,3.001c-0.533,0-0.982-0.646-0.393-3.394
			c0.981-4.6,1.963-9.199,2.916-13.826c0.281-1.206,0.112-1.402-1.178-1.402l-0.757-0.028l0.112-0.673
			c2.188-0.252,3.786-0.981,4.15-0.981c0.252,0,0.28,0.252,0.168,0.841c-1.149,5.413-2.3,10.854-3.478,16.407
			c-0.168,0.813-0.056,0.981,0.112,0.981c0.309,0,1.458-0.729,2.244-1.543L86.447,55.451z"/>
		<path fill="#D1232A" d="M100.472,55.619c-1.486,1.768-3.338,2.833-4.123,2.833c-0.561,0-0.953-0.448-0.505-2.608l0.505-2.384
			l-0.056,0.028c-1.263,1.683-2.721,2.916-3.702,3.674c-1.038,0.842-1.936,1.29-2.721,1.29c-0.926,0-1.823-1.122-1.823-3.365
			c0-2.636,1.206-5.638,3.254-7.404c1.318-1.149,3.646-2.159,4.964-2.159c0.393,0,0.954,0.027,1.654,0.309l0.926-4.628
			c0.253-1.262,0.169-1.374-1.065-1.374h-0.897l0.084-0.701c2.355-0.281,3.87-0.981,4.291-0.981c0.252,0,0.309,0.224,0.196,0.785
			c-1.318,5.608-2.496,11.05-3.478,16.491c-0.141,0.673-0.084,0.925,0.112,0.925c0.336,0,1.233-0.616,1.991-1.374L100.472,55.619z
			 M96.686,51.469l0.897-4.01c-0.421-0.393-1.431-0.73-2.271-0.73c-0.87,0-1.459,0.225-1.964,0.59
			c-1.879,1.346-2.973,4.88-2.973,7.235c0,1.431,0.393,2.075,0.869,2.075C92.675,56.629,95.76,53.152,96.686,51.469z"/>
		<path fill="#D1232A" d="M107.906,56.434c-0.028-0.478,0.336-0.898,0.813-1.179c0.337-0.168,0.562-0.112,0.701,0.085
			c0.729,1.094,1.768,1.71,2.692,1.71c1.122,0,1.852-0.785,1.852-1.683c0-0.701-0.309-1.318-1.627-2.355
			c-1.262-0.954-2.439-1.992-2.439-3.422c0-0.842,0.336-1.738,1.458-2.721c0.869-0.757,2.216-1.346,3.113-1.346
			c1.233,0,2.188,0.842,2.188,1.57c0,0.477-0.28,0.897-0.701,1.15c-0.28,0.168-0.449,0.111-0.617-0.113
			c-0.561-0.701-1.234-1.262-2.188-1.262c-0.813,0-1.515,0.617-1.515,1.57c0,1.01,0.813,1.711,1.823,2.496
			c1.683,1.263,2.355,2.076,2.355,3.281c0,2.132-2.805,4.235-5.076,4.235C109.42,58.452,107.906,57.414,107.906,56.434z"/>
		<path fill="#D1232A" d="M125.519,46.926l-2.776,0.141l-1.654,7.74c-0.281,1.374-0.141,1.683,0.168,1.683
			c0.477,0,1.851-0.926,2.524-1.627l0.393,0.589c-0.926,1.122-3.029,3.001-4.516,3.001c-0.646,0-1.206-0.813-0.589-3.702
			l1.654-7.684h-2.075l-0.084-0.253l0.701-0.841h1.683l0.646-2.665l2.131-1.739l0.253,0.169l-0.981,4.235h3.253L125.519,46.926z"/>
		<path fill="#D1232A" d="M126.39,54.077c0-3.646,1.936-6.423,4.263-7.656c1.01-0.533,2.16-0.897,3.029-0.897
			c2.328,0,3.73,1.599,3.73,4.375c0,2.412-1.038,5.16-3.001,6.787c-1.206,1.01-2.749,1.767-4.319,1.767
			C127.428,58.452,126.39,56.349,126.39,54.077z M131.999,57.162c1.515-0.645,3.057-3.617,3.057-7.207
			c0-2.272-0.981-3.366-2.271-3.366c-0.421,0-0.757,0.112-1.065,0.253c-1.094,0.477-2.974,2.775-2.974,7.096
			c0,2.074,0.87,3.393,2.356,3.393C131.438,57.33,131.719,57.274,131.999,57.162z"/>
		<path fill="#D1232A" d="M144.257,45.859c0.785-0.225,1.851-0.336,2.608-0.336c2.889,0,4.038,1.374,4.038,3.87
			c0,1.851-0.785,3.982-2.384,5.806c-1.402,1.57-3.422,2.805-5.217,3.253c-0.448,0-1.121-0.056-1.654-0.28l-0.785,3.955
			c-0.337,1.598-0.168,1.85,1.206,1.99l0.673,0.057l-0.084,0.729l-6.479,0.337l0.112-0.729c1.767-0.336,2.075-0.561,2.468-2.299
			c1.038-4.908,2.104-9.816,3.141-14.668c-0.897,0.279-1.626,0.673-2.271,1.01l-0.196-0.701c0.758-0.533,1.767-1.038,2.692-1.402
			l0.309-1.263c0.533-0.616,1.402-1.262,2.048-1.626l0.28,0.14L144.257,45.859z M142.098,56.265
			c0.308,0.421,1.065,0.954,1.738,0.954c1.991,0,4.712-3.787,4.712-7.377c0-2.496-1.318-3.113-2.945-3.113
			c-0.448,0-1.065,0.057-1.599,0.197L142.098,56.265z"/>
		<path fill="#D1232A" d="M171.154,55.535c-1.515,1.879-3.394,2.917-4.095,2.917c-0.532,0-0.897-0.421-0.505-2.468l0.562-2.664
			h-0.057c-1.094,1.542-2.412,2.889-3.617,3.87c-0.926,0.757-1.852,1.262-2.608,1.262c-0.729,0-1.627-0.925-1.627-3.169
			c0-2.832,1.318-5.89,3.365-7.601c1.402-1.178,3.45-2.159,5.217-2.159c0.589,0,1.149,0.084,1.739,0.196
			c0.393,0.084,0.757,0.168,1.065,0.168L170.678,46c-0.449,1.738-1.29,5.553-1.936,9.115c-0.196,0.981-0.111,1.205,0.057,1.205
			c0.225,0,1.206-0.645,2.02-1.458L171.154,55.535z M167.509,51.16c0.309-1.121,0.729-3.141,0.925-4.038
			c-0.393-0.196-1.149-0.394-1.879-0.394c-0.729,0-1.514,0.225-1.991,0.59c-1.907,1.402-3.028,4.711-3.028,7.488
			c0,1.262,0.364,1.851,0.757,1.851C163.386,56.657,166.555,53.096,167.509,51.16z"/>
		<path fill="#D1232A" d="M185.291,55.732c-1.655,1.795-3.226,2.72-3.955,2.72c-0.701,0-0.953-0.757-0.448-2.917
			c0.533-2.104,1.01-4.15,1.515-6.226c0.393-1.599,0.225-2.02-0.225-2.02c-1.234,0-4.487,3.478-5.89,5.862
			c-0.337,1.373-0.757,3.057-1.094,4.739c-0.729,0.14-1.486,0.364-2.02,0.561l-0.168-0.224c0.757-3.029,1.599-6.395,2.271-9.508
			c0.225-0.898,0.141-1.122-0.028-1.122c-0.252,0-1.121,0.589-1.822,1.263l-0.365-0.674c1.515-1.654,3.17-2.664,3.955-2.664
			c0.645,0,0.757,0.953,0.225,3.113l-0.59,2.439h0.057c1.907-2.608,3.982-4.234,5.16-4.936c0.729-0.421,1.318-0.617,1.879-0.617
			c0.674,0,1.459,0.42,0.617,4.01c-0.448,1.908-0.897,3.871-1.374,5.834c-0.168,0.758-0.141,1.01,0.056,1.01
			c0.253,0,1.01-0.505,1.852-1.318L185.291,55.732z"/>
		<path fill="#D1232A" d="M192.474,55.647c-0.926,1.149-3.113,2.805-4.095,2.805c-0.562,0-0.926-0.448-0.365-2.749l1.739-7.18
			c0.168-0.616,0.168-0.896-0.028-0.896c-0.225,0-1.065,0.477-1.907,1.205l-0.336-0.645c1.542-1.515,3.506-2.664,4.263-2.664
			c0.617,0,0.589,0.897,0.28,2.215l-1.935,7.741c-0.169,0.673-0.112,0.897,0.056,0.897c0.337,0,1.318-0.729,1.963-1.318
			L192.474,55.647z M193.202,41.4c0,0.869-0.645,1.627-1.486,1.627c-0.673,0-1.149-0.505-1.178-1.234
			c0-0.701,0.561-1.654,1.543-1.654C192.81,40.139,193.175,40.728,193.202,41.4z"/>
		<path fill="#D1232A" d="M214.153,55.76c-1.486,1.654-3.254,2.692-3.955,2.692s-0.925-0.841-0.448-2.889l1.542-6.479
			c0.309-1.374,0.141-1.823-0.28-1.823c-1.318,0-4.739,3.982-5.721,5.861c-0.337,1.318-0.758,3.197-1.095,4.824
			c-0.729,0.084-1.458,0.281-2.047,0.505l-0.168-0.196c0.701-2.832,1.43-5.693,2.019-8.414c0.393-1.906,0.365-2.58-0.224-2.58
			c-1.347,0-4.769,4.066-5.665,5.861c-0.365,1.263-0.786,3.142-1.15,4.824c-0.701,0.084-1.402,0.281-2.02,0.505l-0.196-0.196
			c0.842-3.169,1.627-6.366,2.328-9.535c0.225-1.01,0.168-1.206-0.028-1.206c-0.28,0-1.262,0.757-1.935,1.374l-0.337-0.673
			c1.57-1.683,3.226-2.692,3.954-2.692c0.729,0,0.813,1.037,0.225,3.449l-0.477,1.991h0.056c1.907-2.692,3.843-4.206,5.021-4.88
			c0.645-0.364,1.178-0.561,1.739-0.561c0.757,0,1.458,0.701,0.673,4.263l-0.253,1.149h0.057c1.907-2.664,3.926-4.207,5.132-4.879
			c0.701-0.393,1.178-0.533,1.711-0.533c0.561,0,1.486,0.336,0.589,4.066l-1.374,5.861c-0.168,0.701-0.112,0.897,0.056,0.897
			c0.225,0,1.094-0.505,1.907-1.262L214.153,55.76z"/>
		<path fill="#D1232A" d="M228.123,55.535c-1.515,1.879-3.394,2.917-4.095,2.917c-0.532,0-0.897-0.421-0.505-2.468l0.562-2.664
			h-0.057c-1.094,1.542-2.412,2.889-3.617,3.87c-0.926,0.757-1.852,1.262-2.608,1.262c-0.729,0-1.627-0.925-1.627-3.169
			c0-2.832,1.318-5.89,3.365-7.601c1.402-1.178,3.45-2.159,5.217-2.159c0.589,0,1.149,0.084,1.739,0.196
			c0.393,0.084,0.757,0.168,1.065,0.168L227.646,46c-0.449,1.738-1.29,5.553-1.936,9.115c-0.196,0.981-0.111,1.205,0.057,1.205
			c0.225,0,1.206-0.645,2.02-1.458L228.123,55.535z M224.478,51.16c0.309-1.121,0.729-3.141,0.925-4.038
			c-0.393-0.196-1.149-0.394-1.879-0.394c-0.729,0-1.514,0.225-1.991,0.59c-1.907,1.402-3.028,4.711-3.028,7.488
			c0,1.262,0.364,1.851,0.757,1.851C220.354,56.657,223.523,53.096,224.478,51.16z"/>
		<path fill="#D1232A" d="M234.996,55.451c-1.458,1.739-3.449,3.001-4.318,3.001c-0.533,0-0.982-0.646-0.393-3.394
			c0.981-4.6,1.963-9.199,2.916-13.826c0.281-1.206,0.112-1.402-1.178-1.402l-0.757-0.028l0.112-0.673
			c2.188-0.252,3.786-0.981,4.15-0.981c0.252,0,0.28,0.252,0.168,0.841c-1.149,5.413-2.3,10.854-3.478,16.407
			c-0.168,0.813-0.056,0.981,0.112,0.981c0.309,0,1.458-0.729,2.244-1.543L234.996,55.451z"/>
		<path fill="#D1232A" d="M255.836,55.732c-1.655,1.795-3.226,2.72-3.955,2.72c-0.701,0-0.953-0.757-0.448-2.917
			c0.533-2.104,1.01-4.15,1.515-6.226c0.393-1.599,0.225-2.02-0.225-2.02c-1.234,0-4.487,3.478-5.89,5.862
			c-0.337,1.373-0.757,3.057-1.094,4.739c-0.729,0.14-1.486,0.364-2.02,0.561l-0.168-0.224c0.757-3.029,1.599-6.395,2.271-9.508
			c0.225-0.898,0.141-1.122-0.028-1.122c-0.252,0-1.121,0.589-1.822,1.263l-0.365-0.674c1.515-1.654,3.17-2.664,3.955-2.664
			c0.645,0,0.757,0.953,0.225,3.113l-0.59,2.439h0.057c1.907-2.608,3.982-4.234,5.16-4.936c0.729-0.421,1.318-0.617,1.879-0.617
			c0.674,0,1.459,0.42,0.617,4.01c-0.448,1.908-0.897,3.871-1.374,5.834c-0.168,0.758-0.141,1.01,0.056,1.01
			c0.253,0,1.01-0.505,1.852-1.318L255.836,55.732z"/>
		<path fill="#D1232A" d="M266.944,55.283c-2.468,2.637-4.571,3.169-5.917,3.169c-1.29,0-3.085-0.757-3.085-4.095
			c0-2.637,1.149-5.581,3.365-7.264c1.206-0.926,2.692-1.57,3.87-1.57c1.486,0,2.468,1.037,2.468,2.244
			c0,2.775-4.711,4.29-7.403,4.963c-0.057,0.337-0.057,0.617-0.057,0.898c0,1.514,0.477,3.168,2.188,3.168
			c1.178,0,2.692-0.785,4.095-2.158L266.944,55.283z M262.99,47.01c-0.757,0.42-2.159,1.711-2.637,4.852
			c4.011-1.065,5.188-2.355,5.188-3.646c0-0.981-0.589-1.543-1.402-1.543C263.747,46.673,263.299,46.813,262.99,47.01z"/>
		<path fill="#D1232A" d="M281.024,46.168c-0.813,0.898-1.542,1.234-1.991,1.318c-0.225,0.057-0.421,0.084-0.729,0.084
			c0.141,0.393,0.225,0.813,0.225,1.57c0,1.992-1.094,3.479-2.131,4.291c-0.758,0.617-2.02,1.318-3.618,1.627
			c-0.337,0.281-0.562,0.561-0.562,0.897c0,0.421,0.674,0.926,2.02,1.627c2.692,1.431,3.786,2.524,3.786,3.729
			c0,2.328-3.926,4.011-6.618,4.011c-2.721,0-5.077-1.401-5.021-3.142c0.028-1.205,1.627-2.467,4.712-4.038
			c-0.701-0.448-1.066-1.009-1.038-1.374c0-0.449,0.393-0.953,1.711-1.738c-1.599-0.365-2.44-1.516-2.44-3.422
			c0-1.823,0.926-3.563,2.356-4.684c1.149-0.926,2.58-1.402,3.59-1.402c0.897,0,1.767,0.252,2.384,0.785
			c1.627-0.028,2.636-0.336,3.169-0.674L281.024,46.168z M275.977,62.07c0-0.758-0.758-1.459-2.048-2.216
			c-0.925-0.562-1.711-1.01-2.104-1.206c-1.879,0.897-3.112,2.02-3.112,3.057c0,1.431,1.851,2.44,3.813,2.44
			C274.63,64.146,275.977,63.164,275.977,62.07z M276.453,49.225c0-1.598-0.646-2.72-1.879-2.72c-0.813,0-1.543,0.505-2.048,1.263
			c-0.589,0.841-1.065,2.131-1.065,3.645c0,1.655,0.813,2.525,1.823,2.525C274.771,53.938,276.453,52.227,276.453,49.225z"/>
		<path fill="#D1232A" d="M285.906,55.451c-1.458,1.739-3.449,3.001-4.318,3.001c-0.533,0-0.982-0.646-0.393-3.394
			c0.981-4.6,1.963-9.199,2.916-13.826c0.281-1.206,0.112-1.402-1.178-1.402l-0.757-0.028l0.112-0.673
			c2.188-0.252,3.786-0.981,4.15-0.981c0.252,0,0.28,0.252,0.168,0.841c-1.149,5.413-2.3,10.854-3.478,16.407
			c-0.168,0.813-0.056,0.981,0.112,0.981c0.309,0,1.458-0.729,2.244-1.543L285.906,55.451z"/>
		<path fill="#D1232A" d="M296.593,55.283c-2.468,2.637-4.571,3.169-5.917,3.169c-1.29,0-3.085-0.757-3.085-4.095
			c0-2.637,1.149-5.581,3.365-7.264c1.206-0.926,2.692-1.57,3.87-1.57c1.486,0,2.468,1.037,2.468,2.244
			c0,2.775-4.711,4.29-7.403,4.963c-0.057,0.337-0.057,0.617-0.057,0.898c0,1.514,0.477,3.168,2.188,3.168
			c1.178,0,2.692-0.785,4.095-2.158L296.593,55.283z M292.639,47.01c-0.757,0.42-2.159,1.711-2.637,4.852
			c4.011-1.065,5.188-2.355,5.188-3.646c0-0.981-0.589-1.543-1.402-1.543C293.396,46.673,292.947,46.813,292.639,47.01z"/>
		<path fill="#D1232A" d="M307.252,55.34c-1.738,1.99-3.954,3.112-5.608,3.112c-1.795,0-3.001-1.431-3.001-4.122
			c0-2.328,1.094-5.076,2.889-6.731c1.149-1.01,3.112-2.075,4.487-2.075c1.206,0,2.104,0.701,2.131,1.402
			c0,0.42-0.28,0.953-0.925,1.29c-0.225,0.14-0.421,0.084-0.617-0.169c-0.589-0.813-1.234-1.205-2.104-1.205
			c-1.01,0-1.795,0.841-2.328,1.851c-0.701,1.263-1.233,3.169-1.233,5.076c0,1.991,0.785,3.028,1.991,3.028
			c1.43,0,3.141-1.289,3.898-2.074L307.252,55.34z"/>
		<path fill="#D1232A" d="M316.984,46.926l-2.776,0.141l-1.654,7.74c-0.28,1.374-0.141,1.683,0.168,1.683
			c0.477,0,1.851-0.926,2.524-1.627l0.393,0.589c-0.926,1.122-3.029,3.001-4.516,3.001c-0.645,0-1.206-0.813-0.589-3.702
			l1.654-7.684h-2.075l-0.084-0.253l0.701-0.841h1.683l0.646-2.665l2.131-1.739l0.253,0.169l-0.981,4.235h3.253L316.984,46.926z"/>
		<path fill="#D1232A" d="M318.191,56.91c0-1.066,0.729-1.852,1.711-1.852c0.842,0,1.459,0.674,1.459,1.599
			c0,1.149-0.842,1.795-1.739,1.795C318.781,58.452,318.191,57.807,318.191,56.91z M324.418,40.307
			c-0.084,0.449-0.28,1.066-0.589,2.216c-0.981,3.394-1.851,6.702-2.833,10.097c-0.168,0.195-0.785,0.195-0.869,0
			c0.364-3.365,0.729-6.703,1.038-10.068c0.112-1.178,0.196-1.823,0.252-2.271c0.112-0.59,0.646-0.786,1.683-0.786
			C324.109,39.493,324.53,39.746,324.418,40.307z"/>
	</g>
</g>
<g id="_x3C_Layer_x3E_">
</g>
</svg>
