<?xml version="1.0" encoding="utf-8"?>
<!-- Generator: Adobe Illustrator 16.0.0, SVG Export Plug-In . SVG Version: 6.00 Build 0)  -->
<!DOCTYPE svg PUBLIC "-//W3C//DTD SVG 1.1//EN" "http://www.w3.org/Graphics/SVG/1.1/DTD/svg11.dtd">
<svg version="1.1" xmlns="http://www.w3.org/2000/svg" xmlns:xlink="http://www.w3.org/1999/xlink" x="0px" y="0px"
	 width="307.823px" height="80.773px" viewBox="0 0 307.823 80.773" enable-background="new 0 0 307.823 80.773"
	 xml:space="preserve">
<g id="Layer_1">
	<g>
		<path fill="#323031" d="M59.165,26.235c-4.251,0.681-5.016,1.7-6.801,6.376c-2.551,6.715-6.291,18.021-10.201,29.582h-2.38
			c-3.4-9.181-6.886-17.512-10.371-26.438c-3.23,8.501-6.715,17.002-10.03,26.438h-2.466c-3.06-10.115-6.29-20.146-9.775-30.348
			c-1.53-4.42-2.295-5.016-6.376-5.61V24.11h17.597v2.125c-5.101,0.851-5.525,1.36-4.25,5.186c1.955,6.546,4.08,13.261,6.205,19.807
			h0.17c3.146-8.161,6.291-16.917,9.861-26.692h2.21c3.146,8.841,6.631,17.852,10.201,26.947h0.17
			c1.87-5.865,4.25-13.261,5.78-19.551c1.104-4.421,0.595-4.932-4.931-5.696V24.11h15.387V26.235z"/>
		<path fill="#323031" d="M84.491,61.258v-2.209c4.931-0.511,5.61-1.021,5.61-6.547v-14.11c0-6.971-2.635-10.456-8.33-10.456
			c-3.23,0-6.461,1.615-8.841,4.336v20.23c0,5.441,0.425,6.036,5.44,6.547v2.209H60.35v-2.209c5.101-0.426,5.865-0.936,5.865-6.547
			V11.955c0-5.355-0.17-5.781-5.78-6.291V3.709c4.08-0.596,9.181-1.955,12.496-2.976v28.563c2.975-3.061,7.565-6.206,12.155-6.206
			c6.886,0,11.731,4.336,11.731,14.537v14.875c0,5.611,0.595,6.121,5.61,6.547v2.209H84.491z"/>
		<path fill="#323031" d="M106.929,61.258v-2.209c5.355-0.511,5.951-1.021,5.951-6.801V34.736c0-5.271-0.255-5.61-5.355-6.461v-2.04
			c4.335-0.68,8.33-1.785,12.07-3.315v29.328c0,5.779,0.596,6.29,6.036,6.801v2.209H106.929z M111.435,11.359
			c0-2.551,2.04-4.42,4.335-4.42c2.381,0,4.251,1.869,4.251,4.42c0,2.295-1.87,4.336-4.336,4.336
			C113.475,15.695,111.435,13.654,111.435,11.359z"/>
		<path fill="#323031" d="M176.547,61.258v-2.209c5.016-0.511,5.951-0.851,5.951-6.887V37.967c0-6.035-2.126-9.861-7.481-9.861
			c-3.06,0-6.29,1.7-9.521,4.42c0.17,1.021,0.255,1.955,0.255,3.57v16.577c0,5.354,0.766,5.865,5.44,6.376v2.209H153v-2.209
			c5.271-0.511,6.036-0.936,6.036-6.547V37.881c0-6.29-2.211-9.775-7.396-9.775c-3.4,0-6.716,2.295-9.267,4.42v19.977
			c0,5.525,0.681,6.036,4.846,6.547v2.209h-17.937v-2.209c5.61-0.511,6.376-1.021,6.376-6.547V34.906
			c0-5.44-0.255-5.865-5.186-6.631V26.32c3.74-0.68,8.075-1.785,11.815-3.484v6.885c1.785-1.189,3.655-2.721,6.206-4.336
			c2.21-1.359,4.25-2.295,6.971-2.295c4.08,0,7.735,2.551,9.436,6.971c2.465-1.869,4.931-3.484,7.056-4.76
			c1.785-1.19,3.995-2.211,6.375-2.211c6.631,0,10.796,4.676,10.796,13.006v16.406c0,5.696,0.681,6.036,5.525,6.547v2.209H176.547z"
			/>
		<path fill="#323031" d="M217.259,24.365c1.53-0.85,3.146-1.275,4.166-1.275c9.436,0,15.046,7.65,15.046,16.066
			c0,12.836-10.116,21.082-21.167,23.122c-2.465-0.085-4.76-0.935-5.865-1.53v11.137c0,6.46,0.595,6.885,7.226,7.479v2.296h-20.146
			v-2.296c5.44-0.51,6.205-1.02,6.205-6.63V34.311c0-5.525-0.34-5.695-5.61-6.375v-2.04c3.57-0.595,8.331-2.04,12.326-3.655v6.715
			L217.259,24.365z M209.438,54.798c1.87,1.955,5.101,3.315,7.99,3.315c7.141,0,11.901-6.121,11.901-15.727
			c0-9.096-5.186-14.195-11.391-14.195c-2.721,0-6.206,1.869-8.501,3.569V54.798z"/>
		<path fill="#323031" d="M273.868,54.033c-5.355,6.715-11.222,8.245-13.856,8.245c-10.456,0-16.576-8.501-16.576-18.106
			c0-5.865,2.125-11.051,5.61-14.876c3.485-3.911,8.075-6.206,12.496-6.206c7.056,0,12.751,6.291,12.751,12.922
			c0,1.699-0.425,2.38-1.955,2.72c-1.445,0.255-12.071,1.104-22.188,1.445c0.085,11.561,6.716,16.321,12.666,16.321
			c3.4,0,6.631-1.36,9.691-4.25L273.868,54.033z M250.576,36.691c4.76,0,9.436-0.085,14.366-0.255c1.529,0,2.04-0.511,2.04-1.7
			c0.085-4.42-2.806-8.501-7.48-8.501C255.591,26.235,251.851,29.806,250.576,36.691z"/>
		<path fill="#323031" d="M291.971,32.102c2.55-4.251,6.205-9.012,10.285-9.012c2.891,0,4.931,2.211,4.931,4.251
			c0,1.7-1.105,3.399-2.721,4.165c-1.02,0.426-1.785,0.34-2.295-0.17c-1.189-1.275-2.21-1.785-3.57-1.785
			c-2.21,0-4.93,2.551-6.801,7.311v15.557c0,5.609,0.426,6.12,6.971,6.631v2.209H279.22v-2.209c5.27-0.511,5.865-1.021,5.865-6.631
			V34.821c0-5.61-0.425-5.95-5.271-6.63V26.32c4.165-0.68,7.905-1.699,11.985-3.484v9.266H291.971z"/>
	</g>
</g>
<g id="_x3C_Layer_x3E_">
</g>
</svg>
