<?xml version="1.0" encoding="utf-8"?>
<!-- Generator: Adobe Illustrator 16.0.0, SVG Export Plug-In . SVG Version: 6.00 Build 0)  -->
<!DOCTYPE svg PUBLIC "-//W3C//DTD SVG 1.1//EN" "http://www.w3.org/Graphics/SVG/1.1/DTD/svg11.dtd">
<svg version="1.1" xmlns="http://www.w3.org/2000/svg" xmlns:xlink="http://www.w3.org/1999/xlink" x="0px" y="0px"
	 width="206.69px" height="80.773px" viewBox="0 0 206.69 80.773" enable-background="new 0 0 206.69 80.773" xml:space="preserve">
<g id="Layer_1">
	<g>
		<path fill="#323031" d="M59.165,25.89c-4.251,0.68-5.016,1.7-6.801,6.375c-2.551,6.716-6.291,18.021-10.201,29.583h-2.38
			c-3.4-9.181-6.886-17.511-10.371-26.437c-3.23,8.5-6.715,17.001-10.03,26.437h-2.466c-3.06-10.116-6.29-20.146-9.775-30.347
			c-1.53-4.42-2.295-5.016-6.376-5.611v-2.125h17.597v2.125c-5.101,0.85-5.525,1.36-4.25,5.186
			c1.955,6.545,4.08,13.261,6.205,19.807h0.17c3.146-8.161,6.291-16.917,9.861-26.692h2.21c3.146,8.84,6.631,17.851,10.201,26.947
			h0.17c1.87-5.865,4.25-13.261,5.78-19.551c1.104-4.42,0.595-4.931-4.931-5.696v-2.125h15.387V25.89z"/>
		<path fill="#323031" d="M84.491,60.913v-2.21c4.931-0.51,5.61-1.021,5.61-6.546V38.046c0-6.971-2.635-10.456-8.33-10.456
			c-3.23,0-6.461,1.615-8.841,4.335v20.231c0,5.44,0.425,6.036,5.44,6.546v2.21H60.35v-2.21c5.101-0.425,5.865-0.935,5.865-6.546
			V11.609c0-5.355-0.17-5.781-5.78-6.291V3.364c4.08-0.595,9.181-1.956,12.496-2.976v28.563c2.975-3.061,7.565-6.206,12.155-6.206
			c6.886,0,11.731,4.335,11.731,14.536v14.876c0,5.611,0.595,6.121,5.61,6.546v2.21H84.491z"/>
		<path fill="#323031" d="M106.93,60.913v-2.21c5.354-0.51,5.95-1.021,5.95-6.801V34.391c0-5.271-0.255-5.61-5.355-6.46V25.89
			c4.335-0.68,8.33-1.785,12.07-3.315v29.327c0,5.78,0.596,6.291,6.036,6.801v2.21H106.93z M111.435,11.014
			c0-2.55,2.04-4.42,4.335-4.42c2.381,0,4.251,1.87,4.251,4.42c0,2.295-1.87,4.335-4.336,4.335
			C113.475,15.35,111.435,13.31,111.435,11.014z"/>
		<path fill="#323031" d="M153.766,60.913v-2.21c5.016-0.51,5.61-1.19,5.61-7.056V37.451c0-5.865-2.04-9.691-7.735-9.691
			c-3.4,0-6.716,2.125-9.267,4.335v19.977c0,5.781,0.511,6.121,5.526,6.631v2.21h-18.447v-2.21c5.781-0.595,6.206-1.021,6.206-6.631
			V34.476c0-5.44-0.511-5.695-5.101-6.545v-1.956c4.08-0.765,8.075-1.785,11.815-3.485v6.8c1.7-1.275,3.57-2.55,5.696-3.995
			c2.38-1.53,4.59-2.55,7.056-2.55c6.715,0,10.966,4.675,10.966,12.921v16.406c0,5.781,0.425,6.121,5.355,6.631v2.21H153.766z"/>
		<path fill="#323031" d="M206.806,53.688c-5.355,6.715-11.222,8.246-13.856,8.246c-10.456,0-16.576-8.5-16.576-18.106
			c0-5.865,2.125-11.051,5.61-14.876c3.485-3.911,8.075-6.206,12.496-6.206c7.056,0,12.751,6.291,12.751,12.921
			c0,1.7-0.425,2.38-1.955,2.72c-1.445,0.255-12.071,1.105-22.188,1.445c0.085,11.561,6.716,16.321,12.666,16.321
			c3.4,0,6.631-1.36,9.691-4.25L206.806,53.688z M183.514,36.346c4.76,0,9.436-0.085,14.366-0.255c1.529,0,2.04-0.51,2.04-1.7
			c0.085-4.42-2.806-8.501-7.48-8.501C188.528,25.89,184.788,29.46,183.514,36.346z"/>
	</g>
</g>
<g id="_x3C_Layer_x3E_">
</g>
</svg>
