<?xml version="1.0" encoding="utf-8"?>
<!-- Generator: Adobe Illustrator 16.0.0, SVG Export Plug-In . SVG Version: 6.00 Build 0)  -->
<!DOCTYPE svg PUBLIC "-//W3C//DTD SVG 1.1//EN" "http://www.w3.org/Graphics/SVG/1.1/DTD/svg11.dtd">
<svg version="1.1" xmlns="http://www.w3.org/2000/svg" xmlns:xlink="http://www.w3.org/1999/xlink" x="0px" y="0px"
	 width="176.363px" height="80.773px" viewBox="0 0 176.363 80.773" enable-background="new 0 0 176.363 80.773"
	 xml:space="preserve">
<g id="Layer_1">
	<g>
		<path fill="#323031" d="M59.165,26.062c-4.251,0.68-5.016,1.7-6.801,6.375c-2.551,6.716-6.291,18.021-10.201,29.583h-2.38
			c-3.4-9.181-6.886-17.511-10.371-26.437c-3.23,8.5-6.715,17.001-10.03,26.437h-2.466c-3.06-10.116-6.29-20.146-9.775-30.347
			c-1.53-4.42-2.295-5.016-6.376-5.611v-2.125h17.597v2.125c-5.101,0.85-5.525,1.36-4.25,5.186
			c1.955,6.545,4.08,13.261,6.205,19.807h0.17c3.146-8.161,6.291-16.917,9.861-26.692h2.21c3.146,8.84,6.631,17.851,10.201,26.947
			h0.17c1.87-5.865,4.25-13.261,5.78-19.551c1.104-4.42,0.595-4.931-4.931-5.696v-2.125h15.387V26.062z"/>
		<path fill="#323031" d="M97.753,41.874c0,13.686-10.03,20.231-18.446,20.231c-11.646,0-18.616-9.351-18.616-18.787
			c0-14.026,10.881-20.401,18.616-20.401C89.848,22.917,97.753,31.333,97.753,41.874z M68.596,40.598
			c0,10.711,4.676,18.702,11.646,18.702c5.27,0,9.605-3.91,9.605-15.556c0-9.946-3.995-18.021-11.391-18.021
			C73.187,25.722,68.596,30.993,68.596,40.598z"/>
		<path fill="#323031" d="M141.782,41.874c0,13.686-10.03,20.231-18.446,20.231c-11.646,0-18.616-9.351-18.616-18.787
			c0-14.026,10.881-20.401,18.616-20.401C133.877,22.917,141.782,31.333,141.782,41.874z M112.625,40.598
			c0,10.711,4.676,18.702,11.646,18.702c5.27,0,9.605-3.91,9.605-15.556c0-9.946-3.995-18.021-11.391-18.021
			C117.216,25.722,112.625,30.993,112.625,40.598z"/>
		<path fill="#323031" d="M152.575,23.937v-1.87c0-2.635,0.34-5.101,0.935-6.971c0.596-1.87,1.955-6.035,6.546-9.946
			c2.976-2.635,6.035-4.165,9.351-4.59c2.891,0.085,5.355,1.275,6.716,2.89c0.765,0.935,0.85,2.041,0.425,2.976
			c-0.255,0.68-0.765,1.36-1.615,2.04c-0.765,0.595-1.53,0.595-2.295-0.255c-1.7-1.53-4.08-3.146-6.886-3.146
			c-2.21,0-3.57,1.02-4.505,2.55c-1.105,1.615-2.041,5.695-1.956,12.921v3.4h10.031c0.51,0.765,0.085,2.805-0.851,3.315h-9.181
			v24.482c0,6.291,0.596,6.545,7.311,7.226v2.125h-20.062v-2.21c5.44-0.51,6.036-0.935,6.036-6.546V27.252h-5.951l-0.34-0.85
			l2.296-2.465H152.575z"/>
	</g>
</g>
<g id="_x3C_Layer_x3E_">
</g>
</svg>
