<?xml version="1.0" encoding="utf-8"?>
<!-- Generator: Adobe Illustrator 16.0.0, SVG Export Plug-In . SVG Version: 6.00 Build 0)  -->
<!DOCTYPE svg PUBLIC "-//W3C//DTD SVG 1.1//EN" "http://www.w3.org/Graphics/SVG/1.1/DTD/svg11.dtd">
<svg version="1.1" xmlns="http://www.w3.org/2000/svg" xmlns:xlink="http://www.w3.org/1999/xlink" x="0px" y="0px"
	 width="137.001px" height="80.773px" viewBox="0 0 137.001 80.773" enable-background="new 0 0 137.001 80.773"
	 xml:space="preserve">
<g id="Layer_1">
	<g>
		<path fill="#323031" d="M40.825,25.439c-4.505,0.68-5.27,1.359-7.565,6.205c-2.125,4.506-4.76,11.561-10.626,25.587
			c-5.695,13.602-7.565,18.446-8.755,23.038c-0.426,1.615-1.53,2.039-2.721,2.039c-2.38,0-4.846-2.039-4.846-4.08
			c0-1.36,0.766-2.125,2.211-3.061c2.635-1.7,4.335-3.825,6.29-7.565c1.615-2.976,2.295-4.761,2.636-5.865
			c0.425-1.275,0.425-2.381-0.086-3.825c-3.399-9.691-7.226-19.977-9.775-26.013c-1.785-4.675-2.635-5.78-7.311-6.46v-2.125h17.257
			v2.125c-3.911,0.68-4.336,1.53-3.23,4.675l7.735,21.337c2.38-5.78,6.035-15.812,7.82-21.167c1.021-3.229,0.426-4.165-4.42-4.845
			v-2.125h15.386V25.439z"/>
		<path fill="#323031" d="M72.19,53.236c-5.355,6.716-11.222,8.246-13.856,8.246c-10.456,0-16.576-8.501-16.576-18.106
			c0-5.866,2.125-11.052,5.61-14.877c3.485-3.91,8.075-6.205,12.496-6.205c7.056,0,12.751,6.29,12.751,12.921
			c0,1.7-0.425,2.38-1.955,2.721c-1.445,0.255-12.071,1.104-22.188,1.444c0.085,11.562,6.716,16.321,12.666,16.321
			c3.4,0,6.631-1.359,9.691-4.25L72.19,53.236z M48.898,35.894c4.76,0,9.436-0.085,14.366-0.255c1.529,0,2.04-0.51,2.04-1.7
			c0.085-4.42-2.806-8.5-7.48-8.5C53.913,25.439,50.173,29.009,48.898,35.894z"/>
		<path fill="#323031" d="M75.757,60.461v-2.21c5.355-0.511,6.12-1.021,6.12-6.631V11.413c0-5.78-0.51-6.035-5.865-6.461v-2.04
			c4.42-0.51,9.69-1.956,12.581-2.976v51.684c0,5.61,0.68,6.12,6.12,6.631v2.21H75.757z"/>
		<path fill="#323031" d="M117.236,23.569c1.53-0.851,3.146-1.275,4.166-1.275c9.436,0,15.046,7.65,15.046,16.066
			c0,12.836-10.116,21.081-21.167,23.122c-2.465-0.085-4.76-0.936-5.865-1.53v11.136c0,6.46,0.595,6.886,7.226,7.48v2.294H96.495
			v-2.294c5.44-0.51,6.205-1.021,6.205-6.631V33.514c0-5.525-0.34-5.695-5.61-6.375v-2.041c3.57-0.595,8.331-2.04,12.326-3.655
			v6.716L117.236,23.569z M109.416,54c1.87,1.956,5.101,3.315,7.99,3.315c7.141,0,11.901-6.12,11.901-15.726
			c0-9.096-5.186-14.196-11.391-14.196c-2.721,0-6.206,1.87-8.501,3.57V54z"/>
	</g>
</g>
<g id="_x3C_Layer_x3E_">
</g>
</svg>
