<?xml version="1.0" encoding="utf-8"?>
<!-- Generator: Adobe Illustrator 16.0.0, SVG Export Plug-In . SVG Version: 6.00 Build 0)  -->
<!DOCTYPE svg PUBLIC "-//W3C//DTD SVG 1.1//EN" "http://www.w3.org/Graphics/SVG/1.1/DTD/svg11.dtd">
<svg version="1.1" xmlns="http://www.w3.org/2000/svg" xmlns:xlink="http://www.w3.org/1999/xlink" x="0px" y="0px" width="713px"
	 height="357px" viewBox="0 0 713 357" enable-background="new 0 0 713 357" xml:space="preserve">
<g id="Layer_1">
	<g>
		<g>
			<path fill="#323031" d="M13.621,20.545c-1.654,1.795-3.225,2.721-3.955,2.721c-0.701,0-0.953-0.758-0.447-2.917
				c0.533-2.104,1.01-4.151,1.514-6.227c0.393-1.599,0.225-2.019-0.225-2.019c-1.234,0-4.486,3.478-5.889,5.861
				c-0.338,1.374-0.758,3.057-1.094,4.739c-0.73,0.141-1.486,0.365-2.02,0.562l-0.168-0.225c0.756-3.029,1.598-6.395,2.271-9.508
				c0.225-0.897,0.141-1.122-0.029-1.122c-0.252,0-1.121,0.59-1.822,1.263l-0.365-0.673c1.516-1.655,3.17-2.665,3.955-2.665
				c0.645,0,0.758,0.954,0.225,3.113l-0.59,2.44h0.057c1.908-2.608,3.982-4.235,5.16-4.937c0.73-0.421,1.318-0.617,1.879-0.617
				c0.674,0,1.459,0.421,0.617,4.011c-0.447,1.907-0.896,3.87-1.373,5.834c-0.168,0.757-0.141,1.009,0.055,1.009
				c0.254,0,1.01-0.504,1.852-1.317L13.621,20.545z"/>
			<path fill="#323031" d="M15.756,18.891c0-3.646,1.936-6.423,4.262-7.657c1.01-0.532,2.16-0.897,3.029-0.897
				c2.328,0,3.73,1.599,3.73,4.375c0,2.412-1.037,5.161-3,6.787c-1.207,1.01-2.75,1.768-4.32,1.768
				C16.793,23.266,15.756,21.162,15.756,18.891z M21.365,21.976c1.514-0.646,3.057-3.618,3.057-7.208
				c0-2.271-0.982-3.365-2.271-3.365c-0.422,0-0.758,0.111-1.066,0.252c-1.094,0.477-2.973,2.776-2.973,7.096
				c0,2.075,0.869,3.394,2.355,3.394C20.803,22.144,21.084,22.087,21.365,21.976z"/>
			<path fill="#323031" d="M41.559,20.404c-1.348,1.627-3.197,2.861-4.066,2.861c-0.59,0-0.982-0.533-0.422-2.974
				c0.225-0.981,0.338-1.542,0.533-2.468h-0.057c-1.373,1.823-3.027,3.534-4.516,4.571c-0.785,0.562-1.598,0.87-2.271,0.87
				c-0.756,0-1.654-0.533-0.924-3.563c0.504-2.159,1.008-4.318,1.514-6.45c0.168-0.701,0.141-0.953-0.084-0.953
				c-0.197,0-0.982,0.561-1.963,1.346l-0.309-0.673c1.627-1.627,3.365-2.637,4.123-2.637c0.645,0,0.756,0.562,0.309,2.44
				c-0.506,2.216-1.01,4.487-1.543,6.73c-0.309,1.375-0.084,1.852,0.336,1.852c1.57,0,4.711-3.759,5.805-5.806
				c0.309-1.29,0.646-2.776,1.01-4.487l1.936-0.729h0.309c-0.758,2.973-1.486,6.114-2.188,9.76c-0.168,0.87-0.111,1.094,0.084,1.094
				c0.252,0,1.262-0.673,2.02-1.458L41.559,20.404z"/>
			<path fill="#323031" d="M55.893,20.545c-1.656,1.795-3.227,2.721-3.955,2.721c-0.701,0-0.953-0.758-0.449-2.917
				c0.533-2.104,1.01-4.151,1.516-6.227c0.393-1.599,0.225-2.019-0.225-2.019c-1.234,0-4.488,3.478-5.891,5.861
				c-0.336,1.374-0.756,3.057-1.094,4.739c-0.729,0.141-1.486,0.365-2.02,0.562l-0.168-0.225c0.758-3.029,1.6-6.395,2.271-9.508
				c0.225-0.897,0.141-1.122-0.027-1.122c-0.252,0-1.121,0.59-1.822,1.263l-0.365-0.673c1.514-1.655,3.17-2.665,3.955-2.665
				c0.645,0,0.756,0.954,0.225,3.113l-0.59,2.44h0.057c1.906-2.608,3.982-4.235,5.16-4.937c0.729-0.421,1.318-0.617,1.879-0.617
				c0.674,0,1.459,0.421,0.617,4.011c-0.449,1.907-0.898,3.87-1.375,5.834c-0.168,0.757-0.141,1.009,0.057,1.009
				c0.252,0,1.01-0.504,1.852-1.317L55.893,20.545z"/>
		</g>
		<g>
			<path fill="#323031" d="M5.938,118.832c1.148-1.43,4.346-5.524,4.346-7.403c0-0.478-0.111-0.926-0.309-1.234
				c-0.084-0.225-0.084-0.448,0-0.701c0.197-0.448,0.674-0.813,1.207-0.813c0.674,0,1.178,0.646,1.205,1.599
				c0,0.87-0.447,1.964-1.738,3.759c-1.627,2.271-4.123,5.496-5.805,7.572H4.086c-0.084-2.608-0.393-7.012-0.533-8.723
				c-0.141-1.683-0.309-2.159-0.504-2.159c-0.254,0-0.758,0.448-1.656,1.486l-0.447-0.617c1.01-1.458,2.439-2.917,3.336-2.917
				c0.73,0,1.094,1.066,1.234,3.113c0.113,2.468,0.281,4.74,0.365,7.039H5.938z"/>
			<path fill="#323031" d="M22.43,118.439c-2.469,2.637-4.572,3.17-5.918,3.17c-1.289,0-3.084-0.758-3.084-4.095
				c0-2.637,1.148-5.581,3.365-7.264c1.205-0.926,2.691-1.571,3.869-1.571c1.486,0,2.469,1.038,2.469,2.244
				c0,2.776-4.711,4.291-7.404,4.964c-0.057,0.337-0.057,0.617-0.057,0.897c0,1.515,0.477,3.169,2.188,3.169
				c1.178,0,2.693-0.785,4.096-2.159L22.43,118.439z M18.475,110.166c-0.756,0.421-2.158,1.711-2.637,4.853
				c4.012-1.066,5.189-2.356,5.189-3.646c0-0.981-0.59-1.542-1.402-1.542C19.232,109.83,18.783,109.97,18.475,110.166z"/>
			<path fill="#323031" d="M24.787,111.429c1.43-1.599,3.168-2.749,3.926-2.749c0.701,0,0.73,1.29,0.309,3.254l-0.279,1.402h0.084
				c1.43-2.749,3.084-4.656,4.207-4.656c0.477,0,0.953,0.309,1.205,0.701c0.195,0.365,0.195,0.813-0.027,1.206
				c-0.197,0.337-0.477,0.617-0.73,0.813c-0.252,0.168-0.477,0.168-0.617,0.028c-0.309-0.337-0.645-0.478-0.953-0.478
				c-0.336,0-0.785,0.281-1.43,1.179c-0.617,0.897-1.486,2.215-1.992,3.478c-0.447,1.879-0.785,3.646-1.121,5.497
				c-0.617,0.084-1.375,0.28-1.992,0.505l-0.223-0.225c0.729-3.001,1.514-6.45,2.047-9.451c0.168-0.926,0.168-1.206-0.057-1.206
				c-0.252,0-1.15,0.561-1.99,1.346L24.787,111.429z"/>
			<path fill="#323031" d="M36.428,102.258c2.188-0.253,3.73-0.954,4.178-0.954c0.281,0,0.281,0.28,0.141,0.87
				c-0.953,3.842-1.711,7.123-2.496,10.713h0.057c2.412-2.944,4.795-4.207,6.086-4.207c1.234,0,1.99,1.234,1.99,3.085
				c0,3.085-1.85,6.647-4.318,8.302c-1.684,1.15-3.197,1.543-4.234,1.543c-0.898,0-1.824-0.505-2.244-1.206
				c-0.42-0.674-0.533-1.683-0.168-3.506c0.785-3.843,1.766-8.077,2.691-12.593c0.254-1.262,0.168-1.346-0.926-1.346l-0.813-0.028
				L36.428,102.258z M40.689,119.898c1.656-0.981,3.365-4.235,3.365-7.656c0-1.431-0.42-2.02-0.953-2.02
				c-0.98,0-3.309,1.795-5.104,4.347c-0.168,0.505-0.336,1.234-0.506,2.188c-0.504,2.749,0.59,3.563,1.74,3.563
				C39.709,120.319,40.27,120.15,40.689,119.898z"/>
		</g>
		<g>
			<path fill="#323031" d="M104,22.929v-0.757c2.553-0.196,2.691-0.421,2.691-2.44V8.934c0-1.458-0.111-1.599-1.346-1.654L104,7.223
				V6.578c1.795-0.309,3.449-0.842,4.992-1.458v14.611c0,2.02,0.168,2.244,2.721,2.44v0.757H104z"/>
			<path fill="#323031" d="M116.033,21.639c0-0.897,0.674-1.599,1.57-1.599c0.898,0,1.57,0.701,1.57,1.599
				c0,0.981-0.672,1.627-1.57,1.627C116.707,23.266,116.033,22.62,116.033,21.639z"/>
		</g>
		<g>
			<path fill="#323031" d="M141.305,23.266c-0.42,0-1.01-0.253-1.318-0.533c-0.363-0.393-0.531-0.785-0.672-1.262
				c-1.123,0.757-2.469,1.795-3.311,1.795c-1.99,0-3.365-1.655-3.365-3.422c0-1.374,0.73-2.244,2.271-2.776
				c1.684-0.562,3.73-1.318,4.348-1.823v-0.505c0-2.02-0.953-3.169-2.355-3.169c-0.561,0-0.982,0.225-1.262,0.561
				c-0.365,0.365-0.617,0.981-0.842,1.852c-0.111,0.448-0.42,0.645-0.813,0.645c-0.506,0-1.234-0.561-1.234-1.206
				c0-0.42,0.363-0.729,0.896-1.121c0.785-0.562,2.609-1.655,4.207-1.964c0.842,0,1.684,0.253,2.301,0.758
				c0.98,0.813,1.262,1.963,1.262,3.421v5.217c0,1.262,0.504,1.683,0.98,1.683c0.338,0,0.73-0.14,1.01-0.309l0.281,0.729
				L141.305,23.266z M139.258,16.197c-0.588,0.309-1.936,0.898-2.523,1.179c-1.094,0.505-1.711,1.037-1.711,2.047
				c0,1.459,1.121,2.159,1.99,2.159c0.73-0.027,1.711-0.504,2.244-1.009V16.197z"/>
			<path fill="#323031" d="M158.471,13.982c-0.531-1.655-1.514-2.776-2.889-2.776c-1.064,0-1.822,0.841-1.822,1.935
				c0,1.262,1.121,1.907,2.385,2.44c2.104,0.869,3.533,1.879,3.533,3.813c0,2.553-2.385,3.871-4.627,3.871
				c-1.432,0-2.721-0.533-3.227-0.954c-0.195-0.393-0.449-2.3-0.449-3.31l0.73-0.14c0.504,1.851,1.766,3.478,3.449,3.478
				c1.037,0,1.992-0.785,1.992-1.963c0-1.234-0.814-1.907-2.217-2.553c-1.682-0.785-3.506-1.711-3.506-3.87
				c0-1.963,1.684-3.618,4.264-3.618c1.15,0,1.906,0.253,2.496,0.477c0.225,0.646,0.533,2.3,0.617,3.001L158.471,13.982z"/>
			<path fill="#323031" d="M168.906,22.929v-0.729c1.627-0.168,1.852-0.336,1.852-2.159v-4.655c0-2.3-0.871-3.45-2.75-3.45
				c-1.064,0-2.131,0.533-2.916,1.431v6.675c0,1.795,0.141,1.991,1.795,2.159v0.729h-5.945v-0.729
				c1.682-0.14,1.936-0.309,1.936-2.159V6.662c0-1.767-0.057-1.907-1.908-2.075V3.941c1.346-0.196,3.029-0.645,4.123-0.981v9.424
				c0.98-1.01,2.496-2.048,4.01-2.048c2.271,0,3.871,1.431,3.871,4.796v4.908c0,1.851,0.195,2.02,1.852,2.159v0.729H168.906z"/>
			<path fill="#323031" d="M188.596,16.591c0,4.515-3.309,6.675-6.086,6.675c-3.842,0-6.141-3.085-6.141-6.198
				c0-4.628,3.59-6.731,6.141-6.731C185.988,10.336,188.596,13.112,188.596,16.591z M178.977,16.17c0,3.533,1.543,6.17,3.842,6.17
				c1.738,0,3.17-1.29,3.17-5.133c0-3.281-1.318-5.945-3.758-5.945C180.49,11.262,178.977,13.001,178.977,16.17z"/>
			<path fill="#323031" d="M194.432,13.309c0.842-1.401,2.047-2.973,3.395-2.973c0.953,0,1.625,0.729,1.625,1.402
				c0,0.562-0.363,1.122-0.896,1.374c-0.336,0.141-0.59,0.112-0.758-0.056c-0.393-0.421-0.729-0.589-1.178-0.589
				c-0.729,0-1.627,0.841-2.244,2.412v5.132c0,1.852,0.141,2.02,2.301,2.188v0.729h-6.451v-0.729
				c1.738-0.168,1.936-0.336,1.936-2.188v-5.806c0-1.851-0.141-1.963-1.738-2.188v-0.616c1.373-0.225,2.607-0.562,3.953-1.15v3.057
				H194.432z"/>
			<path fill="#323031" d="M206.436,22.9c-0.477,0.253-0.924,0.365-1.178,0.365c-1.766,0-2.748-1.122-2.748-3.338v-8.161h-1.936
				l-0.111-0.28l0.758-0.813h1.289V8.625l1.822-1.851l0.393,0.056v3.843h3.17c0.252,0.28,0.168,0.897-0.168,1.094h-3.002v7.208
				c0,2.271,0.926,2.692,1.627,2.692s1.348-0.281,1.74-0.478l0.252,0.729L206.436,22.9z"/>
			<path fill="#323031" d="M213.758,22.34c0,2.159-1.965,3.365-3.674,3.87l-0.309-0.813c1.346-0.561,2.158-1.29,2.158-2.355
				c0-1.01-0.785-1.655-1.766-1.879c-0.141-0.028-0.338-0.225-0.338-0.701c0-0.701,0.674-1.15,1.348-1.15
				C212.186,19.311,213.758,20.377,213.758,22.34z"/>
			<path fill="#323031" d="M229.549,13.982c-0.533-1.655-1.514-2.776-2.889-2.776c-1.066,0-1.822,0.841-1.822,1.935
				c0,1.262,1.121,1.907,2.383,2.44c2.104,0.869,3.533,1.879,3.533,3.813c0,2.553-2.383,3.871-4.627,3.871
				c-1.43,0-2.721-0.533-3.225-0.954c-0.197-0.393-0.449-2.3-0.449-3.31l0.729-0.14c0.506,1.851,1.768,3.478,3.451,3.478
				c1.037,0,1.99-0.785,1.99-1.963c0-1.234-0.813-1.907-2.215-2.553c-1.684-0.785-3.506-1.711-3.506-3.87
				c0-1.963,1.682-3.618,4.262-3.618c1.15,0,1.908,0.253,2.496,0.477c0.225,0.646,0.533,2.3,0.617,3.001L229.549,13.982z"/>
			<path fill="#323031" d="M239.955,22.929v-0.729c1.627-0.168,1.852-0.336,1.852-2.159v-4.655c0-2.3-0.871-3.45-2.75-3.45
				c-1.064,0-2.131,0.533-2.916,1.431v6.675c0,1.795,0.141,1.991,1.795,2.159v0.729h-5.945v-0.729
				c1.682-0.14,1.936-0.309,1.936-2.159V6.662c0-1.767-0.057-1.907-1.908-2.075V3.941c1.346-0.196,3.029-0.645,4.123-0.981v9.424
				c0.98-1.01,2.496-2.048,4.01-2.048c2.271,0,3.871,1.431,3.871,4.796v4.908c0,1.851,0.195,2.02,1.852,2.159v0.729H239.955z"/>
			<path fill="#323031" d="M256.139,23.266c-0.42,0-1.01-0.253-1.318-0.533c-0.363-0.393-0.531-0.785-0.672-1.262
				c-1.123,0.757-2.469,1.795-3.311,1.795c-1.99,0-3.365-1.655-3.365-3.422c0-1.374,0.73-2.244,2.271-2.776
				c1.684-0.562,3.73-1.318,4.348-1.823v-0.505c0-2.02-0.953-3.169-2.355-3.169c-0.561,0-0.982,0.225-1.262,0.561
				c-0.365,0.365-0.617,0.981-0.842,1.852c-0.111,0.448-0.42,0.645-0.813,0.645c-0.506,0-1.234-0.561-1.234-1.206
				c0-0.42,0.363-0.729,0.896-1.121c0.785-0.562,2.609-1.655,4.207-1.964c0.842,0,1.684,0.253,2.301,0.758
				c0.98,0.813,1.262,1.963,1.262,3.421v5.217c0,1.262,0.504,1.683,0.98,1.683c0.338,0,0.73-0.14,1.01-0.309l0.281,0.729
				L256.139,23.266z M254.092,16.197c-0.588,0.309-1.936,0.898-2.523,1.179c-1.094,0.505-1.711,1.037-1.711,2.047
				c0,1.459,1.121,2.159,1.99,2.159c0.73-0.027,1.711-0.504,2.244-1.009V16.197z"/>
			<path fill="#323031" d="M263.602,13.309c0.84-1.401,2.047-2.973,3.393-2.973c0.953,0,1.627,0.729,1.627,1.402
				c0,0.562-0.365,1.122-0.898,1.374c-0.336,0.141-0.588,0.112-0.756-0.056c-0.393-0.421-0.73-0.589-1.178-0.589
				c-0.73,0-1.627,0.841-2.244,2.412v5.132c0,1.852,0.141,2.02,2.299,2.188v0.729h-6.449v-0.729
				c1.738-0.168,1.934-0.336,1.934-2.188v-5.806c0-1.851-0.139-1.963-1.738-2.188v-0.616c1.375-0.225,2.609-0.562,3.955-1.15v3.057
				H263.602z"/>
			<path fill="#323031" d="M276.477,10.757c0.504-0.28,1.037-0.421,1.373-0.421c3.113,0,4.965,2.524,4.965,5.301
				c0,4.235-3.338,6.955-6.984,7.629c-0.813-0.028-1.57-0.309-1.936-0.505v3.674c0,2.131,0.197,2.271,2.385,2.468v0.758h-6.646
				v-0.758c1.795-0.168,2.047-0.337,2.047-2.188V14.038c0-1.823-0.111-1.879-1.852-2.104v-0.673c1.178-0.196,2.75-0.673,4.066-1.206
				v2.216L276.477,10.757z M273.895,20.797c0.617,0.646,1.684,1.094,2.637,1.094c2.355,0,3.928-2.019,3.928-5.188
				c0-3-1.711-4.684-3.76-4.684c-0.896,0-2.047,0.617-2.805,1.179V20.797z"/>
			<path fill="#323031" d="M301.664,20.404c-1.234,1.627-3.113,2.861-4.768,2.861c-3.533,0-5.609-2.861-5.609-5.862
				c0-2.159,0.926-4.038,2.805-5.496c1.459-1.122,3.141-1.571,4.234-1.571c1.121,0,2.047,0.365,2.496,0.729
				c0.365,0.309,0.449,0.561,0.449,0.869c0,0.589-0.617,1.206-0.926,1.206c-0.141,0-0.281-0.084-0.533-0.309
				c-0.842-0.785-1.822-1.149-2.805-1.149c-1.85,0-3.477,1.542-3.477,4.487c0,3.898,2.664,5.188,4.234,5.188
				c1.205,0,2.131-0.337,3.422-1.543L301.664,20.404z"/>
			<path fill="#323031" d="M307.219,13.309c0.842-1.401,2.047-2.973,3.395-2.973c0.953,0,1.625,0.729,1.625,1.402
				c0,0.562-0.363,1.122-0.896,1.374c-0.336,0.141-0.59,0.112-0.758-0.056c-0.393-0.421-0.729-0.589-1.178-0.589
				c-0.729,0-1.627,0.841-2.244,2.412v5.132c0,1.852,0.141,2.02,2.301,2.188v0.729h-6.451v-0.729
				c1.738-0.168,1.936-0.336,1.936-2.188v-5.806c0-1.851-0.141-1.963-1.738-2.188v-0.616c1.373-0.225,2.607-0.562,3.953-1.15v3.057
				H307.219z"/>
			<path fill="#323031" d="M326.713,11.374c-1.488,0.225-1.74,0.448-2.496,2.047c-0.701,1.486-1.572,3.814-3.506,8.442
				c-1.879,4.487-2.496,6.086-2.889,7.6c-0.141,0.533-0.506,0.674-0.898,0.674c-0.785,0-1.598-0.674-1.598-1.347
				c0-0.448,0.252-0.701,0.729-1.01c0.869-0.561,1.43-1.262,2.076-2.496c0.531-0.981,0.756-1.57,0.869-1.935
				c0.141-0.421,0.141-0.785-0.029-1.263c-1.121-3.196-2.383-6.59-3.225-8.581c-0.59-1.543-0.869-1.907-2.412-2.132v-0.701h5.693
				v0.701c-1.289,0.225-1.43,0.505-1.066,1.542l2.553,7.04c0.785-1.907,1.992-5.217,2.58-6.983c0.336-1.065,0.141-1.374-1.459-1.599
				v-0.701h5.078V11.374z"/>
			<path fill="#323031" d="M329.379,22.34c0,2.159-1.965,3.365-3.674,3.87l-0.309-0.813c1.346-0.561,2.158-1.29,2.158-2.355
				c0-1.01-0.785-1.655-1.766-1.879c-0.141-0.028-0.338-0.225-0.338-0.701c0-0.701,0.674-1.15,1.348-1.15
				C327.807,19.311,329.379,20.377,329.379,22.34z"/>
			<path fill="#323031" d="M348.002,20.545c-1.766,2.216-3.701,2.721-4.57,2.721c-3.451,0-5.469-2.805-5.469-5.974
				c0-1.936,0.701-3.646,1.85-4.908c1.15-1.29,2.664-2.048,4.123-2.048c2.328,0,4.207,2.075,4.207,4.264
				c0,0.561-0.141,0.785-0.645,0.897c-0.477,0.084-3.982,0.364-7.32,0.477c0.027,3.813,2.215,5.385,4.178,5.385
				c1.123,0,2.189-0.449,3.197-1.402L348.002,20.545z M340.318,14.823c1.57,0,3.113-0.027,4.738-0.084
				c0.506,0,0.674-0.168,0.674-0.561c0.027-1.459-0.926-2.805-2.469-2.805C341.973,11.374,340.738,12.552,340.318,14.823z"/>
			<path fill="#323031" d="M357.09,13.982c-0.531-1.655-1.514-2.776-2.889-2.776c-1.064,0-1.822,0.841-1.822,1.935
				c0,1.262,1.121,1.907,2.385,2.44c2.104,0.869,3.533,1.879,3.533,3.813c0,2.553-2.385,3.871-4.627,3.871
				c-1.432,0-2.721-0.533-3.227-0.954c-0.195-0.393-0.449-2.3-0.449-3.31l0.73-0.14c0.504,1.851,1.766,3.478,3.449,3.478
				c1.037,0,1.992-0.785,1.992-1.963c0-1.234-0.814-1.907-2.217-2.553c-1.682-0.785-3.506-1.711-3.506-3.87
				c0-1.963,1.684-3.618,4.264-3.618c1.15,0,1.906,0.253,2.496,0.477c0.225,0.646,0.533,2.3,0.617,3.001L357.09,13.982z"/>
			<path fill="#323031" d="M366.318,10.757c0.506-0.28,1.037-0.421,1.375-0.421c3.113,0,4.963,2.524,4.963,5.301
				c0,4.235-3.336,6.955-6.982,7.629c-0.814-0.028-1.57-0.309-1.936-0.505v3.674c0,2.131,0.197,2.271,2.385,2.468v0.758h-6.648
				v-0.758c1.795-0.168,2.049-0.337,2.049-2.188V14.038c0-1.823-0.113-1.879-1.852-2.104v-0.673
				c1.178-0.196,2.748-0.673,4.066-1.206v2.216L366.318,10.757z M363.738,20.797c0.617,0.646,1.684,1.094,2.637,1.094
				c2.355,0,3.926-2.019,3.926-5.188c0-3-1.711-4.684-3.758-4.684c-0.898,0-2.047,0.617-2.805,1.179V20.797z"/>
			<path fill="#323031" d="M385.027,20.545c-1.768,2.216-3.703,2.721-4.572,2.721c-3.449,0-5.469-2.805-5.469-5.974
				c0-1.936,0.701-3.646,1.852-4.908c1.15-1.29,2.664-2.048,4.123-2.048c2.326,0,4.207,2.075,4.207,4.264
				c0,0.561-0.141,0.785-0.646,0.897c-0.477,0.084-3.982,0.364-7.32,0.477c0.029,3.813,2.217,5.385,4.18,5.385
				c1.121,0,2.188-0.449,3.197-1.402L385.027,20.545z M377.342,14.823c1.57,0,3.113-0.027,4.74-0.084
				c0.504,0,0.674-0.168,0.674-0.561c0.027-1.459-0.926-2.805-2.469-2.805C378.996,11.374,377.764,12.552,377.342,14.823z"/>
			<path fill="#323031" d="M397.453,20.404c-1.234,1.627-3.113,2.861-4.768,2.861c-3.533,0-5.609-2.861-5.609-5.862
				c0-2.159,0.926-4.038,2.805-5.496c1.459-1.122,3.141-1.571,4.234-1.571c1.121,0,2.047,0.365,2.496,0.729
				c0.365,0.309,0.449,0.561,0.449,0.869c0,0.589-0.617,1.206-0.926,1.206c-0.141,0-0.281-0.084-0.533-0.309
				c-0.842-0.785-1.822-1.149-2.805-1.149c-1.85,0-3.477,1.542-3.477,4.487c0,3.898,2.664,5.188,4.234,5.188
				c1.205,0,2.131-0.337,3.422-1.543L397.453,20.404z"/>
			<path fill="#323031" d="M398.773,22.929v-0.729c1.766-0.168,1.963-0.336,1.963-2.243v-5.777c0-1.739-0.084-1.852-1.768-2.132
				v-0.673c1.432-0.225,2.748-0.589,3.982-1.094v9.676c0,1.907,0.197,2.075,1.992,2.243v0.729H398.773z M400.26,6.466
				c0-0.841,0.672-1.458,1.43-1.458c0.785,0,1.402,0.617,1.402,1.458c0,0.757-0.617,1.431-1.43,1.431
				C400.932,7.896,400.26,7.223,400.26,6.466z"/>
			<path fill="#323031" d="M415.236,23.266c-0.42,0-1.01-0.253-1.318-0.533c-0.363-0.393-0.531-0.785-0.672-1.262
				c-1.123,0.757-2.469,1.795-3.311,1.795c-1.99,0-3.365-1.655-3.365-3.422c0-1.374,0.73-2.244,2.271-2.776
				c1.684-0.562,3.73-1.318,4.348-1.823v-0.505c0-2.02-0.953-3.169-2.355-3.169c-0.561,0-0.982,0.225-1.262,0.561
				c-0.365,0.365-0.617,0.981-0.842,1.852c-0.111,0.448-0.42,0.645-0.813,0.645c-0.506,0-1.234-0.561-1.234-1.206
				c0-0.42,0.363-0.729,0.896-1.121c0.785-0.562,2.609-1.655,4.207-1.964c0.842,0,1.684,0.253,2.301,0.758
				c0.98,0.813,1.262,1.963,1.262,3.421v5.217c0,1.262,0.504,1.683,0.98,1.683c0.338,0,0.73-0.14,1.01-0.309l0.281,0.729
				L415.236,23.266z M413.189,16.197c-0.588,0.309-1.936,0.898-2.523,1.179c-1.094,0.505-1.711,1.037-1.711,2.047
				c0,1.459,1.121,2.159,1.99,2.159c0.73-0.027,1.711-0.504,2.244-1.009V16.197z"/>
			<path fill="#323031" d="M418.324,22.929v-0.729c1.766-0.168,2.02-0.336,2.02-2.188V6.746c0-1.907-0.17-1.991-1.936-2.131V3.941
				c1.457-0.168,3.197-0.645,4.15-0.981v17.052c0,1.852,0.225,2.02,2.02,2.188v0.729H418.324z"/>
			<path fill="#323031" d="M425.533,22.929v-0.729c1.766-0.168,2.02-0.336,2.02-2.188V6.746c0-1.907-0.17-1.991-1.936-2.131V3.941
				c1.457-0.168,3.197-0.645,4.15-0.981v17.052c0,1.852,0.225,2.02,2.02,2.188v0.729H425.533z"/>
			<path fill="#323031" d="M445.447,11.374c-1.488,0.225-1.74,0.448-2.496,2.047c-0.701,1.486-1.572,3.814-3.506,8.442
				c-1.879,4.487-2.496,6.086-2.889,7.6c-0.141,0.533-0.506,0.674-0.898,0.674c-0.785,0-1.598-0.674-1.598-1.347
				c0-0.448,0.252-0.701,0.729-1.01c0.869-0.561,1.43-1.262,2.076-2.496c0.531-0.981,0.756-1.57,0.869-1.935
				c0.141-0.421,0.141-0.785-0.029-1.263c-1.121-3.196-2.383-6.59-3.225-8.581c-0.59-1.543-0.869-1.907-2.412-2.132v-0.701h5.693
				v0.701c-1.289,0.225-1.43,0.505-1.066,1.542l2.553,7.04c0.785-1.907,1.992-5.217,2.58-6.983c0.336-1.065,0.141-1.374-1.459-1.599
				v-0.701h5.078V11.374z"/>
			<path fill="#323031" d="M464.549,16.591c0,4.515-3.311,6.675-6.086,6.675c-3.842,0-6.143-3.085-6.143-6.198
				c0-4.628,3.59-6.731,6.143-6.731C461.939,10.336,464.549,13.112,464.549,16.591z M454.928,16.17c0,3.533,1.543,6.17,3.844,6.17
				c1.738,0,3.168-1.29,3.168-5.133c0-3.281-1.318-5.945-3.758-5.945C456.443,11.262,454.928,13.001,454.928,16.17z"/>
			<path fill="#323031" d="M468.084,10.673v-0.617c0-0.869,0.111-1.683,0.309-2.3s0.645-1.991,2.16-3.281
				c0.98-0.869,1.99-1.374,3.084-1.515c0.953,0.028,1.768,0.421,2.217,0.954c0.252,0.309,0.279,0.673,0.139,0.981
				c-0.084,0.225-0.252,0.448-0.531,0.673c-0.254,0.196-0.506,0.196-0.758-0.084c-0.561-0.505-1.346-1.038-2.271-1.038
				c-0.73,0-1.178,0.337-1.486,0.842c-0.365,0.533-0.674,1.879-0.646,4.263v1.122h3.311c0.168,0.252,0.027,0.926-0.281,1.094h-3.029
				v8.077c0,2.075,0.197,2.159,2.412,2.384v0.701h-6.617v-0.729c1.795-0.168,1.99-0.309,1.99-2.159v-8.273h-1.963l-0.113-0.28
				l0.758-0.813H468.084z"/>
			<path fill="#323031" d="M487.242,10.757c0.504-0.28,1.037-0.421,1.373-0.421c3.113,0,4.965,2.524,4.965,5.301
				c0,4.235-3.338,6.955-6.984,7.629c-0.813-0.028-1.57-0.309-1.936-0.505v3.674c0,2.131,0.197,2.271,2.385,2.468v0.758h-6.646
				v-0.758c1.795-0.168,2.047-0.337,2.047-2.188V14.038c0-1.823-0.111-1.879-1.852-2.104v-0.673c1.178-0.196,2.75-0.673,4.066-1.206
				v2.216L487.242,10.757z M484.66,20.797c0.617,0.646,1.684,1.094,2.637,1.094c2.355,0,3.928-2.019,3.928-5.188
				c0-3-1.711-4.684-3.76-4.684c-0.896,0-2.047,0.617-2.805,1.179V20.797z"/>
			<path fill="#323031" d="M504.52,23.266c-0.42,0-1.01-0.253-1.318-0.533c-0.363-0.393-0.531-0.785-0.672-1.262
				c-1.123,0.757-2.469,1.795-3.311,1.795c-1.99,0-3.365-1.655-3.365-3.422c0-1.374,0.73-2.244,2.271-2.776
				c1.684-0.562,3.73-1.318,4.348-1.823v-0.505c0-2.02-0.953-3.169-2.355-3.169c-0.561,0-0.982,0.225-1.262,0.561
				c-0.365,0.365-0.617,0.981-0.842,1.852c-0.111,0.448-0.42,0.645-0.813,0.645c-0.506,0-1.234-0.561-1.234-1.206
				c0-0.42,0.363-0.729,0.896-1.121c0.785-0.562,2.609-1.655,4.207-1.964c0.842,0,1.684,0.253,2.301,0.758
				c0.98,0.813,1.262,1.963,1.262,3.421v5.217c0,1.262,0.504,1.683,0.98,1.683c0.338,0,0.73-0.14,1.01-0.309l0.281,0.729
				L504.52,23.266z M502.473,16.197c-0.588,0.309-1.936,0.898-2.523,1.179c-1.094,0.505-1.711,1.037-1.711,2.047
				c0,1.459,1.121,2.159,1.99,2.159c0.73-0.027,1.711-0.504,2.244-1.009V16.197z"/>
			<path fill="#323031" d="M507.746,22.929v-0.729c1.768-0.168,1.963-0.336,1.963-2.243v-5.777c0-1.739-0.084-1.852-1.766-2.132
				v-0.673c1.43-0.225,2.748-0.589,3.982-1.094v9.676c0,1.907,0.195,2.075,1.99,2.243v0.729H507.746z M509.232,6.466
				c0-0.841,0.674-1.458,1.432-1.458c0.785,0,1.402,0.617,1.402,1.458c0,0.757-0.617,1.431-1.432,1.431
				C509.906,7.896,509.232,7.223,509.232,6.466z"/>
			<path fill="#323031" d="M523.201,22.929v-0.729c1.654-0.168,1.852-0.393,1.852-2.327v-4.684c0-1.936-0.674-3.197-2.553-3.197
				c-1.121,0-2.215,0.701-3.057,1.43v6.591c0,1.907,0.168,2.02,1.822,2.188v0.729h-6.086v-0.729
				c1.908-0.196,2.047-0.336,2.047-2.188v-5.806c0-1.795-0.168-1.879-1.682-2.159v-0.645c1.346-0.253,2.664-0.59,3.898-1.15v2.244
				c0.561-0.421,1.178-0.842,1.879-1.318c0.785-0.505,1.514-0.842,2.328-0.842c2.215,0,3.617,1.543,3.617,4.264v5.412
				c0,1.907,0.141,2.02,1.768,2.188v0.729H523.201z"/>
			<path fill="#323031" d="M549.342,16.591c0,4.515-3.309,6.675-6.086,6.675c-3.842,0-6.141-3.085-6.141-6.198
				c0-4.628,3.59-6.731,6.141-6.731C546.734,10.336,549.342,13.112,549.342,16.591z M539.723,16.17c0,3.533,1.543,6.17,3.842,6.17
				c1.738,0,3.17-1.29,3.17-5.133c0-3.281-1.318-5.945-3.758-5.945C541.236,11.262,539.723,13.001,539.723,16.17z"/>
			<path fill="#323031" d="M555.178,13.309c0.842-1.401,2.047-2.973,3.395-2.973c0.953,0,1.625,0.729,1.625,1.402
				c0,0.562-0.363,1.122-0.896,1.374c-0.336,0.141-0.59,0.112-0.758-0.056c-0.393-0.421-0.729-0.589-1.178-0.589
				c-0.729,0-1.627,0.841-2.244,2.412v5.132c0,1.852,0.141,2.02,2.301,2.188v0.729h-6.451v-0.729
				c1.738-0.168,1.936-0.336,1.936-2.188v-5.806c0-1.851-0.141-1.963-1.738-2.188v-0.616c1.373-0.225,2.607-0.562,3.953-1.15v3.057
				H555.178z"/>
			<path fill="#323031" d="M576.578,23.266c-0.42,0-1.01-0.253-1.318-0.533c-0.363-0.393-0.531-0.785-0.672-1.262
				c-1.123,0.757-2.469,1.795-3.311,1.795c-1.99,0-3.365-1.655-3.365-3.422c0-1.374,0.73-2.244,2.271-2.776
				c1.684-0.562,3.73-1.318,4.348-1.823v-0.505c0-2.02-0.953-3.169-2.355-3.169c-0.561,0-0.982,0.225-1.262,0.561
				c-0.365,0.365-0.617,0.981-0.842,1.852c-0.111,0.448-0.42,0.645-0.813,0.645c-0.506,0-1.234-0.561-1.234-1.206
				c0-0.42,0.363-0.729,0.896-1.121c0.785-0.562,2.609-1.655,4.207-1.964c0.842,0,1.684,0.253,2.301,0.758
				c0.98,0.813,1.262,1.963,1.262,3.421v5.217c0,1.262,0.504,1.683,0.98,1.683c0.338,0,0.73-0.14,1.01-0.309l0.281,0.729
				L576.578,23.266z M574.531,16.197c-0.588,0.309-1.936,0.898-2.523,1.179c-1.094,0.505-1.711,1.037-1.711,2.047
				c0,1.459,1.121,2.159,1.99,2.159c0.73-0.027,1.711-0.504,2.244-1.009V16.197z"/>
			<path fill="#323031" d="M579.666,22.929v-0.729c1.766-0.168,2.02-0.336,2.02-2.188V6.746c0-1.907-0.17-1.991-1.936-2.131V3.941
				c1.457-0.168,3.197-0.645,4.15-0.981v17.052c0,1.852,0.225,2.02,2.02,2.188v0.729H579.666z"/>
			<path fill="#323031" d="M596.186,23.266c-0.422,0-1.01-0.253-1.318-0.533c-0.365-0.393-0.533-0.785-0.674-1.262
				c-1.121,0.757-2.467,1.795-3.309,1.795c-1.992,0-3.365-1.655-3.365-3.422c0-1.374,0.729-2.244,2.271-2.776
				c1.682-0.562,3.73-1.318,4.348-1.823v-0.505c0-2.02-0.955-3.169-2.357-3.169c-0.561,0-0.98,0.225-1.262,0.561
				c-0.363,0.365-0.617,0.981-0.842,1.852c-0.111,0.448-0.42,0.645-0.813,0.645c-0.504,0-1.234-0.561-1.234-1.206
				c0-0.42,0.365-0.729,0.898-1.121c0.785-0.562,2.607-1.655,4.207-1.964c0.84,0,1.682,0.253,2.299,0.758
				c0.982,0.813,1.262,1.963,1.262,3.421v5.217c0,1.262,0.506,1.683,0.982,1.683c0.336,0,0.729-0.14,1.01-0.309l0.279,0.729
				L596.186,23.266z M594.139,16.197c-0.59,0.309-1.936,0.898-2.525,1.179c-1.094,0.505-1.711,1.037-1.711,2.047
				c0,1.459,1.123,2.159,1.992,2.159c0.729-0.027,1.711-0.504,2.244-1.009V16.197z"/>
			<path fill="#323031" d="M603.619,13.309c0.842-1.401,2.047-2.973,3.395-2.973c0.953,0,1.625,0.729,1.625,1.402
				c0,0.562-0.363,1.122-0.896,1.374c-0.336,0.141-0.59,0.112-0.758-0.056c-0.393-0.421-0.729-0.589-1.178-0.589
				c-0.729,0-1.627,0.841-2.244,2.412v5.132c0,1.852,0.141,2.02,2.301,2.188v0.729h-6.451v-0.729
				c1.738-0.168,1.936-0.336,1.936-2.188v-5.806c0-1.851-0.141-1.963-1.738-2.188v-0.616c1.373-0.225,2.607-0.562,3.953-1.15v3.057
				H603.619z"/>
			<path fill="#323031" d="M625.412,22.929v-0.729c1.654-0.168,1.963-0.28,1.963-2.271v-4.684c0-1.991-0.701-3.253-2.469-3.253
				c-1.01,0-2.074,0.561-3.141,1.458c0.057,0.337,0.084,0.646,0.084,1.178v5.469c0,1.768,0.252,1.936,1.795,2.104v0.729h-6.002
				v-0.729c1.74-0.168,1.992-0.309,1.992-2.159v-4.824c0-2.075-0.73-3.225-2.441-3.225c-1.121,0-2.215,0.757-3.057,1.458v6.591
				c0,1.823,0.225,1.991,1.6,2.159v0.729h-5.918v-0.729c1.852-0.168,2.104-0.336,2.104-2.159v-5.806
				c0-1.795-0.084-1.935-1.711-2.188v-0.645c1.234-0.225,2.664-0.59,3.898-1.15v2.271c0.588-0.393,1.205-0.897,2.047-1.43
				c0.73-0.449,1.402-0.758,2.301-0.758c1.346,0,2.551,0.842,3.113,2.3c0.813-0.617,1.625-1.149,2.326-1.57
				c0.59-0.393,1.318-0.729,2.104-0.729c2.188,0,3.563,1.543,3.563,4.291v5.413c0,1.879,0.225,1.991,1.822,2.159v0.729H625.412z"/>
			<path fill="#323031" d="M633.66,21.639c0-0.897,0.674-1.599,1.57-1.599c0.898,0,1.57,0.701,1.57,1.599
				c0,0.981-0.672,1.627-1.57,1.627C634.334,23.266,633.66,22.62,633.66,21.639z"/>
		</g>
		<g>
			<path fill="#323031" d="M138.977,37.658c-1.316,0.505-2.383,1.318-2.439,2.496c-0.055,0.869,0.506,1.374,1.346,1.57
				c0.17,0.057,0.338,0.225,0.309,0.505c-0.027,0.729-0.701,1.094-1.232,1.094c-0.982,0-2.244-0.953-2.188-2.607
				c0.084-2.216,2.271-3.366,3.898-3.814L138.977,37.658z M143.717,37.658c-1.318,0.505-2.412,1.347-2.467,2.524
				c-0.057,0.869,0.531,1.374,1.373,1.599c0.168,0.028,0.338,0.196,0.338,0.477c-0.057,0.729-0.73,1.122-1.264,1.122
				c-0.98,0-2.271-0.954-2.188-2.664c0.084-2.216,2.271-3.366,3.928-3.814L143.717,37.658z"/>
			<path fill="#323031" d="M141.475,55.243c-0.027-0.477,0.336-0.897,0.813-1.178c0.338-0.169,0.563-0.112,0.701,0.084
				c0.73,1.094,1.768,1.711,2.693,1.711c1.121,0,1.852-0.785,1.852-1.683c0-0.701-0.309-1.318-1.627-2.356
				c-1.262-0.953-2.439-1.991-2.439-3.421c0-0.842,0.336-1.739,1.457-2.721c0.869-0.758,2.217-1.347,3.113-1.347
				c1.234,0,2.188,0.842,2.188,1.571c0,0.477-0.279,0.897-0.701,1.149c-0.279,0.168-0.449,0.112-0.617-0.112
				c-0.561-0.701-1.234-1.262-2.188-1.262c-0.813,0-1.514,0.617-1.514,1.57c0,1.01,0.813,1.711,1.822,2.496
				c1.684,1.262,2.355,2.075,2.355,3.281c0,2.132-2.805,4.235-5.076,4.235C142.988,57.263,141.475,56.225,141.475,55.243z"/>
			<path fill="#323031" d="M163.66,54.57c-1.486,1.71-3.225,2.692-4.039,2.692c-0.729,0-0.926-0.786-0.477-2.721l1.486-6.507
				c0.338-1.486,0.225-1.991-0.225-1.991c-1.289,0-4.57,3.142-5.945,5.581c-0.279,1.234-0.785,3.73-1.037,5.104
				c-0.645,0.112-1.375,0.309-1.992,0.533l-0.195-0.225c1.205-5.413,2.439-11.078,3.533-16.827c0.309-1.459,0.168-1.543-0.926-1.571
				l-0.813-0.027l0.084-0.674c2.215-0.224,3.73-0.981,4.123-0.981c0.252,0,0.279,0.225,0.111,0.981l-2.523,11.64h0.057
				c1.85-2.496,3.926-3.982,5.188-4.656c0.729-0.393,1.375-0.589,1.879-0.589c0.701,0,1.486,0.505,0.785,3.563l-1.459,6.282
				c-0.168,0.813-0.139,1.009,0.086,1.009c0.279,0,1.148-0.532,1.934-1.29L163.66,54.57z"/>
			<path fill="#323031" d="M174.654,54.093c-2.467,2.637-4.57,3.17-5.916,3.17c-1.291,0-3.086-0.758-3.086-4.095
				c0-2.637,1.15-5.581,3.365-7.264c1.207-0.926,2.693-1.571,3.871-1.571c1.486,0,2.467,1.038,2.467,2.244
				c0,2.776-4.711,4.291-7.402,4.964c-0.057,0.337-0.057,0.617-0.057,0.897c0,1.515,0.477,3.169,2.188,3.169
				c1.178,0,2.691-0.785,4.094-2.159L174.654,54.093z M170.701,45.819c-0.758,0.421-2.16,1.711-2.637,4.853
				c4.01-1.066,5.188-2.356,5.188-3.646c0-0.981-0.588-1.542-1.402-1.542C171.457,45.483,171.01,45.623,170.701,45.819z"/>
			<path fill="#323031" d="M196.225,54.401c-1.348,1.627-3.197,2.861-4.066,2.861c-0.59,0-0.982-0.533-0.422-2.974
				c0.225-0.981,0.338-1.542,0.533-2.468h-0.057c-1.373,1.823-3.027,3.534-4.516,4.571c-0.785,0.562-1.598,0.87-2.271,0.87
				c-0.756,0-1.654-0.533-0.924-3.563c0.504-2.159,1.008-4.318,1.514-6.45c0.168-0.701,0.141-0.953-0.084-0.953
				c-0.197,0-0.982,0.561-1.963,1.346l-0.309-0.673c1.627-1.627,3.365-2.637,4.123-2.637c0.645,0,0.756,0.562,0.309,2.44
				c-0.506,2.216-1.01,4.487-1.543,6.73c-0.309,1.375-0.084,1.852,0.336,1.852c1.57,0,4.711-3.759,5.805-5.806
				c0.309-1.29,0.646-2.776,1.01-4.487l1.936-0.729h0.309c-0.758,2.973-1.486,6.114-2.188,9.76c-0.168,0.87-0.111,1.094,0.084,1.094
				c0.252,0,1.262-0.673,2.02-1.458L196.225,54.401z"/>
			<path fill="#323031" d="M205.396,45.735l-2.775,0.141l-1.654,7.74c-0.281,1.374-0.141,1.683,0.168,1.683
				c0.477,0,1.85-0.925,2.523-1.626l0.393,0.589c-0.926,1.121-3.029,3.001-4.516,3.001c-0.645,0-1.205-0.813-0.588-3.702
				l1.654-7.685h-2.076l-0.084-0.253l0.701-0.841h1.684l0.645-2.665l2.131-1.738l0.254,0.168l-0.982,4.235h3.254L205.396,45.735z"/>
			<path fill="#323031" d="M214.008,45.735l-2.775,0.141l-1.654,7.74c-0.281,1.374-0.141,1.683,0.168,1.683
				c0.477,0,1.85-0.925,2.523-1.626l0.393,0.589c-0.926,1.121-3.029,3.001-4.516,3.001c-0.645,0-1.205-0.813-0.588-3.702
				l1.654-7.685h-2.076l-0.084-0.253l0.701-0.841h1.684l0.645-2.665l2.131-1.738l0.254,0.168l-0.982,4.235h3.254L214.008,45.735z"/>
			<path fill="#323031" d="M223.854,54.093c-2.469,2.637-4.572,3.17-5.918,3.17c-1.289,0-3.084-0.758-3.084-4.095
				c0-2.637,1.148-5.581,3.365-7.264c1.205-0.926,2.691-1.571,3.869-1.571c1.486,0,2.469,1.038,2.469,2.244
				c0,2.776-4.711,4.291-7.404,4.964c-0.057,0.337-0.057,0.617-0.057,0.897c0,1.515,0.477,3.169,2.188,3.169
				c1.178,0,2.693-0.785,4.096-2.159L223.854,54.093z M219.898,45.819c-0.756,0.421-2.158,1.711-2.637,4.853
				c4.012-1.066,5.189-2.356,5.189-3.646c0-0.981-0.59-1.542-1.402-1.542C220.656,45.483,220.207,45.623,219.898,45.819z"/>
			<path fill="#323031" d="M226.211,47.082c1.43-1.599,3.168-2.749,3.926-2.749c0.701,0,0.73,1.29,0.309,3.254l-0.279,1.402h0.084
				c1.43-2.749,3.084-4.656,4.207-4.656c0.477,0,0.953,0.309,1.205,0.701c0.195,0.365,0.195,0.813-0.027,1.206
				c-0.197,0.337-0.477,0.617-0.73,0.813c-0.252,0.168-0.477,0.168-0.617,0.028c-0.309-0.337-0.645-0.477-0.953-0.477
				c-0.336,0-0.785,0.28-1.43,1.178c-0.617,0.897-1.486,2.215-1.992,3.478c-0.447,1.879-0.785,3.646-1.121,5.497
				c-0.617,0.084-1.375,0.28-1.992,0.505l-0.223-0.225c0.729-3.001,1.514-6.45,2.047-9.451c0.168-0.926,0.168-1.206-0.057-1.206
				c-0.252,0-1.15,0.561-1.99,1.346L226.211,47.082z"/>
			<path fill="#323031" d="M244.807,54.093c-2.467,2.637-4.57,3.17-5.916,3.17c-1.291,0-3.086-0.758-3.086-4.095
				c0-2.637,1.15-5.581,3.365-7.264c1.207-0.926,2.693-1.571,3.871-1.571c1.486,0,2.467,1.038,2.467,2.244
				c0,2.776-4.711,4.291-7.402,4.964c-0.057,0.337-0.057,0.617-0.057,0.897c0,1.515,0.477,3.169,2.188,3.169
				c1.178,0,2.691-0.785,4.094-2.159L244.807,54.093z M240.854,45.819c-0.758,0.421-2.16,1.711-2.637,4.853
				c4.01-1.066,5.188-2.356,5.188-3.646c0-0.981-0.588-1.542-1.402-1.542C241.609,45.483,241.162,45.623,240.854,45.819z"/>
			<path fill="#323031" d="M259.225,54.43c-1.486,1.767-3.338,2.833-4.123,2.833c-0.561,0-0.953-0.449-0.506-2.608l0.506-2.384
				l-0.057,0.027c-1.262,1.684-2.721,2.917-3.701,3.675c-1.039,0.841-1.936,1.29-2.721,1.29c-0.926,0-1.824-1.122-1.824-3.366
				c0-2.636,1.207-5.637,3.254-7.403c1.318-1.15,3.646-2.16,4.965-2.16c0.393,0,0.953,0.028,1.654,0.309l0.926-4.627
				c0.252-1.263,0.168-1.375-1.066-1.375h-0.896l0.084-0.701c2.355-0.28,3.869-0.981,4.291-0.981c0.252,0,0.309,0.225,0.195,0.785
				c-1.318,5.609-2.496,11.051-3.477,16.491c-0.141,0.673-0.084,0.926,0.111,0.926c0.336,0,1.234-0.617,1.992-1.374L259.225,54.43z
				 M255.438,50.279l0.898-4.011c-0.422-0.393-1.432-0.729-2.271-0.729c-0.871,0-1.459,0.225-1.965,0.589
				c-1.879,1.347-2.973,4.88-2.973,7.236c0,1.43,0.393,2.075,0.869,2.075C251.428,55.439,254.512,51.962,255.438,50.279z"/>
			<path fill="#323031" d="M279.363,54.346c-1.516,1.879-3.395,2.917-4.096,2.917c-0.531,0-0.896-0.421-0.504-2.469l0.561-2.664
				h-0.057c-1.094,1.543-2.412,2.889-3.617,3.87c-0.926,0.758-1.852,1.263-2.607,1.263c-0.73,0-1.627-0.926-1.627-3.17
				c0-2.832,1.318-5.89,3.365-7.6c1.402-1.179,3.449-2.16,5.217-2.16c0.588,0,1.148,0.084,1.738,0.196
				c0.393,0.084,0.758,0.169,1.066,0.169l0.084,0.112c-0.449,1.738-1.291,5.553-1.936,9.114c-0.197,0.981-0.111,1.206,0.057,1.206
				c0.225,0,1.205-0.646,2.02-1.458L279.363,54.346z M275.717,49.971c0.309-1.122,0.729-3.142,0.926-4.039
				c-0.393-0.196-1.15-0.393-1.879-0.393s-1.514,0.225-1.992,0.589c-1.906,1.402-3.027,4.712-3.027,7.488
				c0,1.263,0.363,1.852,0.756,1.852C271.594,55.468,274.764,51.905,275.717,49.971z"/>
			<path fill="#323031" d="M293.248,54.822c1.205-1.851,3.785-5.665,3.758-7.713c0-0.561-0.168-1.009-0.309-1.317
				c-0.084-0.196-0.057-0.478,0.057-0.701c0.195-0.421,0.701-0.758,1.178-0.758c0.617,0,1.094,0.617,1.094,1.543
				c0.027,0.785-0.281,1.738-0.982,2.973c-1.205,2.132-3.59,5.833-5.076,7.937c-1.654,2.385-3.477,4.853-5.047,6.591l-2.918,0.758
				l-0.225-0.617c3.002-1.963,5.217-4.432,6.592-6.282c-0.029-2.216-0.477-6.591-0.869-9.143c-0.197-1.402-0.365-1.739-0.59-1.739
				s-0.926,0.646-1.627,1.627l-0.477-0.646c0.898-1.402,2.301-3.001,3.311-3.001c0.785,0,1.205,1.038,1.43,3.281
				c0.279,2.132,0.477,4.656,0.645,7.208H293.248z"/>
			<path fill="#323031" d="M309.01,54.093c-2.467,2.637-4.57,3.17-5.916,3.17c-1.291,0-3.086-0.758-3.086-4.095
				c0-2.637,1.15-5.581,3.365-7.264c1.207-0.926,2.693-1.571,3.871-1.571c1.486,0,2.467,1.038,2.467,2.244
				c0,2.776-4.711,4.291-7.402,4.964c-0.057,0.337-0.057,0.617-0.057,0.897c0,1.515,0.477,3.169,2.188,3.169
				c1.178,0,2.691-0.785,4.094-2.159L309.01,54.093z M305.057,45.819c-0.758,0.421-2.16,1.711-2.637,4.853
				c4.01-1.066,5.188-2.356,5.188-3.646c0-0.981-0.588-1.542-1.402-1.542C305.813,45.483,305.365,45.623,305.057,45.819z"/>
			<path fill="#323031" d="M316.023,54.262c-1.459,1.738-3.449,3.001-4.318,3.001c-0.533,0-0.982-0.646-0.393-3.394
				c0.98-4.6,1.963-9.199,2.916-13.827c0.281-1.206,0.111-1.402-1.178-1.402l-0.758-0.027l0.113-0.674
				c2.188-0.252,3.785-0.981,4.15-0.981c0.252,0,0.279,0.253,0.168,0.842c-1.15,5.413-2.301,10.854-3.479,16.406
				c-0.168,0.813-0.055,0.981,0.113,0.981c0.309,0,1.457-0.729,2.244-1.542L316.023,54.262z"/>
			<path fill="#323031" d="M322.475,44.67c0.785-0.225,1.852-0.337,2.609-0.337c2.889,0,4.037,1.374,4.037,3.87
				c0,1.852-0.785,3.983-2.383,5.806c-1.402,1.571-3.422,2.805-5.217,3.254c-0.449,0-1.121-0.057-1.654-0.281l-0.785,3.955
				c-0.338,1.599-0.168,1.851,1.205,1.991l0.674,0.056l-0.084,0.729l-6.479,0.337l0.111-0.729c1.768-0.337,2.076-0.561,2.469-2.3
				c1.037-4.908,2.104-9.816,3.141-14.668c-0.898,0.28-1.627,0.673-2.271,1.01l-0.197-0.701c0.758-0.533,1.768-1.038,2.693-1.402
				l0.309-1.262c0.533-0.617,1.402-1.263,2.047-1.627l0.281,0.141L322.475,44.67z M320.316,55.075
				c0.307,0.42,1.064,0.953,1.738,0.953c1.99,0,4.711-3.786,4.711-7.376c0-2.496-1.318-3.113-2.945-3.113
				c-0.447,0-1.064,0.057-1.598,0.196L320.316,55.075z"/>
			<path fill="#323031" d="M330.469,42.707c1.346-0.505,2.412-1.29,2.469-2.496c0.055-0.87-0.533-1.375-1.375-1.599
				c-0.168-0.028-0.336-0.169-0.309-0.449c0.029-0.729,0.701-1.122,1.234-1.122c0.982,0,2.244,0.954,2.16,2.665
				c-0.057,2.159-2.244,3.337-3.898,3.758L330.469,42.707z M335.209,42.707c1.318-0.505,2.439-1.29,2.496-2.496
				c0.027-0.87-0.533-1.375-1.402-1.599c-0.168-0.028-0.309-0.169-0.309-0.449c0.027-0.729,0.701-1.122,1.234-1.122
				c0.98,0,2.271,0.954,2.188,2.637c-0.084,2.188-2.244,3.365-3.898,3.786L335.209,42.707z"/>
		</g>
		<g>
			<path fill="#323031" d="M104,121.244v-0.757c2.553-0.196,2.691-0.421,2.691-2.44v-10.798c0-1.458-0.111-1.599-1.346-1.654
				L104,105.539v-0.646c1.795-0.309,3.449-0.842,4.992-1.458v14.611c0,2.02,0.168,2.244,2.721,2.44v0.757H104z"/>
			<path fill="#323031" d="M116.033,119.954c0-0.897,0.674-1.599,1.57-1.599c0.898,0,1.57,0.701,1.57,1.599
				c0,0.981-0.672,1.627-1.57,1.627C116.707,121.581,116.033,120.936,116.033,119.954z"/>
		</g>
		<g>
			<path fill="#323031" d="M146.072,120.571c-1.289,0.196-2.719,0.589-4.121,1.01l-0.17-0.169v-1.991
				c-0.645,0.478-1.289,0.981-2.074,1.459c-0.814,0.477-1.402,0.701-2.16,0.701c-1.879,0-3.477-1.15-3.477-4.179v-5.497
				c0-1.543-0.113-1.655-1.711-1.964v-0.645c1.318-0.084,2.664-0.253,4.01-0.505c-0.084,0.869-0.084,2.188-0.084,4.095v3.758
				c0,2.496,1.205,3.169,2.469,3.169c1.01,0,2.074-0.42,3.027-1.346v-6.535c0-1.599-0.168-1.71-2.188-1.991v-0.645
				c1.459-0.084,2.918-0.196,4.404-0.505v9.367c0,1.402,0.225,1.599,1.289,1.654l0.785,0.057V120.571z"/>
			<path fill="#323031" d="M152.582,121.216c-0.477,0.253-0.926,0.365-1.178,0.365c-1.768,0-2.748-1.122-2.748-3.338v-8.161h-1.936
				l-0.113-0.28l0.758-0.813h1.291v-2.048l1.822-1.851l0.393,0.056v3.843h3.17c0.252,0.28,0.168,0.897-0.17,1.094h-3v7.208
				c0,2.271,0.926,2.692,1.627,2.692s1.346-0.281,1.738-0.478l0.252,0.729L152.582,121.216z"/>
			<path fill="#323031" d="M160.855,121.216c-0.477,0.253-0.924,0.365-1.178,0.365c-1.766,0-2.748-1.122-2.748-3.338v-8.161h-1.936
				l-0.111-0.28l0.758-0.813h1.289v-2.048l1.822-1.851l0.393,0.056v3.843h3.17c0.252,0.28,0.168,0.897-0.168,1.094h-3.002v7.208
				c0,2.271,0.926,2.692,1.627,2.692s1.348-0.281,1.74-0.478l0.252,0.729L160.855,121.216z"/>
			<path fill="#323031" d="M173.898,118.86c-1.768,2.216-3.703,2.721-4.572,2.721c-3.449,0-5.469-2.805-5.469-5.974
				c0-1.936,0.701-3.646,1.852-4.908c1.15-1.29,2.664-2.048,4.123-2.048c2.326,0,4.207,2.075,4.207,4.264
				c0,0.561-0.141,0.785-0.646,0.897c-0.477,0.084-3.982,0.364-7.32,0.477c0.029,3.814,2.217,5.385,4.18,5.385
				c1.121,0,2.188-0.449,3.197-1.402L173.898,118.86z M166.213,113.139c1.57,0,3.113-0.027,4.74-0.084
				c0.504,0,0.674-0.168,0.674-0.561c0.027-1.459-0.926-2.805-2.469-2.805C167.867,109.689,166.635,110.867,166.213,113.139z"/>
			<path fill="#323031" d="M179.873,111.624c0.842-1.401,2.047-2.973,3.395-2.973c0.953,0,1.625,0.729,1.625,1.402
				c0,0.562-0.363,1.122-0.896,1.374c-0.336,0.141-0.59,0.112-0.758-0.056c-0.393-0.421-0.729-0.589-1.178-0.589
				c-0.729,0-1.627,0.841-2.244,2.412v5.132c0,1.852,0.141,2.02,2.301,2.188v0.729h-6.451v-0.729
				c1.738-0.168,1.936-0.336,1.936-2.188v-5.806c0-1.851-0.141-1.963-1.738-2.188v-0.616c1.373-0.225,2.607-0.562,3.953-1.15v3.057
				H179.873z"/>
			<path fill="#323031" d="M201.273,121.581c-0.42,0-1.01-0.253-1.318-0.533c-0.363-0.393-0.531-0.785-0.672-1.262
				c-1.123,0.757-2.469,1.795-3.311,1.795c-1.99,0-3.365-1.655-3.365-3.422c0-1.374,0.73-2.244,2.271-2.776
				c1.684-0.562,3.73-1.318,4.348-1.823v-0.505c0-2.02-0.953-3.169-2.355-3.169c-0.561,0-0.982,0.225-1.262,0.561
				c-0.365,0.365-0.617,0.981-0.842,1.852c-0.111,0.448-0.42,0.645-0.813,0.645c-0.506,0-1.234-0.561-1.234-1.206
				c0-0.42,0.363-0.729,0.896-1.121c0.785-0.562,2.609-1.655,4.207-1.964c0.842,0,1.684,0.253,2.301,0.758
				c0.98,0.813,1.262,1.963,1.262,3.421v5.217c0,1.262,0.504,1.683,0.98,1.683c0.338,0,0.73-0.14,1.01-0.309l0.281,0.729
				L201.273,121.581z M199.227,114.514c-0.588,0.308-1.936,0.896-2.523,1.178c-1.094,0.505-1.711,1.037-1.711,2.047
				c0,1.459,1.121,2.16,1.99,2.16c0.73-0.028,1.711-0.505,2.244-1.01V114.514z"/>
			<path fill="#323031" d="M223.602,109.689c-1.488,0.225-1.74,0.448-2.496,2.047c-0.701,1.486-1.572,3.814-3.506,8.442
				c-1.879,4.487-2.496,6.086-2.889,7.6c-0.141,0.533-0.506,0.674-0.898,0.674c-0.785,0-1.598-0.674-1.598-1.347
				c0-0.448,0.252-0.701,0.729-1.01c0.869-0.561,1.43-1.262,2.076-2.496c0.531-0.981,0.756-1.57,0.869-1.935
				c0.141-0.421,0.141-0.785-0.029-1.263c-1.121-3.197-2.383-6.59-3.225-8.582c-0.59-1.542-0.869-1.906-2.412-2.131v-0.701h5.693
				v0.701c-1.289,0.225-1.43,0.505-1.066,1.542l2.553,7.04c0.785-1.907,1.992-5.217,2.58-6.983c0.336-1.065,0.141-1.374-1.459-1.599
				v-0.701h5.078V109.689z"/>
			<path fill="#323031" d="M233.924,118.86c-1.768,2.216-3.703,2.721-4.572,2.721c-3.449,0-5.469-2.805-5.469-5.974
				c0-1.936,0.701-3.646,1.852-4.908c1.15-1.29,2.664-2.048,4.123-2.048c2.326,0,4.207,2.075,4.207,4.264
				c0,0.561-0.141,0.785-0.646,0.897c-0.477,0.084-3.982,0.364-7.32,0.477c0.029,3.814,2.217,5.385,4.18,5.385
				c1.121,0,2.188-0.449,3.197-1.402L233.924,118.86z M226.238,113.139c1.57,0,3.113-0.027,4.74-0.084
				c0.504,0,0.674-0.168,0.674-0.561c0.027-1.459-0.926-2.805-2.469-2.805C227.893,109.689,226.66,110.867,226.238,113.139z"/>
			<path fill="#323031" d="M235.104,121.244v-0.729c1.766-0.168,2.02-0.336,2.02-2.188v-13.266c0-1.907-0.17-1.991-1.936-2.131
				v-0.674c1.457-0.168,3.197-0.645,4.15-0.981v17.052c0,1.852,0.225,2.02,2.02,2.188v0.729H235.104z"/>
			<path fill="#323031" d="M248.791,109.072c0.504-0.28,1.037-0.421,1.373-0.421c3.113,0,4.965,2.524,4.965,5.301
				c0,4.235-3.338,6.955-6.984,7.629c-0.813-0.028-1.57-0.309-1.936-0.505v3.674c0,2.131,0.197,2.271,2.385,2.468v0.757h-6.646
				v-0.757c1.795-0.168,2.047-0.337,2.047-2.188v-12.677c0-1.823-0.111-1.879-1.852-2.104v-0.673
				c1.178-0.196,2.75-0.673,4.066-1.206v2.216L248.791,109.072z M246.209,119.112c0.617,0.646,1.684,1.094,2.637,1.094
				c2.355,0,3.928-2.019,3.928-5.188c0-3-1.711-4.684-3.76-4.684c-0.896,0-2.047,0.617-2.805,1.179V119.112z"/>
			<path fill="#323031" d="M257.01,119.954c0-0.897,0.674-1.599,1.57-1.599c0.898,0,1.57,0.701,1.57,1.599
				c0,0.981-0.672,1.627-1.57,1.627C257.684,121.581,257.01,120.936,257.01,119.954z"/>
		</g>
		<g>
			<path fill="#323031" d="M138.977,135.973c-1.316,0.505-2.383,1.318-2.439,2.496c-0.055,0.869,0.506,1.374,1.346,1.57
				c0.17,0.057,0.338,0.225,0.309,0.505c-0.027,0.729-0.701,1.094-1.232,1.094c-0.982,0-2.244-0.953-2.188-2.607
				c0.084-2.216,2.271-3.366,3.898-3.814L138.977,135.973z M143.717,135.973c-1.318,0.505-2.412,1.347-2.467,2.524
				c-0.057,0.869,0.531,1.374,1.373,1.599c0.168,0.028,0.338,0.196,0.338,0.477c-0.057,0.729-0.73,1.122-1.264,1.122
				c-0.98,0-2.271-0.954-2.188-2.664c0.084-2.216,2.271-3.366,3.928-3.814L143.717,135.973z"/>
			<path fill="#323031" d="M162.396,152.885c-1.486,1.654-3.254,2.692-3.955,2.692s-0.924-0.842-0.447-2.889l1.541-6.479
				c0.309-1.375,0.141-1.823-0.279-1.823c-1.318,0-4.74,3.982-5.721,5.861c-0.338,1.318-0.758,3.197-1.096,4.824
				c-0.729,0.084-1.457,0.28-2.047,0.505l-0.168-0.196c0.701-2.833,1.43-5.693,2.02-8.414c0.393-1.907,0.365-2.58-0.225-2.58
				c-1.346,0-4.768,4.066-5.664,5.861c-0.365,1.262-0.787,3.142-1.15,4.824c-0.701,0.084-1.402,0.28-2.02,0.505l-0.197-0.196
				c0.842-3.17,1.627-6.367,2.328-9.536c0.225-1.01,0.168-1.206-0.027-1.206c-0.281,0-1.262,0.758-1.936,1.375l-0.336-0.674
				c1.57-1.683,3.225-2.692,3.953-2.692c0.73,0,0.814,1.038,0.225,3.45l-0.477,1.991h0.057c1.906-2.692,3.842-4.207,5.02-4.88
				c0.645-0.365,1.178-0.562,1.74-0.562c0.756,0,1.457,0.701,0.672,4.264l-0.252,1.149h0.057c1.906-2.664,3.926-4.207,5.131-4.88
				c0.701-0.393,1.178-0.533,1.711-0.533c0.561,0,1.486,0.337,0.59,4.067l-1.375,5.861c-0.168,0.701-0.111,0.897,0.057,0.897
				c0.225,0,1.094-0.505,1.906-1.263L162.396,152.885z"/>
			<path fill="#323031" d="M169.58,153.137c1.205-1.851,3.785-5.665,3.758-7.713c0-0.561-0.168-1.009-0.309-1.317
				c-0.084-0.196-0.057-0.478,0.057-0.701c0.195-0.421,0.701-0.758,1.178-0.758c0.617,0,1.094,0.617,1.094,1.543
				c0.027,0.785-0.281,1.738-0.982,2.973c-1.205,2.132-3.59,5.833-5.076,7.937c-1.654,2.385-3.477,4.853-5.047,6.591l-2.918,0.758
				l-0.225-0.617c3.002-1.963,5.217-4.432,6.592-6.282c-0.029-2.216-0.477-6.591-0.869-9.143c-0.197-1.402-0.365-1.739-0.59-1.739
				s-0.926,0.646-1.627,1.627l-0.477-0.646c0.898-1.402,2.301-3.001,3.311-3.001c0.785,0,1.205,1.038,1.43,3.281
				c0.279,2.132,0.477,4.656,0.645,7.208H169.58z"/>
			<path fill="#323031" d="M195.215,152.744c-1.486,1.767-3.338,2.833-4.123,2.833c-0.561,0-0.953-0.449-0.504-2.608l0.504-2.384
				l-0.055,0.027c-1.264,1.684-2.721,2.917-3.703,3.675c-1.037,0.841-1.936,1.29-2.721,1.29c-0.926,0-1.822-1.122-1.822-3.366
				c0-2.636,1.205-5.637,3.254-7.403c1.318-1.15,3.645-2.16,4.963-2.16c0.393,0,0.955,0.028,1.654,0.309l0.926-4.627
				c0.254-1.263,0.17-1.375-1.064-1.375h-0.898l0.084-0.701c2.355-0.28,3.871-0.981,4.291-0.981c0.252,0,0.309,0.225,0.197,0.785
				c-1.318,5.609-2.496,11.051-3.479,16.491c-0.141,0.673-0.084,0.926,0.113,0.926c0.336,0,1.232-0.617,1.99-1.374L195.215,152.744z
				 M191.43,148.594l0.896-4.011c-0.42-0.393-1.43-0.729-2.271-0.729c-0.869,0-1.459,0.225-1.963,0.589
				c-1.879,1.347-2.973,4.88-2.973,7.236c0,1.43,0.393,2.075,0.869,2.075C187.418,153.754,190.504,150.276,191.43,148.594z"/>
			<path fill="#323031" d="M197.068,151.201c0-3.646,1.936-6.422,4.262-7.656c1.01-0.532,2.16-0.897,3.029-0.897
				c2.328,0,3.73,1.599,3.73,4.375c0,2.412-1.037,5.161-3,6.787c-1.207,1.01-2.75,1.768-4.32,1.768
				C198.105,155.577,197.068,153.474,197.068,151.201z M202.678,154.287c1.514-0.646,3.057-3.618,3.057-7.208
				c0-2.271-0.982-3.365-2.271-3.365c-0.422,0-0.758,0.111-1.066,0.252c-1.094,0.477-2.973,2.776-2.973,7.096
				c0,2.075,0.869,3.394,2.355,3.394C202.115,154.455,202.396,154.398,202.678,154.287z"/>
			<path fill="#323031" d="M222.311,143.293c-0.814,0.897-1.543,1.233-1.992,1.318c-0.225,0.056-0.42,0.084-0.729,0.084
				c0.141,0.393,0.225,0.813,0.225,1.57c0,1.991-1.094,3.478-2.131,4.291c-0.758,0.617-2.02,1.318-3.619,1.627
				c-0.336,0.28-0.561,0.561-0.561,0.897c0,0.42,0.674,0.925,2.02,1.626c2.691,1.431,3.785,2.524,3.785,3.73
				c0,2.328-3.926,4.011-6.617,4.011c-2.721,0-5.076-1.402-5.021-3.142c0.029-1.206,1.627-2.468,4.713-4.038
				c-0.701-0.449-1.066-1.01-1.039-1.374c0-0.449,0.393-0.954,1.711-1.739c-1.598-0.364-2.439-1.515-2.439-3.422
				c0-1.822,0.926-3.562,2.355-4.684c1.15-0.925,2.58-1.402,3.59-1.402c0.898,0,1.768,0.253,2.385,0.785
				c1.627-0.027,2.635-0.336,3.168-0.673L222.311,143.293z M217.262,159.194c0-0.757-0.758-1.458-2.047-2.215
				c-0.926-0.562-1.711-1.01-2.104-1.206c-1.879,0.897-3.113,2.019-3.113,3.057c0,1.431,1.852,2.44,3.814,2.44
				C215.916,161.271,217.262,160.288,217.262,159.194z M217.738,146.35c0-1.599-0.645-2.721-1.879-2.721
				c-0.813,0-1.543,0.505-2.047,1.263c-0.59,0.841-1.066,2.131-1.066,3.646c0,1.655,0.814,2.524,1.824,2.524
				C216.057,151.062,217.738,149.351,217.738,146.35z"/>
			<path fill="#323031" d="M240.037,152.688c1.15-1.571,3.955-5.441,3.955-7.236c0-0.589-0.141-0.981-0.281-1.29
				c-0.111-0.196-0.111-0.477,0-0.701c0.197-0.448,0.674-0.813,1.15-0.813c0.701,0,1.205,0.617,1.205,1.599
				c0,0.954-0.531,1.879-1.148,2.945c-0.953,1.542-4.348,6.226-5.918,8.386h-0.785c-0.225-2.974-0.506-5.918-0.785-8.751h-0.057
				c-1.795,3.001-3.842,6.282-5.357,8.751h-0.729c-0.027-2.721-0.168-6.339-0.281-9.031c-0.055-1.346-0.168-1.851-0.447-1.851
				c-0.197,0-0.617,0.336-1.654,1.43l-0.479-0.561c1.18-1.57,2.637-2.917,3.59-2.917c0.646,0,0.955,0.842,1.01,2.776
				c0.057,2.244,0.084,4.769,0.084,6.619h0.057c1.684-2.889,3.563-5.945,5.217-8.975h0.701c0.309,3.142,0.561,6.395,0.896,9.62
				H240.037z"/>
			<path fill="#323031" d="M258.887,152.66c-1.516,1.879-3.395,2.917-4.096,2.917c-0.531,0-0.896-0.421-0.504-2.469l0.561-2.664
				h-0.057c-1.094,1.543-2.412,2.889-3.617,3.87c-0.926,0.758-1.852,1.263-2.607,1.263c-0.73,0-1.627-0.926-1.627-3.17
				c0-2.832,1.318-5.89,3.365-7.6c1.402-1.179,3.449-2.16,5.217-2.16c0.588,0,1.148,0.084,1.738,0.196
				c0.393,0.084,0.758,0.169,1.066,0.169l0.084,0.112c-0.449,1.738-1.291,5.553-1.936,9.114c-0.197,0.981-0.111,1.206,0.057,1.206
				c0.225,0,1.205-0.646,2.02-1.458L258.887,152.66z M255.24,148.285c0.309-1.122,0.729-3.142,0.926-4.039
				c-0.393-0.196-1.15-0.393-1.879-0.393s-1.514,0.225-1.992,0.589c-1.906,1.402-3.027,4.712-3.027,7.488
				c0,1.263,0.363,1.852,0.756,1.852C251.117,153.782,254.287,150.22,255.24,148.285z"/>
			<path fill="#323031" d="M259.926,153.558c-0.027-0.477,0.336-0.897,0.813-1.178c0.338-0.169,0.563-0.112,0.701,0.084
				c0.73,1.094,1.768,1.711,2.693,1.711c1.121,0,1.852-0.785,1.852-1.683c0-0.701-0.309-1.318-1.627-2.356
				c-1.262-0.953-2.439-1.991-2.439-3.421c0-0.842,0.336-1.739,1.457-2.721c0.869-0.758,2.217-1.347,3.113-1.347
				c1.234,0,2.188,0.842,2.188,1.571c0,0.477-0.279,0.897-0.701,1.149c-0.279,0.168-0.449,0.112-0.617-0.112
				c-0.561-0.701-1.234-1.262-2.188-1.262c-0.813,0-1.514,0.617-1.514,1.57c0,1.01,0.813,1.711,1.822,2.496
				c1.684,1.262,2.355,2.075,2.355,3.281c0,2.132-2.805,4.235-5.076,4.235C261.439,155.577,259.926,154.539,259.926,153.558z"/>
			<path fill="#323031" d="M282.223,153.137c1.207-1.851,3.787-5.665,3.76-7.713c0-0.561-0.17-1.009-0.309-1.317
				c-0.086-0.196-0.057-0.478,0.055-0.701c0.197-0.421,0.701-0.758,1.178-0.758c0.617,0,1.094,0.617,1.094,1.543
				c0.029,0.785-0.279,1.738-0.98,2.973c-1.207,2.132-3.59,5.833-5.076,7.937c-1.654,2.385-3.479,4.853-5.049,6.591l-2.916,0.758
				l-0.225-0.617c3-1.963,5.217-4.432,6.59-6.282c-0.027-2.216-0.477-6.591-0.869-9.143c-0.195-1.402-0.365-1.739-0.588-1.739
				c-0.225,0-0.926,0.646-1.627,1.627l-0.477-0.646c0.896-1.402,2.299-3.001,3.309-3.001c0.785,0,1.207,1.038,1.43,3.281
				c0.281,2.132,0.477,4.656,0.646,7.208H282.223z"/>
			<path fill="#323031" d="M298.014,152.407c-2.467,2.637-4.57,3.17-5.916,3.17c-1.291,0-3.086-0.758-3.086-4.095
				c0-2.637,1.15-5.581,3.365-7.264c1.207-0.926,2.693-1.571,3.871-1.571c1.486,0,2.467,1.038,2.467,2.244
				c0,2.776-4.711,4.291-7.402,4.964c-0.057,0.337-0.057,0.617-0.057,0.897c0,1.515,0.477,3.169,2.188,3.169
				c1.178,0,2.691-0.785,4.094-2.159L298.014,152.407z M294.061,144.134c-0.758,0.421-2.16,1.711-2.637,4.853
				c4.01-1.066,5.188-2.356,5.188-3.646c0-0.981-0.588-1.542-1.402-1.542C294.816,143.798,294.369,143.938,294.061,144.134z"/>
			<path fill="#323031" d="M305.027,152.576c-1.459,1.738-3.449,3.001-4.318,3.001c-0.533,0-0.982-0.646-0.393-3.394
				c0.98-4.6,1.963-9.199,2.916-13.827c0.281-1.206,0.111-1.402-1.178-1.402l-0.758-0.027l0.113-0.674
				c2.188-0.252,3.785-0.981,4.15-0.981c0.252,0,0.279,0.253,0.168,0.842c-1.15,5.413-2.301,10.854-3.479,16.406
				c-0.168,0.813-0.055,0.981,0.113,0.981c0.309,0,1.457-0.729,2.244-1.542L305.027,152.576z"/>
			<path fill="#323031" d="M311.479,142.984c0.785-0.225,1.852-0.337,2.609-0.337c2.889,0,4.037,1.374,4.037,3.87
				c0,1.852-0.785,3.983-2.383,5.806c-1.402,1.571-3.422,2.805-5.217,3.254c-0.449,0-1.121-0.057-1.654-0.281l-0.785,3.955
				c-0.338,1.599-0.168,1.851,1.205,1.991l0.674,0.056l-0.084,0.729l-6.479,0.337l0.111-0.729c1.768-0.337,2.076-0.561,2.469-2.3
				c1.037-4.908,2.104-9.816,3.141-14.668c-0.898,0.28-1.627,0.673-2.271,1.01l-0.197-0.701c0.758-0.533,1.768-1.038,2.693-1.402
				l0.309-1.262c0.533-0.617,1.402-1.263,2.047-1.627l0.281,0.141L311.479,142.984z M309.32,153.39
				c0.307,0.42,1.064,0.953,1.738,0.953c1.99,0,4.711-3.786,4.711-7.376c0-2.496-1.318-3.113-2.945-3.113
				c-0.447,0-1.064,0.057-1.598,0.196L309.32,153.39z"/>
			<path fill="#323031" d="M325.279,152.772c-0.926,1.149-3.113,2.805-4.094,2.805c-0.563,0-0.926-0.449-0.365-2.749l1.738-7.18
				c0.168-0.617,0.168-0.897-0.027-0.897c-0.225,0-1.066,0.477-1.908,1.206l-0.336-0.645c1.543-1.515,3.506-2.665,4.264-2.665
				c0.617,0,0.588,0.897,0.279,2.216l-1.934,7.74c-0.17,0.674-0.113,0.897,0.055,0.897c0.338,0,1.318-0.729,1.963-1.317
				L325.279,152.772z M326.008,138.525c0,0.869-0.645,1.626-1.486,1.626c-0.672,0-1.148-0.505-1.178-1.233
				c0-0.701,0.561-1.655,1.543-1.655C325.615,137.263,325.98,137.852,326.008,138.525z"/>
			<path fill="#323031" d="M339.836,152.856c-1.656,1.795-3.227,2.721-3.955,2.721c-0.701,0-0.953-0.758-0.449-2.917
				c0.533-2.104,1.01-4.15,1.516-6.227c0.393-1.599,0.225-2.019-0.225-2.019c-1.234,0-4.488,3.478-5.891,5.861
				c-0.336,1.374-0.756,3.057-1.094,4.739c-0.729,0.141-1.486,0.365-2.02,0.562l-0.168-0.225c0.758-3.029,1.6-6.395,2.271-9.508
				c0.225-0.897,0.141-1.122-0.027-1.122c-0.252,0-1.121,0.59-1.822,1.263l-0.365-0.673c1.514-1.655,3.17-2.665,3.955-2.665
				c0.645,0,0.756,0.954,0.225,3.113l-0.59,2.44h0.057c1.906-2.608,3.982-4.235,5.16-4.937c0.729-0.421,1.318-0.617,1.879-0.617
				c0.674,0,1.459,0.421,0.617,4.011c-0.449,1.907-0.898,3.87-1.375,5.834c-0.168,0.757-0.141,1.009,0.057,1.009
				c0.252,0,1.01-0.505,1.852-1.317L339.836,152.856z"/>
			<path fill="#323031" d="M353.889,143.293c-0.814,0.897-1.543,1.233-1.992,1.318c-0.225,0.056-0.42,0.084-0.729,0.084
				c0.141,0.393,0.225,0.813,0.225,1.57c0,1.991-1.094,3.478-2.131,4.291c-0.758,0.617-2.02,1.318-3.619,1.627
				c-0.336,0.28-0.561,0.561-0.561,0.897c0,0.42,0.674,0.925,2.02,1.626c2.691,1.431,3.785,2.524,3.785,3.73
				c0,2.328-3.926,4.011-6.617,4.011c-2.721,0-5.076-1.402-5.021-3.142c0.029-1.206,1.627-2.468,4.713-4.038
				c-0.701-0.449-1.066-1.01-1.039-1.374c0-0.449,0.393-0.954,1.711-1.739c-1.598-0.364-2.439-1.515-2.439-3.422
				c0-1.822,0.926-3.562,2.355-4.684c1.15-0.925,2.58-1.402,3.59-1.402c0.898,0,1.768,0.253,2.385,0.785
				c1.627-0.027,2.635-0.336,3.168-0.673L353.889,143.293z M348.84,159.194c0-0.757-0.758-1.458-2.047-2.215
				c-0.926-0.562-1.711-1.01-2.104-1.206c-1.879,0.897-3.113,2.019-3.113,3.057c0,1.431,1.852,2.44,3.814,2.44
				C347.494,161.271,348.84,160.288,348.84,159.194z M349.316,146.35c0-1.599-0.645-2.721-1.879-2.721
				c-0.813,0-1.543,0.505-2.047,1.263c-0.59,0.841-1.066,2.131-1.066,3.646c0,1.655,0.814,2.524,1.824,2.524
				C347.635,151.062,349.316,149.351,349.316,146.35z"/>
			<path fill="#323031" d="M371.783,152.66c-1.514,1.879-3.393,2.917-4.094,2.917c-0.533,0-0.898-0.421-0.506-2.469l0.563-2.664
				h-0.057c-1.094,1.543-2.412,2.889-3.617,3.87c-0.926,0.758-1.852,1.263-2.609,1.263c-0.729,0-1.627-0.926-1.627-3.17
				c0-2.832,1.318-5.89,3.365-7.6c1.402-1.179,3.451-2.16,5.217-2.16c0.59,0,1.15,0.084,1.74,0.196
				c0.393,0.084,0.756,0.169,1.064,0.169l0.084,0.112c-0.447,1.738-1.289,5.553-1.936,9.114c-0.195,0.981-0.111,1.206,0.057,1.206
				c0.225,0,1.207-0.646,2.02-1.458L371.783,152.66z M368.139,148.285c0.309-1.122,0.729-3.142,0.926-4.039
				c-0.395-0.196-1.15-0.393-1.881-0.393c-0.729,0-1.514,0.225-1.99,0.589c-1.908,1.402-3.029,4.712-3.029,7.488
				c0,1.263,0.365,1.852,0.758,1.852C364.016,153.782,367.184,150.22,368.139,148.285z"/>
			<path fill="#323031" d="M372.824,153.558c-0.029-0.477,0.336-0.897,0.813-1.178c0.336-0.169,0.561-0.112,0.701,0.084
				c0.729,1.094,1.768,1.711,2.691,1.711c1.123,0,1.852-0.785,1.852-1.683c0-0.701-0.309-1.318-1.627-2.356
				c-1.262-0.953-2.439-1.991-2.439-3.421c0-0.842,0.336-1.739,1.459-2.721c0.869-0.758,2.215-1.347,3.113-1.347
				c1.232,0,2.188,0.842,2.188,1.571c0,0.477-0.281,0.897-0.701,1.149c-0.281,0.168-0.449,0.112-0.617-0.112
				c-0.561-0.701-1.234-1.262-2.188-1.262c-0.814,0-1.516,0.617-1.516,1.57c0,1.01,0.814,1.711,1.824,2.496
				c1.682,1.262,2.355,2.075,2.355,3.281c0,2.132-2.805,4.235-5.076,4.235C374.338,155.577,372.824,154.539,372.824,153.558z"/>
			<path fill="#323031" d="M394.98,152.772c-0.926,1.149-3.113,2.805-4.094,2.805c-0.563,0-0.926-0.449-0.365-2.749l1.738-7.18
				c0.168-0.617,0.168-0.897-0.027-0.897c-0.225,0-1.066,0.477-1.908,1.206l-0.336-0.645c1.543-1.515,3.506-2.665,4.264-2.665
				c0.617,0,0.588,0.897,0.279,2.216l-1.934,7.74c-0.17,0.674-0.113,0.897,0.055,0.897c0.338,0,1.318-0.729,1.963-1.317
				L394.98,152.772z M395.709,138.525c0,0.869-0.645,1.626-1.486,1.626c-0.672,0-1.148-0.505-1.178-1.233
				c0-0.701,0.561-1.655,1.543-1.655C395.316,137.263,395.682,137.852,395.709,138.525z"/>
			<path fill="#323031" d="M399.721,143.097c0.422-2.132,1.094-4.179,2.355-5.581c1.291-1.431,2.889-2.244,4.012-2.244
				c0.98,0,1.711,0.701,1.682,1.206c0,0.421-0.393,0.926-0.701,1.15c-0.225,0.168-0.504,0.196-0.701-0.028
				c-0.588-0.617-1.178-0.981-1.766-0.981c-1.039,0-1.879,1.29-2.721,6.479h3.168l-0.588,0.869l-2.805,0.28
				c-0.506,3.085-0.813,4.796-1.43,7.909c-0.982,4.824-2.02,6.927-3.563,8.525c-1.234,1.318-2.412,1.768-3.17,1.768
				c-0.813,0-1.766-0.562-1.738-1.206c0-0.365,0.336-0.842,0.758-1.178c0.225-0.196,0.363-0.169,0.533,0
				c0.447,0.42,1.262,0.701,1.766,0.701c0.477,0,0.926-0.225,1.207-0.562c0.363-0.421,1.037-1.599,1.963-7.039
				c0.672-3.87,1.037-6.227,1.514-8.975h-2.328l-0.084-0.309l0.842-0.785H399.721z"/>
			<path fill="#323031" d="M423.141,152.885c-1.486,1.71-3.225,2.692-4.039,2.692c-0.729,0-0.926-0.786-0.477-2.721l1.486-6.507
				c0.338-1.486,0.225-1.991-0.225-1.991c-1.289,0-4.57,3.142-5.945,5.581c-0.279,1.234-0.785,3.73-1.037,5.104
				c-0.645,0.112-1.375,0.309-1.992,0.533l-0.195-0.225c1.205-5.413,2.439-11.078,3.533-16.827c0.309-1.459,0.168-1.543-0.926-1.571
				l-0.813-0.027l0.084-0.674c2.215-0.224,3.73-0.981,4.123-0.981c0.252,0,0.279,0.225,0.111,0.981l-2.523,11.64h0.057
				c1.85-2.496,3.926-3.982,5.188-4.656c0.729-0.393,1.375-0.589,1.879-0.589c0.701,0,1.486,0.505,0.785,3.563l-1.459,6.282
				c-0.168,0.813-0.139,1.009,0.086,1.009c0.279,0,1.148-0.532,1.934-1.29L423.141,152.885z"/>
			<path fill="#323031" d="M434.137,152.407c-2.469,2.637-4.572,3.17-5.918,3.17c-1.289,0-3.084-0.758-3.084-4.095
				c0-2.637,1.148-5.581,3.365-7.264c1.205-0.926,2.691-1.571,3.869-1.571c1.486,0,2.469,1.038,2.469,2.244
				c0,2.776-4.711,4.291-7.404,4.964c-0.057,0.337-0.057,0.617-0.057,0.897c0,1.515,0.477,3.169,2.188,3.169
				c1.178,0,2.693-0.785,4.096-2.159L434.137,152.407z M430.182,144.134c-0.756,0.421-2.158,1.711-2.637,4.853
				c4.012-1.066,5.189-2.356,5.189-3.646c0-0.981-0.59-1.542-1.402-1.542C430.939,143.798,430.49,143.938,430.182,144.134z"/>
			<path fill="#323031" d="M454.949,152.885c-1.488,1.71-3.227,2.692-4.039,2.692c-0.73,0-0.926-0.786-0.477-2.721l1.486-6.507
				c0.336-1.486,0.225-1.991-0.225-1.991c-1.291,0-4.572,3.142-5.945,5.581c-0.281,1.234-0.785,3.73-1.039,5.104
				c-0.645,0.112-1.373,0.309-1.99,0.533l-0.197-0.225c1.207-5.413,2.441-11.078,3.535-16.827c0.309-1.459,0.168-1.543-0.926-1.571
				l-0.814-0.027l0.084-0.674c2.217-0.224,3.73-0.981,4.123-0.981c0.252,0,0.281,0.225,0.113,0.981l-2.525,11.64h0.057
				c1.852-2.496,3.926-3.982,5.189-4.656c0.729-0.393,1.373-0.589,1.879-0.589c0.701,0,1.486,0.505,0.785,3.563l-1.459,6.282
				c-0.168,0.813-0.141,1.009,0.084,1.009c0.281,0,1.15-0.532,1.936-1.29L454.949,152.885z"/>
			<path fill="#323031" d="M469.59,152.716c-1.346,1.627-3.197,2.861-4.066,2.861c-0.588,0-0.98-0.533-0.42-2.974
				c0.225-0.981,0.336-1.542,0.533-2.468h-0.057c-1.375,1.823-3.029,3.534-4.516,4.571c-0.785,0.562-1.598,0.87-2.271,0.87
				c-0.758,0-1.654-0.533-0.926-3.563c0.504-2.159,1.01-4.318,1.514-6.45c0.17-0.701,0.141-0.953-0.084-0.953
				c-0.195,0-0.98,0.561-1.963,1.346l-0.309-0.673c1.627-1.627,3.365-2.637,4.123-2.637c0.645,0,0.758,0.562,0.309,2.44
				c-0.504,2.216-1.01,4.487-1.543,6.73c-0.309,1.375-0.084,1.852,0.338,1.852c1.57,0,4.711-3.759,5.805-5.806
				c0.309-1.29,0.645-2.776,1.01-4.487l1.936-0.729h0.309c-0.758,2.973-1.486,6.114-2.188,9.76c-0.17,0.87-0.113,1.094,0.084,1.094
				c0.252,0,1.262-0.673,2.02-1.458L469.59,152.716z"/>
			<path fill="#323031" d="M471.414,145.396c1.432-1.599,3.17-2.749,3.928-2.749c0.701,0,0.729,1.29,0.309,3.254l-0.281,1.402h0.084
				c1.43-2.749,3.086-4.656,4.207-4.656c0.477,0,0.953,0.309,1.205,0.701c0.197,0.365,0.197,0.813-0.027,1.206
				c-0.195,0.337-0.477,0.617-0.729,0.813c-0.252,0.168-0.477,0.168-0.617,0.028c-0.309-0.337-0.645-0.477-0.953-0.477
				c-0.338,0-0.785,0.28-1.432,1.178c-0.617,0.897-1.486,2.215-1.99,3.478c-0.449,1.879-0.785,3.646-1.123,5.497
				c-0.615,0.084-1.373,0.28-1.99,0.505l-0.225-0.225c0.729-3.001,1.514-6.45,2.047-9.451c0.168-0.926,0.168-1.206-0.055-1.206
				c-0.254,0-1.15,0.561-1.992,1.346L471.414,145.396z"/>
			<path fill="#323031" d="M489.563,144.05l-2.777,0.141l-1.654,7.74c-0.279,1.374-0.141,1.683,0.168,1.683
				c0.477,0,1.852-0.925,2.525-1.626l0.393,0.589c-0.926,1.121-3.029,3.001-4.516,3.001c-0.645,0-1.207-0.813-0.59-3.702
				l1.654-7.685h-2.074l-0.084-0.253l0.701-0.841h1.682l0.646-2.665l2.131-1.738l0.252,0.168l-0.98,4.235h3.252L489.563,144.05z"/>
			<path fill="#323031" d="M491.695,141.021c1.346-0.505,2.412-1.29,2.467-2.496c0.057-0.87-0.533-1.375-1.373-1.599
				c-0.17-0.028-0.338-0.169-0.309-0.449c0.027-0.729,0.701-1.122,1.234-1.122c0.98,0,2.242,0.954,2.158,2.665
				c-0.057,2.159-2.244,3.337-3.898,3.758L491.695,141.021z M496.434,141.021c1.318-0.505,2.441-1.29,2.496-2.496
				c0.029-0.87-0.531-1.375-1.402-1.599c-0.168-0.028-0.309-0.169-0.309-0.449c0.029-0.729,0.701-1.122,1.234-1.122
				c0.982,0,2.271,0.954,2.188,2.637c-0.084,2.188-2.242,3.365-3.898,3.786L496.434,141.021z"/>
		</g>
		<g>
			<path fill="#D1232A" d="M113.283,211.061c-0.365,1.178-0.645,2.412-0.982,3.674h-10.488v-0.646
				c1.57-1.542,3.141-3.141,4.543-4.768c1.738-2.075,3.506-4.375,3.506-6.787c0-2.355-1.234-3.729-3.309-3.729
				c-1.908,0-3.086,1.515-3.814,2.608l-0.617-0.562l1.598-2.271c0.842-0.926,2.16-1.654,3.787-1.654
				c2.467,0,4.711,1.795,4.711,4.739c0,2.44-1.121,4.095-3.701,6.843l-3.982,4.18h5.244c1.514,0,1.879-0.112,2.721-1.88
				L113.283,211.061z"/>
			<path fill="#D1232A" d="M116.033,213.444c0-0.897,0.674-1.599,1.57-1.599c0.898,0,1.57,0.701,1.57,1.599
				c0,0.981-0.672,1.627-1.57,1.627C116.707,215.071,116.033,214.426,116.033,213.444z"/>
		</g>
		<g>
			<path fill="#D1232A" d="M139.455,219.474c-4.096-2.748-5.947-7.264-5.947-12.34c0-5.02,1.852-9.507,5.947-12.284l0.504,0.646
				c-2.805,2.328-4.402,6.843-4.402,11.667s1.625,9.339,4.402,11.695L139.455,219.474z"/>
			<path fill="#D1232A" d="M154.516,208.396c0,4.515-3.309,6.675-6.086,6.675c-3.842,0-6.141-3.085-6.141-6.198
				c0-4.628,3.59-6.731,6.141-6.731C151.908,202.142,154.516,204.918,154.516,208.396z M144.896,207.976
				c0,3.533,1.543,6.17,3.842,6.17c1.738,0,3.17-1.29,3.17-5.133c0-3.281-1.318-5.945-3.758-5.945
				C146.41,203.067,144.896,204.807,144.896,207.976z"/>
			<path fill="#D1232A" d="M158.08,202.479v-0.617c0-0.869,0.111-1.683,0.309-2.3s0.645-1.991,2.16-3.281
				c0.98-0.869,1.99-1.374,3.084-1.515c0.953,0.028,1.768,0.421,2.217,0.954c0.252,0.309,0.279,0.673,0.139,0.981
				c-0.084,0.225-0.252,0.448-0.531,0.673c-0.254,0.196-0.506,0.196-0.758-0.084c-0.561-0.505-1.346-1.038-2.271-1.038
				c-0.73,0-1.178,0.337-1.486,0.842c-0.365,0.533-0.674,1.879-0.646,4.263v1.122h3.311c0.168,0.252,0.027,0.926-0.281,1.094h-3.029
				v8.077c0,2.075,0.197,2.159,2.412,2.384v0.701h-6.617v-0.729c1.795-0.168,1.99-0.309,1.99-2.159v-8.273h-1.963l-0.113-0.28
				l0.758-0.813H158.08z"/>
			<path fill="#D1232A" d="M179.678,215.071c-0.422,0-1.01-0.253-1.318-0.533c-0.365-0.393-0.533-0.785-0.674-1.262
				c-1.121,0.757-2.467,1.795-3.309,1.795c-1.992,0-3.365-1.655-3.365-3.422c0-1.374,0.729-2.244,2.271-2.776
				c1.682-0.562,3.73-1.318,4.348-1.823v-0.505c0-2.02-0.955-3.169-2.357-3.169c-0.561,0-0.98,0.225-1.262,0.561
				c-0.363,0.365-0.617,0.981-0.842,1.852c-0.111,0.448-0.42,0.645-0.813,0.645c-0.504,0-1.234-0.561-1.234-1.206
				c0-0.42,0.365-0.729,0.898-1.121c0.785-0.562,2.607-1.655,4.207-1.964c0.84,0,1.682,0.253,2.299,0.758
				c0.982,0.813,1.262,1.963,1.262,3.421v5.217c0,1.262,0.506,1.683,0.982,1.683c0.336,0,0.729-0.14,1.01-0.309l0.279,0.729
				L179.678,215.071z M177.631,208.004c-0.59,0.308-1.936,0.896-2.525,1.178c-1.094,0.505-1.711,1.037-1.711,2.047
				c0,1.459,1.123,2.16,1.992,2.16c0.729-0.028,1.711-0.505,2.244-1.01V208.004z"/>
			<path fill="#D1232A" d="M203.098,214.005c-0.617,0.112-2.721,0.478-4.348,1.066v-1.823l-1.711,1.01
				c-1.094,0.645-1.85,0.813-2.188,0.813c-2.242,0-5.188-2.048-5.188-5.974c0-3.898,3.422-6.956,7.236-6.956
				c0.393,0,1.205,0.084,1.85,0.309v-3.954c0-1.852-0.139-1.936-2.158-2.075v-0.674c1.457-0.196,3.336-0.616,4.375-0.981v16.743
				c0,1.459,0.195,1.599,1.234,1.711l0.896,0.084V214.005z M198.75,204.61c-0.672-0.982-1.822-1.431-2.889-1.431
				c-1.289,0-3.645,1.094-3.645,5.16c0,3.338,2.047,4.964,3.842,4.964c1.01,0,2.02-0.448,2.691-0.953V204.61z"/>
			<path fill="#D1232A" d="M216.674,208.396c0,4.515-3.309,6.675-6.086,6.675c-3.842,0-6.141-3.085-6.141-6.198
				c0-4.628,3.59-6.731,6.141-6.731C214.066,202.142,216.674,204.918,216.674,208.396z M207.055,207.976
				c0,3.533,1.543,6.17,3.842,6.17c1.738,0,3.17-1.29,3.17-5.133c0-3.281-1.318-5.945-3.758-5.945
				C208.568,203.067,207.055,204.807,207.055,207.976z"/>
			<path fill="#D1232A" d="M230.84,202.675c-0.252,0.448-0.813,1.178-1.262,1.431l-1.6-0.085c0.533,0.617,0.842,1.487,0.842,2.496
				c0,3.029-2.523,4.487-4.908,4.487c-0.477,0-0.98-0.084-1.43-0.14c-0.393,0.252-0.842,0.757-0.842,1.149
				c0,0.562,0.506,1.094,1.768,1.094c1.01,0,2.02-0.027,2.943-0.027c1.74,0,4.039,0.561,4.039,3.309
				c0,2.833-3.281,5.554-7.012,5.554c-3.113,0-4.822-1.823-4.852-3.422c0-0.617,0.252-1.149,0.674-1.57
				c0.561-0.562,1.654-1.459,2.328-1.964c-1.01-0.308-1.711-0.953-2.076-1.542c-0.252-0.421-0.336-0.897-0.309-1.178
				c1.121-0.421,2.02-1.15,2.469-1.711c-1.262-0.533-2.469-1.852-2.469-3.758c0-3.197,2.861-4.656,5.02-4.656
				c0.955,0,1.879,0.253,2.693,0.701c1.375-0.056,2.805-0.224,3.814-0.393L230.84,202.675z M222.033,215.66
				c-0.729,0.589-1.289,1.374-1.289,2.188c0,1.515,1.625,2.664,3.701,2.664c2.664,0,4.039-1.374,4.039-3.113
				c0-0.953-0.477-1.654-1.291-1.991c-0.701-0.28-1.514-0.364-2.691-0.364C223.154,215.043,222.539,215.211,222.033,215.66z
				 M221.557,206.349c0,2.188,1.066,3.758,2.637,3.758c1.234-0.027,2.328-1.121,2.328-3.337s-1.039-3.786-2.637-3.786
				C222.65,202.983,221.557,204.161,221.557,206.349z"/>
			<path fill="#D1232A" d="M232.637,194.85c4.178,2.805,5.918,7.265,5.918,12.313s-1.74,9.479-5.918,12.312l-0.533-0.616
				c2.861-2.384,4.432-6.871,4.432-11.695s-1.627-9.367-4.432-11.667L232.637,194.85z"/>
			<path fill="#D1232A" d="M256.674,215.071c-0.422,0-1.01-0.253-1.318-0.533c-0.365-0.393-0.533-0.785-0.674-1.262
				c-1.121,0.757-2.467,1.795-3.309,1.795c-1.992,0-3.365-1.655-3.365-3.422c0-1.374,0.729-2.244,2.271-2.776
				c1.682-0.562,3.73-1.318,4.348-1.823v-0.505c0-2.02-0.955-3.169-2.357-3.169c-0.561,0-0.98,0.225-1.262,0.561
				c-0.363,0.365-0.617,0.981-0.842,1.852c-0.111,0.448-0.42,0.645-0.813,0.645c-0.504,0-1.234-0.561-1.234-1.206
				c0-0.42,0.365-0.729,0.898-1.121c0.785-0.562,2.607-1.655,4.207-1.964c0.84,0,1.682,0.253,2.299,0.758
				c0.982,0.813,1.262,1.963,1.262,3.421v5.217c0,1.262,0.506,1.683,0.982,1.683c0.336,0,0.729-0.14,1.01-0.309l0.279,0.729
				L256.674,215.071z M254.627,208.004c-0.59,0.308-1.936,0.896-2.525,1.178c-1.094,0.505-1.711,1.037-1.711,2.047
				c0,1.459,1.123,2.16,1.992,2.16c0.729-0.028,1.711-0.505,2.244-1.01V208.004z"/>
			<path fill="#D1232A" d="M277.037,212.21c-1.234,1.627-3.113,2.861-4.768,2.861c-3.533,0-5.609-2.861-5.609-5.862
				c0-2.159,0.926-4.038,2.805-5.496c1.459-1.122,3.141-1.571,4.234-1.571c1.121,0,2.047,0.365,2.496,0.729
				c0.365,0.309,0.449,0.561,0.449,0.869c0,0.589-0.617,1.206-0.926,1.206c-0.141,0-0.281-0.084-0.533-0.309
				c-0.842-0.785-1.822-1.149-2.805-1.149c-1.85,0-3.477,1.542-3.477,4.487c0,3.898,2.664,5.188,4.234,5.188
				c1.205,0,2.131-0.337,3.422-1.543L277.037,212.21z"/>
			<path fill="#D1232A" d="M282.592,205.114c0.842-1.401,2.047-2.973,3.395-2.973c0.953,0,1.625,0.729,1.625,1.402
				c0,0.562-0.363,1.122-0.896,1.374c-0.336,0.141-0.59,0.112-0.758-0.056c-0.393-0.421-0.729-0.589-1.178-0.589
				c-0.729,0-1.627,0.841-2.244,2.412v5.132c0,1.852,0.141,2.02,2.301,2.188v0.729h-6.451v-0.729
				c1.738-0.168,1.936-0.336,1.936-2.188v-5.806c0-1.851-0.141-1.963-1.738-2.188v-0.616c1.373-0.225,2.607-0.562,3.953-1.15v3.057
				H282.592z"/>
			<path fill="#D1232A" d="M302.057,203.18c-1.486,0.225-1.738,0.448-2.496,2.047c-0.701,1.486-1.57,3.814-3.506,8.442
				c-1.879,4.487-2.496,6.086-2.889,7.6c-0.141,0.533-0.504,0.674-0.896,0.674c-0.785,0-1.6-0.674-1.6-1.347
				c0-0.448,0.252-0.701,0.729-1.01c0.871-0.561,1.432-1.262,2.076-2.496c0.533-0.981,0.758-1.57,0.869-1.935
				c0.141-0.421,0.141-0.785-0.027-1.263c-1.123-3.197-2.385-6.59-3.225-8.582c-0.59-1.542-0.871-1.906-2.412-2.131v-0.701h5.693
				v0.701c-1.291,0.225-1.432,0.505-1.066,1.542l2.553,7.04c0.785-1.907,1.99-5.217,2.58-6.983c0.336-1.065,0.139-1.374-1.459-1.599
				v-0.701h5.076V203.18z"/>
			<path fill="#D1232A" d="M310.727,202.479v-0.617c0-0.869,0.111-1.683,0.309-2.3c0.195-0.617,0.645-1.991,2.158-3.281
				c0.982-0.869,1.992-1.374,3.086-1.515c0.953,0.028,1.766,0.421,2.215,0.954c0.252,0.309,0.281,0.673,0.141,0.981
				c-0.084,0.225-0.252,0.448-0.533,0.673c-0.252,0.196-0.504,0.196-0.758-0.084c-0.561-0.505-1.346-1.038-2.271-1.038
				c-0.729,0-1.178,0.337-1.486,0.842c-0.363,0.533-0.672,1.879-0.645,4.263v1.122h3.309c0.17,0.252,0.029,0.926-0.279,1.094h-3.029
				v8.077c0,2.075,0.195,2.159,2.412,2.384v0.701h-6.619v-0.729c1.795-0.168,1.992-0.309,1.992-2.159v-8.273h-1.965l-0.111-0.28
				l0.758-0.813H310.727z"/>
			<path fill="#D1232A" d="M329.238,208.396c0,4.515-3.311,6.675-6.086,6.675c-3.842,0-6.143-3.085-6.143-6.198
				c0-4.628,3.59-6.731,6.143-6.731C326.629,202.142,329.238,204.918,329.238,208.396z M319.617,207.976
				c0,3.533,1.543,6.17,3.844,6.17c1.738,0,3.168-1.29,3.168-5.133c0-3.281-1.318-5.945-3.758-5.945
				C321.133,203.067,319.617,204.807,319.617,207.976z"/>
			<path fill="#D1232A" d="M335.102,205.114c0.842-1.401,2.047-2.973,3.395-2.973c0.953,0,1.625,0.729,1.625,1.402
				c0,0.562-0.363,1.122-0.896,1.374c-0.336,0.141-0.59,0.112-0.758-0.056c-0.393-0.421-0.729-0.589-1.178-0.589
				c-0.729,0-1.627,0.841-2.244,2.412v5.132c0,1.852,0.141,2.02,2.301,2.188v0.729h-6.451v-0.729
				c1.738-0.168,1.936-0.336,1.936-2.188v-5.806c0-1.851-0.141-1.963-1.738-2.188v-0.616c1.373-0.225,2.607-0.562,3.953-1.15v3.057
				H335.102z"/>
			<path fill="#D1232A" d="M355.213,214.734v-0.729c1.627-0.168,1.852-0.336,1.852-2.159v-4.655c0-2.3-0.871-3.45-2.75-3.45
				c-1.064,0-2.131,0.533-2.916,1.431v6.675c0,1.795,0.141,1.991,1.795,2.159v0.729h-5.945v-0.729
				c1.682-0.14,1.936-0.309,1.936-2.159v-13.378c0-1.767-0.057-1.907-1.908-2.075v-0.646c1.346-0.196,3.029-0.645,4.123-0.981v9.424
				c0.98-1.01,2.496-2.048,4.01-2.048c2.271,0,3.871,1.431,3.871,4.796v4.908c0,1.851,0.195,2.02,1.852,2.159v0.729H355.213z"/>
			<path fill="#D1232A" d="M372.688,212.351c-1.768,2.216-3.703,2.721-4.572,2.721c-3.449,0-5.469-2.805-5.469-5.974
				c0-1.936,0.701-3.646,1.852-4.908c1.15-1.29,2.664-2.048,4.123-2.048c2.326,0,4.207,2.075,4.207,4.264
				c0,0.561-0.141,0.785-0.646,0.897c-0.477,0.084-3.982,0.364-7.32,0.477c0.029,3.814,2.217,5.385,4.18,5.385
				c1.121,0,2.188-0.449,3.197-1.402L372.688,212.351z M365.002,206.629c1.57,0,3.113-0.027,4.74-0.084
				c0.504,0,0.674-0.168,0.674-0.561c0.027-1.459-0.926-2.805-2.469-2.805C366.656,203.18,365.424,204.357,365.002,206.629z"/>
			<path fill="#D1232A" d="M373.865,214.734v-0.729c1.768-0.168,2.02-0.336,2.02-2.188v-13.266c0-1.907-0.168-1.991-1.936-2.131
				v-0.674c1.459-0.168,3.197-0.645,4.15-0.981v17.052c0,1.852,0.225,2.02,2.02,2.188v0.729H373.865z"/>
			<path fill="#D1232A" d="M387.555,202.563c0.504-0.28,1.037-0.421,1.373-0.421c3.113,0,4.965,2.524,4.965,5.301
				c0,4.235-3.338,6.955-6.984,7.629c-0.813-0.028-1.57-0.309-1.936-0.505v3.674c0,2.131,0.197,2.271,2.385,2.468v0.757h-6.646
				v-0.757c1.795-0.168,2.047-0.337,2.047-2.188v-12.677c0-1.823-0.111-1.879-1.852-2.104v-0.673
				c1.178-0.196,2.75-0.673,4.066-1.206v2.216L387.555,202.563z M384.973,212.603c0.617,0.646,1.684,1.094,2.637,1.094
				c2.355,0,3.928-2.019,3.928-5.188c0-3-1.711-4.684-3.76-4.684c-0.896,0-2.047,0.617-2.805,1.179V212.603z"/>
			<path fill="#D1232A" d="M395.773,213.444c0-0.897,0.672-1.599,1.57-1.599c0.896,0,1.57,0.701,1.57,1.599
				c0,0.981-0.674,1.627-1.57,1.627C396.445,215.071,395.773,214.426,395.773,213.444z"/>
		</g>
		<g>
			<path fill="#D1232A" d="M138.977,229.463c-1.316,0.505-2.383,1.318-2.439,2.496c-0.055,0.869,0.506,1.374,1.346,1.57
				c0.17,0.057,0.338,0.225,0.309,0.505c-0.027,0.729-0.701,1.094-1.232,1.094c-0.982,0-2.244-0.953-2.188-2.607
				c0.084-2.216,2.271-3.366,3.898-3.814L138.977,229.463z M143.717,229.463c-1.318,0.505-2.412,1.347-2.467,2.524
				c-0.057,0.869,0.531,1.374,1.373,1.599c0.168,0.028,0.338,0.196,0.338,0.477c-0.057,0.729-0.73,1.122-1.264,1.122
				c-0.98,0-2.271-0.954-2.188-2.664c0.084-2.216,2.271-3.366,3.928-3.814L143.717,229.463z"/>
			<path fill="#D1232A" d="M150.646,237.54l-2.777,0.141l-1.654,7.74c-0.279,1.374-0.141,1.683,0.168,1.683
				c0.477,0,1.852-0.925,2.525-1.626l0.393,0.589c-0.926,1.121-3.029,3.001-4.516,3.001c-0.645,0-1.207-0.813-0.59-3.702
				l1.654-7.685h-2.074l-0.084-0.253l0.701-0.841h1.682l0.646-2.665l2.131-1.738l0.252,0.168l-0.98,4.235h3.252L150.646,237.54z"/>
			<path fill="#D1232A" d="M163.689,246.375c-1.488,1.71-3.227,2.692-4.039,2.692c-0.73,0-0.926-0.786-0.477-2.721l1.486-6.507
				c0.336-1.486,0.225-1.991-0.225-1.991c-1.291,0-4.572,3.142-5.945,5.581c-0.281,1.234-0.785,3.73-1.039,5.104
				c-0.645,0.112-1.373,0.309-1.99,0.533l-0.197-0.225c1.207-5.413,2.441-11.078,3.535-16.827c0.309-1.459,0.168-1.543-0.926-1.571
				l-0.814-0.027l0.084-0.674c2.217-0.224,3.73-0.981,4.123-0.981c0.252,0,0.281,0.225,0.113,0.981l-2.525,11.64h0.057
				c1.852-2.496,3.926-3.982,5.189-4.656c0.729-0.393,1.373-0.589,1.879-0.589c0.701,0,1.486,0.505,0.785,3.563l-1.459,6.282
				c-0.168,0.813-0.141,1.009,0.084,1.009c0.281,0,1.15-0.532,1.936-1.29L163.689,246.375z"/>
			<path fill="#D1232A" d="M174.684,245.897c-2.467,2.637-4.57,3.17-5.916,3.17c-1.291,0-3.086-0.758-3.086-4.095
				c0-2.637,1.15-5.581,3.365-7.264c1.207-0.926,2.693-1.571,3.871-1.571c1.486,0,2.467,1.038,2.467,2.244
				c0,2.776-4.711,4.291-7.402,4.964c-0.057,0.337-0.057,0.617-0.057,0.897c0,1.515,0.477,3.169,2.188,3.169
				c1.178,0,2.691-0.785,4.094-2.159L174.684,245.897z M170.73,237.624c-0.758,0.421-2.16,1.711-2.637,4.853
				c4.01-1.066,5.188-2.356,5.188-3.646c0-0.981-0.588-1.542-1.402-1.542C171.486,237.288,171.039,237.428,170.73,237.624z"/>
			<path fill="#D1232A" d="M195.131,246.15c-1.514,1.879-3.393,2.917-4.094,2.917c-0.533,0-0.898-0.421-0.506-2.469l0.563-2.664
				h-0.057c-1.094,1.543-2.412,2.889-3.617,3.87c-0.926,0.758-1.852,1.263-2.609,1.263c-0.729,0-1.627-0.926-1.627-3.17
				c0-2.832,1.318-5.89,3.365-7.6c1.402-1.179,3.451-2.16,5.217-2.16c0.59,0,1.15,0.084,1.74,0.196
				c0.393,0.084,0.756,0.169,1.064,0.169l0.084,0.112c-0.447,1.738-1.289,5.553-1.936,9.114c-0.195,0.981-0.111,1.206,0.057,1.206
				c0.225,0,1.207-0.646,2.02-1.458L195.131,246.15z M191.486,241.775c0.309-1.122,0.729-3.142,0.926-4.039
				c-0.395-0.196-1.15-0.393-1.881-0.393c-0.729,0-1.514,0.225-1.99,0.589c-1.908,1.402-3.029,4.712-3.029,7.488
				c0,1.263,0.365,1.852,0.758,1.852C187.363,247.272,190.531,243.71,191.486,241.775z"/>
			<path fill="#D1232A" d="M198.246,229.716c2.188-0.253,3.73-0.954,4.178-0.954c0.281,0,0.281,0.28,0.141,0.87
				c-0.953,3.842-1.711,7.123-2.496,10.713h0.057c2.412-2.944,4.795-4.207,6.086-4.207c1.234,0,1.99,1.234,1.99,3.085
				c0,3.085-1.85,6.647-4.318,8.302c-1.684,1.15-3.197,1.543-4.234,1.543c-0.898,0-1.824-0.505-2.244-1.206
				c-0.42-0.674-0.533-1.683-0.168-3.506c0.785-3.843,1.766-8.077,2.691-12.593c0.254-1.262,0.168-1.346-0.926-1.346l-0.813-0.028
				L198.246,229.716z M202.508,247.356c1.656-0.981,3.365-4.235,3.365-7.656c0-1.431-0.42-2.02-0.953-2.02
				c-0.98,0-3.309,1.795-5.104,4.347c-0.168,0.505-0.336,1.234-0.506,2.188c-0.504,2.749,0.59,3.563,1.74,3.563
				C201.527,247.777,202.088,247.608,202.508,247.356z"/>
			<path fill="#D1232A" d="M222.787,246.206c-1.346,1.627-3.197,2.861-4.066,2.861c-0.588,0-0.98-0.533-0.42-2.974
				c0.225-0.981,0.336-1.542,0.533-2.468h-0.057c-1.375,1.823-3.029,3.534-4.516,4.571c-0.785,0.562-1.598,0.87-2.271,0.87
				c-0.758,0-1.654-0.533-0.926-3.563c0.504-2.159,1.01-4.318,1.514-6.45c0.17-0.701,0.141-0.953-0.084-0.953
				c-0.195,0-0.98,0.561-1.963,1.346l-0.309-0.673c1.627-1.627,3.365-2.637,4.123-2.637c0.645,0,0.758,0.562,0.309,2.44
				c-0.504,2.216-1.01,4.487-1.543,6.73c-0.309,1.375-0.084,1.852,0.338,1.852c1.57,0,4.711-3.759,5.805-5.806
				c0.309-1.29,0.645-2.776,1.01-4.487l1.936-0.729h0.309c-0.758,2.973-1.486,6.114-2.188,9.76c-0.17,0.87-0.113,1.094,0.084,1.094
				c0.252,0,1.262-0.673,2.02-1.458L222.787,246.206z"/>
			<path fill="#D1232A" d="M224.023,247.048c-0.027-0.477,0.336-0.897,0.813-1.178c0.338-0.169,0.563-0.112,0.701,0.084
				c0.73,1.094,1.768,1.711,2.693,1.711c1.121,0,1.852-0.785,1.852-1.683c0-0.701-0.309-1.318-1.627-2.356
				c-1.262-0.953-2.439-1.991-2.439-3.421c0-0.842,0.336-1.739,1.457-2.721c0.869-0.758,2.217-1.347,3.113-1.347
				c1.234,0,2.188,0.842,2.188,1.571c0,0.477-0.279,0.897-0.701,1.149c-0.279,0.168-0.449,0.112-0.617-0.112
				c-0.561-0.701-1.234-1.262-2.188-1.262c-0.813,0-1.514,0.617-1.514,1.57c0,1.01,0.813,1.711,1.822,2.496
				c1.684,1.262,2.355,2.075,2.355,3.281c0,2.132-2.805,4.235-5.076,4.235C225.537,249.067,224.023,248.029,224.023,247.048z"/>
			<path fill="#D1232A" d="M243.432,245.897c-2.469,2.637-4.572,3.17-5.918,3.17c-1.289,0-3.084-0.758-3.084-4.095
				c0-2.637,1.148-5.581,3.365-7.264c1.205-0.926,2.691-1.571,3.869-1.571c1.486,0,2.469,1.038,2.469,2.244
				c0,2.776-4.711,4.291-7.404,4.964c-0.057,0.337-0.057,0.617-0.057,0.897c0,1.515,0.477,3.169,2.188,3.169
				c1.178,0,2.693-0.785,4.096-2.159L243.432,245.897z M239.477,237.624c-0.756,0.421-2.158,1.711-2.637,4.853
				c4.012-1.066,5.189-2.356,5.189-3.646c0-0.981-0.59-1.542-1.402-1.542C240.234,237.288,239.785,237.428,239.477,237.624z"/>
			<path fill="#D1232A" d="M257.85,246.234c-1.486,1.767-3.338,2.833-4.123,2.833c-0.561,0-0.953-0.449-0.506-2.608l0.506-2.384
				l-0.057,0.027c-1.262,1.684-2.721,2.917-3.701,3.675c-1.039,0.841-1.936,1.29-2.721,1.29c-0.926,0-1.824-1.122-1.824-3.366
				c0-2.636,1.207-5.637,3.254-7.403c1.318-1.15,3.646-2.16,4.965-2.16c0.393,0,0.953,0.028,1.654,0.309l0.926-4.627
				c0.252-1.263,0.168-1.375-1.066-1.375h-0.896l0.084-0.701c2.355-0.28,3.869-0.981,4.291-0.981c0.252,0,0.309,0.225,0.195,0.785
				c-1.318,5.609-2.496,11.051-3.477,16.491c-0.141,0.673-0.084,0.926,0.111,0.926c0.336,0,1.234-0.617,1.992-1.374L257.85,246.234z
				 M254.063,242.084l0.898-4.011c-0.422-0.393-1.432-0.729-2.271-0.729c-0.871,0-1.459,0.225-1.965,0.589
				c-1.879,1.347-2.973,4.88-2.973,7.236c0,1.43,0.393,2.075,0.869,2.075C250.053,247.244,253.137,243.767,254.063,242.084z"/>
			<path fill="#D1232A" d="M278.521,246.234c-1.486,1.767-3.338,2.833-4.123,2.833c-0.561,0-0.953-0.449-0.506-2.608l0.506-2.384
				l-0.057,0.027c-1.262,1.684-2.721,2.917-3.701,3.675c-1.039,0.841-1.936,1.29-2.721,1.29c-0.926,0-1.824-1.122-1.824-3.366
				c0-2.636,1.207-5.637,3.254-7.403c1.318-1.15,3.646-2.16,4.965-2.16c0.393,0,0.953,0.028,1.654,0.309l0.926-4.627
				c0.252-1.263,0.168-1.375-1.066-1.375h-0.896l0.084-0.701c2.355-0.28,3.869-0.981,4.291-0.981c0.252,0,0.309,0.225,0.195,0.785
				c-1.318,5.609-2.496,11.051-3.477,16.491c-0.141,0.673-0.084,0.926,0.111,0.926c0.336,0,1.234-0.617,1.992-1.374L278.521,246.234
				z M274.734,242.084l0.898-4.011c-0.422-0.393-1.432-0.729-2.271-0.729c-0.871,0-1.459,0.225-1.965,0.589
				c-1.879,1.347-2.973,4.88-2.973,7.236c0,1.43,0.393,2.075,0.869,2.075C270.725,247.244,273.809,243.767,274.734,242.084z"/>
			<path fill="#D1232A" d="M280.373,244.691c0-3.646,1.936-6.422,4.264-7.656c1.01-0.532,2.16-0.897,3.029-0.897
				c2.328,0,3.73,1.599,3.73,4.375c0,2.412-1.039,5.161-3.002,6.787c-1.205,1.01-2.748,1.768-4.318,1.768
				C281.412,249.067,280.373,246.964,280.373,244.691z M285.982,247.777c1.516-0.646,3.057-3.618,3.057-7.208
				c0-2.271-0.98-3.365-2.271-3.365c-0.42,0-0.756,0.111-1.064,0.252c-1.094,0.477-2.975,2.776-2.975,7.096
				c0,2.075,0.871,3.394,2.357,3.394C285.422,247.945,285.703,247.889,285.982,247.777z"/>
			<path fill="#D1232A" d="M305.615,236.783c-0.813,0.897-1.541,1.233-1.99,1.318c-0.225,0.056-0.422,0.084-0.73,0.084
				c0.141,0.393,0.225,0.813,0.225,1.57c0,1.991-1.094,3.478-2.131,4.291c-0.758,0.617-2.02,1.318-3.617,1.627
				c-0.338,0.28-0.563,0.561-0.563,0.897c0,0.42,0.674,0.925,2.02,1.626c2.693,1.431,3.787,2.524,3.787,3.73
				c0,2.328-3.926,4.011-6.619,4.011c-2.721,0-5.076-1.402-5.02-3.142c0.027-1.206,1.627-2.468,4.711-4.038
				c-0.701-0.449-1.066-1.01-1.037-1.374c0-0.449,0.393-0.954,1.711-1.739c-1.6-0.364-2.441-1.515-2.441-3.422
				c0-1.822,0.926-3.562,2.357-4.684c1.148-0.925,2.58-1.402,3.59-1.402c0.896,0,1.766,0.253,2.383,0.785
				c1.627-0.027,2.637-0.336,3.17-0.673L305.615,236.783z M300.568,252.685c0-0.757-0.758-1.458-2.049-2.215
				c-0.924-0.562-1.711-1.01-2.104-1.206c-1.879,0.897-3.111,2.019-3.111,3.057c0,1.431,1.85,2.44,3.813,2.44
				C299.221,254.761,300.568,253.778,300.568,252.685z M301.045,239.84c0-1.599-0.646-2.721-1.879-2.721
				c-0.814,0-1.543,0.505-2.049,1.263c-0.588,0.841-1.064,2.131-1.064,3.646c0,1.655,0.813,2.524,1.822,2.524
				C299.361,244.552,301.045,242.841,301.045,239.84z"/>
			<path fill="#D1232A" d="M317.229,246.627c1.207-1.851,3.787-5.665,3.76-7.713c0-0.561-0.17-1.009-0.309-1.317
				c-0.086-0.196-0.057-0.478,0.055-0.701c0.197-0.421,0.701-0.758,1.178-0.758c0.617,0,1.094,0.617,1.094,1.543
				c0.029,0.785-0.279,1.738-0.98,2.973c-1.207,2.132-3.59,5.833-5.076,7.937c-1.654,2.385-3.479,4.853-5.049,6.591l-2.916,0.758
				l-0.225-0.617c3-1.963,5.217-4.432,6.59-6.282c-0.027-2.216-0.477-6.591-0.869-9.143c-0.195-1.402-0.365-1.739-0.588-1.739
				c-0.225,0-0.926,0.646-1.627,1.627l-0.477-0.646c0.896-1.402,2.299-3.001,3.309-3.001c0.785,0,1.207,1.038,1.43,3.281
				c0.281,2.132,0.477,4.656,0.646,7.208H317.229z"/>
			<path fill="#D1232A" d="M333.02,245.897c-2.467,2.637-4.57,3.17-5.916,3.17c-1.291,0-3.086-0.758-3.086-4.095
				c0-2.637,1.15-5.581,3.365-7.264c1.207-0.926,2.693-1.571,3.871-1.571c1.486,0,2.467,1.038,2.467,2.244
				c0,2.776-4.711,4.291-7.402,4.964c-0.057,0.337-0.057,0.617-0.057,0.897c0,1.515,0.477,3.169,2.188,3.169
				c1.178,0,2.691-0.785,4.094-2.159L333.02,245.897z M329.066,237.624c-0.758,0.421-2.16,1.711-2.637,4.853
				c4.01-1.066,5.188-2.356,5.188-3.646c0-0.981-0.588-1.542-1.402-1.542C329.822,237.288,329.375,237.428,329.066,237.624z"/>
			<path fill="#D1232A" d="M340.033,246.066c-1.459,1.738-3.449,3.001-4.318,3.001c-0.533,0-0.982-0.646-0.393-3.394
				c0.98-4.6,1.963-9.199,2.916-13.827c0.281-1.206,0.111-1.402-1.178-1.402l-0.758-0.027l0.113-0.674
				c2.188-0.252,3.785-0.981,4.15-0.981c0.252,0,0.279,0.253,0.168,0.842c-1.15,5.413-2.301,10.854-3.479,16.406
				c-0.168,0.813-0.055,0.981,0.113,0.981c0.309,0,1.457-0.729,2.244-1.542L340.033,246.066z"/>
			<path fill="#D1232A" d="M346.484,236.475c0.785-0.225,1.85-0.337,2.607-0.337c2.889,0,4.039,1.374,4.039,3.87
				c0,1.852-0.785,3.983-2.385,5.806c-1.402,1.571-3.422,2.805-5.217,3.254c-0.447,0-1.121-0.057-1.654-0.281l-0.785,3.955
				c-0.336,1.599-0.168,1.851,1.207,1.991l0.672,0.056l-0.084,0.729l-6.479,0.337l0.113-0.729c1.766-0.337,2.074-0.561,2.467-2.3
				c1.039-4.908,2.104-9.816,3.141-14.668c-0.896,0.28-1.625,0.673-2.271,1.01l-0.195-0.701c0.758-0.533,1.768-1.038,2.691-1.402
				l0.309-1.262c0.533-0.617,1.402-1.263,2.049-1.627l0.279,0.141L346.484,236.475z M344.324,246.88
				c0.309,0.42,1.066,0.953,1.738,0.953c1.992,0,4.713-3.786,4.713-7.376c0-2.496-1.318-3.113-2.945-3.113
				c-0.449,0-1.066,0.057-1.6,0.196L344.324,246.88z"/>
			<path fill="#D1232A" d="M364.043,245.897c-2.469,2.637-4.572,3.17-5.918,3.17c-1.289,0-3.084-0.758-3.084-4.095
				c0-2.637,1.148-5.581,3.365-7.264c1.205-0.926,2.691-1.571,3.869-1.571c1.486,0,2.469,1.038,2.469,2.244
				c0,2.776-4.711,4.291-7.404,4.964c-0.057,0.337-0.057,0.617-0.057,0.897c0,1.515,0.477,3.169,2.188,3.169
				c1.178,0,2.693-0.785,4.096-2.159L364.043,245.897z M360.088,237.624c-0.756,0.421-2.158,1.711-2.637,4.853
				c4.012-1.066,5.189-2.356,5.189-3.646c0-0.981-0.59-1.542-1.402-1.542C360.846,237.288,360.396,237.428,360.088,237.624z"/>
			<path fill="#D1232A" d="M378.459,246.234c-1.486,1.767-3.338,2.833-4.123,2.833c-0.561,0-0.953-0.449-0.504-2.608l0.504-2.384
				l-0.055,0.027c-1.264,1.684-2.721,2.917-3.703,3.675c-1.037,0.841-1.936,1.29-2.721,1.29c-0.926,0-1.822-1.122-1.822-3.366
				c0-2.636,1.205-5.637,3.254-7.403c1.318-1.15,3.645-2.16,4.963-2.16c0.393,0,0.955,0.028,1.654,0.309l0.926-4.627
				c0.254-1.263,0.17-1.375-1.064-1.375h-0.898l0.084-0.701c2.355-0.28,3.871-0.981,4.291-0.981c0.252,0,0.309,0.225,0.197,0.785
				c-1.318,5.609-2.496,11.051-3.479,16.491c-0.141,0.673-0.084,0.926,0.113,0.926c0.336,0,1.232-0.617,1.99-1.374L378.459,246.234z
				 M374.674,242.084l0.896-4.011c-0.42-0.393-1.43-0.729-2.271-0.729c-0.869,0-1.459,0.225-1.963,0.589
				c-1.879,1.347-2.973,4.88-2.973,7.236c0,1.43,0.393,2.075,0.869,2.075C370.662,247.244,373.748,243.767,374.674,242.084z"/>
			<path fill="#D1232A" d="M392.008,246.066c-1.459,1.738-3.449,3.001-4.318,3.001c-0.533,0-0.982-0.646-0.393-3.394
				c0.98-4.6,1.963-9.199,2.916-13.827c0.281-1.206,0.111-1.402-1.178-1.402l-0.758-0.027l0.113-0.674
				c2.188-0.252,3.785-0.981,4.15-0.981c0.252,0,0.279,0.253,0.168,0.842c-1.15,5.413-2.301,10.854-3.479,16.406
				c-0.168,0.813-0.055,0.981,0.113,0.981c0.309,0,1.457-0.729,2.244-1.542L392.008,246.066z"/>
			<path fill="#D1232A" d="M393.748,244.691c0-3.646,1.936-6.422,4.262-7.656c1.01-0.532,2.16-0.897,3.029-0.897
				c2.328,0,3.73,1.599,3.73,4.375c0,2.412-1.037,5.161-3,6.787c-1.207,1.01-2.75,1.768-4.32,1.768
				C394.785,249.067,393.748,246.964,393.748,244.691z M399.357,247.777c1.514-0.646,3.057-3.618,3.057-7.208
				c0-2.271-0.982-3.365-2.271-3.365c-0.422,0-0.758,0.111-1.066,0.252c-1.094,0.477-2.973,2.776-2.973,7.096
				c0,2.075,0.869,3.394,2.355,3.394C398.795,247.945,399.076,247.889,399.357,247.777z"/>
			<path fill="#D1232A" d="M419.551,246.206c-1.348,1.627-3.197,2.861-4.066,2.861c-0.59,0-0.982-0.533-0.422-2.974
				c0.225-0.981,0.338-1.542,0.533-2.468h-0.057c-1.373,1.823-3.027,3.534-4.516,4.571c-0.785,0.562-1.598,0.87-2.271,0.87
				c-0.756,0-1.654-0.533-0.924-3.563c0.504-2.159,1.008-4.318,1.514-6.45c0.168-0.701,0.141-0.953-0.084-0.953
				c-0.197,0-0.982,0.561-1.963,1.346l-0.309-0.673c1.627-1.627,3.365-2.637,4.123-2.637c0.645,0,0.756,0.562,0.309,2.44
				c-0.506,2.216-1.01,4.487-1.543,6.73c-0.309,1.375-0.084,1.852,0.336,1.852c1.57,0,4.711-3.759,5.805-5.806
				c0.309-1.29,0.646-2.776,1.01-4.487l1.936-0.729h0.309c-0.758,2.973-1.486,6.114-2.188,9.76c-0.168,0.87-0.111,1.094,0.084,1.094
				c0.252,0,1.262-0.673,2.02-1.458L419.551,246.206z"/>
			<path fill="#D1232A" d="M433.828,246.234c-1.486,1.767-3.338,2.833-4.123,2.833c-0.561,0-0.953-0.449-0.506-2.608l0.506-2.384
				l-0.057,0.027c-1.262,1.684-2.721,2.917-3.701,3.675c-1.039,0.841-1.936,1.29-2.721,1.29c-0.926,0-1.824-1.122-1.824-3.366
				c0-2.636,1.207-5.637,3.254-7.403c1.318-1.15,3.646-2.16,4.965-2.16c0.393,0,0.953,0.028,1.654,0.309l0.926-4.627
				c0.252-1.263,0.168-1.375-1.066-1.375h-0.896l0.084-0.701c2.355-0.28,3.869-0.981,4.291-0.981c0.252,0,0.309,0.225,0.195,0.785
				c-1.318,5.609-2.496,11.051-3.477,16.491c-0.141,0.673-0.084,0.926,0.111,0.926c0.336,0,1.234-0.617,1.992-1.374L433.828,246.234
				z M430.041,242.084l0.898-4.011c-0.422-0.393-1.432-0.729-2.271-0.729c-0.871,0-1.459,0.225-1.965,0.589
				c-1.879,1.347-2.973,4.88-2.973,7.236c0,1.43,0.393,2.075,0.869,2.075C426.031,247.244,429.115,243.767,430.041,242.084z"/>
			<path fill="#D1232A" d="M440.813,246.066c-1.459,1.738-3.449,3.001-4.318,3.001c-0.533,0-0.982-0.646-0.393-3.394
				c0.98-4.6,1.963-9.199,2.916-13.827c0.281-1.206,0.111-1.402-1.178-1.402l-0.758-0.027l0.113-0.674
				c2.188-0.252,3.785-0.981,4.15-0.981c0.252,0,0.279,0.253,0.168,0.842c-1.15,5.413-2.301,10.854-3.479,16.406
				c-0.168,0.813-0.055,0.981,0.113,0.981c0.309,0,1.457-0.729,2.244-1.542L440.813,246.066z"/>
			<path fill="#D1232A" d="M447.713,246.627c1.205-1.851,3.785-5.665,3.758-7.713c0-0.561-0.168-1.009-0.309-1.317
				c-0.084-0.196-0.057-0.478,0.057-0.701c0.195-0.421,0.701-0.758,1.178-0.758c0.617,0,1.094,0.617,1.094,1.543
				c0.027,0.785-0.281,1.738-0.982,2.973c-1.205,2.132-3.59,5.833-5.076,7.937c-1.654,2.385-3.477,4.853-5.047,6.591l-2.918,0.758
				l-0.225-0.617c3.002-1.963,5.217-4.432,6.592-6.282c-0.029-2.216-0.477-6.591-0.869-9.143c-0.197-1.402-0.365-1.739-0.59-1.739
				s-0.926,0.646-1.627,1.627l-0.477-0.646c0.898-1.402,2.301-3.001,3.311-3.001c0.785,0,1.205,1.038,1.43,3.281
				c0.279,2.132,0.477,4.656,0.645,7.208H447.713z"/>
			<path fill="#D1232A" d="M455.258,234.512c1.346-0.505,2.412-1.29,2.469-2.496c0.055-0.87-0.533-1.375-1.375-1.599
				c-0.168-0.028-0.336-0.169-0.309-0.449c0.029-0.729,0.701-1.122,1.234-1.122c0.982,0,2.244,0.954,2.16,2.665
				c-0.057,2.159-2.244,3.337-3.898,3.758L455.258,234.512z M459.998,234.512c1.318-0.505,2.439-1.29,2.496-2.496
				c0.027-0.87-0.533-1.375-1.402-1.599c-0.168-0.028-0.309-0.169-0.309-0.449c0.027-0.729,0.701-1.122,1.234-1.122
				c0.98,0,2.271,0.954,2.188,2.637c-0.084,2.188-2.244,3.365-3.898,3.786L459.998,234.512z"/>
		</g>
	</g>
</g>
<g id="_x3C_Layer_x3E_">
</g>
</svg>
