<?xml version="1.0" encoding="utf-8"?>
<!-- Generator: Adobe Illustrator 16.0.0, SVG Export Plug-In . SVG Version: 6.00 Build 0)  -->
<!DOCTYPE svg PUBLIC "-//W3C//DTD SVG 1.1//EN" "http://www.w3.org/Graphics/SVG/1.1/DTD/svg11.dtd">
<svg version="1.1" id="Layer_1" xmlns="http://www.w3.org/2000/svg" xmlns:xlink="http://www.w3.org/1999/xlink" x="0px" y="0px"
	 width="13.516px" height="84.172px" viewBox="0 0 13.516 84.172" enable-background="new 0 0 13.516 84.172" xml:space="preserve">
<g>
	<path fill="#3737ff" d="M3.489,0.479c0.197-0.204,0.447-0.306,0.747-0.306S4.786,0.275,4.99,0.479
		c0.203,0.202,0.305,0.453,0.305,0.753c0,0.299-0.102,0.551-0.305,0.754C4.786,2.19,4.535,2.292,4.236,2.292S3.686,2.19,3.489,1.986
		C3.29,1.783,3.192,1.531,3.192,1.232C3.192,0.932,3.29,0.681,3.489,0.479z M10.442,0.479c0.203-0.204,0.456-0.306,0.756-0.306
		c0.296,0,0.548,0.102,0.745,0.306c0.198,0.202,0.298,0.453,0.298,0.753c0,0.299-0.1,0.551-0.298,0.754
		c-0.197,0.204-0.449,0.306-0.745,0.306c-0.3,0-0.553-0.102-0.756-0.306c-0.203-0.203-0.304-0.455-0.304-0.754
		C10.138,0.932,10.239,0.681,10.442,0.479z"/>
	<path fill="#3737ff" d="M13.341,4.284v3.683c0,1.083-0.272,1.994-0.818,2.734c-0.545,0.738-1.353,1.108-2.414,1.108H6.25
		c-1.054,0-1.847-0.367-2.378-1.102C3.341,9.971,3.076,9.059,3.076,7.966V4.284H13.341z M4.758,5.951v2.016
		c0,0.629,0.123,1.146,0.369,1.552c0.247,0.406,0.621,0.609,1.123,0.609h3.858c0.513,0,0.9-0.206,1.159-0.616
		C11.531,9.1,11.66,8.585,11.66,7.966V5.951H4.758z"/>
	<path fill="#3737ff" d="M7.338,17.757h0.87c0.348,0,0.622-0.152,0.818-0.457c0.199-0.303,0.294-0.674,0.284-1.108
		c0-0.677-0.208-1.203-0.622-1.579l0.927-0.899c0.744,0.675,1.117,1.569,1.117,2.682c0,0.802-0.215,1.496-0.647,2.08
		c-0.431,0.585-1.041,0.878-1.834,0.878H3.437c-0.338-0.899-0.506-1.847-0.506-2.843c0-0.898,0.175-1.633,0.529-2.202
		c0.352-0.572,0.939-0.856,1.761-0.856c0.773,0,1.369,0.272,1.784,0.819c0.415,0.546,0.623,1.201,0.623,1.965
		C7.628,16.805,7.531,17.313,7.338,17.757z M4.424,17.757h1.667c0.175-0.387,0.262-0.815,0.262-1.289
		c0-0.456-0.103-0.811-0.305-1.067c-0.203-0.255-0.474-0.384-0.812-0.384c-0.33,0-0.573,0.133-0.733,0.399
		c-0.159,0.266-0.238,0.596-0.238,0.992C4.265,16.883,4.317,17.333,4.424,17.757z"/>
	<path fill="#3737ff" d="M3.076,21.3h7.046c0.387,0.764,0.591,1.618,0.61,2.566c0.01,0.938-0.205,1.724-0.647,2.355
		c-0.438,0.635-1.112,0.95-2.022,0.95H3.076v-1.579h4.973c0.396-0.021,0.693-0.189,0.891-0.508c0.198-0.319,0.298-0.691,0.298-1.117
		c0-0.435-0.088-0.793-0.261-1.073h-5.9V21.3z"/>
	<path fill="#3737ff" d="M10.516,39.831c-0.378,0-0.746-0.079-1.104-0.239c-0.36-0.158-0.639-0.395-0.841-0.703
		c-0.406,0.937-1.218,1.407-2.437,1.407c-1.072-0.021-1.851-0.354-2.335-1c-0.483-0.648-0.724-1.513-0.724-2.597v-3.986h10.265
		v4.002c0,0.899-0.245,1.642-0.731,2.231C12.121,39.537,11.423,39.831,10.516,39.831z M4.685,34.394v2.32
		c-0.028,1.266,0.473,1.899,1.508,1.899c1.052,0,1.57-0.634,1.551-1.899v-2.32H4.685z M9.251,34.394v2.32
		c0,0.443,0.106,0.8,0.32,1.065c0.212,0.265,0.547,0.398,1.001,0.398c0.376,0,0.664-0.138,0.862-0.413
		c0.199-0.276,0.297-0.626,0.297-1.051v-2.32H9.251z"/>
	<path fill="#3737ff" d="M10.586,47.911H3.555c-0.417-0.967-0.624-1.929-0.624-2.886c0.011-0.889,0.227-1.611,0.652-2.168
		c0.424-0.555,1.078-0.833,1.957-0.833h5.046v1.595H5.511c-0.397,0.021-0.696,0.186-0.899,0.501
		c-0.203,0.313-0.305,0.688-0.305,1.123c0,0.396,0.088,0.759,0.263,1.089h6.017V47.911z"/>
	<path fill="#3737ff" d="M10.733,52.757c0,0.3-0.029,0.585-0.088,0.855H9.238c0.134-0.463,0.103-0.938-0.102-1.42
		c-0.202-0.483-0.541-0.727-1.016-0.727H3.076v-1.594H8.15c1.014,0,1.77,0.463,2.265,1.392
		C10.625,51.661,10.733,52.159,10.733,52.757z"/>
	<path fill="#3737ff" d="M3.076,55.172h7.046c0.387,0.764,0.591,1.62,0.61,2.567c0.01,0.938-0.205,1.723-0.647,2.356
		c-0.438,0.634-1.112,0.95-2.022,0.95H3.076v-1.581h4.973c0.396-0.02,0.693-0.188,0.891-0.507c0.198-0.32,0.298-0.691,0.298-1.117
		c0-0.436-0.088-0.792-0.261-1.072h-5.9V55.172z"/>
	<path fill="#3737ff" d="M7.338,67.02h0.87c0.348,0,0.622-0.153,0.818-0.459c0.199-0.304,0.294-0.673,0.284-1.107
		c0-0.677-0.208-1.205-0.622-1.58l0.927-0.899c0.744,0.676,1.117,1.57,1.117,2.682c0,0.803-0.215,1.495-0.647,2.081
		c-0.431,0.584-1.041,0.876-1.834,0.876H3.437c-0.338-0.898-0.506-1.845-0.506-2.841c0-0.897,0.175-1.635,0.529-2.204
		c0.352-0.571,0.939-0.855,1.761-0.855c0.773,0,1.369,0.273,1.784,0.819s0.623,1.201,0.623,1.966
		C7.628,66.066,7.531,66.573,7.338,67.02z M4.424,67.02h1.667c0.175-0.388,0.262-0.818,0.262-1.291c0-0.455-0.103-0.811-0.305-1.066
		c-0.203-0.256-0.474-0.384-0.812-0.384c-0.33,0-0.573,0.132-0.733,0.399c-0.159,0.266-0.238,0.596-0.238,0.992
		C4.265,66.144,4.317,66.593,4.424,67.02z"/>
	<path fill="#3737ff" d="M1.51,70.462l0.913,0.958c-0.28,0.202-0.498,0.475-0.653,0.818c-0.154,0.344-0.23,0.699-0.23,1.066
		c0,0.425,0.132,0.769,0.398,1.028c0.266,0.262,0.688,0.392,1.268,0.392c-0.183-0.426-0.274-0.884-0.274-1.376
		c0-0.803,0.234-1.497,0.702-2.08c0.469-0.588,1.104-0.879,1.907-0.879h2.552c0.861,0,1.515,0.303,1.956,0.914
		c0.446,0.608,0.675,1.357,0.685,2.247c0,1.054-0.275,1.952-0.827,2.697H2.931c-0.898,0-1.583-0.285-2.053-0.855
		c-0.469-0.571-0.703-1.262-0.703-2.074c0-0.589,0.114-1.143,0.341-1.659C0.743,71.141,1.073,70.742,1.51,70.462z M4.685,74.667
		h4.278c0.2-0.289,0.304-0.686,0.304-1.188c0-0.416-0.104-0.77-0.304-1.058c-0.203-0.292-0.493-0.436-0.871-0.436H5.525
		c-0.367,0.019-0.653,0.171-0.861,0.457c-0.208,0.285-0.312,0.624-0.312,1.021C4.352,73.958,4.463,74.358,4.685,74.667z"/>
	<path fill="#3737ff" d="M5.237,82.431l-0.77,1.335c-0.492-0.28-0.873-0.669-1.138-1.166c-0.266-0.499-0.398-1.009-0.398-1.531
		c0-0.804,0.227-1.497,0.681-2.087c0.455-0.59,1.088-0.885,1.899-0.885H8.15c0.823,0,1.459,0.292,1.906,0.878
		c0.451,0.584,0.677,1.282,0.677,2.094c0,0.792-0.226,1.479-0.677,2.059c-0.447,0.582-1.083,0.871-1.906,0.871H6.091v-4.294H5.571
		c-0.33,0-0.593,0.135-0.791,0.4c-0.198,0.265-0.298,0.578-0.298,0.936C4.482,81.725,4.734,82.191,5.237,82.431z M7.41,82.461h0.71
		c0.33,0,0.587-0.137,0.778-0.407c0.187-0.271,0.28-0.594,0.28-0.97c0-0.387-0.094-0.717-0.28-0.986
		c-0.191-0.271-0.458-0.402-0.807-0.394H7.41V82.461z"/>
</g>
</svg>
