<?xml version="1.0" encoding="utf-8"?>
<!-- Generator: Adobe Illustrator 24.3.0, SVG Export Plug-In . SVG Version: 6.00 Build 0)  -->
<svg version="1.1" id="Layer_1" xmlns="http://www.w3.org/2000/svg" xmlns:xlink="http://www.w3.org/1999/xlink" x="0px" y="0px"
	 viewBox="0 0 258.8 228.7" style="enable-background:new 0 0 258.8 228.7;" xml:space="preserve">
<style type="text/css">
	.st0{fill:#ffffff;}
</style>
<g>
	<path class="st0" d="M23.6,37.6c13.2,0,23.6,10,23.6,23.3c0,13.2-10.3,23.6-23.6,23.6C10.3,84.5,0,74.1,0,60.9
		C0,47.6,10.3,37.6,23.6,37.6z M23.6,162.3c13.2,0,23.6,10,23.6,23.6c0,13.2-10.3,23.3-23.6,23.3c-13.2,0-23.6-10-23.6-23.3
		C0,172.3,10.3,162.3,23.6,162.3z"/>
	<path class="st0" d="M173.2,0c44.6,0,85.6,22,85.6,72V158c0,49.7-41,70.7-85.6,70.7H91.1L91.1,0L173.2,0z M173.2,191.3
		c25.5,0,48.2-9.4,48.2-33.3V72c0-24.2-22.6-34.6-48.2-34.6l-44.9,0l0,153.8H173.2z"/>
</g>
</svg>
